<?xml version="1.0" encoding="UTF-8"?>
<svg id="Capa_5" data-name="Capa 5" xmlns="http://www.w3.org/2000/svg" xmlns:xlink="http://www.w3.org/1999/xlink" viewBox="0 0 850.39 480.67">
  <defs>
    <style>
      .cls-1, .cls-2, .cls-3 {
        stroke-width: 0px;
      }

      .cls-2, .cls-4 {
        fill: #1a171b;
      }

      .cls-3 {
        fill: none;
      }

      .cls-5 {
        clip-path: url(#clippath);
      }

      .cls-4 {
        font-family: Condenser-Regular, Condenser;
        font-size: 100.92px;
        letter-spacing: .1em;
      }
    </style>
    <clipPath id="clippath">
      <path class="cls-3" d="m331.82,167.94c0,26.98-8.74,51.93-23.55,72.15H110.89c-14.81-20.22-23.55-45.16-23.55-72.15,0-67.51,54.73-122.24,122.24-122.24s122.24,54.73,122.24,122.24Z"/>
    </clipPath>
  </defs>
  <g>
    <g>
      <path class="cls-2" d="m127.29,259.79c14.99-.33,18.94,12.24,16.53,25.07-1.14,10.58-2.27,21.16-3.41,31.74-7.12.52-10.67.8-17.79,1.35,1.19-10.83,2.39-21.67,3.58-32.5.53-4.83,1.37-9.07-.76-9.03-1.51.03-2.26.05-3.76.09-2.13.05-2.23,4.32-2.77,9.2-1.22,10.94-2.43,21.88-3.65,32.83-3.21,21.27,22.86,27.62,19.64,49.36-1.14,10.62-2.28,21.24-3.42,31.86-1.2,14.78-7.71,26.08-22.89,29.29-1.57.35-2.36.52-3.93.88-16.35,6.73-18.73-10.55-17.15-21.78,1.28-11.26,2.55-22.51,3.83-33.77,7.21-1.15,10.81-1.71,18.03-2.8-1.22,10.98-2.44,21.96-3.66,32.94-.53,4.76-1.41,9.24.81,8.79,1.56-.32,2.35-.48,3.91-.79,2.22-.45,2.31-4.72,2.83-9.43,1.2-10.87,2.4-21.74,3.59-32.62,1.87-19.12-22.1-28.97-19.34-50.47,1.27-11.22,2.54-22.43,3.81-33.65.9-13.38,6.45-27.31,22.24-26.58h3.74Z"/>
      <path class="cls-2" d="m179.66,259.79h8.74c-1.77,51.56-3.4,103.12-4.85,154.68-7.4,1.24-11.09,1.88-18.48,3.22.23-7.96.34-11.94.58-19.92-3.56.57-5.34.86-8.9,1.45-1.41,8.25-2.12,12.39-3.54,20.67-7.38,1.4-11.06,2.12-18.42,3.61,1.86-11.03,3.71-22.07,5.57-33.1.17-1.64.26-2.46.43-4.1.1-.02.16-.02.26-.04,7.08-42.15,14.12-84.3,21.14-126.46h17.48Zm-20.27,123.67c2.76-.41,4.14-.61,6.9-1,.6-17.39,1.21-34.77,1.84-52.16-2.91,17.72-5.82,35.44-8.74,53.16Z"/>
      <path class="cls-2" d="m224.66,259.79c1.14,14.36,2.32,28.71,3.53,43.07,1.24-14.36,2.47-28.71,3.71-43.07h17.48c-3.92,48.89-7.84,97.77-11.77,146.66-7.43.96-11.14,1.47-18.56,2.52-1.32-14.09-2.6-28.18-3.85-42.28-1.28,14.46-2.56,28.93-3.84,43.39-7.41,1.1-11.12,1.67-18.52,2.86,4.78-51.05,9.55-102.1,14.33-153.15h17.48Z"/>
      <path class="cls-2" d="m300.37,259.79c-.33,5.53-.5,8.3-.83,13.83-4.98.05-7.46.07-12.44.12l-8.39,127.98c-7.45.75-11.17,1.15-18.61,1.99,3.13-43.26,6.27-86.52,9.4-129.77-4.97.06-7.46.09-12.44.15.44-5.72.66-8.58,1.1-14.3h42.2Z"/>
      <path class="cls-2" d="m327.89,259.79h8.74c1.32,45.67,2.85,91.33,4.59,136.99-7.47.43-11.2.67-18.66,1.19-.25-7.01-.37-10.52-.61-17.54-3.59.23-5.39.34-8.98.59-.95,7.13-1.43,10.7-2.39,17.85-7.46.59-11.18.9-18.64,1.59,1.27-9.43,2.54-18.87,3.8-28.31.08-1.41.13-2.12.21-3.53.11,0,.16-.01.26-.02,4.83-36.26,9.56-72.53,14.2-108.81h17.48Zm-13.17,107.6c2.78-.17,4.18-.25,6.96-.41-.43-15.24-.85-30.47-1.24-45.71-1.89,15.37-3.8,30.75-5.72,46.12Z"/>
      <path class="cls-2" d="m389.53,259.79h4.12c21.79-1.33,20.86,15.33,20.42,32.01-.02,3.98-.03,5.97-.06,9.95-.06,10.7.29,18.4-1.68,23.57,4.23,4.86,3.55,13.69,3.49,27.21-.02,4.06-.03,6.08-.05,10.14.31,17.99.5,33.14-22.04,32.32v-.28c-2.66.06-4,.09-6.67.16-7.47.19-11.21.32-18.68.61l1.65-61.22.36-13.25c.43-15.96.86-31.92,1.29-47.88.14-5.34.22-8,.36-13.34h17.48Zm-1.11,60.94c1.7-.02,2.55-.03,4.25-.05,4.12-.04,3.27-12.17,3.49-18.85,0-.34,0-.51.01-.85.05-3.65.08-5.47.13-9.12-.03-6.77,1.15-18.82-2.87-18.81-1.66,0-2.49,0-4.15.01-.29,15.89-.58,31.77-.87,47.66Zm4.04,13.13c-1.71.02-2.57.03-4.28.06-.29,15.92-.58,31.84-.87,47.76,3.02-.07,4.53-.1,7.56-.16,3.08-1.85,2.29-12.45,2.51-18.66.06-4.06.08-6.09.14-10.16-.04-6.77,1.16-18.91-2.85-18.87-.78,0-1.42.02-2.2.03Z"/>
      <path class="cls-2" d="m455.9,259.79h8.74c4.27,45.2,8.74,90.37,13.4,135.53-7.47-.27-11.21-.38-18.68-.56-.7-6.9-1.05-10.35-1.74-17.25-3.6-.07-5.4-.1-9-.15-.5,6.87-.76,10.31-1.27,17.18-7.47-.11-11.21-.15-18.69-.16.84-10.77,1.25-16.16,2.06-26.93,0-1.35,0-2.03,0-3.38.11,0,.16,0,.26,0,2.6-34.75,5.08-69.51,7.44-104.27h17.48Zm-6.38,104.42c2.79.04,4.18.06,6.97.11-1.4-14.91-2.79-29.81-4.15-44.72-.92,14.87-1.86,29.75-2.82,44.62Z"/>
      <path class="cls-2" d="m500.91,259.79h4.12c21.93-1.31,21.74,15.97,22.23,32.94.2,4.1.3,6.14.51,10.24.78,9.37,4.03,27.17-7.88,31.12,6.26,21.59,12.6,43.16,19,64.7-7.46-.58-11.19-.85-18.65-1.33-5.46-18.55-10.87-37.12-16.21-55.71.7,18.29,1.39,36.57,2.09,54.86-7.47-.41-11.2-.6-18.67-.91-.6-20.44-1.21-40.88-1.81-61.32-.16-5.31-.23-7.96-.39-13.27-.47-15.98-.94-31.97-1.42-47.95-.16-5.34-.24-8.02-.39-13.36h17.48Zm2.35,61.73c1.7.04,2.55.07,4.25.11,4.12.11,2.58-12.26,2.42-19.05-.01-.34-.02-.52-.04-.86-.15-3.71-.23-5.57-.39-9.29-.41-6.89.09-19.14-3.94-19.16-1.66-.01-2.49-.02-4.15-.02.61,16.09,1.22,32.18,1.84,48.28Z"/>
      <path class="cls-2" d="m558.51,259.79h4.12c22.11-.99,22.1,17.06,23.13,34.32.31,4.27.47,6.4.79,10.67.85,11.47,1.84,19.76.32,25.17,5.82,8.01,5.29,20.09,5.78,29.45.32,4.36.49,6.53.81,10.89,1.6,16.89,4.54,36.16-19.23,31.98,0-.12-.01-.18-.02-.3-2.66-.27-3.99-.41-6.65-.67-7.45-.73-11.17-1.07-18.63-1.7-1.19-21.03-2.38-42.06-3.56-63.09-.31-5.46-.46-8.19-.77-13.65-.93-16.45-1.86-32.89-2.79-49.34-.31-5.5-.47-8.25-.78-13.75h17.48Zm4.08,63.85c1.7.08,2.54.12,4.24.2,4.11.19,2.23-12.65,1.88-19.69-.02-.36-.04-.54-.06-.89-.26-3.85-.39-5.78-.64-9.63-.6-7.15-.45-19.84-4.47-19.88-1.66-.02-2.49-.03-4.15-.04,1.06,16.65,2.13,33.29,3.19,49.94Zm5.15,14.06c-1.71-.1-2.56-.15-4.27-.24,1.07,16.68,2.13,33.36,3.2,50.04,3.01.27,4.52.41,7.53.69,2.91-1.6,1.23-12.92.91-19.47-.29-4.29-.44-6.44-.73-10.73-.61-7.17-.45-19.93-4.45-20.16-.78-.04-1.42-.08-2.2-.13Z"/>
      <path class="cls-2" d="m618.49,259.79h8.74c7.88,50.73,15.88,101.45,23.96,152.15-7.41-1.16-11.11-1.71-18.53-2.78-1.24-7.71-1.86-11.56-3.1-19.24-3.58-.45-5.37-.67-8.94-1.09.05,7.48.07,11.22.11,18.68-7.42-1-11.14-1.48-18.57-2.39-.03-9.63-.08-19.25-.13-28.88-.11-1.46-.17-2.19-.28-3.65.1.01.16.02.26.03-.22-37.61-.56-75.21-1-112.82h17.48Zm1.98,114.7c2.77.3,4.16.45,6.93.76-2.58-16.53-5.14-33.06-7.7-49.59.28,16.28.53,32.55.77,48.83Z"/>
      <path class="cls-2" d="m663.5,259.79h4.12c23.22-1.09,23,20.9,24.61,38.43.5,4.78.75,7.17,1.25,11.95,1.02,9.53,6.82,30.83-5.55,35.75,7.85,25.57,15.67,51.15,23.48,76.73-7.36-1.47-11.05-2.18-18.43-3.56-6.72-21.8-13.45-43.6-20.19-65.4,2.07,20.95,4.14,41.91,6.22,62.86-7.39-1.3-11.09-1.93-18.49-3.14-2.18-23.11-4.36-46.21-6.54-69.32-.57-6-.85-9-1.42-15-1.7-18.07-3.41-36.14-5.11-54.21l-1.43-15.11h17.48Zm6.99,70.73c1.69.14,2.54.21,4.23.35,4.1.34,1.64-13.96.98-21.79-.04-.4-.06-.6-.1-.99-.43-4.28-.65-6.42-1.08-10.7-.93-7.95-1.34-22.04-5.36-22.11-1.66-.03-2.49-.05-4.14-.08,1.82,18.44,3.65,36.88,5.47,55.32Z"/>
      <path class="cls-2" d="m727.34,259.79h8.74c9.92,58.28,19.85,116.55,29.79,174.82-7.32-1.75-10.98-2.61-18.32-4.26-1.54-8.84-2.31-13.25-3.85-22.05-3.54-.7-5.31-1.04-8.86-1.72.37,8.48.55,12.71.92,21.16-7.35-1.6-11.02-2.37-18.38-3.87-.47-10.83-.94-21.66-1.42-32.49-.18-1.65-.27-2.48-.44-4.13.1.02.16.03.26.04-1.89-42.5-3.87-84.99-5.91-127.49h17.48Zm6.74,130.53c2.75.47,4.12.71,6.87,1.19-3.23-18.89-6.46-37.78-9.69-56.67.95,18.49,1.89,36.98,2.82,55.48Z"/>
    </g>
    <text class="cls-4" transform="translate(300.91 221.99) scale(1.4 1)"><tspan x="0" y="0">CARNES</tspan></text>
  </g>
  <g class="cls-5">
    <g>
      <path class="cls-1" d="m238.12,253.01c-1.42,1.36-2.81,2.76-4.23,4.12-.24.23-.52.6-.99.27-.04-.78.62-1.13,1.06-1.59,1.04-1.1,2.12-2.16,3.16-3.27.32-.34.52-.77.07-1.18-.54-.22-.88.12-1.2.42-1.22,1.14-2.43,2.28-3.63,3.43-.86.83-1.81,1.48-3.11,1.75.48-1.43.49-1.43,1.58-2.5,1.4-1.39,2.8-2.77,4.16-4.19.38-.4.92-.87.36-1.68-1.15.31-2.18.87-3.09,1.64-.83.71-1.84,1.03-2.76,1.55-.4.23-.91.18-1.04-.65,1.82-.71,2.8-2.58,4.49-3.37.32-.68.66-1.22.02-1.82-.27.02-.57.06-.86.05-.8-.03-1.33.71-2.03.73-.4-.07-.67-.17-.76-.65.76-.95,2.43-.88,3.07-2.2-.82-.36-1.43.39-2.12.07-.76-.39-1.41-.86-1.43-1.48.09-1.16,1.24-.96,1.34-1.75-.49-.46-1.23.17-1.61-.33-.36-.43-.13-1.02-.81-1.38-.46-.05-1.14-.1-1.81-.18-.38-.05-.76-.14-.67-.76,1.11-.65,2.84,0,3.69-1.46-.75-.5-1.78.1-2.34-.85.46-.93,1.55-.4,2.18-.92.26-.57.53-1.16.85-1.87-1.5-.19-2.82-.19-4.12.41-.81.37-1.68.64-2.62-.28,1.09-.63,1.99-1.26,3.12-1.44.47-.07.89-.24.88-.81-.36-1-1.64-.28-2.12-1.25.08-.6.53-.97,1.13-1.15.43-.13.89-.16,1.33-.26.53-.12,1.02-.29,1.01-1.07-.79-.22-1.39.51-2.15.44-.75-.07-1.51-.02-2.43-.02-.85,1.11-2.1.6-3.27.65-.85-.73-1.7-1.35-2.82-1.46-.36-.04-.72-.26-.59-.93,1.14-.52,2.41-.2,3.57-.25q1.5.83,2.64.75c1.5-2.06,2.95-4.05,4.18-5.75,1.42-.53,2.69.02,3.57-.96.59-.77-.38-1.64.19-2.46,1.35-.56,1.42,1.05,2.26,1.38.57.13,1.17.28,1.53-.35.14-.78-.79-1.21-.44-2.02.28-.48,1.01-.61,1.23-1.42,0-.06.06-.28.05-.5-.02-1.01-.78-1.8-.71-2.56-.54-.66-.92-1.12-1.23-1.5-2.6-.11-5.21.72-7.35-1.37-.47-1.05-.34-2.12.25-3.18.81-1.44,1.38-3.02,2.49-4.3.58-.67.74-1.44-.03-2.31-1.81.85-2.88,2.81-5.15,3.07-.8-.26-1.78-.59-2.61-.86-.4-.48-.4-.84-.19-1.23.76-.77,1.93-.19,2.76-.82,1.65-1.87,2.96-3.97,3.77-6.5-.32-.83-.62-1.75-.78-2.73-.07-.47-.42-.8-1.07-.59-.56,1.95-1.92,3.29-3.52,4.19-.92.19-1.45-.47-2.23-.44-2.12.77-4.09,2.05-6.37,2.72-2.7.79-5.4.72-8.06.19-1.26-.25-2.49-.52-3.78-.55-.75-.02-1.52.05-2.22-.29-1.48-1.09-2.66-2.45-3.59-3.85-.72-.25-1.19-.13-1.59.4-.27,1.01-.25,2.05.07,3.09.54.91,1.29,1.66,1.75,2.65.41.89,1.24,1.49,2.1,2.02,1.26.78,2.67.98,3.96,1.13.44.34.6.65.44,1.21-1.08,1.02-2.46.47-3.66.51q-2.8-1.42-4.18-4.01c-.28-.53-.59-1.06-.94-1.54-.22-.31-.55-.51-1.11-.32-.53.75-.42,1.68-.12,2.5.66,1.76,1.08,3.6,2.07,5.24.62,1.03,1.07,2.17,1.58,3.26.09.2.11.43.16.62-.22.68-.46,1.32-.92,1.85-.74.37-1.48.74-1.94.97-1.98.48-3.56-.06-5.02-.57-.52.4-.47.73-.09,1.19,2.03.42,4.44.44,5.57,2.62.13.93-.74,1.38-.45,2.22.35.27.76.58,1.14.87.12,1.01-1.08,1.84-.38,2.65,1.13,1.06,2-.14,2.81-.02.42.22.54.47.51.88-.11.6-.85,1.02-.78,1.78.07,1.18.62,2.2,1.28,3.1.73.98,1.25,2.06,1.88,3.09,1.35,2.18,2.71,4.35,4,6.55.64,1.09,1.49,2.11,1.44,3.58-1.17,2.15-1.09,4.42-.15,6.91-.2.61-.38,1.18-.54,1.68.24.89.6,1.68.64,2.48.09,1.93.77,3.67,1.39,5.45.37,1.07.93,2.11,1.06,3.21.19,1.59.8,3.06,1.09,4.62.32,1.77.95,3.49,1.7,5.14.18.39.46.58.95.5.12-.14.36-.29.39-.48.21-1.36.28-2.72-.3-4.01-.55-1.24-.81-2.57-1.25-3.84-.94-2.77-1.7-5.61-3.02-8.22-1.02-2.01-1.64-4.04-1.4-6.3.06-.6.02-1.21.05-1.82.01-.22.1-.44.17-.75.43-.41.7-1.1,1.63-1.22.96.18,1.49.93,1.91,1.89.97,2.23,2.68,3.91,4.28,5.88.9-.9.8-1.84.43-2.62-.5-1.07-.62-2.16-.66-3.3-.02-.44-.2-.88-.31-1.32-.47-1.88-.93-3.77-1.43-5.64-.43-1.59-.69-3.27-1.7-4.61-1.73-2.3-4.19-3.84-6.29-5.77-.87-.8-2.1-.76-3.02-1.08-1.58-1.06-1.02-2.88-1.9-3.94.32-.69.65-1.07,1.2-1.02.83.24.4,1.14.93,1.49.88-.8,1.98,0,2.76-.54.58.46.49,1.14,1.06,1.45.45.11.96.23,1,.24,2.85,1.69,4.59,3.82,6.07,6.44.38,2.71,1.17,5.55,2.14,8.3.58,1.64.8,3.36,1.37,5,.57,1.64,1.41,3.15,1.91,4.83.9,3.01,1.8,6.05,3.31,8.86.85,1.58,1.88,3.12,2.05,4.94,1.94,2.1,2.02,5.1,3.84,7.17.75.28,1.48.32,2.37-.11.33-.69.85-1.46,1.08-2.31.87-3.38,2.79-6.15,5.04-8.71,1.24-1.42,2.74-2.62,3.88-4.14.31-.41.73-.83.26-1.42-.85-.28-1.21.44-1.66.88Zm-18.65-28.49c-.05.09-.23.11-.35.16-.09-.1-.25-.19-.26-.29-.02-.25.16-.39.39-.34.23.05.34.26.21.47Zm2.12-6.92s-.07-.09-.11-.14c.09-.07.18-.13.27-.2.03.05.1.14.1.15-.08.07-.17.14-.26.19Zm-11.27.93c-.08-.08-.16-.16-.22-.25-.01-.02.08-.14.11-.14.12.03.22.08.33.13-.07.09-.14.17-.22.26Zm1.11,6.92c-.16-.03-.35-.07-.51-.1-.24-.4-.17-.71.11-1.14.33.14.45.2.58.26.17.35.23.68-.18.99Zm1.6-1.69c-.25-.01-.38-.19-.27-.42.04-.09.26-.16.36-.12.1.03.15.21.22.32-.1.08-.21.23-.31.23Zm1.05-7.42c-2.1-.17-4.23-.15-6.34,0-2.1.15-4.01-.5-5.95-1.05-.66-.19-1.24-.55-1.23-1.36.47-.63,1.12-.41,1.7-.44,1.51-.09,3-.1,4.45-.67.61-.24,1.34-.2,2.01-.2,1.89-.02,3.78,0,5.67-.01,1.57-.01,3.12.06,4.64-.67,1.06-.51,2.35-.26,3.75,0-.18,1.44-1.08,1.97-1.87,2.44-2.09,1.22-4.25,2.19-6.82,1.98Zm1.31,2.24c.92-1.07,2.01-1.13,3.95-.11-1.52.58-2.7.59-3.95.11Zm1.61,4.97c.02-.1.2-.23.3-.23.09,0,.18.17.28.26-.07.11-.12.3-.22.32-.26.06-.4-.1-.36-.35Zm8.41,11.27s.02.12.03.18c-.12.01-.23.03-.35.02-.02,0-.03-.12-.04-.19.12,0,.24-.02.36-.02Zm-.88,7.99c-.04.09-.22.14-.33.2-.09-.1-.24-.21-.24-.31.01-.27.21-.36.44-.24.09.05.17.26.14.35Zm.31-2.66c.67-.8,1.28-.7,2.24-.09-.9.71-1.49.71-2.24.09Zm1.78,7.02c0-.11,0-.23.04-.33,0-.03.16-.05.18-.03.06.1.1.21.15.32-.12.01-.24.03-.36.04Zm-.06-2.85c.76-.63,1.44-.58,2.22-.04q-1.06.88-2.22.04Z"/>
      <path class="cls-1" d="m169.81,120.66c1.15-1.09,2.87-1.47,3.9-2.64.83-.23,1.49-.28,2.07.2.63.77.16,1.82.75,2.69,1.28.7,2.65,1.44,3.94,2.15.79-.46,1.2-.95,1.28-1.76-.5-1.11-1.01-2.27-1.38-3.08-.07-1.21,1.17-1.07,1.12-1.99-1.01-1.09-2.68-1.23-3.69-2.15-.46-1.61,1.57-1.39,1.61-2.63-1.08-.98-1.85.81-2.76.38-.87-.11-.71-1.23-1.53-1.34-.73.07-1.26.87-2.12.59q-.92-.76-1.36-1.89.84-2.34.65-4.36c-.12-.72-1.13-.5-1.24-1.23.04-1.65,1.82-2.56,1.92-4.11-.31-.37-.57-.45-1.08-.28-2,2.47-5.06,4.01-7.31,6.48-.45.5-1.04.86-1.67,1.16-1.3.62-2.6,1.23-3.83,1.97-2.11,1.27-4.34,1.67-6.96,1.23-2.38-1.18-4.94-2.46-7.52-3.72-2.98-1.45-5.89-3.09-9.35-3.11-.29,0-.59-.13-.87-.25-1.76-.75-3.52-.74-5.28-.01-.65.27-1.32.29-2,.33-.53.03-1.1-.02-1.57.17-4.21,1.65-8.49,3.16-11.98,6.21-.28.24-.63.4-.97.55-3.3,1.45-5.23,4.21-6.89,7.23-.49.89-.71,1.81-.7,2.82.01,1.43-.06,2.86-.08,3.91-.45,1.2-1.55,1.6-1.38,2.77.94.56,1.9,1.14,2.9,1.74.22.63.44,1.26.63,1.83,1.8.92,2.81,2.61,4.47,3.45-.05.92-.76,1.72.06,2.52.8.28,1.49-.81,2.34-.25.62,1.36.63,1.36.14,2.48-.55,1.27-.93,2.59-1.3,4.05,1.71-.45,1.33-1.85,1.7-2.79.66-.95,1.3-1.87,1.93-2.77,1.4.27,1.76,1.77,2.99,2.17.57.08,1.04-.61,1.77-.32.41.21.79.57,1.02,1.02.32.84-.07,1.92.95,2.44.77.1,1.43-.64,2.34-.17.5.17.23,1.12.97,1.31.59.19,1.07-.56,1.85-.22.4.33.92.75,1.39,1.14,1.44.15,2.79.29,3.99.41.83.43.86,1.44,1.89,1.68,2.73-.3,5.66-.61,8.52.51.53-.23,1.08-.46,1.45-.62.92-.06,1.33.81,2.26.55.71-.66,1.53-1.42,2.2-2.03.83-.38,1.58-.23,2.41-.9.14-.12.1-.8.79-1.05h1.5c.26-.21.54-.45.87-.71.79-.05,1.64.02,2.46-.59.44-.21.34-1.1,1.16-1.2.82.16,1.68,1.14,2.72,0-.16-1.41,1.01-2.32,1.43-3.02.49-1.09-.61-1.43-.02-2.24,1.6.64,3.29,1.02,5.03.37-.11-.61-.4-.87-.75-1-2.43-.88-4.2-2.63-5.9-4.47-.92-1-1.9-1.95-2.87-2.91-.54-.53-1.05-1.1-2.1-1.43-.58-.35-1.28.58-2.22.4-.56-1.76.13-3.72-.8-5.56,1.35.68,2.51-.42,3.82-.15.54.71.72,1.69,1.75,2.32,1.06.31,2.24,1.02,3.2,1.07,1.63.73,1.31,2.32,2.3,3.16,1.22-.33,1.99-1.37,3.02-1.77.63-1.47-.02-2.98.52-4.35.02-.06.1-.11.16-.18.38-.33.88.08,1.37-.21Zm.53-14.72c.09-.02.21.11.33.18-.05.12-.06.31-.15.35-.23.11-.43,0-.44-.26,0-.09.16-.25.27-.27Zm-31.66,1.47c1.4.58,2.9,1.18,3.91,2.58.02,0,.04,0,.06,0,0,.02,0,.04.02.05,2.34.67,4.82,2.63,6.12,4.83-.11.25-.37.33-.53.21-1.43-1.09-2.86-2.2-4.26-3.32-.57-.46-1.12-.97-1.32-1.72-.02,0-.04-.01-.05-.02,0-.01-.02-.02-.03-.04-1.83.08-3.1-1.18-4.57-1.78-.01-.52.19-.7.66-.8Zm5.81,12.72c-.04.05-.07.13-.12.14-.17.04-.26-.05-.24-.21,0-.06.07-.11.11-.16.09.08.17.15.26.23Zm-7.59-13.18c-.92.97-1.67.69-2.95.28,1.29-.98,2.02-.85,2.95-.28Zm-9.52-.13c-.88,1.12-1.59.78-2.56.46.87-1.12,1.58-.79,2.56-.46Zm24.17,27.51c-.96,1.35-2.32,2.26-3.86,2.64-2.62.65-5.24,1.44-8.01,1.06-.75-.1-1.49-.1-2.2-.44-.46-.22-1.01-.36-1.52-.38-2.16-.06-4.09-.9-6.04-1.7-2.51-1.02-4.99-2.08-7.42-3.32-3.11-1.58-5.86-3.68-8.81-5.5-2.09-1.29-3.81-2.95-5.37-4.72-.4-.9-.37-1.86-.92-2.63,1.31-3.79,3.73-6.5,7.24-8.35,2.54-1.33,5.31-2.13,7.85-3.45.42-.22.87-.17,1.18.21.18.63-.27.88-.57,1.19-1.27,1.29-2.57,2.57-3.84,3.86-.47.47-1.01.92-1.02,1.73,1.45,1.29,2.23-.59,3.57-.81-.23,1.84-.48,3.53-1.11,5.26.99.02,1.2-.71,1.53-1,.41-.85-.33-1.48.11-2.33,1.08-.57,2.03-2.11,3.94-.92-.94,1.87-2.56,3.21-3.29,5.08.43.42.75.1,1.01-.13,1.02-.89,2.03-1.76,2.57-3.1.55-1.35,1.88-2.12,2.69-3.15,1.32-.31,1.6.84,2.33,1.38,1.19.21,2.32.86,3.64.71.47,1.83-1.56,2.22-1.77,3.56,1.16,1.01,2.2-1.25,3.3-.04.16.67-.45.89-.76,1.28-.27.33-.74.57-.52,1.2,1.52.06,2.45-1.26,3.65-1.75.75.6-.3,1.24.39,1.85,1.04.31,1.5-1,2.69-1.16.07,0,.35.07.59.34.27,1.56-2.1,2.51-1.11,4.23,1.39,1.08,3.21-.09,4.66,1.01-.85,1.04-2.36.78-3.25,1.98,2.22.27,3.89-1.02,5.7-1.24.5.6-.23,1.08,0,1.52.39.83,1.35.31,1.84.94.01.16.1.4.04.59-.43,1.29-1.42,2.28-2.08,3.54,1.17.57,1.87-.45,2.8-.6.69.45.53,1,.16,1.53Zm7.86,1.27c.05.07.02.3-.06.36-.26.22-.49.15-.7-.26.31-.33.55-.39.76-.1Zm10.27-27.01q.24,1.38-1.3,1.8c-.14-1.23.38-1.65,1.3-1.8Zm-1.02,6.48c-.89-1.2-.89-1.67.01-2.95.85,1.02.85,1.51-.01,2.95Z"/>
      <path class="cls-1" d="m174.18,89.48v2.36c-1.13,1-1.77,2.25-2.29,3.62.27.36.5.65.72.96.26.36.2.9.65,1.16.52.22,1.07.25,1.54-.03,1.7-1.06,3.7-1.62,5.21-3.02-.46-1-1.19-.83-1.77-.52-1,.52-2.07.91-2.9,1.75-.41.41-.93.82-1.59.38-.31-.79.25-1.27.74-1.46,1.84-.69,3.29-2.6,5.61-1.89.93.67,1.81,1.37,2.86,1.85,1.94.89,3.66.75,5.21-.77.49-.48.98-.95,1.49-1.4.28-.25.6-.49,1-.03-.47,1.75-1.63,2.98-3.15,3.92-1.07.66-2.18,1.3-2.57,2.7.34.13.57.32.73.27,1.8-.56,3.6-1.08,5.36-1.75,1.57-.6,2.98-1.5,3.99-2.9.75-1.04,1.48-2.11,1.74-3.4.19-.93.55-1.67,1.59-1.87,1.74,4.22,2.86,5.51,5.18,6.05.48-.7.1-1.27-.24-1.87-.47-.82-.63-1.65.16-2.5,1.74.76,1.61,2.76,2.99,3.89,2.32.51,2.2-1.73,2.83-2.88.58-.41.99-.4,1.36-.05.97,1.35-1.45,2.6-.02,4.09,1.72-1.3,1.92-3.54,3.22-4.99.41-.19.76-.17,1.29.3.11,1.23.71,2.5,1.6,3.5.51.21.85.23,1.21-.3-.8-1.89-1.47-3.92-1.6-5.99.46-.43.8-.36,1.05-.2,1.17.98.28,2.66,1.37,3.48.61.33,1.1-.33,1.62,0,.9.66,1.01,1.62,1.07,2.62.04.74.09,1.52,1.09,1.77.72-.77.06-1.87.73-2.57.05-.05.12-.09.19-.14.38-.15.73-.09,1.06.18.75.86.97,2.23,2.59,2.59.07-1.91-1.34-3.4-1.24-5.34,1.02.42,1.53,1.07,1.69,2.03.13.73.27,1.47,1.14,1.77.68-1.47-.26-3.08.66-4.54.97.57,1.18,1.49,1.55,2.26.42.86.8,1.7,1.88,1.89.23-2.12-1.71-3.68-1.14-5.33.61-.8,1.18-.14,1.53-.67.14-.83-1.33-1.43-.44-2.37.72-.49,1.44.81,2.13-.12.08-.92-.66-1.27-1.3-1.63-.85-.48-1.77-.85-2.63-1.33-.45-.25-.91-.59-.74-1.3.89-.84,1.65.33,2.68.17.5-.21,1.16-.5,1.82-.78-.23-.48-.56-.48-.83-.45-1.47.2-2.69-.54-3.79-1.26-2.59-1.68-5.11-3.48-7.76-5.07-.44-.26-.9-.61-.68-1.38,1.59-.98,3.83.52,5.36-1-.23-.58-.56-.7-.97-.71-1.51-.05-3.02-.09-4.54-.14-.68-.02-1.33-.06-1.99-.34-2.39-1.02-4.88-1.56-7.49-1.41-.91.05-1.82.13-2.72.06-2.77-.2-5.42.15-7.86,1.58-.06.03-.15,0-.28,0-.98-.18-1.48-1.23-2.67-1.56-1.28-.12-2.78-.22-4.09.06-.82.37-.86,1.29-2.12,1.59h-3.88c-1.28.8-2.68,1.11-3.37,2.46-.96,1.88-2.65,2.57-4.63,2.76-.46.04-1-.1-1.41.37.76.59,1.82.09,2.27.83.19.42.17.71-.11,1.06-.46.52-1.42.22-2.2,1.16-.56.86-1.31,2.09-2.15,3.25-.62.85-1.29,1.69-2.34,2.09-.87.33-1.64.88-2.12,1.65-.5.8-1.63.52-2.22,1.38,1.5.43,3.19-.34,4.12,1.4Zm51.26.64c-1.04-.14-1.47-.59-1.63-1.62,1.08.1,1.51.55,1.63,1.62Zm-4.96-3.11q1.46-.5,2.19.93c-.22.25-.52.21-.81.2-.43,0-.86,0-1.25,0-.35-.58-.26-.86-.13-1.13Zm-7.54-1.37c-.06-.1-.13-.21-.17-.32,0-.02.12-.13.14-.12.1.05.19.13.29.2-.09.08-.18.16-.26.23Zm4.11-10.81c.03-.09.23-.12.35-.18.08.11.24.22.23.32-.02.26-.22.38-.45.24-.09-.05-.17-.27-.13-.37Zm1.51,6.34c-2.98-1.02-4.66-2.86-5.62-5.45,2.68.83,4.54,2.46,5.62,5.45Zm-2.68-7.21c-.14.59-.56.63-1.03.51-.21-.06-.41-.18-.61-.28-1.54-.79-3.09-1.5-4.89-1.34-.3.03-.58-.11-.88-.55,2.52-1.24,5.54-.53,7.4,1.66Zm-6.25,3.93c1.47,1.35,2.85,2.77,2.95,5.1-1.3-.03-1.48-.98-2.22-1.4-.59.52-.26,1.21-.31,1.82-.09,1,.33,2.07-.28,2.96-.66.09-.82-.28-.83-.65-.04-1.06-.17-2.07-.7-3.03-.2-.36-.16-.88-.19-1.32-.07-1.33.12-2.7-.73-3.86,1.13-.83,1.73-.14,2.31.4Zm-8.47,4.78c-.04-.97.08-.98,1.47-2.07,1.2,2.32-.24,3.98-.79,6.1-1.2-1.41-.63-2.78-.68-4.02Zm-15.78,8.83c-.03.1-.21.15-.32.22-.08-.1-.23-.21-.23-.31,0-.25.19-.38.42-.27.09.04.16.26.13.36Zm5.21-6.79c-1.43,1.59-2.47,3.47-3.5,5.22-.59-.09-.7-.35-.8-.85.6-1.19,1.27-2.51,1.94-3.83.7-.47,1.35-.94,2.37-1.23,0,.42.06.62,0,.69Zm-.86-8.21c-.11.83-.55,1.17-1.28,1.36q.1-.9,1.28-1.36Zm-2.23,1.57c-.42,1.05-.84,1.49-1.84,1.4.22-.92.65-1.32,1.84-1.4Zm-.69,5.27c.1-.93-.97-.79-1.02-1.46.23-.77,3.24-.88,4.96-.07-2.11,1.14-3.24,3.53-5.93,3.81.17-1.41,1.6-1.47,2-2.27Zm-3.55-.61c.37-.54.73-.65,1.28-.04-.5.68-.87.64-1.28.04Zm1.22-2.74c-.17.59-.48.76-1.04.37-.03-.14-.05-.27-.08-.41.34-.41.7-.45,1.12.04Zm-.76-2.55c-.52.73-.92.69-1.4.12.35-.65.75-.67,1.4-.12Z"/>
      <path class="cls-1" d="m245.95,132.64c.08-.12.21-.23.24-.36.41-1.99-.69-3.66-1.2-5.44-.14-.48-.67-.81-1.45-.74-1.44.67-2.19,2.56-4.04,2.84-1.05,1.75-2.16,3.37-3.03,5.12-.52,1.04-1.14,1.94-1.92,2.77-4.09,4.35-5.94,9.7-6.87,15.45-.07.44-.11.97.07,1.35.62,1.29.48,2.66.56,4.01.08,1.44.15,2.87.23,4.3.04.69.2,1.3,1.18,1.61-.06-1.31.69-2.27.84-3.36.17-1.19.08-2.42.11-3.63,0-.22.05-.45.12-.67.08-.23.28-.32.57-.32.64.22.37,1.36,1.53,1.37.5-.2.94-1.25,2.06-.72,1.01,1.06-.5,2-.26,3.49.73,1.36.99,3.18-.02,4.9.89,3.08.88,4.07-.08,5.16-.6-.51-.75-1.3-1.14-1.91-.38-.79.25-1.87-.83-2.56-.83.61-1.92.61-2.81.9-.43.69-.51,1.23-.15,1.56.74.59,1.3-.49,1.85.16.04.7-.46,1.3-.41,1.52.61,2.78,2.1,4.92,1.42,7.14-.6.99-1.72.5-2.04,1.4-.11,1.18,1.87,1.77.99,3.13-.49.51-1.06.35-1.56.46-.24.05-.4.2-.48.43-.21.63.56,1.09.23,1.94-.12.43-1.13.11-1.24.93.17.85.92,1.31,1.5,1.88,1.39,1.35,2.33,2.89,2.82,4.8.42,1.67,1.15,3.26,1.75,4.88.14.38.36.66,1.03.36-.36-.72-.07-1.54-.26-2.29-.38-.53-.73-1.02-.99-1.4-.42-2.57.45-4.74,1.34-6.9.48-1.18,1-2.31,1.22-3.62.24-1.46.6-2.95,1.06-4.35.44-1.34.58-2.64.58-4,0-4.01,0-8.03,0-12.04,0-.68-.11-1.48.19-2.01.74-1.28.64-2.62.68-3.97.01-.38-.01-.78.12-1.12.86-2.17,1.67-4.35,1.69-6.73,0-.36.19-.73.36-1.06.71-1.35.36-2.75.54-4.64-.84.96-1.32,1.51-1.83,2.09-.35.1-.7.22-1.06.31-.37.1-.75.16-.95.66-.19.74.8,1.43.08,2.68-.19.14-.73.55-1.09.83-.35,1.73-.63,3.2-1.75,4.39-1.6-.78-1.57-2.37-2.18-3.6,1.34-2.68.59-5.54.93-8.55,1.89.46,3.25-.47,4.53-1.57.11-.1.25-.18.39-.23,1.6-.68,2.64-1.96,3.55-3.17.47-1.6-.45-3.47,1.21-4.33.97-.34,1.27.81,2.06.49Zm-11.84,7c-.53-.84-.16-1.29.79-1.73q.41,1.29-.79,1.73Z"/>
      <path class="cls-1" d="m182.12,160.53s0,.03,0,.05c.01,0,.03,0,.04,0l-.04-.04Z"/>
      <path class="cls-1" d="m192.49,187.77c.5-.59,1.26-1.06,1.22-2.04-.92-.05-1.55.34-2.1.87-.6.58-1.16,1.18-1.53,1.95-.31.66-.66,1.34-1.36,1.49-.55-.21-.33-.84-.92-.88-1.18,1.16-1.79,2.76-2.67,4.35-.78-.81-.71-1.59-.37-2.24.67-1.26.7-2.61.79-3.88-.13-.71-.92-.92-.95-1.72-.55-1.28,1.34-2.24.81-3.65-1.29-.1-2.06,1.18-3.19.93-.94-1.29,1.09-1.75.64-3-1.3.57-2.56,1.01-3.86.97-1.05-.57-1.51-1.34-1.22-2.57.71-1.08,1.75-1.97,2.68-2.95.24-.26.58-.54.09-1.02-1.49.63-2.71,1.88-4.69,2.71.83-1.61,1.93-2.33,2.75-3.28.78-.91,2-1.51,2.38-3.15-1.83.75-2.95,2.17-4.79,2.68.24-.92.46-1.54.86-2.1,1.37-1.07,3.16-1.79,3.3-3.62-.66-1.22-2-.27-2.51-1.44.66-1.19,1.82-1.96,2.73-2.94.72-.78,1.42-1.54,1.54-2.65-.35.08-.7.16-1.08.25-1.2,1.86-2.54,3.53-4.85,3.87-.53-.57-.26-.95.03-1.37.88-.5,1.85-.95,2.52-1.82.15-.19.19-.4,0-.6-.57-.27-1.05.76-1.71.06.2-1.06,1.58-1.41,1.66-2.64-.69-.61-1.52-.9-2.43-1.03-.44-.07-.92-.13-1.02-.84.45-1.2,2.34-1.59,2.28-3.2-1.4-1.25-2.53,1.08-3.79.18-.23-.59.11-.95.31-1.34.29-.58.27-1.21.05-1.77-.56-1.39-1.52-2.49-2.49-3.52-.58.25-.68.6-.68.99,0,1.06-.06,2.13.05,3.18.29,2.92-.25,5.91.78,8.77-.35,1.8.04,3.6.04,5.4,0,2.34,0,4.69.06,7.04.09,3.7.61,7.32,1.61,10.9,1.07,3.83,2.84,7.27,5.03,10.54,2.06,3.06,4.76,5.65,6.61,8.87.16.27.5.31.99.14,1.04-4.52,3.13-8.77,5.17-13.53.19-.2.73-.73,1.22-1.31Zm-16.02-28.71c.01.11.03.22.02.32,0,.01-.11.02-.17.03,0-.11-.03-.21-.02-.32,0-.01.11-.02.17-.03Z"/>
      <path class="cls-1" d="m266.12,174.42c-.68-2.54-1.48-5.04-1.7-7.69-.02-.22-.09-.46-.21-.64-.46-.75-.54-1.58-.49-2.41.09-1.4-.19-2.7-.99-3.7.32-3.89.28-4.26-.56-5.26-1.01.44-.19,1.81-1.12,2.26-.9.13-.58-1.1-1.24-1.26-.61.98.35,2.2-.64,2.99-1.26-.63-.18-2.2-1.34-2.76-.79.35-.66,1.01-.45,1.54.79,1.97.49,4.03.58,6.06.02.46-.04.92-.59,1.09-.32-.08-.56-.29-.58-.61-.12-1.95-.54-3.86-.82-5.78-.41-2.79-1.67-5.27-2.02-7.93-.87-.42-1.26.79-2.06.27-.63-.38.03-1.53-.92-1.83-.63.16-.62.62-.46,1.07.57,1.53.46,3.13.59,4.71.04.55.1,1.24-1.03,1.56-.27-2.03-1.06-3.88-1.35-5.96-.83.44-.83,1.52-1.8,1.52-.71-.3-.59-.97-.6-1.54-.03-1.67,0-3.33-.03-5,0-.41.12-.95-.49-1.12-.13.07-.3.11-.38.22-.14.18-.28.38-.32.59-.45,3.02-.58,6.09.13,9.03.84,3.51,1.49,7.05,2.38,10.55.23.91.38,1.81,1.26,2.53.46-3.08-.5-5.77-1.15-8.44-.39-1.58-.6-3.08-.57-4.66,0-.38.14-.74,1.01-.77.09,2.18.75,4.29,1.18,6.48.44,2.21.58,4.47,1.25,6.64.01.54-.53.94-.32,1.62.87,1.15.78,2.64.83,4.05.04,1.15.1,2.25.56,3.31.05.12-.02.3-.03.45-.11.68-1.12.87-.95,1.72.39.46.82.84,1.73.7.06-3.1.09-6.18-.13-9.26-.02-.29-.11-.61-.25-.87-.46-.83-.47-1.74-.49-2.65-.04-1.5-.04-2.96-.69-4.43-.46-1.05-.53-2.42.22-3.54.51.15.61.41.71.71.4,1.21.55,2.48.76,3.73.48,2.82,1.28,5.59,1.19,8.49-.01.37.03.78.19,1.11.53,1.15.47,2.36.47,3.57.02,5.07.02,10.15.07,15.22.01,1.66-.08,3.33.66,4.91.15.32.16.75.12,1.12-.27,2.48.73,4.76,1.2,7.11.3,1.54,1.02,2.99,1.6,4.47.16.4.37.85,1.11.76.3-1.06.26-2.14-.15-3.22-.19-.49-.45-.99-.49-1.49-.09-1.28-.48-2.51-.68-3.74-.35-2.14-.83-4.28-1.03-6.43-.29-3-.12-6.05-.13-9.08,0-.44-.04-.94.36-1.03.75-.15.7.76,1.38.55,0-2.01,0-4.04,0-6.07,0-.3-.04-.6-.4-.87-.65-.1-.81,1.14-1.78.69-.72-1.22-.3-2.69-.39-4.08-.04-.57-.14-1.24.7-1.67.79,1.3,1.68,2.55,2.96,3.57.05,2.42.45,4.79.87,7.17.29,1.65.85,3.2,1.2,4.82.13.59.47,1.25,1.27,1.21.53-2.6-.88-4.81-.94-7.22,0-.22-.09-.45-.21-.64-.92-1.54-.61-3.22-.52-4.87.02-.34.27-.51.78-.44.61,2.17.78,4.59,2.41,6.95.37-1.86.25-3.2-.29-4.57-.56-1.41-.74-2.86.08-4.43,1.14.94.59,2.26,1.12,3.22.53.96.72,2.11,1.58,2.96.46-.69.36-1.35.12-1.86-.52-1.12-.57-2.34-.87-3.49Zm-9.7-5.4c-.65-.39-.66-.81-.07-1.48.69.6.72,1.02.07,1.48Zm2.08,2.42c-.64.15-.85-.22-.85-.58,0-1.34-.48-2.77.73-4.43.55,2.05.57,3.55.12,5.01Zm1.1-5.96c-.43-1.21-.46-2.46.03-3.64.64-.11.8.25.81.63.05,1.28.27,2.53.77,3.87-1.11.27-1.43-.36-1.61-.87Zm1.23,8.06c-.98-1.35-.71-2.64-.26-4.11.98.4.79,1.17.82,1.77.04.76.48,1.65-.56,2.34Zm.78-13.96c-.09-.02-.22-.19-.21-.29,0-.09.16-.17.25-.26.1.07.28.13.3.22.06.25-.11.38-.34.33Zm1.68,12.07c-.62-.72-.55-1.4-.13-2.17,1.06.9,1.07,1.05.13,2.17Z"/>
      <path class="cls-1" d="m290.01,101.7c.95.44,1.91.67,2.95.65,0-.25.03-.36,0-.38-2.29-1.69-4.94-2.57-7.7-2.9-2.24-.27-4.54-.21-6.8-.15-2.5.06-4.89.77-7.21,1.67-2.4.93-4.61,2.24-6.72,3.69-2.67,1.82-5.34,3.67-7.74,5.84-1.63,1.47-3.18,3.03-4.73,4.58-.68.69-1.48,1.32-1.7,2.4.28.97.56,1.98.85,2.99.26.29.5.59.77.85.26.26.51.57.97.41.76-.57,0-1.67.77-2.26.89-.14,1.29.63,1.84,1.09.91.77,1.88,1.28,3.11.99.2-.05.36-.25.43-.3.43-.71-.6-1.15-.08-1.82,2.38.46,4.17,2.56,6.8,2.63.09-1.39-1.92-1.22-1.59-2.68.81-.52,1.61-.27,2.46.14,1.25.59,2.54.49,4.14.21-1.88-1.07-3.8-1.35-5.18-2.74.39-.53.83-.56,1.29-.54.54.02,1,.29,1.5.48,1.31.53,1.62.49,2.76-.06-1.26-.61-2.54-1.24-3.83-1.85-.37-.17-.66-.36-.49-.97,1.73-.26,3.51-.44,5.31-.23,1.49.18,2.78-.22,3.99-1.19-1.61-1.3-3.9-1.66-4.55-3.79.34-1.5,1.7-.83,2.5-1.37-.1-.21-.18-.41-.29-.6-.12-.22-.13-.42.04-.6,1.18-.92,2.25.6,3.25.27.71-.77-.52-1.4.15-2,.55-.31,1.03-.1,1.54.09,1.25.47,2.58.57,3.77.04,1.74-.78,3.37-.6,5.03.08.42.17.84.37,1.27-.21-.47-1.29-2.35-1.14-2.94-2.58,1.49-.43,2.81-.49,4.09.1Zm-17.01,10.39s.1.08.15.12c-.03.06-.04.15-.08.18-.04.03-.15.02-.18-.02-.13-.15-.08-.26.12-.27Zm7.67-9.29c.29-.69.64-.67,1.23-.12-.5.64-.85.6-1.23.12Z"/>
      <path class="cls-1" d="m171.99,140.87c2.15,2.17,5.03,2.82,7.82,3.69.7.13,1.29-.53,2.22-.2.52,1.81.38,3.72-.06,5.64-.44,1.9-1.51,3.62-1.67,5.71.32.61.19,1.59,1.15,1.87.95-.37,1.2-1.19,1.63-1.9.46-.76,1.05-1.52,2.08-1.25.5.4.62.87.41,1.29-.84,1.64-.64,3.38-.63,5.11,0,1.21,0,2.39-.56,3.54-.49,1.02-.35,2.15-.14,3.22.73.07.97-.35,1.13-.77.27-.73.73-1.32,1.25-1.87.73-.78,1.34-1.61,1.52-2.73.12-.77.58-1.38,1.55-1.42.52.91.22,1.71-.01,2.61-.57,2.24-1.61,4.39-1.48,6.66.15.74.87,1.01.92,1.68.18.9-1.15,1.66-.36,2.67.88-.11.86-.86,1.19-1.32.34-.45.61-1.07,1.38-.9q-.3,2.98,1.04,7c.15.41-.67.86-.11,1.37.16-.04.37-.03.43-.12,1.33-1.95,2.08-4.13,2.34-6.47.15-1.32-.56-2.51-.69-3.74-.17-1.67-.48-3.26-1.03-4.82-.74-2.12-1.23-4.37-3.19-5.83-.11-.08-.16-.25-.31-.5.08-2.01-1.14-3.93-.97-6.09.03-.34-.22-.71-.37-1.05-.34-.75-.71-1.5-.92-1.95-.2-.77.33-1.14.06-1.61-.96-.12-1.73-.49-1.98-1.49-.05-.57.44-1.03.12-1.72-.86-1.36-2.15-2.53-3.39-3.76-.91-.91-2.06-1.69-2.65-2.78-.98-1.83-2.6-3.14-3.6-4.92-.06-.11-.25-.16-.45-.27-.46.05-.98.11-1.51.17-.54-.24-1.09-.48-1.67-.74-.85.55-1.83.76-2.62,1.51-.09.92-.07,1.9-.54,2.8-.25.49-.16,1.05.24,1.21,1.21.32.92-1.05,1.84-1.06.18,1.14.37,2.3.57,3.55Zm5.04.03c.01-.1.18-.25.28-.25s.19.16.29.25c-.06.11-.11.3-.19.33-.25.07-.41-.08-.38-.33Z"/>
      <path class="cls-1" d="m249.77,199.59c-.07-.98-.02-2.02-.36-2.91-.72-1.92-.31-4.08-1.37-5.9.13-1.64-.52-3.09-1.14-4.57-.35.07-.7.15-1.01.22-.55-.24-.47-1.01-1.18-1.16-.66.12-1.33.45-2.31,1.01.07,2.06,1.01,3.92,1.2,6.26-.88,1.49-.26,3.18.58,4.7-.06,1.95-.41,3.79.17,5.55.35,1.04.42,2.06.46,3.12.02.58-.18,1.21.3,1.81.43-.56.29-1.17.29-1.73.02-1.89-.01-3.78,0-5.67,0-.49-.07-1.1.67-1.23.67.37.5,1.04.57,1.61.37,2.84-.31,5.76.67,8.51-.17.64-.33,1.21-.47,1.72.2.56.21,1.17.95,1.13.59-1.1-.21-2.45.56-3.38.59-.37.95.36,1.4.03.33-.35.59-.79.45-1.23-.78-2.6-.28-5.26-.46-7.89Zm-5.62-10.59c-.46-.6-.49-1.05.02-1.43.36-.1.6,0,.78.32.12.56.03,1.01-.8,1.11Zm.87,5.29c-.59-.74-.55-1.42-.05-2.18,1.02.93,1.02,1.11.05,2.18Z"/>
      <path class="cls-1" d="m269.61,157.86c-.67-1.36-.6-2.78-.8-4.18-.02-.12-.19-.21-.28-.3-.38,0-.53.24-.63.54-.14.68.87,1.39-.03,2.02-.64.21-.57-.94-1.23-.62-.5,1.69.66,3.57-.56,5.14-.95-.34-.41-1.37-1.09-1.73-.69.13-.77.61-.7,1.3.37.44.8.95,1.11,1.33.21.75-.2,1.2-.25,1.86.81,2.15.86,4.37,1.36,6.49.31,1.31,1,2.53.98,3.93-.02,1.55.7,2.93,1.09,4.38.21.78.64,1.51,1.76,1.7.36-2.42-1.77-4.32-1.36-6.35.62-.72,1.12.06,1.5-.42.2-.68-.45-1.07-.57-1.65-.1-.5-.04-.91.71-.91.37.69.76,1.4,1.15,2.11,0,1.19.21,2.27.78,3.3.54.98.76,2.17,2.1,2.97-1.64-6.3-3.19-12.27-4.86-18.72-.02-.41.18-1.45-.19-2.2Zm-.84,13.59c-.05.04-.11.11-.16.11-.17,0-.25-.11-.2-.28.01-.05.1-.11.16-.11.16,0,.23.1.2.28Zm.99-3.4c-.15.03-.29.06-.54.11-.37-.66-.46-1.12.27-1.36.66.31.6.75.27,1.25Z"/>
      <path class="cls-1" d="m188.84,145.68c.16.16.39.22.62.12.06-.04.16-.08.16-.13.18-2.16.59-4.33-.47-6.41-.19-.38-.19-.88-.23-1.32-.04-.61-.25-1.15-.47-1.72-.79-1.97-2.29-3.33-3.86-4.63-.07-.06-.27.02-.42.04-.43.65.55,1.04.3,1.66-.13.44-.78.53-.69,1.4-.08,1.28,2.29,1.94,1.66,3.86-1.34.21-2.38-.6-3.69-.76-.13.59.13.9.38,1.16,2.22,2.25,4.47,4.49,6.71,6.73Z"/>
      <path class="cls-1" d="m246.26,232.23c.19-.41.42-.99.04-1.6-.78.05-1.18.6-1.32,1.26-.28,1.36-1,2.51-1.56,3.74-.53,1.17-1.09,2.33-1.14,3.65-.04.91-.17,1.79-.59,2.63-.22.46-.3,1.02-.31,1.54-.1,3.09-.3,6.19,1.02,9.12.16.35.28.72.8.73.77-.38.54-1.14.55-1.77.03-2.42.16-4.84-.03-7.24-.2-2.49.68-4.76,1.2-7.07.37-1.66.6-3.39,1.35-4.98Z"/>
      <path class="cls-1" d="m238.36,236.1c.16-2.74,1.45-5.16,2.26-7.7.75-2.36,1.6-4.65,1.39-7.19-.1-1.27,0-2.56-.02-3.84,0-.4.21-.93-.43-1.14-.77.81-.99,1.82-1.05,2.9-.04.6,0,1.24-.19,1.79-1.1,3.12-2.04,6.28-2.9,9.47-.6,2.22-.45,4.43-.29,6.79.95-.22,1.19-.6,1.22-1.07Z"/>
      <path class="cls-1" d="m246.03,163.81c-.59-2.33-.81-4.73-1.54-7.01-.55-1.74-.86-3.5-.86-5.32,0-.18-.2-.36-.36-.63-.95.53-1.05,1.35-.74,2.12.35.86.11,1.62,0,2.09.55,2.43,1.1,4.53,1.48,6.67.17.97.31,1.92.77,2.81.64,1.21,1.05,2.5,1.04,3.9,0,.37,0,.81.19,1.11.62,1.02.67,2.14.71,3.28.02.46.1.92.94,1.08.54-1.18.44-2.27.05-3.35-.18-.49-.53-.94-.51-1.48.08-1.85-.73-3.54-1.17-5.26Z"/>
      <path class="cls-1" d="m243.65,229.9c.33-.72.34-1.76-.19-2.55-.81.02-.96.58-1.09,1.07-.18.65-.32,1.3-.57,1.95-.89,2.24-1.75,4.49-2.5,6.77-.8,2.47-.7,5.01-.18,7.59-.2-1.57.81-2.77,1.21-4.12.55-1.86.64-3.87,1.69-5.58.96-1.57.88-3.47,1.63-5.13Z"/>
      <path class="cls-1" d="m248.34,236.23c-.61,1.61-1.25,3.21-1.74,4.86-.37,1.21-.95,2.38-.87,3.71.07,1.21-.1,2.4-.67,3.56.84,1.15.37,2.64,1.01,3.88.3-.05.5-.09.86-.15.08-.48.15-.77.17-1.07.17-2.53-.28-5.13.88-7.55.06-.13,0-.3.05-.45.47-1.8.92-3.61,1.42-5.4.27-.96.57-1.9.56-2.98-1.06.2-1.4.89-1.67,1.58Z"/>
      <path class="cls-1" d="m237.53,200.24c-.83.35-1.14-.52-1.75-.49-.23.63.2,1.01.49,1.42.89,1.33,1.55,2.72,1.65,4.37.06.87.14,1.82,1.38,2.67v-12.9c1.44-2.76,1.41-3.02-.35-3.37-1.43,2-.84,4.14-.32,6.21-.32.83-.48,1.67-1.09,2.09Z"/>
      <path class="cls-1" d="m252.45,197.61c.19-2.17-.75-4.13-1.22-6.15-.65-2.75-1.97-5.33-2.43-8.16-.13-.78-.59-1.5-1.09-2.05-.41.08-.6.29-.55.5.28,1.09.55,2.18.94,3.23,1.14,3.03,1.22,6.36,2.66,9.32.41.83.29,1.93.37,2.91.05.69.2,1.34.52,1.96.68,1.29,1.1,2.64,1,4.12-.01.21.05.44.29.54.53-1.46.6-2.45,0-3.8-.35-.79-.57-1.57-.49-2.41Z"/>
      <path class="cls-1" d="m273.53,163.75c-.85-2.77-1.67-5.55-2.16-8.64-.68.5-.78,1.05-.73,1.55.14,1.34.2,2.74.62,4,.93,2.85,1.46,5.81,2.48,8.61.53,1.47.76,3.08,1.74,4.38.25.34.53.5.96.29.37-.47.27-.99.09-1.49-1-2.9-2.11-5.77-3-8.7Z"/>
      <path class="cls-1" d="m197.54,93.04c-.8,1.8-2.48,2.97-3.41,4.66-1.26.84-2.64,1.5-3.21,2.94.35.51.74.58,1.07.34,1.52-1.1,3.3-1.83,4.58-3.28.58-.65,1.11-1.48,1.97-1.51.68.02,1,.38,1.37.63.42.28.8.73,1.59.41-.7-1.8-2.34-3.55-3.96-4.19Z"/>
      <path class="cls-1" d="m278.81,163.99c-.32.4.06,1.2-.73,1.56-.82-.12-1.21-.76-1.29-1.54-.13-1.3-.98-2.36-1.14-3.66-.04-.35-.38-.66-1.06-.41-.29,2.67.78,4.98,2.12,7.34.9-.41,1.67-.64,2.45-.55.26-.96.27-1.78.1-2.61-.04-.17-.18-.23-.46-.14Z"/>
      <path class="cls-1" d="m237.65,224.1c.05-1.09,1.36-2.01.43-3.42-1.55,2.01-2.29,4.06-1.6,6.73.51-1.22,1.12-2.13,1.18-3.31Z"/>
      <path class="cls-1" d="m249.34,168.95c-1.02,1.14-.99,1.34.43,2.69-.09-1.01.24-1.88-.43-2.69Z"/>
      <path class="cls-1" d="m240.03,185.4c.27-.63.35-1.3-.18-2.11-1.02.44-.89,1.13-.76,1.77.09.42.41.57.94.34Z"/>
      <path class="cls-1" d="m182.9,127.35c-.38-.57-.76-1.14-1.14-1.71-.32,1.02-.05,1.69,1.14,1.71Z"/>
      <path class="cls-1" d="m277.92,159.34c-.4.03-.56.24-.59.59.13.48.24.99.96,1.3.22-.83.34-1.46-.37-1.88Z"/>
      <path class="cls-1" d="m242.49,183.39c.45-.51.46-.88-.2-1.33-.59.69-.45,1.04.2,1.33Z"/>
      <path class="cls-1" d="m270.24,151.88c-.25.25-.27.51.11.91.37-.45.42-.74-.11-.91Z"/>
      <path class="cls-1" d="m238.24,212.66c.21-.26.29-.5-.05-.72-.45.28-.42.51.05.72Z"/>
      <path class="cls-1" d="m182.12,160.53l.04.04s.03-.08.04-.12c-.03.03-.05.05-.08.08Z"/>
      <path class="cls-1" d="m182.2,160.45c.21-.19.58-.3.39-.74-.45.09-.34.46-.39.74Z"/>
      <path class="cls-1" d="m239.08,190.07s.08-.1.11-.15c-.03-.06-.05-.14-.1-.16-.05-.02-.16.01-.18.05-.08.16-.02.27.16.26Z"/>
      <path class="cls-1" d="m115.84,125.11q1.45-.39,1.19-1.76c-.91.43-1.43.83-1.19,1.76Z"/>
      <path class="cls-1" d="m305.76,111.2c-.18-1.03-.46-2.44-.66-3.85-.14-1-.5-1.88-1.11-2.69-2.09-2.74-4.41-5.18-7.89-6.12-.1-.03-.28-.07-.47-.12-.2-.11-.47-.2-.88-.31-2.31-.64-4.56-1.47-6.91-2.04-2.71-.66-5.46-.85-8.17-1.41-3.01-.61-6.04.18-8.91,1.02-1.5.44-3.08.57-4.54,1.28-4.87,2.4-9.84,4.61-14.1,7.87-3.29.39-4.35.37-6.2-.96-3.18-2.29-6.72-4.05-9.62-6.73-.38-.35-.79-.75-1.39-.49-.43,1.21-.43,1.21-.15,1.86.59,1.33,1.41,2.49,2.52,3.45.85.74,1.73,1.47,2.55,2.76-.87,5.08,1.37,9.14,4.8,12.8.65.3,1.39.26,2.02.12,2-.83,3.43-2.18,4.56-3.8.66-.94,1.39-1.78,2.18-2.58,1.7-1.71,3.48-3.31,5.42-4.78,3.18-2.43,6.44-4.67,9.99-6.54,3.21-1.69,6.72-2.09,10.14-2.94.78-.19,1.77-.23,2.46.09,2.32,1.07,4.9.44,7.29,1.4,1.9.76,4.05.98,6.02,1.71.4.15.81.25,1.18.14,0,0,0,0,0,0,2.9,1.37,5.14,3.5,6.7,6.48-.43.85-.27,1.79-.52,2.74-1.28,1.98-3.88,5.81-5.76,7.4h0c-.75.1-1.19.63-1.48,1.19h0c-.04.08-.08.17-.12.25-.52,1.15-1.45,1.91-2.22,2.84-1.67,2-3.88,3.36-5.88,4.94-1.82,1.43-4.04,2.46-6.29,3.02-1.8.44-3.56,1.27-5.51,1.12-.33-.03-.68.14-1.02.29-.09.04-.17.08-.26.11-1.25.49-2.53.58-3.73-.06-.76-.41-1.62-.36-2.61-.85-.9-.89-2.03-1.9-3.05-3.01-1.1-1.19-2.35-2.09-3.9-2.46-1.79.75-3.63,1.19-5.29,2.12-.76.43-1.62.32-2.42-.04-1.3-.57-2.69-.89-3.84-1.86-.65-.55-1.58-1.1-2.63-.73-.06.94.52,1.34,1.12,1.64,1.52.79,2.6,2.04,3.74,3.29.04.76.07,1.51.12,2.38,1.39,1.54,2.44,3.35,2.74,5.12.55,1.23,1.61,1.37,2.14,2,.5.94.19,2.31,1.68,2.52.16-.31.32-.63.46-.92.39-.21.77.27,1.17-.13.33-.44-.17-1.4.83-1.63.89.28.72,1.45,1.86,2.03.57.13,1.28.83,1.97,1.31.79-.02.86-1.07,1.55-.83.77.28.77,1.22,1.44,1.42,1.64-.83.59-2.87,1.69-3.89.57.09.74.44.91.78.17.34.37.66.8.85.7-.09,1.41-.05,2.09.41.37.25.86.32,1.15-.23q-.99-1.78-.59-2.69c.85.03,1.16.91,2.04,1.27.97-.11,1.89.74,2.85.84.75-.36.59-1.26,1.53-1.45,1.25.52,2.67-.15,4,.04.48-.55.2-1.23.86-1.64.68,0,1.36.89,2.44.27-.51-.78.25-1.39.45-2.03-.01-.3-.15-.58-.3-.86.21.05.42.07.62-.03.7-.3.3-1.2.77-1.44.03-.02.06-.04.09-.06.33-.21.66-.22.97-.19.44.05.86.19,1.27.07.29-.21.43-.45.5-.7.21.1.43.15.68.05.33-.61-.46-1.15.07-1.93.69-.46,1.62-.91,2.66-1.13.1-.02.16-.23.27-.41-.04-.09-.09-.18-.14-.28-.08-.15-.16-.32-.24-.48-.16-.35-.25-.71-.05-1.05.18-.23.38-.32.59-.34l-.31,1.87c.48-.64.82-1.43,1.64-1.79.05-.01.1-.03.15-.06.76.8,1.52,1.61,2.32,2.45.5.87.33,2.31,2.09,2.5-.59-1.39-1.16-2.63-1.89-3.81-.65-1.03-.64-1.04-.23-2.48.75-.68,1.61.3,2.35-.1.69-.91-.13-1.59-.32-2.5,1.51-1.08,2.26-2.91,3.9-4.08.11-.59.23-1.24.35-1.9.9-.74,1.76-1.45,2.61-2.15-.01-1.19-1.16-1.42-1.78-2.54Zm-46.84,22.16c-.06-.1-.13-.2-.18-.31,0-.01.12-.12.15-.11.1.05.2.13.29.19-.09.07-.18.15-.27.22Zm1.9.88c-.07-.09-.15-.18-.2-.28,0-.02.1-.14.13-.13.11.04.21.11.33.17-.09.08-.18.16-.26.24Zm13.01.01c-.08.03-.22-.1-.34-.16.06-.12.12-.23.18-.35.12.06.24.11.36.17-.06.12-.1.29-.2.33Z"/>
      <path class="cls-1" d="m293.64,112.19q-.05,1.4,1.44,1.57c.1-.95-.48-1.28-1.44-1.57Z"/>
    </g>
  </g>
</svg>