<?xml version="1.0" encoding="UTF-8"?>
<svg id="Capa_9" data-name="Capa 9" xmlns="http://www.w3.org/2000/svg" viewBox="0 0 850.39 850.39">
  <defs>
    <style>
      .cls-1 {
        letter-spacing: -.03em;
      }

      .cls-2 {
        letter-spacing: .02em;
      }

      .cls-3 {
        fill: #e95d0f;
      }

      .cls-3, .cls-4 {
        stroke-width: 0px;
      }

      .cls-5 {
        letter-spacing: .03em;
      }

      .cls-6 {
        letter-spacing: 0em;
      }

      .cls-4 {
        fill: #3e3d40;
      }

      .cls-7 {
        fill: #1a171b;
        font-family: SegoeUI-Semibold, 'Segoe UI';
        font-size: 29px;
        font-weight: 600;
      }

      .cls-8 {
        letter-spacing: 0em;
      }
    </style>
  </defs>
  <g>
    <path class="cls-4" d="m166.05,571.2c-17.35,0-34.7,0-52.06,0-9.5,0-19.01-.02-28.51-.06-4.11-.01-4.49-.28-5.11-4.37-1.13-7.33-1.86-14.7-1.44-22.11.24-4.19.9-8.34,2.1-12.39,2.55-8.61,7.97-14.62,16.2-18.13,1.83-.78,3.64-1.59,5.44-2.46,7.42-3.56,13.56-8.69,18.48-15.26,4.05-5.41,8.52-10.42,13.18-15.32,3.96-4.16,8.12-8.14,11.61-12.73,7-9.21,12.73-19.12,16.59-30.06,1.44-4.08,2.32-8.27,2.6-12.62.23-3.65,1.07-7.21,2.38-10.64,1.34-3.51,2.8-6.97,4.8-10.17.8-1.28.68-1.82-.42-2.9-.31-.31-.68-.56-1.02-.85-.92-.8-1.25-1.79-.92-2.98.45-1.6.81-3.22,1.35-4.78,2.02-5.85,4.04-11.7,6.18-17.5.64-1.74.82-3.32.26-5.13-.94-3.07-.39-4.41,2.2-6.22.99-.7,2.07-1.28,3.08-1.94.46-.3.91-.68.87-1.31-.04-.66-.56-.88-1.11-1.04-.42-.12-.84-.28-1.27-.39-4.14-1.04-7.83-3-11.16-5.64-2.94-2.33-5.78-4.78-8.26-7.64-1.73-2-3.62-3.88-5.54-5.7-2.35-2.22-3.64-4.9-4.24-8.05-1.09-5.76-1.75-11.57-2.43-17.39-.17-1.42-.16-2.88-.04-4.3.27-3.26,1.92-5.59,5.01-6.79.82-.32,1.67-.58,2.53-.76,2.79-.6,4.77-2.24,6.04-4.74.55-1.08,1.01-2.21,1.42-3.35.53-1.45.95-2.94,1.44-4.41.7-2.11,1.61-4.13,2.87-5.96,2.69-3.91,7.08-5.49,11.64-4.18,1.16.33,2.3.8,3.37,1.35,1.87.96,3.69,1.99,5.5,3.06,3.55,2.1,7.27,3.72,11.32,4.57,1.31.27,2.61.46,3.94.43,4.08-.09,7.87,1,11.48,2.77,3.07,1.51,6.15,3.01,9.19,4.59,5.64,2.93,11.63,4.77,17.87,5.89.76.14,1.51.33,2.27.49,3.45.72,6.48,2.26,8.79,4.96,1.87,2.19,4.22,3.07,7.01,3.15,8.39.25,16.09,2.75,22.99,7.5,3.3,2.28,6.86,4.01,10.49,5.65,2.03.92,3.96,1.96,5.75,3.27,2.88,2.11,3.54,4.13,2.51,7.49-.52,1.7-1.32,3.27-2.18,4.83-.78,1.41-1.89,2.09-3.55,1.75-1.3-.26-2.61-.44-3.93-.64-8.42-1.27-16.05.68-22.75,5.9-4.55,3.54-7.18,8.32-8.07,14.02-.75,4.78-.61,9.47,1.38,13.97.18.4.31.83.38,1.26.12.73-.17,1.34-.86,1.6-.82.31-1.68.53-2.54.72-1.72.38-3.46.71-5.19,1.07-2.46.52-3.92,1.89-3.97,4.54-.03,1.73-.81,3.13-1.87,4.49-4.56,5.84-4.68,12.14-1.77,18.71.27.6.6,1.2,1,1.72,1.57,2.04,1.65,4.21.87,6.58-1.07,3.25-1.98,6.56-2.99,9.83-2.4,7.7-4.72,15.43-7.57,22.98-.82,2.18-1.77,4.29-2.89,6.32-.37.68-.78,1.34-1.24,1.96-.66.88-1.66.82-2.11-.13-.33-.69-.58-1.43-.84-2.16-.44-1.25-.82-2.53-1.3-3.76-1.17-3.01-2.65-5.82-4.95-8.15-3.59-3.64-7.88-5.67-13-5.68-9.28-.02-18.57.07-27.85.07-2.33,0-4.63.21-6.92.6-9.56,1.64-14.23,10.17-12.92,18.51.95,6.01,5.69,11.51,12.47,12.47,1.75.25,3.49.51,5.26.51,5.53,0,11.05.01,16.58.02.33,0,.66-.02.99-.01,2.37.06,2.69.31,3.57,2.66.19.52.36,1.04.54,1.57,5.44,16.24,10.87,32.48,16.32,48.72.67,1.99,1.37,3.97,2.13,5.93,3.32,8.57,9.79,12.75,18.76,13.42,1.32.1,2.65.02,3.97.12,1.27.1,1.75.8,1.46,2.04-.3,1.29-.76,2.54-1.03,3.84-.92,4.39-.95,8.78.23,13.13.55,2.03,1.36,3.97,2.42,5.8.33.57.69,1.14.97,1.74.62,1.32.16,2.07-1.37,2.2-.88.07-1.77.06-2.65.06-21.44,0-42.88,0-64.32,0-5.3,0-10.61,0-15.91,0,0,0,0-.01,0-.02Z"/>
    <path class="cls-3" d="m731.19,501.42c-4.65.24-9.27.08-13.79-1.18-1.17-.33-2.34-.65-3.48-1.07-5.52-2.08-9.15-5.98-11.08-11.53-1.22-3.49-1.66-7.13-1.53-10.76.35-10.09,2.07-19.97,5.4-29.52.8-2.28,1.78-4.53,2.91-6.67,4.89-9.29,12.51-14.97,22.85-16.87,5.32-.97,10.68-1.56,16.12-.97,2.41.26,4.85.19,7.23.78,1.28.32,2.58.6,3.85.98,7.63,2.29,11.94,7.56,13.64,15.18.97,4.36.86,8.78.53,13.19-.19,2.53-.7,5.03-.97,7.55-.67,6.32-2.6,12.3-4.9,18.16-1.83,4.66-4.46,8.83-7.83,12.58-4.71,5.24-10.62,8.15-17.41,9.49-1.3.26-2.61.58-3.92.63-2.53.1-5.07.03-7.61.03Zm1.12-20.76s0-.02,0-.03c1.44,0,2.89.13,4.3-.02,5.53-.6,7.02-1.79,8.03-7.03.04-.22.07-.44.11-.65,1.05-5.98,2.11-11.96,3.16-17.94.52-2.94,1.06-5.87,1.51-8.81.29-1.88,0-2.27-1.77-2.3-3.09-.06-6.2-.21-9.27.04-4.71.39-6.64,1.38-7.57,6.63-1.46,8.26-3,16.51-4.5,24.77-.16.87-.34,1.73-.47,2.61-.3,2.1.12,2.65,2.17,2.74,1.43.06,2.87.01,4.31.01Z"/>
    <path class="cls-3" d="m479.76,424.39c2.65,0,5.3-.01,7.96,0,.77,0,1.55.04,2.31.16.84.13,1.34.79,1.29,1.66-.04.66-.17,1.31-.29,1.96-1.91,10.54-3.83,21.08-5.74,31.63-1.08,5.98-2.15,11.96-3.21,17.94-.1.54-.2,1.09-.2,1.64,0,.61.37,1.03.98,1.15.43.08.88.13,1.31.13,2.1,0,4.2.03,6.3-.02.88-.02,1.75-.18,2.62-.35,2.29-.44,3.76-1.76,4.26-4.08.39-1.84.82-3.67,1.16-5.51,2.38-12.93,4.73-25.86,7.1-38.79.34-1.85.68-3.69,1.06-5.53.26-1.25,1.09-1.87,2.34-1.93.33-.02.66-.05.99-.05,5.86,0,11.71,0,17.57,0,.44,0,.89.03,1.32.1,1.23.19,1.74.76,1.71,2.01-.01.66-.11,1.32-.22,1.97-1.97,10.87-3.96,21.73-5.94,32.6-.34,1.85-.73,3.69-.98,5.55-.79,5.95-2.43,11.7-4.61,17.25-3.72,9.46-10.48,15.33-20.73,16.97-6.16.98-12.34.7-18.52.69-3.12,0-6.15-.58-9.14-1.43-1.17-.33-2.31-.76-3.42-1.25-3.04-1.35-5.29-3.56-6.79-6.53-1.32-2.61-1.92-5.39-2.05-8.3-.19-4.22.19-8.4.91-12.54,1.47-8.49,3.01-16.97,4.53-25.45,1.05-5.87,2.14-11.74,3.19-17.61.67-3.78.9-4.01,4.65-4.04,2.76-.02,5.53,0,8.29,0Z"/>
    <path class="cls-3" d="m563.19,452.41c5.37-8.6,10.34-16.55,15.28-24.51,2.17-3.49,2.15-3.51,6.33-3.52,5.63,0,11.27,0,16.9,0,.66,0,1.33-.01,1.99.02,2.06.11,2.44.73,1.39,2.41-1.58,2.53-3.21,5.03-4.84,7.52-5.33,8.13-10.67,16.25-16.01,24.38-.3.46-.58.94-.91,1.38-.79,1.07-.82,2.18-.44,3.44,1.76,5.82,3.44,11.65,5.15,17.48,1.43,4.87,2.87,9.75,4.31,14.62.19.64.39,1.27.54,1.91.46,1.89.08,2.44-1.86,2.5-2.43.07-4.86.06-7.29.05-4.31,0-8.62.02-12.92-.04-2.86-.04-3.2-.32-3.92-3-.69-2.56-1.3-5.14-1.95-7.71-1.4-5.46-2.81-10.91-4.21-16.36-.22-.85-.37-1.72-.65-2.99-.78,2.36-1.09,4.45-1.47,6.51-1.21,6.63-2.34,13.27-3.51,19.9-.59,3.33-.93,3.64-4.31,3.66-5.52.03-11.05,0-16.57,0-.22,0-.44,0-.66,0-2.58,0-3.14-.7-2.67-3.19,1.02-5.31,1.89-10.66,2.85-15.98,2.88-15.98,5.76-31.95,8.65-47.92.39-2.17.76-4.35,1.25-6.5.37-1.6.87-1.94,2.54-2.07.66-.05,1.32-.04,1.99-.04,5.08,0,10.16,0,15.25,0,.88,0,1.77.01,2.64.12,1.19.15,1.69.82,1.6,2.08-.05.66-.19,1.31-.31,1.96-1.32,7.28-2.64,14.56-3.96,21.84-.08.42-.09.85-.21,2.02Z"/>
    <path class="cls-3" d="m278.21,500.1c-7.29,0-14.58,0-21.86,0-.99,0-1.99-.05-2.96-.2-.73-.11-1.16-.67-1.13-1.41.03-.77.17-1.53.31-2.29,1.87-10.32,3.75-20.63,5.62-30.95,2.14-11.84,4.26-23.68,6.39-35.52.2-1.09.43-2.16.67-3.24.26-1.23,1.01-1.94,2.28-2,.88-.05,1.77-.07,2.65-.07,14.36,0,28.71,0,43.07,0,.88,0,1.77,0,2.65.09,1.08.1,1.51.75,1.25,1.86-.18.75-.43,1.48-.68,2.22-1.32,3.98-2.65,7.96-3.98,11.94-.28.84-.58,1.67-.93,2.48-.33.76-.95,1.23-1.79,1.3-.99.08-1.98.12-2.97.12-5.52.01-11.04-.01-16.56.01-4.02.02-4.21.14-4.8,4.19-.67,4.62-1.62,5.06,4.1,5,4.75-.05,9.5-.02,14.25,0,.88,0,1.76.07,2.63.2.6.09.94.57.97,1.17.03.44-.03.88-.08,1.32-.47,4.4-1.52,8.7-2.46,13.01-.44,2-.87,2.33-2.99,2.35-5.41.06-10.82.02-16.23.04-.99,0-1.99.02-2.98.1-.85.07-1.48.56-1.68,1.38-.43,1.71-.92,3.42-.89,5.2.01.88.53,1.49,1.39,1.58.98.11,1.98.12,2.97.13,6.29.01,12.59,0,18.88.01.99,0,1.99.02,2.97.15,1.01.13,1.52.77,1.5,1.84-.02.77-.12,1.54-.26,2.3-.76,4.24-1.53,8.47-2.31,12.71-.1.54-.21,1.09-.39,1.6-.23.67-.73,1.14-1.43,1.23-.98.12-1.98.19-2.97.19-7.4.02-14.8,0-22.2,0Z"/>
    <path class="cls-3" d="m346.75,531.83c-8.51,0-17.03.3-25.51-.07-11.16-.49-22.3-.29-33.46-.41-3.42-.04-6.87-.16-10.27.11-10.81.86-21.64.36-32.46.54-.77.01-1.55.02-2.32-.04-5.11-.34-8.77-2.73-10.63-7.6-.51-1.34-.95-2.71-1.41-4.07-5.07-15.19-10.13-30.38-15.2-45.57-1.23-3.67-2.5-7.31-3.77-10.96-.25-.73-.55-1.45-.9-2.13-.6-1.17-1.58-1.82-2.91-1.88-1.1-.05-2.21-.08-3.31-.09-6.96,0-13.92,0-20.88,0-1.32,0-2.65.01-3.95-.32-3-.77-4.76-2.79-4.78-5.55-.02-2.73,2.04-5.34,4.8-6.02.64-.16,1.31-.21,1.97-.23,9.71-.34,19.42-.79,29.14-.65,1.44.02,2.86,0,4.24.54,2.59,1,4.54,2.73,5.85,5.13.68,1.25,1.21,2.6,1.66,3.96,4.89,14.79,9.69,29.6,14.64,44.37,1.51,4.5,3.11,8.97,4.44,13.53.15.53.37,1.04.54,1.57.7,2.14,2.06,3.26,4.41,3.23,6.95-.11,13.92.19,20.86-.41,1.21-.1,2.43-.15,3.64-.15,7.95,0,15.91-.2,23.86.08,24.52.84,49.04.18,73.55.39,2.43.02,4.86-.02,7.29.09,2.4.11,4.14,1.33,5.22,3.51,1.73,3.48-.12,7.62-3.93,8.63-1.72.45-3.48.54-5.26.54-8.4-.02-16.79,0-25.19,0v-.03Z"/>
    <path class="cls-3" d="m426.1,501.55c-5.09.21-9.93-.12-14.64-1.48-3.21-.93-6.2-2.27-8.69-4.61-4.19-3.95-5.91-8.97-6.27-14.53-.29-4.52-.02-9.03.65-13.54,1.18-8,2.82-15.87,6.03-23.33,1.93-4.49,4.42-8.63,7.92-12.12,2.46-2.46,5.26-4.37,8.45-5.71,4.52-1.89,9.23-2.97,14.13-3.25,1.32-.08,2.64-.21,3.96-.31.77-.06,1.55-.2,2.31-.13,4.72.44,9.47.63,14.1,1.78.96.24,1.93.48,2.86.82,1.61.58,1.93,1.2,1.44,2.76-.37,1.16-.85,2.27-1.28,3.41-1.2,3.2-2.4,6.41-3.61,9.61-.23.62-.46,1.25-.74,1.84-.7,1.47-1.26,1.8-2.87,1.59-1.2-.15-2.4-.34-3.59-.6-3.71-.79-7.47-.62-11.22-.59-1.45,0-2.85.31-4.24.65-2.36.58-3.91,1.97-4.44,4.38-.31,1.4-.61,2.8-.87,4.21-1.44,8.04-2.87,16.08-4.3,24.12-.08.43-.18.87-.24,1.3-.22,1.58,0,1.88,1.64,2.23,4.37.93,8.78.85,13.18.35,3.18-.36,6.34-.85,9.42-1.79.32-.1.64-.16.97-.2.74-.1,1.33.33,1.41,1.04.06.54.09,1.1.04,1.65-.43,4.5-.85,9.01-1.34,13.5-.42,3.9-.8,4.3-4.65,5.33-5.16,1.38-10.41,1.91-15.53,1.59Z"/>
    <path class="cls-3" d="m675.02,424.39c7.85,0,15.69,0,23.54,0,.99,0,1.99-.02,2.98.06,1.77.15,2.26.8,2.04,2.64-.09.77-.28,1.52-.42,2.28-.71,3.8-1.39,7.61-2.12,11.4-.65,3.33-.95,3.58-4.36,3.61-3.09.03-6.19,0-9.28.01-.88,0-1.77.04-2.64.12-.71.07-1.26.47-1.44,1.18-.28,1.07-.54,2.14-.74,3.23-2.67,14.89-5.34,29.79-8,44.68-.25,1.41-.47,2.83-.78,4.24-.35,1.58-.89,2.06-2.44,2.23-.77.08-1.54.08-2.32.07-5.19-.01-10.39-.03-15.58-.06-.77,0-1.55-.03-2.31-.13-.93-.12-1.43-.65-1.38-1.54.05-.99.17-1.98.33-2.96.89-5.34,1.77-10.68,2.72-16,1.03-5.76,2.18-11.5,3.23-17.26.89-4.89,1.73-9.79,2.58-14.68.09-.54.21-1.09.23-1.64.02-.77-.43-1.27-1.17-1.36-.87-.11-1.76-.12-2.64-.13-2.87-.01-5.75-.04-8.62,0-3.9.05-3.9-.78-3.32-3.76.84-4.34,1.6-8.69,2.4-13.03.1-.54.25-1.08.41-1.61.28-.97.97-1.46,1.94-1.52.99-.06,1.99-.08,2.98-.08,8.07,0,16.13,0,24.2,0Z"/>
    <path class="cls-3" d="m340.92,500.1c-6.4,0-12.81,0-19.21,0-4.49,0-4.59-.16-3.81-4.46,1.83-10.1,3.63-20.21,5.46-30.31,2.24-12.38,4.49-24.76,6.74-37.13.08-.43.13-.88.24-1.3.49-1.94.95-2.41,2.95-2.46,3.31-.08,6.62-.04,9.94-.05,2.65,0,5.3-.01,7.95.01.77,0,1.54.06,2.3.19.6.1.99.55.99,1.15,0,.77-.09,1.54-.22,2.3-2.05,11.41-4.12,22.81-6.17,34.22-.86,4.78-1.69,9.56-2.52,14.35-.11.65-.22,1.31-.25,1.97-.02.76.43,1.27,1.16,1.37.87.11,1.76.13,2.64.13,4.86.01,9.72,0,14.58.01.99,0,1.99.03,2.97.16.74.1,1.15.65,1.12,1.41-.03.77-.13,1.54-.25,2.3-.67,4.03-1.36,8.05-2.05,12.08-.09.54-.22,1.08-.37,1.61-.55,1.98-.94,2.38-2.97,2.42-3.42.07-6.85.03-10.27.04-3.64,0-7.29,0-10.93,0Z"/>
    <path class="cls-3" d="m611.9,500.1c-2.65,0-5.3.01-7.95,0-.77,0-1.55-.03-2.31-.16-.73-.12-1.2-.63-1.14-1.39.1-1.21.25-2.42.47-3.61,3.6-19.88,7.22-39.76,10.84-59.64.49-2.72.9-5.45,1.46-8.15.49-2.35.91-2.7,3.39-2.73,5.96-.05,11.93-.06,17.89,0,2.58.03,3.16.72,2.72,3.28-.99,5.77-2.08,11.52-3.13,17.28-2.89,15.97-5.77,31.94-8.66,47.92-.29,1.63-.54,3.27-.9,4.88-.39,1.71-.94,2.22-2.75,2.27-3.31.08-6.63.02-9.94.02,0,.01,0,.02,0,.03Z"/>
    <path class="cls-4" d="m527.23,375.07c-1.27.56-1.4,1.39-1.73,2.05-1.95,3.84-3.86,7.7-5.79,11.55-.35.69-.68,1.39-1.05,2.07-.21.39-.44.78-.73,1.1-1.39,1.48-6.11,1.11-7.23-.57-.48-.73-.85-1.55-1.25-2.34-2.03-4.05-4.03-8.11-6.07-12.15-.38-.75-.57-1.65-1.47-2.18-.5.86-.27,1.75-.28,2.58-.03,6.18,0,12.37-.02,18.55,0,.99-.05,1.99-.16,2.97-.08.73-.59,1.22-1.32,1.29-2.86.26-5.73.24-8.6.01-.89-.07-1.36-.69-1.45-1.55-.08-.88-.12-1.76-.12-2.64,0-13.14-.01-26.28,0-39.42,0-4.17.17-4.32,4.23-4.35,2.1-.01,4.2.03,6.29.02,1.37,0,2.3.61,2.89,1.82.39.79.8,1.57,1.2,2.36,2.71,5.44,5.41,10.88,8.12,16.31.39.79.82,1.56,1.26,2.32.24.41.88.44,1.11.05.5-.86.98-1.73,1.43-2.61,2.82-5.63,5.62-11.26,8.43-16.89.3-.59.58-1.19.88-1.78.56-1.09,1.47-1.61,2.68-1.61,2.87.02,5.74,0,8.61.09,1.45.05,1.95.61,2.1,2.06.09.88.08,1.76.08,2.65,0,12.92.01,25.84,0,38.76,0,4.53-.05,4.56-4.67,4.56-1.77,0-3.54.02-5.3-.07-1.29-.06-1.78-.55-1.93-1.83-.12-.98-.12-1.98-.13-2.97-.01-5.52,0-11.04,0-16.56v-3.63Z"/>
    <path class="cls-4" d="m445.01,376.04c0-6.74-.03-13.47.01-20.21.02-3.48.33-3.77,3.81-3.79,5.85-.03,11.71.06,17.56-.02,10.9-.14,19.21,11.09,15.74,21.67-.84,2.58-2.27,4.77-4.17,6.67-.39.39-.85.7-1.25,1.09-.98.95-1.04,1.32-.38,2.63.34.69.75,1.35,1.15,2.01,1.97,3.32,3.95,6.64,5.92,9.97.39.66.8,1.32,1.15,2.01.65,1.31.34,1.98-1.01,2.01-3.09.05-6.18.02-9.27.02-.95,0-1.7-.42-2.22-1.22-.6-.93-1.19-1.86-1.76-2.8-1.76-2.94-3.56-5.85-5.23-8.83-.98-1.75-2.31-2.58-4.3-2.36-.33.04-.66,0-.99.01-2.29.08-2.63.39-2.68,2.77-.05,2.65-.01,5.3-.03,7.95,0,.88,0,1.77-.11,2.64-.15,1.27-.62,1.78-1.94,1.81-2.65.07-5.3.07-7.95,0-1.27-.03-1.78-.54-1.92-1.84-.15-1.42-.19-2.86-.19-4.3-.02-5.96,0-11.93,0-17.89.02,0,.05,0,.07,0Zm12.11-7.66s.03,0,.04,0c0,1.54-.04,3.08.02,4.62.04.88.62,1.46,1.49,1.47,2.75.04,5.5.05,8.26,0,1.06-.02,1.84-.68,2.49-1.47,1.88-2.26,1.88-6.35,0-8.62-.96-1.15-2.16-1.93-3.67-1.98-2.31-.07-4.63-.06-6.94,0-1.1.03-1.61.56-1.67,1.67-.08,1.43-.02,2.86-.02,4.29Z"/>
    <path class="cls-4" d="m592.13,376.04c0-6.08,0-12.15,0-18.23,0-.66,0-1.33,0-1.99.07-3.46.32-3.75,3.83-3.77,6.08-.04,12.16-.08,18.23-.01,4.84.05,8.7,2.27,11.74,5.91.98,1.17,1.76,2.55,2.42,3.94,3.04,6.4,1.78,13.25-3.21,18.3-.82.83-2.27,1.28-2.28,2.67,0,1.13.92,1.97,1.47,2.92,1.93,3.35,3.92,6.67,5.88,10,.56.95,1.11,1.91,1.61,2.9.37.73.02,1.38-.8,1.39-3.31.04-6.63.04-9.94.03-1.12,0-1.82-.71-2.35-1.59-1.54-2.56-3.06-5.12-4.58-7.69-.79-1.33-1.63-2.63-2.34-4.01-.76-1.47-1.93-2.03-3.52-1.91-.88.06-1.77.02-2.64.13-.73.08-1.2.59-1.3,1.31-.11.76-.15,1.54-.15,2.31-.02,2.43,0,4.86-.02,7.29,0,.88-.05,1.77-.18,2.64-.13.84-.64,1.46-1.53,1.48-2.87.04-5.74.03-8.61,0-.89-.01-1.44-.6-1.55-1.45-.12-.98-.16-1.98-.16-2.97-.01-6.52,0-13.04,0-19.56Zm12.07-7.72s.03,0,.04,0c0,1.43-.07,2.87.02,4.3.08,1.29.6,1.85,1.85,1.88,2.53.07,5.07.05,7.61-.02,1.3-.04,2.31-.76,2.96-1.86,1.3-2.21,1.69-4.54.58-6.96-.9-1.97-2.42-3.16-4.6-3.26-2.09-.1-4.19-.08-6.29,0-1.62.05-2.06.56-2.15,2.29-.07,1.21-.01,2.43-.01,3.64Z"/>
    <path class="cls-4" d="m636.73,375.98c0-6.3,0-12.59,0-18.89,0-1.1.05-2.21.22-3.3.16-1.05.72-1.55,1.77-1.65,1.1-.1,2.21-.1,3.31-.1,1.44,0,2.88-.04,4.31.05,1.82.11,2.3.58,2.37,2.48.08,2.21.03,4.42.05,6.63.03,2.87.06,5.74.11,8.61,0,.18.17.43.33.51.15.08.44.03.59-.07.27-.18.5-.43.72-.68,4.39-5.11,8.82-10.18,13.15-15.35,1.24-1.48,2.57-2.28,4.52-2.2,2.87.11,5.74.05,8.61.11.82.02,1.2.77.7,1.39-1.85,2.34-3.73,4.65-5.63,6.95-3.31,4-6.65,7.97-9.97,11.96-.89,1.07-.93,1.44-.09,2.64,1.44,2.09,2.94,4.14,4.43,6.2,3.69,5.1,7.4,10.19,11.09,15.29.32.45.65.9.94,1.37.86,1.42.57,2.12-1.02,2.16-2.98.07-5.97,0-8.95.05-1.48.02-2.5-.62-3.31-1.81-1.94-2.82-3.92-5.62-5.89-8.42-1.52-2.17-3.03-4.35-4.59-6.49-.93-1.27-1.55-1.3-2.71-.27-.41.37-.77.8-1.18,1.16-1.34,1.16-1.94,2.58-1.87,4.39.1,2.32.03,4.64.01,6.96,0,.88,0,1.77-.1,2.65-.12,1.12-.59,1.7-1.64,1.72-2.87.06-5.74.04-8.61,0-.9-.01-1.36-.69-1.49-1.52-.12-.76-.18-1.54-.18-2.31-.01-6.74,0-13.48,0-20.22,0,0,0,0,0,0Z"/>
    <path class="cls-4" d="m312.92,367.07c0-3.76,0-7.51,0-11.27,0-.77.03-1.55.15-2.31.12-.71.62-1.16,1.32-1.32.43-.1.87-.15,1.31-.15,2.21,0,4.42-.02,6.63.06,1.98.07,2.45.58,2.6,2.64.06.88.04,1.77.04,2.65,0,6.19,0,12.38,0,18.57,0,1.33.05,2.65.1,3.98.08,1.8.62,3.48,1.4,5.08,2.3,4.7,6.24,5.88,11.47,4.39,1.76-.5,3.02-1.77,3.92-3.39,1.54-2.77,2.25-5.73,2.24-8.9-.02-6.63,0-13.26,0-19.89,0-.99-.02-1.99.07-2.98.13-1.45.65-2.05,2.06-2.09,2.54-.08,5.08-.08,7.62,0,1.39.05,1.92.65,2.13,2.07.1.65.11,1.32.11,1.98,0,6.52.12,13.04-.04,19.56-.11,4.41-.57,8.8-2.36,12.96-2.64,6.15-7.15,9.92-13.67,11.4-4.2.95-8.35.78-12.46-.31-4.83-1.28-8.45-4.23-10.99-8.49-2.43-4.08-3.52-8.57-3.62-13.28-.08-3.65-.02-7.29-.02-10.94h-.02Z"/>
    <path class="cls-4" d="m405.12,375.91c0-6.63-.02-13.25,0-19.88.02-3.71.27-3.97,3.95-3.98,8.51-.02,17.01,0,25.52,0,.44,0,.88,0,1.32.02,2.08.14,2.59.56,2.65,2.56.06,1.98.02,3.98-.08,5.96-.05,1.08-.59,1.55-1.69,1.66-.88.09-1.76.1-2.65.1-4.31,0-8.62,0-12.92,0-.77,0-1.55.02-2.32.07-.86.06-1.48.51-1.6,1.39-.25,1.76-.24,3.52,0,5.28.11.86.67,1.4,1.52,1.5.87.1,1.76.14,2.64.14,3.09.02,6.19,0,9.28.01.55,0,1.11-.01,1.66.02,2.9.14,3.37.61,3.42,3.62.03,1.43-.01,2.87-.13,4.3-.11,1.26-.66,1.81-1.86,1.95-.87.1-1.76.1-2.65.1-3.31.01-6.63,0-9.94.01-.77,0-1.55.01-2.31.11-1.05.13-1.62.64-1.67,1.72-.08,1.87-.05,3.75.02,5.62.03.87.59,1.44,1.47,1.53.88.1,1.76.12,2.64.12,4.53,0,9.06,0,13.59-.01.55,0,1.11-.03,1.66-.01,2.38.08,3.06.66,3,2.92-.05,1.98-.32,3.96-.53,5.93-.08.72-.55,1.23-1.28,1.32-.87.11-1.76.15-2.64.15-8.62.01-17.23.02-25.85,0-4.06,0-4.2-.11-4.24-4.35-.05-6.63-.01-13.25-.01-19.88.01,0,.02,0,.03,0Z"/>
    <path class="cls-4" d="m699.25,400.14c-4.09,0-8.18,0-12.26,0-.77,0-1.55.01-2.32-.04-1.71-.12-2.14-.54-2.31-2.18-.05-.55-.05-1.1-.05-1.66,0-13.48-.02-26.96,0-40.44,0-3.48.3-3.77,3.81-3.78,8.62-.03,17.24-.03,25.86,0,3.55.01,3.78.27,3.82,3.75.02,1.55.02,3.1-.09,4.64-.09,1.28-.59,1.72-1.9,1.84-.88.08-1.77.07-2.65.07-4.2,0-8.4,0-12.6,0-.77,0-1.55-.01-2.32.06-1.13.1-1.74.56-1.8,1.58-.09,1.65-.09,3.31,0,4.96.06,1.03.68,1.57,1.72,1.7.87.11,1.76.12,2.64.12,3.43.01,6.85-.03,10.28.02,3.43.05,3.8.44,3.87,3.83.02,1.21.04,2.44-.06,3.64-.15,1.75-.7,2.26-2.53,2.42-.77.07-1.55.05-2.32.05-3.09,0-6.19,0-9.28,0-.88,0-1.77.03-2.65.11-.86.07-1.5.54-1.62,1.4-.3,2.08-.32,4.18.03,6.26.12.72.7,1.13,1.41,1.21.88.09,1.76.12,2.64.12,4.64.01,9.28-.02,13.92.02,3.66.03,3.89.27,3.91,4,0,1.54-.03,3.09-.13,4.63-.05.86-.59,1.43-1.47,1.52-.88.09-1.76.12-2.64.13-4.31.01-8.62,0-12.93,0Z"/>
    <path class="cls-4" d="m289.36,352c5.6-.28,10.67,1.4,15.43,4.2,1.53.9,1.66,1.37.88,2.97-.97,1.98-1.99,3.95-3.06,5.88-.76,1.37-1.32,1.54-2.68.75-2.41-1.39-4.93-2.45-7.63-3.13-1.42-.36-2.84-.41-4.27-.35-.44.02-.88.06-1.31.16-1.87.44-3.02,1.49-3.22,2.92-.19,1.4.66,2.75,2.49,3.51,1.63.67,3.34,1.12,5.02,1.66,2.42.78,4.85,1.5,7.24,2.35,1.98.71,3.83,1.71,5.51,3,1.91,1.47,3.22,3.36,3.76,5.7.67,2.94.71,5.93-.09,8.86-.88,3.24-2.87,5.69-5.82,7.32-4.4,2.42-9.16,3.23-14.09,2.79-5.55-.49-10.86-1.96-15.79-4.62-2.36-1.27-2.51-1.67-1.35-4.17.88-1.9,1.82-3.78,2.81-5.63.75-1.39,1.3-1.56,2.67-.77,2.89,1.67,5.95,2.89,9.13,3.85,2.28.69,4.58.62,6.9.5,1.03-.05,1.93-.46,2.66-1.18,1.04-1.03,1.08-2.49.07-3.56-1.01-1.08-2.31-1.7-3.68-2.15-2.1-.69-4.23-1.26-6.33-1.96-1.88-.63-3.77-1.29-5.58-2.09-3.8-1.69-6.81-4.19-7.57-8.55-.82-4.69.04-9.03,3.25-12.7,3.08-3.52,7.12-5.1,11.67-5.55.98-.1,1.99-.01,2.98-.01Z"/>
    <path class="cls-4" d="m363.41,376.15c0-6.41,0-12.81,0-19.22q0-4.88,5.05-4.89c5.08,0,10.16.04,15.24-.01,7.71-.08,14.34,5.75,16.01,12.93,1.96,8.39-2.87,17.1-10.86,19.43-1.19.35-2.38.48-3.59.49-1.99.01-3.98,0-5.96.02-3.73.03-3.81.1-3.83,3.98-.02,2.32,0,4.64,0,6.96-.03,4.17-.16,4.3-4.25,4.32-1.77.01-3.54.04-5.3-.03-1.82-.07-2.28-.56-2.44-2.42-.07-.88-.06-1.77-.06-2.65,0-6.3,0-12.59,0-18.89Zm17.11-1.52v-.06c.77,0,1.54.03,2.31,0,2.86-.14,4.48-1.54,4.94-4.3.22-1.3.25-2.63-.02-3.93-.36-1.78-1.44-3.05-3.23-3.31-2.38-.35-4.79-.51-7.2-.61-1.23-.05-1.76.54-1.79,1.87-.07,2.74-.02,5.48-.02,8.23,0,.22.04.44.09.65.15.71.59,1.22,1.31,1.28,1.2.11,2.41.13,3.61.18Z"/>
    <path class="cls-4" d="m565.64,352.08c1.44,0,2.87,0,4.31,0,1.25,0,2.06.65,2.5,1.8.43,1.14.89,2.26,1.29,3.41,4.41,12.73,8.82,25.46,13.21,38.2.36,1.04.66,2.11.9,3.18.17.74-.29,1.34-1.06,1.35-2.98.05-5.96.04-8.94.02-.85,0-1.47-.49-1.75-1.3-.53-1.57-1.03-3.15-1.53-4.72-1.54-4.87-1.13-4.48-6.15-4.49-2.54,0-5.08-.03-7.62.02-2.25.04-2.58.31-3.29,2.5-.61,1.89-1.2,3.79-1.73,5.71-.49,1.79-1.61,2.47-3.42,2.4-2.43-.09-4.86,0-7.29-.07-1.35-.04-1.74-.63-1.42-1.96.21-.86.5-1.69.79-2.53,4.57-13.26,9.15-26.52,13.73-39.78.18-.52.4-1.03.56-1.56.5-1.61,1.63-2.26,3.26-2.21,1.21.04,2.43,0,3.65,0,0,0,0,.02,0,.03Zm-.04,29.26c1.1-.06,2.2-.07,3.29-.2.84-.1,1.28-.81,1.16-1.69-.05-.32-.12-.65-.22-.96-1.02-3.37-2.04-6.74-3.07-10.1-.13-.42-.32-.82-.54-1.2-.09-.15-.34-.3-.52-.29-.17,0-.39.17-.5.33-.18.27-.32.58-.42.89-.88,2.84-1.75,5.67-2.6,8.52-1.35,4.5-1.25,4.63,3.41,4.69Z"/>
    <path class="cls-3" d="m273.26,570.43c-6.95.54-16.01-5.48-17.18-15.24-.58-4.78,2.63-12.89,8.07-15.63,6.6-3.33,12.95-3.41,19.04.92,7.7,5.48,10.26,18.51.19,26.5-3.1,2.46-6.29,3.45-10.11,3.46Z"/>
    <path class="cls-3" d="m354.32,570.44c-8.17.38-15.33-5.94-16.75-14.03-1.41-8.07,3.47-15.59,11.28-18.38,9.09-3.25,21.45,2.44,22.43,15.32.17,2.21-.38,4.39-1.22,6.45-2.3,5.65-8.51,10.94-15.74,10.64Z"/>
    <path class="cls-4" d="m739.2,352.03c5.41,0,10.81-.02,16.22,0,3.67.02,3.95.29,3.98,3.95.01,1.54-.01,3.09-.15,4.62-.09,1.07-.66,1.58-1.74,1.64-1.76.09-3.53.07-5.29.09-1.66.01-3.31-.03-4.96.03-1.87.07-2.23.47-2.33,2.43-.04.88-.02,1.77-.02,2.65,0,9.38,0,18.76,0,28.14,0,4.54-.02,4.55-4.65,4.56-1.76,0-3.53.02-5.29-.07-1.27-.06-1.77-.55-1.92-1.84-.13-1.09-.14-2.2-.14-3.3,0-9.16,0-18.32,0-27.48,0-.88.02-1.77-.03-2.65-.12-1.88-.57-2.37-2.39-2.43-2.09-.07-4.19-.02-6.29-.04-1.21-.01-2.43,0-3.64-.1-1.13-.09-1.63-.55-1.73-1.63-.2-2.31-.22-4.63.02-6.94.09-.88.67-1.4,1.52-1.49.98-.11,1.98-.14,2.97-.14,5.3-.01,10.59,0,15.89,0Z"/>
  </g>
  <text class="cls-7" transform="translate(411.08 544.36)"><tspan class="cls-1" x="0" y="0">V</tspan><tspan class="cls-5" x="17.75" y="0">ALLE FÉ</tspan><tspan class="cls-6" x="123.2" y="0">R</tspan><tspan class="cls-2" x="141.3" y="0">TIL - SAN J</tspan><tspan class="cls-8" x="292.48" y="0">U</tspan><tspan class="cls-2" x="312.98" y="0">AN</tspan></text>
</svg>