<?xml version="1.0" encoding="UTF-8"?>
<svg id="Capa_5" data-name="Capa 5" xmlns="http://www.w3.org/2000/svg" xmlns:xlink="http://www.w3.org/1999/xlink" viewBox="0 0 850.39 554.8">
  <defs>
    <style>
      .cls-1 {
        fill: url(#Nueva_muestra_de_motivo_7-2);
      }

      .cls-1, .cls-2, .cls-3, .cls-4, .cls-5, .cls-6, .cls-7, .cls-8, .cls-9 {
        stroke-width: 0px;
      }

      .cls-2 {
        fill: url(#Nueva_muestra_de_motivo_7-3);
      }

      .cls-3 {
        fill: url(#Nueva_muestra_de_motivo_7-5);
      }

      .cls-4 {
        fill: none;
      }

      .cls-5 {
        fill: url(#Nueva_muestra_de_motivo_7-4);
      }

      .cls-6 {
        fill: url(#Nueva_muestra_de_motivo_7-6);
      }

      .cls-7 {
        fill: url(#Nueva_muestra_de_motivo_7);
      }

      .cls-8 {
        fill: url(#Nueva_muestra_de_motivo_7-7);
      }

      .cls-9 {
        fill: #732e1e;
      }
    </style>
    <pattern id="Nueva_muestra_de_motivo_7" data-name="Nueva muestra de motivo 7" x="0" y="0" width="185" height="188.8" patternTransform="translate(112.61 764.2)" patternUnits="userSpaceOnUse" viewBox="0 0 185 188.8">
      <g>
        <rect class="cls-4" width="185" height="188.8"/>
        <rect class="cls-9" width="185" height="188.8"/>
      </g>
    </pattern>
    <pattern id="Nueva_muestra_de_motivo_7-2" data-name="Nueva muestra de motivo 7" patternTransform="translate(100.78 714.4)" xlink:href="#Nueva_muestra_de_motivo_7"/>
    <pattern id="Nueva_muestra_de_motivo_7-3" data-name="Nueva muestra de motivo 7" patternTransform="translate(100.78 714.4)" xlink:href="#Nueva_muestra_de_motivo_7"/>
    <pattern id="Nueva_muestra_de_motivo_7-4" data-name="Nueva muestra de motivo 7" patternTransform="translate(100.78 714.4)" xlink:href="#Nueva_muestra_de_motivo_7"/>
    <pattern id="Nueva_muestra_de_motivo_7-5" data-name="Nueva muestra de motivo 7" patternTransform="translate(100.78 714.4)" xlink:href="#Nueva_muestra_de_motivo_7"/>
    <pattern id="Nueva_muestra_de_motivo_7-6" data-name="Nueva muestra de motivo 7" patternTransform="translate(100.78 714.4)" xlink:href="#Nueva_muestra_de_motivo_7"/>
    <pattern id="Nueva_muestra_de_motivo_7-7" data-name="Nueva muestra de motivo 7" patternTransform="translate(100.78 714.4)" xlink:href="#Nueva_muestra_de_motivo_7"/>
  </defs>
  <g>
    <path class="cls-7" d="m173.75,385.44c0,12.07.04,24.14-.02,36.21-.02,4.63.43,8.75,6.4,9.05,14.45.72,28.98.87,42.59-4.63,10.57-4.27,18.47-11.79,19.71-23.98.94-9.24,6.25-9.64,13.14-7.2,8.82,3.12,14.34,9.34,15.61,18.66,1.59,11.73-2.6,21.56-11.61,28.98-7.08,5.83-15.51,9.51-24.79,8.71-34.66-2.99-69.1-1.6-103.56,2.94-12.52,1.65-24.94-.83-36.13-7.02-6.41-3.55-11-7.44-2.23-14.65,8.02-6.61,9.15-17.2,9.11-26.87-.2-45.15-.76-90.31-1.74-135.45-.21-9.66-2.48-19.22-10.53-26.33-6.94-6.13-.82-9.98,3.62-12.47,13.65-7.67,28.82-10.36,44.04-7.87,28.01,4.57,55.82,3.05,83.71-.05,22.52-2.51,40.68,8.22,44.57,26.45,2.77,13-3.48,24.07-15.79,28.93-6.65,2.63-10.84,1.27-11.58-6.08-1.84-18.35-15.22-23.82-30.2-27.65-1.12-.29-2.31-.32-3.47-.47-30.94-3.87-32.19-2.81-31.95,27.41.09,12.07.8,24.17.16,36.2-.58,10.89,3.79,13.44,13.87,11.9,14.33-2.2,28.72-2.76,42.06,4.98,10.16,5.89,14.91,14.72,13.97,26.19-.81,9.87-8.13,14.6-16.5,17.68-6.01,2.21-10.03,1.07-12.05-6.33-4-14.7-16.87-23.57-32.11-23.97-6.91-.18-8.74,3.3-8.68,9.36.13,12.46.04,24.92.04,37.38.12,0,.24,0,.36,0Z"/>
    <path class="cls-1" d="m671.74,346.88c-15.9.39-30.26,2.01-44.56.1-10.85-1.45-21.63-3.24-30.15-11.03-10.44-9.55-11.15-22.79-1.25-32.94,3.72-3.81,8.26-7.62,13.16-9.38,36.09-12.98,72.36-13.46,108.09,1.19,20.46,8.39,30.01,25,31.19,46.63.83,15.15,1.11,30.32,1.91,45.47.68,12.86,1.42,25.8,11.34,35.78,3.43,3.45,2.98,6.71-.34,10.1-11.29,11.54-59.72,18.51-73.01-2.28-4.99-7.81-8.48-6.52-14.12-.69-18.59,19.22-64.5,21.07-82.44-7.34-10.7-16.94-10.3-47,1.88-62.94,4.86-6.36,10.33-5.65,16.6-3.66,16.08,5.09,32.29,3.64,48.42.42,4.81-.96,9.73-2.61,13.29-9.43Zm8.13,31.97c0-3.88.16-7.77-.05-11.64-.16-3.03-1.43-5.81-5.09-3.98-10.7,5.36-22.52,9.21-29.96,19.41-5.4,7.41-2.07,22.06,5.64,27.1,8.19,5.36,19.37,2.12,24.9-7.23,4.33-7.32,4.86-15.45,4.56-23.66Zm-13.75-44.44c5.88-.38,12.73-1.21,12.16-10.59-.9-14.92-7.24-28.91-23.21-29.65-10.04-.47-16.93,6.57-17.28,17.59-.39,12.18,11.71,22.22,28.33,22.65Z"/>
    <path class="cls-7" d="m488.56,288.13c16.02.27,30.61,1.81,44.77,6.82,7.74,2.74,13.57,7.84,18.32,13.91,8.46,10.83,1.78,28.25-11.67,32.11-5.97,1.71-8.08-2.11-10.93-6.14-9.15-12.9-20.23-23.59-35.79-28.6-5.65-1.82-11.36-2.46-17.27-2.01-5.17.39-10.52.56-11.97,6.94-1.44,6.35,2.07,10.71,7.2,13.27,10.07,5.03,20.42,9.47,30.67,14.13,17.27,7.85,35.56,13.69,49.34,27.92,18.95,19.58,17.59,46.82-4.61,62.57-30.25,21.46-64.02,21.25-98.47,13.46-14.22-3.22-27.62-8.13-36.29-21.23-7.87-11.88-6.38-26.45,4.2-33.1,6.94-4.36,12.87-5.72,17.93,4.03,9.87,19,25.54,31.18,47.31,33.89,9.44,1.18,21.03,1.18,23.75-9.28,2.81-10.78-8.56-14.35-16.74-17.42-14.18-5.33-28.98-9.09-43-14.8-26.53-10.81-36.75-25.75-35-48.86,1.57-20.79,17.48-37.83,42.48-43.72,12-2.83,24.26-6.01,35.75-3.89Z"/>
    <path class="cls-7" d="m367.57,389.35c.22,15.02-1.66,31.59,21.04,33.37,6.06.47,2.83,6.03.77,9.11-10.52,15.63-38.82,23.35-60.64,16.72-18.56-5.64-28.87-20.9-29.11-42.91-.45-39.68-.7-79.37-1.57-119.04-.27-12.52-.53-24.8,3.39-36.91,7.8-24.13,35.17-32.98,57.07-34.8,8.5-.7,8.95,5.48,8.94,11.74,0,0-.27,136.28.11,162.73Z"/>
  </g>
  <g>
    <g>
      <path class="cls-2" d="m303.71,149.36c-3,0-4.5-1.54-4.5-4.63v-39.3c0-3.09,1.54-4.63,4.63-4.63h23.77c2.36,0,3.54,1.14,3.54,3.41s-1.18,3.54-3.54,3.54h-19.68v13.55h18.25c2.36,0,3.54,1.14,3.54,3.41s-1.18,3.54-3.54,3.54h-18.25v16.48c0,3.09-1.41,4.63-4.22,4.63Z"/>
      <path class="cls-5" d="m355.47,149.36c-2.91,0-4.36-1.5-4.36-4.5v-40.11c0-3,1.45-4.5,4.36-4.5s4.36,1.5,4.36,4.5v40.11c0,3-1.45,4.5-4.36,4.5Z"/>
      <path class="cls-3" d="m388.03,149.36c-2.72,0-4.09-1.41-4.09-4.22v-40.52c0-1.41.35-2.49,1.06-3.24.7-.75,1.62-1.12,2.76-1.12,1.04,0,1.83.19,2.35.58.52.39,1.15,1.03,1.87,1.94l24.31,31.53v-29.9c0-2.77,1.36-4.15,4.09-4.15s4.02,1.39,4.02,4.15v40.86c0,1.27-.32,2.27-.95,3-.64.73-1.5,1.09-2.59,1.09s-1.87-.2-2.49-.61c-.61-.41-1.28-1.07-2.01-1.98l-24.31-31.6v29.97c0,2.82-1.34,4.22-4.02,4.22Z"/>
      <path class="cls-6" d="m470.84,149.5c-5,0-9.27-1.01-12.84-3.03-3.56-2.02-6.3-4.88-8.21-8.58-1.91-3.7-2.86-8.07-2.86-13.11s.95-9.4,2.86-13.08c1.91-3.68,4.64-6.53,8.21-8.55,3.56-2.02,7.84-3.03,12.84-3.03,2.5,0,4.95.32,7.36.95,2.41.64,4.52,1.54,6.33,2.72,1.18.77,1.88,1.69,2.11,2.76.23,1.07.09,2.04-.41,2.93-.5.89-1.25,1.48-2.25,1.77-1,.3-2.11.03-3.34-.78-1.41-.91-2.93-1.57-4.56-1.98-1.63-.41-3.29-.61-4.97-.61-4.86,0-8.56,1.46-11.1,4.39-2.54,2.93-3.81,7.09-3.81,12.5s1.27,9.58,3.81,12.53c2.54,2.95,6.24,4.43,11.1,4.43,1.73,0,3.43-.21,5.11-.65,1.68-.43,3.27-1.1,4.77-2.01,1.23-.77,2.32-1.02,3.27-.75.95.27,1.67.83,2.15,1.67.48.84.62,1.76.44,2.76-.18,1-.79,1.88-1.84,2.66-1.82,1.32-3.98,2.33-6.5,3.03-2.52.7-5.07,1.06-7.66,1.06Z"/>
      <path class="cls-8" d="m507.89,149.36c-1.59,0-2.72-.54-3.41-1.63-.68-1.09-.66-2.41.07-3.95l17.98-39.84c.59-1.32,1.3-2.26,2.15-2.83.84-.57,1.8-.85,2.89-.85s1.99.28,2.83.85c.84.57,1.55,1.51,2.15,2.83l18.05,39.84c.73,1.59.77,2.92.14,3.98-.64,1.07-1.73,1.6-3.27,1.6-1.27,0-2.26-.31-2.96-.92-.7-.61-1.33-1.55-1.87-2.83l-3.41-7.9h-23.43l-3.34,7.9c-.59,1.32-1.2,2.27-1.84,2.86-.64.59-1.54.89-2.72.89Zm19.55-39.09l-8.65,20.5h17.44l-8.65-20.5h-.14Z"/>
    </g>
    <g>
      <circle class="cls-7" cx="266.73" cy="124.81" r="8.15"/>
      <circle class="cls-7" cx="583.66" cy="124.81" r="8.15"/>
    </g>
  </g>
</svg>