<?xml version="1.0" encoding="UTF-8"?>
<svg id="Capa_5" data-name="Capa 5" xmlns="http://www.w3.org/2000/svg" viewBox="0 0 850.39 483.58">
  <defs>
    <style>
      .cls-1 {
        fill: #34368a;
      }

      .cls-1, .cls-2, .cls-3 {
        stroke-width: 0px;
      }

      .cls-2 {
        fill: #e42522;
      }

      .cls-4 {
        fill: #1a171b;
        stroke: #fff;
        stroke-miterlimit: 10;
        stroke-width: 16.3px;
      }

      .cls-3 {
        fill: #fff;
      }
    </style>
  </defs>
  <g>
    <g>
      <path class="cls-4" d="m85.93,239.65v-30.25h14.58v-92.69h-14.58v-30.25h61.19v30.25h-14.58v33.75h57.11v-33.75h-14.58v-30.25h61.19v30.25h-14.58v92.69h14.58v30.25h-61.19v-30.25h14.58v-30.01h-57.11v30.01h14.58v30.25h-61.19Z"/>
      <path class="cls-4" d="m246.36,171.25c0-20.26,6.43-37.18,19.29-50.8,12.85-13.62,28.68-20.42,47.48-20.42s34.63,6.81,47.48,20.42c12.85,13.62,19.29,30.54,19.29,50.8s-6.44,37.19-19.29,50.8c-12.85,13.62-28.68,20.42-47.48,20.42s-34.63-6.81-47.48-20.42c-12.87-13.62-19.29-30.54-19.29-50.8Zm29.11.1c0,12.3,3.64,22.77,10.93,31.37,7.27,8.61,16.21,12.92,26.83,12.92s19.56-4.32,26.84-12.92c7.27-8.61,10.91-19.07,10.91-31.37s-3.64-22.78-10.91-31.46c-7.28-8.69-16.23-13.03-26.84-13.03s-19.56,4.34-26.83,13.03c-7.28,8.68-10.93,19.16-10.93,31.46Z"/>
      <path class="cls-4" d="m413.82,145.78h-27.53v-39.47h110.12v39.47h-27.53v-13.6h-11.96v81.63h14.16v26.45h-59.44v-26.45h14.16v-81.63h-11.96v13.6Z"/>
      <path class="cls-4" d="m515.15,240.42v-26.35h14.58v-80.75h-14.58v-26.35h118.1v40.08h-28.35v-13.55h-43.14v27.49h43.14v25.39h-43.14v27.69h45.39v-13.55h28.35v39.9h-120.35Z"/>
      <path class="cls-4" d="m656.64,239.65v-26.31h14.58v-80.64h-14.58v-26.31h61.19v26.31h-14.58v80.45h32.86v-13.53h28.35v40.03h-107.83Z"/>
    </g>
    <g>
      <path class="cls-2" d="m85.93,239.65v-30.25h14.58v-92.69h-14.58v-30.25h61.19v30.25h-14.58v33.75h57.11v-33.75h-14.58v-30.25h61.19v30.25h-14.58v92.69h14.58v30.25h-61.19v-30.25h14.58v-30.01h-57.11v30.01h14.58v30.25h-61.19Z"/>
      <path class="cls-2" d="m246.36,171.25c0-20.26,6.43-37.18,19.29-50.8,12.85-13.62,28.68-20.42,47.48-20.42s34.63,6.81,47.48,20.42c12.85,13.62,19.29,30.54,19.29,50.8s-6.44,37.19-19.29,50.8c-12.85,13.62-28.68,20.42-47.48,20.42s-34.63-6.81-47.48-20.42c-12.87-13.62-19.29-30.54-19.29-50.8Zm29.11.1c0,12.3,3.64,22.77,10.93,31.37,7.27,8.61,16.21,12.92,26.83,12.92s19.56-4.32,26.84-12.92c7.27-8.61,10.91-19.07,10.91-31.37s-3.64-22.78-10.91-31.46c-7.28-8.69-16.23-13.03-26.84-13.03s-19.56,4.34-26.83,13.03c-7.28,8.68-10.93,19.16-10.93,31.46Z"/>
      <path class="cls-2" d="m413.82,145.78h-27.53v-39.47h110.12v39.47h-27.53v-13.6h-11.96v81.63h14.16v26.45h-59.44v-26.45h14.16v-81.63h-11.96v13.6Z"/>
      <path class="cls-2" d="m515.15,240.42v-26.35h14.58v-80.75h-14.58v-26.35h118.1v40.08h-28.35v-13.55h-43.14v27.49h43.14v25.39h-43.14v27.69h45.39v-13.55h28.35v39.9h-120.35Z"/>
      <path class="cls-2" d="m656.64,239.65v-26.31h14.58v-80.64h-14.58v-26.31h61.19v26.31h-14.58v80.45h32.86v-13.53h28.35v40.03h-107.83Z"/>
    </g>
  </g>
  <g>
    <g>
      <path class="cls-3" d="m280.03,260.7c1.07,0,1.98.67,2.71,2.02.51,1.6-.03,4.67-1.61,9.21-1.58,4.54-5.33,8.24-11.24,11.1-2.96,1.02-7.73,1.55-14.3,1.59-1.41,0-2.85.01-4.32.01-5.44,0-11.37-.06-17.79-.19.61,1.9.46,3.95-.46,6.15-2.14,4.74-6.48,12.53-13,23.38.82.05,1.55.12,2.22.23.66.11,1.2.25,1.61.43,2.34,1.17,3.88,3.28,4.59,6.34.71,3.06.92,5.32.61,6.77-.27.84-.67,1.26-1.19,1.26-.06,0-.12,0-.19-.02-.61-.11-1.07-.56-1.38-1.36-1.01-1.55-5.3-2.32-12.85-2.32-.05,0-.1,0-.15,0-14.59,23.54-24.43,40.63-29.53,51.28-1.63,3.99-2.4,7-2.3,9.03.1,1.01.05,1.78-.15,2.31-.2.53-.66.81-1.38.86-.16.01-.31.02-.46.02-2.14,0-3.95-1.04-5.43-3.13-1.58-2.24-2.65-4.79-3.21-7.66-.56-2.87-.59-5.29-.08-7.26.41-1.15.97-2.46,1.68-3.94,1.43-3.05,2.52-6.34,3.29-9.86.77-3.52,1.15-6.81,1.15-9.87s-.46-5.48-1.38-7.25c-2.35-4.02-2.63-7.95-.84-11.8,1.78-3.84,6.14-6.97,13.08-9.38,4.9-1.66,10.1-2.88,15.61-3.67,7.85-12.67,13.31-22.89,16.37-30.64-5.41.06-10.56.37-15.45.9-6.22.63-11.68,1.66-16.37,3.11-4.69,1.44-8.64,3.12-11.86,5.02s-5.74,3.86-7.57,5.87c-1.84,2.01-3.11,3.94-3.83,5.77-.71,1.84-.89,3.38-.54,4.63.36,1.25,1.2,2.04,2.52,2.35.51.17.61.44.31.82-.31.38-.82.64-1.53.79-.15.03-.3.05-.44.05-.55,0-1.06-.23-1.55-.68-.61-.47-1.3-1.39-2.06-2.77-.76-1.37-1.4-3.06-1.91-5.07-.51-2-.69-4.16-.54-6.46.15-2.31.81-4.65,1.99-7.02,1.17-2.38,3.14-4.62,5.89-6.75,5.3-3.83,12.77-6.48,22.41-7.96,9.64-1.47,20.52-2.42,32.66-2.84,12.14-.42,24.58-1.01,37.33-1.78,4.18-.29,7.62-.83,10.33-1.62,2.7-.8,4.82-1.65,6.35-2.57,1.53-.92,2.6-1.78,3.21-2.59.61-.81.97-1.42,1.07-1.83,0-.61-.18-1.06-.54-1.34-.36-.28-.64-.52-.84-.71-.2-.19-.05-.46.46-.8.28-.08.55-.12.8-.12m-100.4,92.59c4.9-8.19,10.3-17.02,16.22-26.5-.92.17-1.81.35-2.68.57-.87.21-1.71.42-2.52.63-.82.21-1.58.41-2.29.61-.71.2-1.38.48-1.99.82-3.16,1.13-5.41,2.56-6.73,4.29-1.33,1.72-1.43,4.74-.31,9.05.82,3.62.92,7.13.31,10.54m100.4-96.67h0c-.63,0-1.28.09-1.91.27l-.62.17-.53.36c-1.8,1.2-2.27,2.66-2.35,3.67-.07.89.14,1.77.58,2.52-.32.25-.78.58-1.44.97-1.22.74-3.04,1.46-5.4,2.16-2.41.71-5.59,1.2-9.45,1.47-12.57.76-25.1,1.36-37.19,1.78-12.25.43-23.4,1.4-33.14,2.89-10.24,1.57-18.38,4.49-24.18,8.68l-.05.04-.05.04c-3.24,2.5-5.61,5.25-7.05,8.17-1.4,2.84-2.21,5.72-2.4,8.55-.18,2.73.04,5.33.65,7.74.59,2.33,1.36,4.36,2.3,6.05,1.01,1.82,1.97,3.07,2.99,3.9,1.21,1.07,2.65,1.64,4.18,1.64.43,0,.86-.05,1.29-.14,1.64-.34,2.94-1.09,3.86-2.22.98-1.21,1.32-2.73.9-4.16-.41-1.42-1.5-2.53-3-3.06.02-.31.11-.84.43-1.66.53-1.35,1.55-2.87,3.04-4.5,1.56-1.71,3.79-3.43,6.64-5.11,2.92-1.73,6.61-3.28,10.98-4.63,4.4-1.35,9.65-2.34,15.58-2.95,2.82-.31,5.74-.54,8.74-.69-2.95,6.26-7.15,13.84-12.55,22.63-5.04.82-9.89,2.01-14.43,3.55-8.13,2.83-13.18,6.59-15.47,11.53-2.32,5-1.99,10.34.96,15.46.41.83.88,2.42.88,5.3s-.35,5.79-1.05,9c-.69,3.2-1.7,6.22-2.99,8.98-.78,1.62-1.39,3.04-1.84,4.33l-.06.17-.04.17c-.67,2.59-.67,5.56.02,9.07.67,3.43,1.98,6.53,3.89,9.23,2.83,4.01,6.32,4.85,8.75,4.85.24,0,.49,0,.74-.03,2.29-.16,4.12-1.44,4.9-3.45.43-1.11.57-2.44.42-4.06-.02-.71.16-2.7,1.96-7.1,4.89-10.18,14.32-26.6,28.06-48.83,4.85.11,6.81.6,7.51.85.89,1.47,2.26,2.45,3.88,2.75.31.06.62.08.92.08.88,0,3.83-.29,5.06-4.07l.07-.21.05-.21c.44-2.08.24-4.79-.63-8.53-1.13-4.85-3.8-7.39-6.07-8.7,5.1-8.63,8.51-14.89,10.4-19.07l.03-.06.02-.06c.5-1.2.84-2.4,1.01-3.57,4.78.07,9.3.11,13.47.11,1.49,0,2.94,0,4.35-.01,7.08-.04,12.19-.63,15.6-1.81l.23-.08.22-.1c6.9-3.33,11.38-7.84,13.32-13.43,1.95-5.6,2.45-9.24,1.64-11.79l-.12-.38-.19-.35c-1.97-3.6-4.79-4.13-6.29-4.13h0Zm-97.15,83.41c-.56-2.98-.03-3.83-.02-3.84.51-.67,1.61-1.62,3.96-2.58-1.34,2.17-2.65,4.32-3.94,6.42h0Z"/>
      <path class="cls-1" d="m227.67,328.98c.61.11,1.07-.3,1.38-1.24.31-1.45.1-3.7-.61-6.77-.71-3.06-2.25-5.17-4.59-6.34-.41-.18-.94-.32-1.61-.43-.66-.11-1.4-.18-2.22-.23,6.52-10.85,10.86-18.64,13-23.38.92-2.2,1.07-4.25.46-6.15,8.16.16,15.53.22,22.11.17,6.58-.04,11.34-.57,14.3-1.59,5.91-2.85,9.66-6.55,11.24-11.1,1.58-4.54,2.12-7.61,1.61-9.21-.92-1.67-2.09-2.3-3.52-1.9-.51.34-.66.61-.46.8.2.19.48.43.84.71.36.28.54.73.54,1.34-.1.41-.46,1.03-1.07,1.83-.61.81-1.68,1.67-3.21,2.59-1.53.92-3.65,1.78-6.35,2.57-2.7.8-6.15,1.34-10.33,1.62-12.75.77-25.19,1.36-37.33,1.78-12.14.42-23.02,1.37-32.66,2.84-9.64,1.48-17.11,4.13-22.41,7.96-2.75,2.13-4.72,4.38-5.89,6.75-1.17,2.38-1.83,4.72-1.99,7.02-.15,2.3.02,4.46.54,6.46.51,2.01,1.15,3.7,1.91,5.07.76,1.38,1.45,2.3,2.06,2.77.61.57,1.27.78,1.99.63.71-.15,1.22-.41,1.53-.79.31-.38.2-.65-.31-.82-1.33-.32-2.17-1.1-2.52-2.35-.36-1.25-.18-2.79.54-4.63.71-1.83,1.99-3.75,3.82-5.77,1.84-2.01,4.36-3.97,7.57-5.87,3.21-1.9,7.16-3.57,11.86-5.02,4.69-1.44,10.15-2.48,16.37-3.11,4.89-.54,10.05-.84,15.45-.9-3.06,7.76-8.52,17.97-16.37,30.64-5.51.78-10.71,2.01-15.61,3.67-6.94,2.41-11.3,5.54-13.08,9.38-1.79,3.85-1.51,7.78.84,11.8.92,1.77,1.38,4.19,1.38,7.25s-.38,6.35-1.15,9.87c-.76,3.52-1.86,6.81-3.29,9.86-.71,1.48-1.28,2.79-1.68,3.94-.51,1.97-.49,4.39.08,7.26.56,2.87,1.63,5.42,3.21,7.66,1.58,2.24,3.54,3.28,5.89,3.12.71-.05,1.17-.33,1.38-.86.2-.52.25-1.29.15-2.31-.1-2.03.66-5.04,2.3-9.03,5.1-10.65,14.94-27.74,29.53-51.28,7.65-.01,11.98.76,13,2.32.31.8.76,1.25,1.38,1.36Zm-48.04,24.32c.61-3.41.51-6.92-.31-10.54-1.12-4.31-1.02-7.32.31-9.05,1.32-1.72,3.57-3.15,6.73-4.29.61-.35,1.27-.62,1.99-.82.71-.2,1.48-.41,2.29-.61.82-.21,1.66-.42,2.52-.63.87-.21,1.76-.4,2.68-.57-5.92,9.48-11.32,18.32-16.22,26.5Z"/>
    </g>
    <g>
      <path class="cls-3" d="m443.31,277.17c.96,0,1.97.2,3.05.61,3.31,1.25,4.82,3.42,4.51,6.5-.82,2.2-2.04,4.47-3.67,6.83-1.63,2.36-2.14,4.02-1.53,5,.41.48.54.91.38,1.27-.15.37-.49.62-1,.76-.18.05-.38.07-.6.07-.4,0-.86-.08-1.39-.24-3.57-1.39-5.76-3.94-6.58-7.66-.82-3.72-.26-7.22,1.68-10.52,1.44-1.75,3.16-2.62,5.13-2.62m0-4.08c-3.2,0-6.06,1.42-8.28,4.1l-.21.25-.16.28c-2.47,4.2-3.19,8.73-2.15,13.46,1.11,5.04,4.25,8.7,9.08,10.58l.14.05.14.04c.93.28,1.77.42,2.59.42.57,0,1.13-.07,1.66-.21,1.74-.46,3.05-1.57,3.7-3.13.28-.68.74-2.26-.13-4.09.15-.31.42-.78.87-1.43,1.81-2.62,3.21-5.22,4.14-7.73l.18-.49.05-.53c.49-4.91-2.11-8.82-7.13-10.71-1.54-.58-3.05-.88-4.5-.88h0Z"/>
      <path class="cls-1" d="m443.07,297.97c.81.25,1.48.31,1.99.17.51-.14.84-.39,1-.76.15-.37.02-.79-.38-1.27-.61-.98-.1-2.64,1.53-5,1.63-2.35,2.85-4.63,3.67-6.83.31-3.08-1.2-5.25-4.51-6.5-3.32-1.25-6.04-.58-8.19,2.01-1.94,3.29-2.5,6.8-1.68,10.52.81,3.72,3.01,6.27,6.58,7.66Z"/>
    </g>
    <g>
      <path class="cls-3" d="m522.68,292.98c.29,0,.63.03,1.01.09,2.85.62,5.71,2.29,8.57,5,2.85,2.71,3.52,6.21,1.99,10.5-3.77,7.81-9.92,19.21-18.44,34.23-8.52,15.02-15.73,29-21.65,41.94-.82,1.89-1.4,3.64-1.76,5.25-.36,1.6-.53,2.92-.53,3.94.1,1.01.08,1.78-.08,2.3-.15.52-.64.81-1.45.86-.15.01-.3.02-.45.02-2.15,0-3.96-1.07-5.44-3.21-1.58-2.29-2.68-4.87-3.29-7.73-.61-2.87-.56-5.24.15-7.12,4.18-9.77,11.17-23.41,20.96-40.9-1.74,2.57-3.5,5.08-5.28,7.55-1.79,2.47-3.5,4.83-5.12,7.08-1.63,2.25-3.21,4.33-4.74,6.22-1.53,1.89-2.91,3.54-4.13,4.95-1.22,1.41-2.3,2.5-3.21,3.28-.92.78-1.58,1.18-1.99,1.21-.06,0-.13,0-.19,0-1.2,0-2.74-.73-4.63-2.2-1.99-1.55-3.6-3.63-4.82-6.25-1.22-2.62-1.38-5.49-.46-8.61.87-2.47,1.97-5.09,3.23-7.82-2.94,2.97-5.7,5.19-8.28,6.64,0,1.33-.05,2.66-.15,3.99,0,1.74-.49,3.81-1.45,6.22-.97,2.42-2.6,4.64-4.9,6.68-2.29,2.04-5.64,3.22-10.02,3.51-.4.03-.79.04-1.17.04-2.73,0-4.96-.7-6.71-2.1-1.99-1.6-3.41-3.54-4.28-5.83-.87-2.29-1.35-4.4-1.45-6.33,0-3.37,1.33-5.29,3.98-5.78,1.48.1,2.92.15,4.32.15,3.64,0,7.05-.33,10.21-.99.2-2.16.1-4.14-.31-5.95-.82-3.41-1.66-7.13-2.52-11.15-.27-1.23-.3-2.42-.41-3.62-1.44,2.25-3.36,5.21-5.78,8.94-5,7.69-10.43,15.4-16.29,23.14-5.87,7.74-10.07,11.7-12.62,11.88-.15.01-.31.02-.46.02-2.15,0-3.99-1.07-5.51-3.2-1.63-2.28-2.73-4.84-3.29-7.65-.56-2.82-.48-5.22.23-7.21.36-.91.85-2,1.4-3.17-4.45,5.94-8.97,11.27-13.56,15.93-4.74,4.81-8.8,7.33-12.16,7.56-.4.03-.8.04-1.19.04-4.33,0-8.29-1.65-11.89-4.96-3.93-3.61-5.63-7.62-5.13-12.04.1-.5.35-1.14.49-1.68-2.18,3.04-4.37,6.09-6.68,9.14-5.87,7.74-10.07,11.7-12.62,11.88-.14,0-.28.01-.42.01-2.07,0-3.87-1.07-5.39-3.21-1.63-2.28-2.73-4.83-3.29-7.65-.56-2.82-.53-5.22.08-7.2,2.45-5.98,6.32-13.54,11.63-22.67,5.3-9.13,9.28-15.88,11.93-20.25,1.75-2.88,2.49-4.33,2.23-4.33-.21,0-1.08.94-2.61,2.82-3.42,4.21-10.53,13.98-21.34,29.3-10.3,14.98-18.16,26.43-23.56,34.35,0,.1-.1.29-.31.56-.21.27-.61.42-1.22.47-.15.01-.31.02-.46.02-2.15,0-3.99-1.07-5.51-3.2-1.63-2.28-2.73-4.84-3.29-7.65-.54-2.7-.45-5,.18-6.94-3.27,4.5-6.48,8.72-9.59,12.4-3.98,4.71-6.94,7.13-8.87,7.26-.14,0-.29.01-.43.01-2.06,0-3.86-1.05-5.38-3.14-1.63-2.23-2.73-4.79-3.29-7.65-.56-2.87-.54-5.29.08-7.27.04-.07.07-.14.11-.2.07-.09.13-.18.2-.28-.07.07-.13.16-.2.28-3.7,5.14-7.23,9.74-10.59,13.77-3.42,4.11-5.79,6.21-7.11,6.3-.09,0-.17,0-.26,0-1.88,0-4.09-1.38-6.63-4.13-2.65-2.88-3.93-6.1-3.83-9.68.16-1.06.5-2.28.86-3.53-1.77,2.45-3.51,4.9-5.37,7.35-5.87,7.74-10.07,11.7-12.62,11.88-.16.01-.31.02-.47.02-2.15,0-3.98-1.04-5.5-3.13-1.63-2.23-2.73-4.78-3.29-7.65-.56-2.87-.48-5.3.23-7.28,1.73-4.3,5.15-10.78,10.25-19.44,5.1-8.66,9.43-15.92,13-21.77,1.02-1.39,1.78-3.08,2.29-5.05.51-1.97,0-3.67-1.53-5.1-5.51,8.84-10.61,16.89-15.3,24.15-.63.74-1.24,1.11-1.85,1.11-.28,0-.56-.08-.83-.24-.87-.5-1.05-1.33-.54-2.49,3.77-5.97,9.03-14.03,15.76-24.18-3.26-2.63-3.82-6.11-1.68-10.44,1.53-2.55,3.31-4.07,5.35-4.57.99-.24,1.9-.36,2.73-.36.87,0,1.64.13,2.32.4.92.24,1.04.8.38,1.66-.67.86-1.4,2.19-2.22,3.98-.71,1.68-1.1,3.16-1.15,4.44-.05,1.28.23,2.26.84,2.93,1.12,1.15,2.75,2.59,4.9,4.33,2.14,1.74,3.8,3.85,4.97,6.32,1.17,2.47.84,5.35-1,8.63-10.3,17.43-18.26,31.29-23.87,41.56-.87,1.9-.96,2.85-.27,2.85.04,0,.08,0,.12,0,.81-.11,2.75-2.05,5.81-5.83,6.73-8.52,12.39-16.19,16.98-23.04,4.59-6.84,7.44-11.11,8.57-12.82.02-.03.05-.02.08-.05.14-.2.24-.4.38-.59,3.16-4.5,6.43-8.6,9.79-12.3,3.36-3.7,6.58-6.7,9.64-9,3.06-2.3,5.76-3.53,8.11-3.69.14,0,.27-.01.41-.01,2.21,0,4.45,1.22,6.7,3.66,2.4,2.59,4.23,5.42,5.51,8.5,1.27,3.08,1.66,5.39,1.15,6.96-.41.85-.87,1.36-1.38,1.55-.15.06-.3.08-.43.08-.31,0-.58-.15-.79-.46-.31-.44-.36-1.17-.15-2.21.2-1.85-.33-3.67-1.61-5.47-.63-.89-1.48-1.33-2.54-1.33s-2.41.47-3.96,1.4c-2.75,1.92-5.71,4.78-8.87,8.56-3.16,3.79-6.25,7.92-9.26,12.41-3.01,4.49-5.71,8.7-8.11,12.64-2.4,3.94-4.11,6.96-5.12,9.07-3.57,6.88-5.02,10.39-4.36,10.55.04,0,.08.01.12.01.7,0,2.01-1.22,3.93-3.66,6.93-9.14,14.69-19.82,23.25-32.03.71-2.29.51-3.96-.61-5.01-.1-.09-.18-.27-.23-.52-.05-.25,0-.48.15-.7.15-.21.38-.38.69-.51.14-.05.31-.08.52-.08.27,0,.61.04,1.01.13,3.57.67,6.65,2.35,9.26,5.03,2.6,2.68,3.03,6.17,1.3,10.47-4.39,8.56-8.16,15.81-11.32,21.73-.41.95-.64,1.68-.69,2.19-.05.44.08.67.38.67.05,0,.1,0,.15-.02.41-.08,1.09-.58,2.07-1.52.97-.93,2.27-2.32,3.9-4.17,5.71-7.12,11.07-14.4,16.06-21.83,3.37-5.02,5.82-8.67,7.47-11.17.25-.46.47-.86.71-1.32,3.21-5.98,5.79-11.23,7.73-15.75,1.94-4.52,2.4-7.35,1.38-8.51-.1-.09-.18-.24-.23-.44-.05-.2-.05-.38,0-.54.05-.16.15-.32.31-.48.15-.16.41-.28.77-.36.11-.02.23-.03.35-.03.28,0,.6.06.95.18,2.96.61,5.86,2.28,8.72,4.99,2.85,2.71,3.47,6.22,1.84,10.51-2.14,4.23-6.2,11.67-12.16,22.33-5.97,10.66-10.02,18.46-12.16,23.4-.21.53-.41,1-.61,1.42,7.75-11.54,15.45-22.88,23.1-34.01,5.51-7.92,10.68-15.06,15.53-21.41,4.84-6.35,7.88-9.56,9.1-9.65.12,0,.23-.01.35-.01,1.45,0,3.15.6,5.08,1.78,2.09,1.29,3.67,3.12,4.74,5.49,1.07,2.37.89,5.19-.53,8.45-9.49,17.88-17.59,33.13-24.33,45.72-.31.43-.51.83-.61,1.19-.1.37-.15.67-.15.93s.05.46.15.6c.07.1.16.15.28.15.05,0,.11-.01.17-.03.2-.06.46-.21.77-.43.31-.22.71-.58,1.22-1.08.51-.49,1.07-1.09,1.68-1.8.61-.7,1.32-1.54,2.14-2.52,6.53-8.2,12.11-15.77,16.75-22.72,1.13-1.69,2.15-3.22,3.08-4.61.69-1.13,1.31-2.24,2.05-3.39.92-1.44,2.01-2.69,2.96-4.09.25-.37.54-.8.71-1.06.04-.05.08-.04.12-.09,2.21-3.16,4.34-6.39,6.76-9.33,3.77-4.59,7.47-8.39,11.09-11.39,3.62-3,6.86-4.6,9.71-4.79.25-.02.5-.03.75-.03,3.23,0,5.92,1.49,8.05,4.47,2.3,3.21,3.19,6.46,2.68,9.76-.92,4.65-3.52,9.88-7.8,15.68-4.28,5.8-8.57,8.95-12.85,9.44-2.25-.36-3.49-1.19-3.75-2.5-.26-1.31.08-1.99,1-2.06.1.01.2.02.3.02,2.33,0,5.65-2.74,9.95-8.21,3.37-4.41,5.63-8.42,6.81-12.02.51-1.55.43-2.33-.24-2.33-.87,0-2.76,1.35-5.65,4.03-4.49,3.98-11.32,13.11-20.5,27.41-3.37,5.33-5.74,9.78-7.11,13.34-1.38,3.56-1.94,6.25-1.68,8.07.25,1.82,1.17,2.78,2.75,2.87.09,0,.18,0,.28,0,1.54,0,3.54-.76,5.99-2.27,2.6-1.61,5.56-4.05,8.87-7.34,3.31-3.29,6.86-7.4,10.63-12.35,6.78-9.08,11.95-16.35,15.6-21.91,3.1-5.79,5.61-10.94,7.5-15.39,1.94-4.57,2.4-7.38,1.38-8.43-.1-.09-.18-.24-.23-.44-.05-.2-.05-.4,0-.61.05-.21.15-.37.31-.48.15-.11.41-.21.77-.28.19-.04.4-.06.63-.06.21,0,.43.02.67.05,2.96.72,5.86,2.43,8.72,5.14,2.85,2.71,3.47,6.21,1.84,10.51-8.77,16.61-16.88,31.85-24.33,45.72-.89,1.84-.97,2.77-.22,2.77.02,0,.04,0,.07,0,.82-.06,2.75-1.97,5.81-5.75,6.73-8.52,12.39-16.2,16.98-23.04,4.48-6.67,7.27-10.86,8.45-12.65.06-.36.04-.73.11-1.09.71-2.5,2.37-5.62,4.97-9.37,2.6-3.75,5.84-7.18,9.71-10.3,3.88-3.12,7.9-4.82,12.09-5.11.14,0,.28-.01.42-.01,1.77,0,3.39.78,4.86,2.33,1.58,1.68,2.75,3.56,3.52,5.65.77,2.09.94,3.76.54,5.01-.51,1.16-1.22,2.07-2.14,2.75-.9.66-1.66,1-2.27,1,0,0-.02,0-.03,0-.61,0-.71-.43-.31-1.28.92-1.69,1.02-2.98.31-3.85-.24-.12-.52-.19-.84-.19-1.31,0-3.3,1.03-5.96,3.1-3.32,2.57-6.2,6.08-8.64,10.53-2.04,4.12-2.98,8.08-2.83,11.9.15,3.81.48,7.95.99,12.4,5.81-3.76,13.21-12.43,22.18-25.99.2-.23.38-.28.58-.44.91-1.3,1.76-2.63,2.71-3.92,4.44-6.01,8.85-11.08,13.23-15.21,4.38-4.12,8.26-6.3,11.63-6.53.14,0,.28-.01.42-.01,2.72,0,5.49,1.79,8.3,5.39.31-1.04.46-1.92.46-2.63s-.15-1.21-.46-1.5c-.31-.29-.36-.69-.15-1.21.14-.37.57-.56,1.28-.56m-42.46,66.63c.62,0,2.26-1.62,4.92-4.85,13.26-17.83,23.81-32.99,31.67-45.46,1.32-2.13,1.43-3.21.31-3.23,0,0-.01,0-.02,0-1.14,0-3.73,1.96-7.78,5.89-4.18,4.37-8.75,10.44-13.69,18.22-4.95,7.79-8.95,14.53-12.01,20.25-2.45,4.55-3.67,7.47-3.67,8.74,0,.3.09.44.28.44m-38.39-4.92c-2.09,0-3.98-.03-5.65-.11-.61.14-.56.93.15,2.36.71,1.43,2.45,2.26,5.2,2.48,4.38-.2,7.19-1.97,8.41-5.32-2.65.39-5.15.58-7.5.59-.21,0-.42,0-.63,0m80.85-65.79c-2.23,0-3.54.94-4.29,1.83-1.68-.87-3.4-1.31-5.14-1.31-.23,0-.47,0-.7.02-4.37.3-9,2.79-14.14,7.63-3.28,3.08-6.59,6.7-9.9,10.8.01-1.52-.32-3.19-1-5.05-.95-2.6-2.42-4.97-4.38-7.04-2.82-2.99-5.81-3.61-7.82-3.61-.23,0-.46,0-.7.02-5.01.34-9.85,2.36-14.37,6-4.16,3.35-7.7,7.1-10.51,11.15-2.89,4.16-4.7,7.62-5.54,10.57l-.03.12-.03.12c-.04.2-.08.4-.1.57-1.14,1.72-3.07,4.61-5.7,8.53,2.13-4.01,4.29-8.11,6.5-12.28l.12-.22.09-.23c2.2-5.79,1.19-11.08-2.84-14.91-3.37-3.2-6.92-5.27-10.57-6.15l-.22-.05-.22-.03c-.41-.05-.81-.08-1.19-.08-.51,0-1,.05-1.46.14-.95.2-1.7.52-2.32.97-.96.71-1.6,1.67-1.88,2.81-.21.83-.21,1.74,0,2.59.15.58.37,1.06.61,1.45-.07.59-.36,2-1.56,4.83-.63,1.49-1.35,3.08-2.14,4.76-.11-3.35-1.31-6.63-3.57-9.8-2.89-4.04-6.82-6.18-11.36-6.18-.34,0-.68.01-1.02.04-3.77.26-7.7,2.13-12.04,5.72-3.8,3.15-7.72,7.17-11.64,11.94-2.04,2.48-3.86,5.12-5.63,7.68-.35.5-.7,1.01-1.04,1.51-.06.06-.12.13-.18.2l-.14.17-.12.18-.65.97-.06.09c-.34.49-.73,1.01-1.16,1.57-.61.81-1.25,1.64-1.86,2.6-.51.79-.95,1.55-1.39,2.29-.22.37-.44.74-.66,1.11l-.28.42-.35.52c2.09-3.94,4.26-8.03,6.51-12.26l.07-.13.06-.14c1.9-4.35,2.08-8.31.52-11.76-1.4-3.11-3.53-5.56-6.32-7.28-2.62-1.61-4.98-2.39-7.22-2.39-.21,0-.43,0-.63.02-2.49.17-4.93,1.89-12.06,11.24-1.79,2.35-3.64,4.82-5.54,7.41.28-3.89-1.06-7.38-3.94-10.12-3.34-3.17-6.87-5.18-10.49-5.98-.68-.2-1.35-.3-1.99-.3-.4,0-.8.04-1.18.12-1.21.26-2.18.78-2.91,1.56-.56.6-.97,1.27-1.2,1.99-.3.91-.33,1.9-.07,2.86.14.57.36,1.04.61,1.43-.05.56-.32,1.98-1.56,4.87-1.89,4.4-4.43,9.59-7.57,15.43l-.36.66-.26.49c-1.69,2.55-4.16,6.25-7.35,11-.79,1.17-1.58,2.33-2.39,3.5,1.18-5.55-.95-9.31-3.16-11.59-2.34-2.41-5.03-4.17-8.03-5.27,1.74-1.81,3.4-3.28,4.95-4.37.58-.34,1-.53,1.29-.63.54.93.6,1.59.57,2.05-.37,2.06-.08,3.78.85,5.11.98,1.4,2.48,2.2,4.13,2.2.62,0,1.23-.11,1.84-.34,1.53-.56,2.76-1.78,3.64-3.6l.12-.25.09-.26c.84-2.58.44-5.68-1.26-9.78-1.46-3.51-3.57-6.77-6.28-9.71-3.05-3.3-6.31-4.97-9.7-4.97-.23,0-.46,0-.69.02-3.18.22-6.54,1.69-10.28,4.5-3.25,2.44-6.68,5.64-10.2,9.51-3.33,3.66-6.6,7.74-9.72,12.14,1.53-4.2.82-7.44-.18-9.55-1.43-3.01-3.48-5.61-6.08-7.73-1.82-1.48-3.24-2.72-4.24-3.7,0-.06,0-.13,0-.23.02-.54.18-1.48.81-2.96.88-1.93,1.45-2.79,1.72-3.13,1.62-2.11,1.33-3.98,1.02-4.92-.5-1.47-1.71-2.59-3.33-3.1-1.1-.4-2.32-.61-3.62-.61-1.15,0-2.39.16-3.69.48-3.13.77-5.79,2.93-7.89,6.44l-.08.14-.07.15c-2.84,5.74-1.71,9.9.18,12.65-5.99,9.05-10.6,16.14-14.05,21.6l-.16.26-.12.28c-1.55,3.52,0,6.38,2.23,7.66.89.52,1.86.78,2.86.78.06,0,.11,0,.17,0-.1.17-.21.35-.31.52-5.25,8.91-8.69,15.45-10.52,19.98l-.03.07-.03.08c-.96,2.68-1.09,5.85-.39,9.44.67,3.44,2.02,6.57,4,9.28,2.89,3.96,6.37,4.8,8.79,4.8.25,0,.49,0,.75-.03,2.82-.19,6.53-1.82,14.45-12,.8,1.64,1.87,3.2,3.23,4.67,3.38,3.66,6.52,5.44,9.62,5.44.18,0,.36,0,.54-.02,2.68-.18,5.48-2.36,9.97-7.76,1.33-1.59,2.68-3.28,4.07-5.06.75,2.25,1.82,4.33,3.2,6.22,2.9,3.97,6.32,4.81,8.68,4.81.23,0,.47,0,.71-.02,3.24-.22,6.74-2.82,11.71-8.7,1.03-1.22,2.1-2.53,3.22-3.94.74,2.09,1.76,4.06,3.05,5.87,2.9,4.06,6.4,4.91,8.83,4.91.24,0,.49,0,.73-.03,2.28-.16,3.54-1.21,4.19-2.06.23-.3.49-.67.7-1.12,3.55-5.2,8.13-11.88,13.68-19.97-.27,2.06-.16,4.35.33,6.83.67,3.37,2.01,6.48,3.97,9.23,2.9,4.06,6.33,4.92,8.71,4.92.23,0,.46,0,.7-.02,2.95-.2,6.88-1.97,15.59-13.48.21-.28.42-.56.63-.83,1.09,2.1,2.65,4.09,4.68,5.96,4.35,4,9.28,6.04,14.65,6.04.48,0,.98-.02,1.47-.05,4.44-.3,9.27-3.17,14.79-8.77,1.81-1.84,3.63-3.8,5.45-5.87.74,2.7,1.94,5.21,3.55,7.47,2.9,4.06,6.4,4.91,8.83,4.91.24,0,.49,0,.73-.03,2.95-.2,6.88-1.97,15.59-13.48.23-.3.46-.6.68-.91.16.48.33.97.52,1.47,1.13,2.97,2.99,5.51,5.54,7.56,2.47,1.99,5.59,3,9.26,3,.47,0,.96-.02,1.45-.05,5.29-.36,9.48-1.89,12.45-4.54,2.67-2.37,4.63-5.03,5.84-7.91,1.47,2.97,3.41,5.4,5.77,7.24,2.68,2.09,4.95,3.06,7.13,3.06.16,0,.32,0,.47-.02.69-.05,1.34-.24,1.94-.53-.9,1.95-1.72,3.78-2.45,5.48l-.03.08-.03.08c-.99,2.62-1.1,5.79-.33,9.42.72,3.38,2.04,6.48,3.92,9.2,2.84,4.11,6.35,4.97,8.79,4.97.24,0,.48,0,.73-.02,2.54-.18,4.44-1.59,5.09-3.78.29-1,.37-2.15.25-3.61.02-.53.11-1.43.43-2.89.3-1.35.8-2.85,1.51-4.48,5.82-12.75,13.05-26.74,21.47-41.59,8.53-15.04,14.77-26.63,18.56-34.46l.1-.2.07-.21c2.63-7.38-.19-12.13-3.02-14.82-3.39-3.22-6.93-5.25-10.51-6.03l-.11-.02-.11-.02c-.61-.1-1.15-.15-1.66-.15h0Zm-54.73,34.28c2.14-3.87,4.65-6.95,7.46-9.15.12.33.27.63.42.88.83,1.34,2.25,2.12,3.9,2.14h.03s.06,0,.06,0c.65,0,1.31-.11,1.98-.33-.07.08-.15.16-.22.25l-.16.19-.13.2c-5.9,8.92-11.08,15.65-15.46,20.11-.11-1.53-.19-3.01-.25-4.43-.12-3.09.67-6.4,2.37-9.85h0Zm-26.83,23.47c1.47-2.16,2.91-4.32,4.3-6.46.07-.1.14-.21.2-.31.38,1.68.76,3.3,1.13,4.84.11.5.19,1.02.24,1.57-1.87.24-3.84.36-5.87.37h0Zm-61.55,17.99c.08-.89.41-2.5,1.44-5.18,1.28-3.3,3.55-7.55,6.76-12.63,1.03-1.6,2.03-3.14,2.99-4.6,1.07.93,2.66,1.74,5.01,2.11l.55.09.55-.06c1.77-.2,3.5-.72,5.2-1.55-.42.57-.85,1.14-1.29,1.73-3.61,4.74-7.06,8.75-10.24,11.9-3.08,3.06-5.83,5.33-8.14,6.76-1.3.8-2.23,1.22-2.84,1.44h0Z"/>
      <path class="cls-1" d="m532.26,298.08c-2.86-2.71-5.71-4.38-8.57-5-1.33-.21-2.09-.06-2.3.46-.21.52-.15.93.15,1.21.31.29.46.79.46,1.5s-.15,1.59-.46,2.63c-2.96-3.78-5.87-5.57-8.72-5.37-3.37.23-7.24,2.41-11.63,6.53-4.39,4.12-8.8,9.19-13.23,15.21-.95,1.28-1.8,2.61-2.71,3.92-.19.16-.38.21-.58.44-8.98,13.57-16.37,22.23-22.18,25.99-.51-4.45-.84-8.59-.99-12.4-.15-3.81.79-7.78,2.83-11.9,2.45-4.45,5.33-7.96,8.64-10.53,3.31-2.57,5.58-3.54,6.81-2.91.71.87.61,2.15-.31,3.85-.41.85-.31,1.27.31,1.28.61.01,1.38-.32,2.3-1,.92-.67,1.63-1.59,2.14-2.75.41-1.25.23-2.92-.54-5.01-.76-2.09-1.94-3.97-3.52-5.65-1.58-1.68-3.34-2.45-5.28-2.32-4.18.29-8.21,1.99-12.09,5.11-3.88,3.12-7.11,6.55-9.71,10.3-2.6,3.75-4.26,6.87-4.97,9.37-.08.36-.05.73-.11,1.09-1.18,1.79-3.98,5.98-8.45,12.65-4.59,6.84-10.25,14.52-16.98,23.04-3.06,3.78-5,5.7-5.81,5.75-.82.06-.76-.87.15-2.76,7.44-13.87,15.55-29.11,24.33-45.72,1.63-4.29,1.02-7.8-1.84-10.51-2.86-2.71-5.76-4.43-8.72-5.14-.51-.07-.94-.06-1.3.01-.36.08-.61.17-.77.28-.15.11-.25.27-.31.48-.05.21-.05.41,0,.61.05.2.13.35.23.44,1.02,1.05.56,3.86-1.38,8.43-1.89,4.45-4.4,9.6-7.5,15.39-3.65,5.56-8.82,12.82-15.6,21.91-3.77,4.95-7.32,9.07-10.63,12.35-3.32,3.29-6.27,5.73-8.87,7.34-2.6,1.61-4.69,2.36-6.27,2.26-1.58-.1-2.5-1.05-2.75-2.87-.26-1.82.31-4.51,1.68-8.07,1.38-3.56,3.75-8.01,7.11-13.34,9.18-14.29,16.01-23.43,20.5-27.41,5.1-4.73,7.06-5.3,5.89-1.7-1.17,3.6-3.44,7.6-6.81,12.02-4.49,5.71-7.9,8.44-10.25,8.2-.92.06-1.25.75-1,2.06.25,1.31,1.5,2.14,3.75,2.5,4.28-.5,8.57-3.64,12.85-9.44,4.28-5.8,6.88-11.03,7.8-15.68.51-3.3-.38-6.55-2.68-9.76-2.29-3.21-5.23-4.69-8.8-4.45-2.86.19-6.1,1.79-9.71,4.79-3.62,3-7.32,6.8-11.09,11.39-2.42,2.94-4.56,6.18-6.76,9.33-.04.04-.08.04-.12.09-.18.26-.47.69-.71,1.06-.96,1.39-2.05,2.65-2.96,4.09-.74,1.16-1.36,2.26-2.05,3.39-.93,1.39-1.95,2.91-3.08,4.61-4.64,6.95-10.23,14.52-16.75,22.72-.82.97-1.53,1.81-2.14,2.52-.61.71-1.17,1.3-1.68,1.8-.51.49-.92.85-1.22,1.08-.31.23-.56.37-.77.43-.2.07-.36.02-.46-.12-.1-.15-.15-.35-.15-.6s.05-.56.15-.93c.1-.36.31-.76.61-1.19,6.73-12.6,14.84-27.84,24.33-45.72,1.43-3.26,1.61-6.08.53-8.45-1.07-2.38-2.65-4.2-4.74-5.49-2.09-1.28-3.9-1.88-5.43-1.77-1.22.08-4.26,3.3-9.1,9.65-4.85,6.35-10.02,13.49-15.53,21.41-7.65,11.13-15.35,22.47-23.1,34.01.2-.42.41-.89.61-1.42,2.14-4.94,6.2-12.74,12.16-23.4,5.97-10.66,10.02-18.1,12.16-22.33,1.63-4.29,1.02-7.8-1.84-10.51-2.86-2.71-5.76-4.37-8.72-4.99-.51-.17-.94-.22-1.3-.14-.36.08-.61.2-.77.36-.15.16-.26.32-.31.48-.05.16-.05.34,0,.54.05.2.13.35.23.44,1.02,1.15.56,3.99-1.38,8.51-1.94,4.52-4.51,9.77-7.73,15.75-.25.46-.47.86-.71,1.32-1.65,2.5-4.1,6.16-7.47,11.17-5,7.43-10.35,14.71-16.06,21.83-1.63,1.85-2.93,3.24-3.9,4.17-.97.93-1.66,1.44-2.07,1.52-.41.08-.59-.14-.54-.65.05-.51.28-1.24.69-2.19,3.16-5.93,6.93-13.17,11.32-21.73,1.73-4.3,1.3-7.79-1.3-10.47-2.6-2.68-5.69-4.36-9.26-5.03-.72-.16-1.22-.17-1.53-.05-.31.12-.54.29-.69.51-.15.22-.21.45-.15.7.05.25.13.43.23.52,1.12,1.05,1.32,2.72.61,5.01-8.57,12.21-16.32,22.89-23.25,32.03-2.04,2.59-3.39,3.8-4.05,3.64-.66-.16.79-3.67,4.36-10.55,1.02-2.11,2.73-5.13,5.13-9.07,2.4-3.93,5.1-8.15,8.11-12.64,3.01-4.49,6.09-8.62,9.26-12.41,3.16-3.79,6.12-6.64,8.87-8.56,3.06-1.84,5.23-1.86,6.5-.06,1.27,1.8,1.81,3.62,1.61,5.47-.2,1.03-.15,1.77.15,2.21.31.44.71.56,1.22.38.51-.19.97-.7,1.38-1.55.51-1.56.13-3.88-1.15-6.96-1.28-3.07-3.11-5.91-5.51-8.5-2.4-2.59-4.77-3.8-7.11-3.64-2.35.16-5.05,1.39-8.11,3.69-3.06,2.3-6.27,5.3-9.64,9-3.37,3.7-6.63,7.8-9.79,12.3-.14.2-.25.4-.38.59-.02.03-.05.02-.08.05-1.12,1.71-3.98,5.99-8.57,12.82-4.59,6.84-10.25,14.52-16.98,23.04-3.06,3.78-5,5.72-5.81,5.83-.82.11-.76-.84.15-2.84,5.61-10.27,13.56-24.13,23.87-41.56,1.84-3.28,2.17-6.16,1-8.63-1.17-2.47-2.83-4.57-4.97-6.32-2.14-1.74-3.77-3.19-4.9-4.33-.61-.67-.89-1.65-.84-2.93.05-1.28.43-2.76,1.15-4.44.81-1.79,1.55-3.11,2.22-3.98.66-.86.53-1.41-.38-1.66-1.33-.52-3.01-.53-5.05-.04-2.04.5-3.82,2.02-5.35,4.57-2.14,4.33-1.58,7.81,1.68,10.44-6.73,10.15-11.98,18.21-15.76,24.18-.51,1.16-.33,1.99.54,2.49.87.5,1.76.21,2.68-.87,4.69-7.25,9.79-15.3,15.3-24.15,1.53,1.42,2.04,3.13,1.53,5.1-.51,1.97-1.28,3.66-2.29,5.05-3.57,5.85-7.91,13.11-13,21.77-5.1,8.66-8.52,15.14-10.25,19.44-.71,1.99-.79,4.41-.23,7.28.56,2.87,1.66,5.42,3.29,7.65,1.63,2.24,3.62,3.27,5.97,3.11,2.55-.17,6.75-4.13,12.62-11.88,1.86-2.46,3.6-4.9,5.37-7.35-.36,1.24-.7,2.47-.86,3.53-.1,3.58,1.17,6.8,3.83,9.68,2.65,2.88,4.95,4.25,6.88,4.12,1.32-.09,3.7-2.19,7.11-6.3,3.42-4.11,7.01-8.79,10.78-14.05-.1.11-.2.27-.31.48-.61,1.98-.64,4.4-.08,7.27.56,2.87,1.66,5.42,3.29,7.65,1.63,2.24,3.57,3.28,5.81,3.12,1.94-.13,4.9-2.55,8.87-7.26,3.11-3.68,6.32-7.9,9.59-12.4-.63,1.94-.72,4.24-.18,6.94.56,2.82,1.66,5.37,3.29,7.65,1.63,2.29,3.62,3.35,5.97,3.19.61-.04,1.02-.2,1.22-.47.2-.27.31-.45.31-.56,5.41-7.92,13.26-19.36,23.56-34.35,10.81-15.32,17.92-25.09,21.34-29.3,3.42-4.21,3.54-3.71.38,1.5-2.65,4.37-6.63,11.11-11.93,20.25-5.3,9.14-9.18,16.69-11.63,22.67-.61,1.98-.64,4.38-.08,7.2.56,2.82,1.66,5.37,3.29,7.65,1.63,2.29,3.57,3.35,5.81,3.2,2.55-.17,6.76-4.13,12.62-11.88,2.31-3.05,4.5-6.1,6.68-9.14-.14.54-.39,1.18-.49,1.68-.51,4.42,1.2,8.43,5.13,12.04,3.92,3.61,8.28,5.25,13.08,4.92,3.37-.23,7.42-2.75,12.16-7.56,4.59-4.66,9.11-9.99,13.56-15.93-.55,1.17-1.04,2.26-1.4,3.17-.71,1.99-.79,4.39-.23,7.21.56,2.82,1.66,5.37,3.29,7.65,1.63,2.29,3.62,3.35,5.97,3.19,2.55-.17,6.76-4.13,12.62-11.88,5.86-7.74,11.29-15.46,16.29-23.14,2.43-3.74,4.34-6.7,5.78-8.94.11,1.2.14,2.39.41,3.62.87,4.02,1.71,7.74,2.52,11.15.41,1.81.51,3.79.31,5.95-4.39.91-9.23,1.19-14.53.84-2.65.49-3.98,2.41-3.98,5.78.1,1.93.59,4.04,1.45,6.33.87,2.29,2.29,4.23,4.28,5.83,1.99,1.6,4.61,2.29,7.88,2.06,4.38-.3,7.73-1.47,10.02-3.51,2.3-2.04,3.93-4.27,4.9-6.68.97-2.41,1.45-4.48,1.45-6.22.1-1.33.15-2.66.15-3.99,2.58-1.45,5.34-3.67,8.28-6.64-1.27,2.73-2.37,5.36-3.23,7.82-.92,3.12-.76,6,.46,8.61,1.22,2.62,2.83,4.7,4.82,6.25,1.99,1.55,3.6,2.28,4.82,2.19.41-.03,1.07-.43,1.99-1.21.92-.78,1.99-1.87,3.21-3.28,1.22-1.41,2.6-3.06,4.13-4.95,1.53-1.89,3.11-3.96,4.74-6.22,1.63-2.25,3.34-4.61,5.13-7.08,1.78-2.47,3.54-4.98,5.28-7.55-9.79,17.5-16.78,31.13-20.96,40.9-.71,1.88-.77,4.26-.15,7.12.61,2.86,1.71,5.44,3.29,7.73,1.58,2.29,3.54,3.35,5.89,3.19.81-.06,1.3-.35,1.45-.86.15-.52.18-1.29.08-2.3,0-1.02.18-2.33.53-3.94.36-1.61.94-3.35,1.76-5.25,5.91-12.95,13.13-26.93,21.65-41.94,8.52-15.01,14.66-26.42,18.44-34.23,1.53-4.28.86-7.79-1.99-10.5Zm-90.72,61.35c-2.75-.22-4.49-1.04-5.2-2.48-.71-1.43-.76-2.22-.15-2.36,1.84.08,3.93.11,6.27.11,2.34,0,4.84-.2,7.5-.59-1.22,3.35-4.03,5.12-8.41,5.32Zm75.27-50.12c-7.86,12.47-18.41,27.63-31.67,45.46-3.47,4.21-5.2,5.69-5.2,4.41s1.22-4.19,3.67-8.74c3.06-5.72,7.06-12.46,12.01-20.25,4.95-7.78,9.51-13.86,13.69-18.22,4.08-3.95,6.68-5.91,7.8-5.89,1.12.03,1.02,1.1-.31,3.23Z"/>
    </g>
    <g>
      <path class="cls-3" d="m614.96,265.45c.95,0,1.97.2,3.05.61,3.31,1.25,4.82,3.42,4.51,6.5-.82,2.2-2.04,4.47-3.67,6.83-1.63,2.36-2.14,4.02-1.53,5,.41.48.54.91.38,1.27-.15.37-.49.62-1,.76-.18.05-.38.07-.6.07-.4,0-.86-.08-1.39-.24-3.57-1.39-5.76-3.94-6.58-7.66-.82-3.72-.26-7.22,1.68-10.52,1.44-1.75,3.15-2.62,5.13-2.62m0-4.08c-3.2,0-6.06,1.42-8.28,4.11l-.21.25-.16.28c-2.47,4.2-3.19,8.72-2.15,13.46,1.1,5.04,4.25,8.7,9.08,10.58l.14.05.14.04c.92.28,1.77.42,2.58.42.58,0,1.13-.07,1.66-.21,1.74-.46,3.05-1.57,3.7-3.13.28-.68.74-2.26-.13-4.09.15-.31.42-.78.87-1.43,1.82-2.62,3.21-5.22,4.14-7.73l.18-.49.05-.52c.49-4.91-2.11-8.82-7.13-10.71-1.54-.58-3.05-.88-4.49-.88h0Z"/>
      <path class="cls-1" d="m614.72,286.25c.81.25,1.48.31,1.99.17.51-.14.84-.39,1-.76.15-.37.02-.79-.38-1.27-.61-.98-.1-2.64,1.53-5,1.63-2.35,2.85-4.63,3.67-6.83.31-3.08-1.2-5.25-4.51-6.5-3.32-1.25-6.04-.58-8.18,2.01-1.94,3.29-2.5,6.8-1.68,10.52.81,3.72,3.01,6.27,6.58,7.66Z"/>
    </g>
    <g>
      <path class="cls-3" d="m647.78,254.93c.26,0,.57.03.91.09,2.96.61,5.84,2.28,8.64,4.99,2.8,2.71,3.44,6.27,1.91,10.65-.51,1.36-1.33,3.05-2.45,5.06.1,0,.25-.02.46-.03,2.96,0,4.82.77,5.58,2.3.76,1.53.64,2.43-.38,2.7-2.35.16-5.25.36-8.72.6-6.33,10.74-13.62,22.81-21.88,36.22-8.26,13.42-13.77,23.28-16.52,29.58-.31.74-.51,1.36-.61,1.88-.1.52-.05.85.15.98.06.04.13.06.21.06.2,0,.46-.12.78-.36.46-.34,1.12-.94,1.99-1.82.86-.87,1.91-2.12,3.14-3.73,5.91-7.34,11.34-14.64,16.29-21.92.94-1.38,1.75-2.58,2.56-3.78.98-1.66,1.94-3.31,3.02-5.02,1.02-1.59,2.22-2.99,3.29-4.54.11-.18.29-.46.38-.61.05-.06.11-.08.16-.14,2.2-3.14,4.32-6.35,6.73-9.28,3.77-4.59,7.47-8.39,11.09-11.39,3.62-3,6.86-4.6,9.71-4.79.28-.02.55-.03.82-.03,2.31,0,4.36.69,6.14,2.08,1.99,1.55,3.44,3.11,4.36,4.68,3.37,5.28,3.26,13.39-.31,24.35-1.74,4.91-4.08,9.97-7.04,15.17,4.69-3.79,8.97-8.26,12.85-13.42,3.88-5.16,6.37-8.7,7.5-10.61.5-.64,1.08-.96,1.74-.96,0,0,.01,0,.02,0,.66,0,1.15.28,1.45.82.31.54.15,1.29-.46,2.25-1.02,2.01-4.28,6.64-9.79,13.9-5.51,7.26-11.53,12.54-18.05,15.84-3.67,5.56-7.65,10.19-11.93,13.9-4.28,3.71-8.67,5.82-13.16,6.33-.05,0-.1,0-.15,0-4.94,0-9.3-1.71-13.08-5.14-3.82-3.46-5.48-7.4-4.97-11.82.11-.59.4-1.34.57-1.99-2.49,3.49-4.87,7.12-7.46,10.49-5.41,7.05-9.33,10.66-11.78,10.82-.16.01-.31.02-.47.02-2.14,0-3.98-1.04-5.5-3.13-1.63-2.23-2.73-4.79-3.29-7.65-.43-2.22-.37-4.09-.04-5.78-1.61,2.21-3.18,4.43-4.86,6.64-5.87,7.74-10.07,11.7-12.62,11.88-.15.01-.31.02-.46.02-2.15,0-3.98-1.07-5.51-3.2-1.63-2.28-2.73-4.84-3.29-7.65-.56-2.82-.48-5.22.23-7.2.05-.12.12-.27.17-.39-1.99,2.76-3.96,5.52-6.05,8.29-5.87,7.74-10.07,11.7-12.62,11.88-.16.01-.31.02-.47.02-2.14,0-3.95-1.04-5.42-3.13-1.58-2.24-2.68-4.79-3.29-7.65-.61-2.87-.56-5.29.15-7.28,0-.05.01-.11.04-.16.04-.05.07-.1.11-.15-.05.05-.09.1-.11.15-1.9,2.63-3.75,5.1-5.55,7.42-1.84,2.37-3.6,4.51-5.28,6.4-1.68,1.9-3.21,3.41-4.59,4.52-1.38,1.11-2.47,1.7-3.29,1.75-.16.01-.31.02-.47.02-2.14,0-3.98-1.04-5.5-3.13-1.63-2.23-2.73-4.79-3.29-7.65-.56-2.87-.48-5.3.23-7.28,1.12-2.83,3.16-6.95,6.12-12.35,2.96-5.4,6.04-11.09,9.26-17.08,3.21-5.98,5.79-11.23,7.73-15.75,1.94-4.52,2.4-7.35,1.38-8.51-.1-.09-.18-.22-.23-.37-.05-.15-.05-.33,0-.54.05-.21.15-.39.31-.56.15-.16.41-.28.77-.36.11-.02.23-.03.35-.03.28,0,.6.06.95.17,2.96.62,5.86,2.28,8.72,4.99,2.85,2.71,3.47,6.22,1.84,10.51-8.77,16.61-16.88,31.85-24.33,45.72-.87,1.9-.96,2.85-.27,2.85.04,0,.08,0,.12,0,.82-.11,2.75-2.05,5.81-5.83,6.43-7.99,11.86-15.29,16.29-21.92,4.44-6.63,7.37-11.06,8.8-13.3,1.53-2.86,2.93-5.55,4.21-8.09,1.27-2.53,2.32-4.87,3.14-7.02.81-2.14,1.35-3.92,1.61-5.31.25-1.39.13-2.33-.38-2.8-.1-.09-.18-.22-.23-.37-.05-.15-.05-.33,0-.53.05-.21.15-.39.31-.56.15-.16.41-.28.76-.36.11-.02.23-.03.35-.03.28,0,.6.06.95.17,2.96.62,5.86,2.28,8.72,4.99,2.85,2.71,3.47,6.22,1.84,10.51-8.77,16.61-16.88,31.85-24.33,45.72-.61,1.27-.84,2.15-.69,2.65.06.19.18.28.35.28.3,0,.77-.26,1.41-.78,1.02-.83,2.6-2.55,4.74-5.14,6.63-8.51,12.24-16.18,16.83-23.03,3.69-5.5,6.21-9.26,7.65-11.45,3.09-5.78,5.6-10.92,7.49-15.37,1.94-4.57,2.4-7.38,1.38-8.43-.1-.09-.18-.24-.23-.44-.05-.2-.05-.4,0-.61.05-.21.15-.37.31-.48.15-.11.41-.2.77-.28.19-.04.4-.06.63-.06.21,0,.43.02.67.05,2.96.72,5.86,2.43,8.72,5.14,2.85,2.71,3.47,6.21,1.84,10.51-8.77,16.61-16.88,31.85-24.33,45.72-.89,1.84-.97,2.77-.22,2.77.02,0,.04,0,.07,0,.82-.06,2.75-1.97,5.81-5.75,6.73-8.52,12.39-16.2,16.98-23.04,2.67-3.98,4.68-6.98,6.17-9.22,6.53-10.69,12.85-21.16,18.92-31.35-.61.04-1.12.08-1.53.1-1.84-.08-3.14-.88-3.9-2.41-.76-1.53-.74-2.42.08-2.68,2.24-.15,5.1-.35,8.57-.58,1.94-3.6,3.57-6.8,4.9-9.59,1.32-2.79,2.22-5.12,2.68-6.99.46-1.87.33-3.03-.38-3.49-.41-.28-.49-.71-.23-1.29.18-.42.62-.63,1.31-.63m18.81,76.13c.61-.86,1.22-1.71,1.84-2.57,3.26-4.91,5.84-9.7,7.73-14.37,1.89-4.67,3.03-8.57,3.44-11.71.41-3.14.02-4.97-1.15-5.51-.17-.07-.35-.11-.54-.11-1.2,0-2.98,1.4-5.35,4.19-3.47,4.52-5.89,9.94-7.27,16.25-1.38,6.32-.94,10.93,1.3,13.83m-20.69,19.76c3.39,0,9.16-5.03,17.33-15.09-4.08-3.29-5.92-8.82-5.51-16.61-.82,1.18-1.63,2.36-2.45,3.53-.82,1.18-1.58,2.4-2.29,3.68-8.67,14.57-11.45,22.64-8.34,24.21.38.19.8.28,1.26.28m1.89-99.97h0c-2.31,0-4.2,1.14-5.04,3.06-.8,1.81-.6,3.72.45,5.14-.02.09-.04.19-.07.31-.39,1.59-1.2,3.68-2.4,6.22-1.05,2.2-2.3,4.69-3.75,7.43l-2.63.18-3.69.25-.5.03-.47.15c-1.42.45-2.5,1.44-3.07,2.78-1.01,2.41.19,4.82.59,5.61.67,1.33,1.59,2.4,2.72,3.18-4.98,8.33-10.35,17.21-16,26.46-1.05,1.57-2.35,3.52-3.95,5.9,2.13-4.02,4.3-8.11,6.5-12.28l.12-.22.09-.23c2.2-5.79,1.19-11.08-2.84-14.91-3.37-3.2-6.92-5.26-10.57-6.15l-.22-.05-.22-.03c-.41-.05-.81-.08-1.18-.08-.51,0-1,.05-1.46.14-.94.2-1.69.52-2.31.96l-.02.02-.02.02c-.92.68-1.56,1.65-1.84,2.78-.21.84-.21,1.74,0,2.59.15.58.37,1.06.61,1.45-.07.59-.36,2-1.56,4.83-1.79,4.22-4.23,9.22-7.24,14.86-1.22,1.83-3.04,4.57-5.36,8.03,2.13-4.02,4.3-8.11,6.5-12.28l.12-.22.09-.23c2.2-5.79,1.19-11.08-2.84-14.91-3.34-3.17-6.87-5.18-10.5-5.98-.68-.2-1.35-.3-1.98-.3-.4,0-.8.04-1.18.12-1.21.26-2.18.78-2.91,1.56-.62.67-1.07,1.48-1.29,2.36-.24.97-.21,1.97.11,2.87.12.34.27.68.47.99,0,.03-.01.07-.02.11-.21,1.14-.68,2.69-1.41,4.59-.76,2.01-1.76,4.24-2.97,6.64-1.24,2.46-2.61,5.1-4.08,7.86-1.14,1.77-3.18,4.88-5.99,9.1,2.19-4.13,4.42-8.35,6.69-12.65l.12-.22.09-.23c2.2-5.79,1.19-11.08-2.84-14.91-3.34-3.17-6.87-5.18-10.49-5.98-.68-.2-1.35-.3-1.98-.3-.4,0-.8.04-1.18.12-1.2.26-2.17.78-2.9,1.55-.63.67-1.08,1.49-1.3,2.38-.24.95-.21,1.94.1,2.84.13.38.31.75.52,1.08-.06.57-.33,1.99-1.56,4.86-1.89,4.41-4.44,9.6-7.57,15.43-3.18,5.92-6.29,11.66-9.24,17.05-3.06,5.6-5.13,9.78-6.33,12.8l-.03.06-.02.06c-.96,2.68-1.09,5.85-.39,9.44.67,3.45,2.02,6.57,4,9.28,2.89,3.97,6.38,4.8,8.79,4.8.25,0,.49,0,.75-.03,1.71-.12,3.49-.96,5.58-2.65,1.57-1.27,3.23-2.9,5.08-4.99,1.41-1.59,2.89-3.36,4.41-5.28.76,2.25,1.81,4.32,3.14,6.2,2.83,4.01,6.32,4.85,8.75,4.85.25,0,.5,0,.75-.03,2.86-.2,6.66-1.88,14.89-12.57.74,2.13,1.77,4.12,3.08,5.95,2.9,4.06,6.4,4.91,8.83,4.91.24,0,.49,0,.74-.03,2.81-.19,6.51-1.81,14.41-11.94.72,1.86,1.66,3.6,2.83,5.19,2.89,3.97,6.38,4.8,8.79,4.8.25,0,.49,0,.74-.03,3.86-.26,8.27-3.98,14.74-12.41.47-.61.92-1.22,1.38-1.84,1.07,2.04,2.57,3.95,4.51,5.7,4.54,4.11,9.86,6.19,15.82,6.19h.18s.22,0,.22,0l.22-.02c5.3-.6,10.47-3.06,15.37-7.3,4.31-3.73,8.37-8.39,12.07-13.84,6.68-3.59,12.9-9.14,18.49-16.51,7.31-9.64,9.3-12.84,10.09-14.35,1.8-2.96,1.07-5.19.46-6.27-1.03-1.82-2.84-2.86-4.96-2.89h-.02s-.04,0-.04,0c-1.91,0-3.67.89-4.94,2.52l-.17.22-.14.24c-.54.91-1.7,2.69-4.22,6.14,2.16-9.25,1.56-16.38-1.8-21.69-1.18-1.99-2.97-3.93-5.33-5.76-2.5-1.95-5.41-2.94-8.64-2.94-.36,0-.73.01-1.1.04-2.14.15-4.34.82-6.64,2.03.25-1.34-.03-2.83-.83-4.44-.61-1.22-1.7-2.57-3.66-3.48.08-.2.16-.4.23-.59l.02-.05.02-.05c2.6-7.47-.15-12.24-2.93-14.92-3.35-3.25-6.94-5.28-10.65-6.06h-.05s-.05-.02-.05-.02c-.59-.11-1.12-.16-1.64-.16h0Zm8.37,34.36l5.1-.35c-3.59,3.06-7.28,6.89-10.97,11.38-1.2,1.47-2.34,2.99-3.42,4.52,3.29-5.45,6.4-10.64,9.3-15.55h0Zm12.79,34.55c.09-.54.2-1.1.33-1.68,1.15-5.25,3.1-9.85,5.81-13.68-.54,2.33-1.45,5.06-2.71,8.17-.95,2.35-2.09,4.75-3.43,7.19h0Zm-21.07,25.97c.69-2.35,2.5-6.8,7.19-14.92.67,1.9,1.58,3.61,2.71,5.1-5.02,5.92-8.12,8.61-9.9,9.82h0Z"/>
      <path class="cls-1" d="m701.77,304.71c-.31-.54-.79-.81-1.45-.82-.66,0-1.25.31-1.76.96-1.12,1.91-3.62,5.45-7.5,10.61-3.88,5.16-8.16,9.64-12.85,13.42,2.96-5.2,5.3-10.25,7.04-15.17,3.57-10.95,3.67-19.07.31-24.35-.92-1.57-2.37-3.13-4.36-4.68-1.99-1.55-4.31-2.23-6.96-2.05-2.86.19-6.1,1.79-9.71,4.79-3.62,3-7.32,6.8-11.09,11.39-2.41,2.93-4.53,6.14-6.73,9.28-.05.06-.11.07-.16.14-.09.15-.27.43-.38.61-1.07,1.54-2.27,2.94-3.29,4.54-1.09,1.71-2.04,3.36-3.02,5.02-.81,1.19-1.62,2.39-2.56,3.78-4.95,7.28-10.38,14.58-16.29,21.92-1.22,1.61-2.27,2.86-3.14,3.73-.87.88-1.53,1.48-1.99,1.82-.46.34-.79.44-1,.3-.2-.14-.25-.47-.15-.98.1-.52.31-1.14.61-1.88,2.75-6.31,8.26-16.17,16.52-29.58,8.26-13.42,15.55-25.49,21.88-36.22,3.47-.24,6.37-.44,8.72-.6,1.02-.27,1.15-1.17.38-2.7-.76-1.53-2.63-2.29-5.58-2.3-.21.01-.36.02-.46.03,1.12-2.01,1.94-3.7,2.45-5.06,1.53-4.39.89-7.94-1.91-10.65-2.81-2.72-5.69-4.38-8.64-4.99-1.22-.22-1.96-.04-2.22.53-.26.58-.18,1.01.23,1.29.71.46.84,1.62.38,3.49-.46,1.87-1.35,4.2-2.68,6.99-1.33,2.79-2.96,5.99-4.9,9.59-3.47.24-6.33.43-8.57.58-.82.26-.84,1.16-.08,2.68.77,1.53,2.06,2.33,3.9,2.41.41-.03.92-.06,1.53-.1-6.06,10.19-12.39,20.66-18.92,31.35-1.5,2.24-3.51,5.25-6.17,9.22-4.59,6.84-10.25,14.52-16.98,23.04-3.06,3.78-5,5.7-5.81,5.75-.82.06-.77-.87.15-2.76,7.44-13.87,15.55-29.11,24.33-45.72,1.63-4.29,1.02-7.8-1.84-10.51-2.86-2.71-5.76-4.42-8.72-5.14-.51-.07-.94-.06-1.3.01-.36.08-.61.17-.77.28-.15.11-.26.27-.31.48-.05.21-.05.41,0,.61.05.2.13.35.23.44,1.02,1.05.56,3.86-1.38,8.43-1.89,4.44-4.4,9.59-7.49,15.37-1.45,2.18-3.96,5.94-7.65,11.45-4.59,6.84-10.2,14.52-16.83,23.03-2.14,2.59-3.72,4.31-4.74,5.14-1.02.83-1.61,1-1.76.5-.15-.5.08-1.38.69-2.65,7.44-13.87,15.55-29.11,24.33-45.72,1.63-4.29,1.02-7.8-1.84-10.51-2.86-2.71-5.76-4.37-8.72-4.99-.51-.17-.94-.21-1.3-.14-.36.08-.61.19-.76.36-.15.16-.25.35-.31.56-.05.21-.05.39,0,.53.05.15.13.27.23.37.51.48.63,1.41.38,2.8-.26,1.39-.79,3.17-1.61,5.31-.82,2.15-1.86,4.49-3.14,7.02-1.28,2.54-2.68,5.23-4.21,8.09-1.43,2.24-4.36,6.67-8.8,13.3-4.44,6.63-9.87,13.93-16.29,21.92-3.06,3.78-5,5.72-5.81,5.83-.82.11-.76-.84.15-2.84,7.44-13.87,15.55-29.11,24.33-45.72,1.63-4.29,1.02-7.8-1.84-10.51-2.86-2.71-5.76-4.37-8.72-4.99-.51-.17-.94-.21-1.3-.14-.36.08-.61.2-.77.36-.15.16-.25.35-.31.56-.05.21-.05.39,0,.54.05.15.13.27.23.37,1.02,1.15.56,3.99-1.38,8.51-1.94,4.52-4.51,9.77-7.73,15.75-3.21,5.98-6.3,11.67-9.26,17.08-2.96,5.4-5,9.52-6.12,12.35-.71,1.99-.79,4.41-.23,7.28.56,2.87,1.66,5.42,3.29,7.65,1.63,2.24,3.62,3.27,5.97,3.11.82-.06,1.91-.64,3.29-1.75,1.38-1.11,2.91-2.62,4.59-4.52,1.68-1.9,3.44-4.03,5.28-6.4,1.84-2.37,3.72-4.89,5.66-7.58-.1.11-.15.22-.15.32-.71,1.99-.76,4.41-.15,7.28.61,2.86,1.71,5.42,3.29,7.65,1.58,2.24,3.54,3.28,5.89,3.12,2.55-.17,6.75-4.13,12.62-11.88,2.1-2.77,4.07-5.53,6.05-8.29-.05.12-.12.27-.17.39-.71,1.99-.79,4.39-.23,7.2.56,2.82,1.66,5.37,3.29,7.65,1.63,2.29,3.62,3.35,5.97,3.19,2.55-.17,6.75-4.13,12.62-11.88,1.68-2.22,3.25-4.43,4.86-6.64-.33,1.69-.39,3.56.04,5.78.56,2.87,1.66,5.42,3.29,7.65,1.63,2.24,3.62,3.27,5.97,3.11,2.45-.17,6.37-3.78,11.78-10.82,2.58-3.37,4.97-7,7.46-10.49-.17.64-.46,1.39-.57,1.99-.51,4.42,1.15,8.36,4.97,11.82,3.82,3.46,8.23,5.17,13.23,5.14,4.49-.51,8.87-2.62,13.16-6.33,4.28-3.71,8.26-8.34,11.93-13.9,6.53-3.3,12.55-8.58,18.05-15.84,5.51-7.26,8.77-11.89,9.79-13.9.61-.96.76-1.71.46-2.25Zm-57.14,45.82c-3.11-1.57-.33-9.64,8.34-24.21.71-1.27,1.48-2.5,2.29-3.68.82-1.18,1.63-2.35,2.45-3.53-.41,7.78,1.43,13.32,5.51,16.61-9.28,11.45-15.48,16.38-18.59,14.81Zm23.79-22.05c-.61.86-1.22,1.72-1.84,2.57-2.24-2.91-2.68-7.52-1.3-13.83,1.38-6.31,3.8-11.73,7.27-16.25,2.75-3.25,4.72-4.61,5.89-4.07,1.17.53,1.55,2.37,1.15,5.51-.41,3.14-1.56,7.04-3.44,11.71-1.89,4.67-4.46,9.46-7.73,14.37Z"/>
    </g>
  </g>
</svg>