<?xml version="1.0" encoding="UTF-8"?>
<svg id="Capa_5" data-name="Capa 5" xmlns="http://www.w3.org/2000/svg" viewBox="0 0 850.39 850.39">
  <defs>
    <style>
      .cls-1 {
        fill: #6a2915;
        stroke-width: 0px;
      }
    </style>
  </defs>
  <path class="cls-1" d="m101.98,565.02c-19.29-43.56-29.99-91.75-29.99-142.45,0-194.56,157.73-352.29,352.29-352.29s352.29,157.73,352.29,352.29c0,50.7-10.71,98.89-29.99,142.45h24.19c18.07-43.91,28.04-92.02,28.04-142.45,0-206.85-167.68-374.53-374.53-374.53S49.75,215.72,49.75,422.57c0,50.43,9.97,98.54,28.04,142.45h24.19Z"/>
  <path class="cls-1" d="m367.64,314.53c4.28,10.45,15.32,14.35,27.59,13.34,12.98-1.94,25.28-17.46,31.15-28.32l-.95-.88c-5.24,3.13-10.23,6.36-15.16,9.34.23-13.43-9.42-27.02-22.56-31.74-14.63-6.25-36.57-1.8-41.61,14.89l1.03.76c8.76-5.22,16.64-6.36,25.36-5.22-7.65,6.83-9.75,18.68-4.85,27.83Zm24.72-19.96c.1.09.21.15.29.23,4.42,3.64,7.68,8.29,9.73,13.5-1.05,1.61-2.51,2.96-4.08,3.81-6.69,3.81-14.47-1.41-14.21-8.33.39-5.74,4.12-8.78,8.26-9.21Z"/>
  <path class="cls-1" d="m410.14,565.02c19.01-17.27,36.43-45.48,36.43-90.78,0-27.59-10.63-49.46-34-65.87-25.88-23.12-77.36-9.56-111.61-71.27-6.73-19.46-7.76-42.97,2.28-61.65,11.03-21.28,34.5-33.71,58.15-33.73,16.34.22,33.82,1,49.57,18.1,15.75,17.1,21.13,28.26,20.91,53.58l14.05.18c.53-32.55-13-66.56-40.26-86.02-33.95-25.12-77.1-38.04-119.28-34.7-10.83.87-21.32,2.88-31.28,6.03,8.12-7.17,16.98-13.51,26.55-18.9,36.25-20.46,78.78-25.27,119.77-13.55l4.9,1.87c51.82,21.22,76.74,80.63,55.59,132.49-3.71,9.07-9.7,19.4-15.93,27.29-2.98,1.63-11.21,7.19-8.92,17.63.08.36.22.69.4,1.02,5.89,10.78,9.56,25.77,9.56,42.36,0,5.84-.45,11.49-1.3,16.82-.45,2.82,2.23,5.2,4.95,4.39,18.45-5.44,32.3-28.62,32.3-56.37,0-10.64-4.38-27.99-7.93-36.53,21.19-28.63,38.98-131.65-59.61-171.76l-5.75-2.21-.98-.33c-47.52-13.73-96.91-8.18-139.07,15.61-34.34,19.38-75.87,80.86-86.37,110.67-25.8,59.13-67.91,270.61-67.91,270.61l-9.82,25.04h22.49l15.79-49.62s41.81-96.55,123.05-91.05c25.22-.5,82.7,20.16,81.67,74.02-.5,26.52-15.3,49.84-30.21,66.65h23.64c16.11-25.12,24.92-48.27,25.32-65.12,0-67.37-67.75-91.88-97.36-93.92-29.59-2.03-77.44,10.98-113.87,48.41-.9-5.07,31.26-145.12,50.72-178.32,22.61-38.55,38.01-58.01,73.68-62.18,35.67-4.17,58.19,1.44,79.81,8.75-20.96,1.48-48.04,11.5-62.42,26.87-14.09,14.84-21.99,35.14-22.35,55.52-.73,26.64,6.68,50.72,25.65,70.12,67.76,61.97,120.87,12.16,125.58,101.49-2.56,38.22-19.09,67.84-36.58,88.39h20.02Zm55.22-201.01l-1.53-.33c-.15-5.52.12-10.8-.18-16.21-.05-1.38-.15-2.93-.29-4.57-.35-3.86-.9-8.15-1.31-11.41l1.44-.58c1.87,2.61,3.23,5.52,4.1,8.58,2.33,8.03,1.39,17.1-2.23,24.53Z"/>
  <path class="cls-1" d="m704.31,268.76h-187.21l-13.49,37.77h84.03v139.4l-21.71-67.54-10.78-33.56h-42.14l-10.78,33.56-50.11,155.94-3.28,10.23h35.13l14.91-46.39h70.41l14.9,46.39h35.14l-3.28-10.23-9.46-29.42h17.85v-198.38h79.87v-37.77Zm-195.29,197.83l25.07-77.98,25.05,77.98h-50.12Z"/>
  <path class="cls-1" d="m85.96,652.18h31.3l6.83,17.78h17.2l-31.35-78.29h-16.72l-30.5,78.29h16.77l6.46-17.78Zm15.43-42.24l10.79,29.05h-21.36l10.57-29.05Z"/>
  <path class="cls-1" d="m174.32,671.35c6.8,0,12.48-.95,17.04-2.86,4.56-1.9,8.08-4.82,10.58-8.73,2.49-3.92,3.74-8.12,3.74-12.6,0-4.95-1.04-9.11-3.12-12.47-2.08-3.37-4.97-6.02-8.65-7.96-3.69-1.94-9.37-3.82-17.06-5.63-7.69-1.82-12.53-3.56-14.53-5.23-1.57-1.32-2.35-2.9-2.35-4.75,0-2.03.84-3.65,2.51-4.86,2.6-1.89,6.2-2.83,10.79-2.83s7.79.88,10.01,2.64c2.23,1.76,3.67,4.66,4.35,8.68l15.81-.69c-.25-7.19-2.86-12.94-7.82-17.25-4.97-4.31-12.36-6.46-22.19-6.46-6.02,0-11.15.91-15.41,2.72-4.26,1.82-7.51,4.46-9.77,7.93-2.26,3.47-3.39,7.2-3.39,11.19,0,6.2,2.4,11.45,7.21,15.76,3.42,3.06,9.36,5.64,17.84,7.74,6.59,1.64,10.81,2.78,12.66,3.42,2.71.96,4.6,2.09,5.69,3.39,1.08,1.3,1.63,2.87,1.63,4.73,0,2.88-1.29,5.4-3.87,7.56-2.58,2.15-6.42,3.23-11.51,3.23-4.81,0-8.63-1.21-11.45-3.63-2.83-2.42-4.71-6.21-5.63-11.38l-15.38,1.5c1.03,8.76,4.2,15.43,9.51,20,5.3,4.57,12.91,6.86,22.81,6.86Z"/>
  <polygon class="cls-1" points="249.25 669.96 249.25 604.91 272.43 604.91 272.43 591.67 210.21 591.67 210.21 604.91 233.45 604.91 233.45 669.96 249.25 669.96"/>
  <path class="cls-1" d="m320.12,652.92l11.43,17.04h18.9l-9.56-15.27c-3.77-6.09-6.77-10.32-9-12.71-2.23-2.39-5.05-4.57-8.46-6.57,6.87-1,12.03-3.41,15.49-7.24,3.45-3.83,5.18-8.68,5.18-14.55,0-4.63-1.14-8.74-3.42-12.34-2.28-3.6-5.31-6.1-9.1-7.5-3.79-1.41-9.87-2.11-18.24-2.11h-33.27v78.29h15.81v-32.68h3.21c3.63,0,6.28.29,7.96.88,1.67.59,3.26,1.67,4.75,3.26,1.5,1.59,4.27,5.42,8.33,11.51Zm-24.25-28.15v-19.87h12.34c6.41,0,10.25.09,11.54.27,2.56.43,4.55,1.45,5.95,3.07,1.41,1.62,2.11,3.75,2.11,6.38,0,2.35-.54,4.31-1.6,5.88-1.07,1.57-2.54,2.67-4.43,3.31-1.89.64-6.62.96-14.21.96h-11.7Z"/>
  <path class="cls-1" d="m417.37,660.59c6.87-7.14,10.31-17.03,10.31-29.67s-3.46-22.7-10.39-29.85c-6.92-7.16-16.15-10.73-27.69-10.73-6.37,0-12,1.03-16.88,3.1-3.67,1.53-7.04,3.88-10.12,7.05-3.08,3.17-5.51,6.75-7.29,10.73-2.39,5.41-3.58,12.11-3.58,20.08,0,12.46,3.43,22.24,10.31,29.35,6.87,7.1,16.13,10.65,27.77,10.65s20.68-3.57,27.56-10.71Zm-43.2-9.67c-4.09-4.57-6.14-11.3-6.14-20.16s1.99-15.74,5.98-20.21c3.99-4.47,9.24-6.7,15.76-6.7s11.74,2.21,15.67,6.62c3.93,4.42,5.9,11.11,5.9,20.08s-2.02,15.89-6.06,20.43c-4.04,4.54-9.21,6.81-15.51,6.81s-11.5-2.29-15.59-6.86Z"/>
  <polygon class="cls-1" points="469.39 669.96 469.39 604.91 492.56 604.91 492.56 591.67 430.35 591.67 430.35 604.91 453.58 604.91 453.58 669.96 469.39 669.96"/>
  <polygon class="cls-1" points="559.76 656.77 516.02 656.77 516.02 635.46 555.33 635.46 555.33 622.27 516.02 622.27 516.02 604.91 558.27 604.91 558.27 591.67 500.22 591.67 500.22 669.96 559.76 669.96 559.76 656.77"/>
  <path class="cls-1" d="m623.02,641.98c-2.23-2.39-5.05-4.57-8.46-6.57,6.87-1,12.03-3.41,15.49-7.24,3.45-3.83,5.18-8.68,5.18-14.55,0-4.63-1.14-8.74-3.42-12.34-2.28-3.6-5.31-6.1-9.1-7.5-3.79-1.41-9.87-2.11-18.24-2.11h-33.27v78.29h15.81v-32.68h3.2c3.63,0,6.28.29,7.96.88,1.67.59,3.26,1.67,4.75,3.26,1.5,1.59,4.27,5.42,8.33,11.51l11.43,17.04h18.9l-9.56-15.27c-3.77-6.09-6.77-10.32-9-12.71Zm-24.33-17.2h-11.69v-19.87h12.34c6.41,0,10.25.09,11.54.27,2.56.43,4.55,1.45,5.96,3.07,1.4,1.62,2.11,3.75,2.11,6.38,0,2.35-.53,4.31-1.6,5.88-1.07,1.57-2.54,2.67-4.43,3.31-1.89.64-6.62.96-14.21.96Z"/>
  <path class="cls-1" d="m700.28,641.98c-2.22-2.39-5.05-4.57-8.46-6.57,6.87-1,12.03-3.41,15.49-7.24,3.45-3.83,5.18-8.68,5.18-14.55,0-4.63-1.14-8.74-3.42-12.34-2.28-3.6-5.31-6.1-9.11-7.5-3.79-1.41-9.87-2.11-18.24-2.11h-33.27v78.29h15.81v-32.68h3.2c3.63,0,6.28.29,7.96.88,1.67.59,3.26,1.67,4.75,3.26,1.5,1.59,4.27,5.42,8.33,11.51l11.43,17.04h18.9l-9.56-15.27c-3.77-6.09-6.77-10.32-9-12.71Zm-24.33-17.2h-11.7v-19.87h12.34c6.41,0,10.25.09,11.53.27,2.56.43,4.55,1.45,5.96,3.07,1.41,1.62,2.11,3.75,2.11,6.38,0,2.35-.54,4.31-1.6,5.88-1.07,1.57-2.54,2.67-4.43,3.31-1.89.64-6.62.96-14.21.96Z"/>
  <path class="cls-1" d="m769.29,591.67h-16.72l-30.5,78.29h16.77l6.46-17.78h31.3l6.83,17.78h17.2l-31.35-78.29Zm-19.12,47.32l10.57-29.05,10.79,29.05h-21.36Z"/>
  <polygon class="cls-1" points="76.57 709.35 87.5 709.35 87.5 739.96 94.94 739.96 94.94 709.35 105.85 709.35 105.85 703.11 76.57 703.11 76.57 709.35"/>
  <path class="cls-1" d="m117.04,739.37c1.82.81,4.49,1.22,8.01,1.22,2.92,0,5.28-.37,7.09-1.12,1.81-.75,3.25-1.75,4.34-3,1.08-1.26,1.82-2.8,2.22-4.62.4-1.83.6-4.95.6-9.37v-19.35h-7.44v20.38c0,2.92-.11,5-.33,6.26-.22,1.26-.86,2.32-1.93,3.18-1.07.86-2.67,1.29-4.77,1.29s-3.72-.46-4.91-1.37c-1.2-.91-1.96-2.12-2.28-3.63-.19-.94-.28-2.99-.28-6.16v-19.95h-7.44v19.65c0,4.12.24,7.24.73,9.35.33,1.42,1.03,2.79,2.09,4.08,1.05,1.3,2.49,2.35,4.31,3.17Z"/>
  <path class="cls-1" d="m176.69,713.44c0-2.18-.54-4.11-1.61-5.81-1.07-1.69-2.5-2.87-4.28-3.53-1.79-.66-4.65-.99-8.58-.99h-15.66v36.84h7.44v-15.38h1.51c1.71,0,2.96.14,3.74.41.79.28,1.53.79,2.24,1.53.7.75,2.01,2.55,3.92,5.42l5.38,8.02h8.9l-4.5-7.19c-1.78-2.86-3.19-4.86-4.24-5.98-1.04-1.12-2.37-2.15-3.98-3.09,3.23-.47,5.66-1.6,7.29-3.4,1.62-1.8,2.44-4.08,2.44-6.85Zm-8.42,3.24c-.5.74-1.2,1.26-2.09,1.56-.89.3-3.12.45-6.69.45h-5.5v-9.35h5.81c3.02,0,4.83.04,5.43.13,1.21.2,2.14.68,2.8,1.44.66.76.99,1.76.99,3,0,1.11-.25,2.03-.75,2.76Z"/>
  <rect class="cls-1" x="183.27" y="703.11" width="7.44" height="36.84"/>
  <path class="cls-1" d="m223.87,735.16c1.17-1.84,1.76-3.82,1.76-5.93,0-2.33-.49-4.29-1.47-5.87-.98-1.58-2.34-2.83-4.07-3.74-1.73-.91-4.41-1.8-8.03-2.65-3.62-.85-5.9-1.68-6.84-2.46-.74-.62-1.11-1.37-1.11-2.24,0-.95.39-1.72,1.18-2.29,1.22-.89,2.92-1.33,5.08-1.33s3.66.41,4.71,1.24c1.05.83,1.73,2.19,2.05,4.08l7.44-.33c-.11-3.38-1.34-6.09-3.68-8.12-2.34-2.03-5.82-3.04-10.44-3.04-2.83,0-5.25.43-7.25,1.28-2,.85-3.54,2.1-4.6,3.73-1.06,1.63-1.6,3.39-1.6,5.27,0,2.92,1.13,5.39,3.39,7.41,1.61,1.44,4.41,2.66,8.39,3.64,3.1.77,5.09,1.31,5.96,1.61,1.27.45,2.16.98,2.68,1.6.51.61.77,1.35.77,2.22,0,1.36-.61,2.54-1.82,3.56-1.22,1.01-3.02,1.52-5.41,1.52-2.26,0-4.06-.57-5.39-1.71s-2.22-2.92-2.65-5.35l-7.24.7c.49,4.12,1.97,7.26,4.47,9.41,2.5,2.15,6.07,3.23,10.73,3.23,3.2,0,5.87-.45,8.02-1.35,2.15-.9,3.8-2.27,4.98-4.11Z"/>
  <polygon class="cls-1" points="259.91 710.95 259.91 739.96 266.82 739.96 266.82 703.11 255.66 703.11 249.05 728.25 242.36 703.11 231.23 703.11 231.23 739.96 238.14 739.96 238.14 710.95 245.43 739.96 252.59 739.96 259.91 710.95"/>
  <path class="cls-1" d="m290.29,740.59c5.41,0,9.74-1.68,12.97-5.04,3.23-3.36,4.85-8.01,4.85-13.96s-1.63-10.68-4.89-14.05c-3.26-3.37-7.6-5.05-13.03-5.05-3,0-5.65.49-7.94,1.46-1.72.72-3.31,1.83-4.76,3.32-1.45,1.49-2.59,3.18-3.43,5.05-1.12,2.55-1.68,5.7-1.68,9.45,0,5.86,1.62,10.47,4.85,13.81,3.23,3.34,7.59,5.01,13.07,5.01Zm-7.44-28.59c1.88-2.1,4.35-3.15,7.41-3.15s5.53,1.04,7.38,3.12c1.85,2.08,2.78,5.23,2.78,9.45s-.95,7.48-2.85,9.61c-1.9,2.14-4.34,3.2-7.3,3.2s-5.41-1.08-7.34-3.23c-1.93-2.15-2.89-5.32-2.89-9.49s.94-7.41,2.81-9.51Z"/>
  <path class="cls-1" d="m338.82,703.11l-14.35,36.84h7.89l3.04-8.37h14.73l3.22,8.37h8.09l-14.75-36.84h-7.86Zm-1.13,22.27l4.98-13.67,5.08,13.67h-10.05Z"/>
  <path class="cls-1" d="m377.58,734.33c-2.26,0-4.06-.57-5.39-1.71-1.33-1.14-2.22-2.92-2.65-5.35l-7.24.7c.49,4.12,1.97,7.26,4.47,9.41,2.5,2.15,6.07,3.23,10.73,3.23,3.2,0,5.87-.45,8.02-1.35,2.14-.9,3.8-2.27,4.97-4.11,1.17-1.84,1.76-3.82,1.76-5.93,0-2.33-.49-4.29-1.47-5.87-.98-1.58-2.34-2.83-4.07-3.74-1.73-.91-4.41-1.8-8.03-2.65-3.62-.85-5.9-1.68-6.84-2.46-.74-.62-1.11-1.37-1.11-2.24,0-.95.39-1.72,1.18-2.29,1.22-.89,2.92-1.33,5.08-1.33s3.67.41,4.71,1.24c1.05.83,1.73,2.19,2.05,4.08l7.44-.33c-.11-3.38-1.34-6.09-3.68-8.12-2.34-2.03-5.82-3.04-10.44-3.04-2.83,0-5.25.43-7.25,1.28-2,.85-3.53,2.1-4.6,3.73-1.06,1.63-1.6,3.39-1.6,5.27,0,2.92,1.13,5.39,3.39,7.41,1.61,1.44,4.41,2.66,8.4,3.64,3.1.77,5.09,1.31,5.95,1.61,1.27.45,2.17.98,2.68,1.6.51.61.77,1.35.77,2.22,0,1.36-.61,2.54-1.82,3.56-1.22,1.01-3.02,1.52-5.41,1.52Z"/>
  <polygon class="cls-1" points="424.18 703.11 394.9 703.11 394.9 709.35 405.83 709.35 405.83 739.96 413.27 739.96 413.27 709.35 424.18 709.35 424.18 703.11"/>
  <path class="cls-1" d="m456.89,732.77c-1.78-2.86-3.19-4.86-4.23-5.98-1.05-1.12-2.38-2.15-3.98-3.09,3.23-.47,5.66-1.6,7.29-3.4,1.63-1.8,2.44-4.08,2.44-6.85,0-2.18-.54-4.11-1.61-5.81-1.07-1.69-2.5-2.87-4.29-3.53-1.78-.66-4.65-.99-8.58-.99h-15.66v36.84h7.44v-15.38h1.51c1.71,0,2.96.14,3.74.41.79.28,1.53.79,2.24,1.53.7.75,2.01,2.55,3.92,5.42l5.38,8.02h8.9l-4.5-7.19Zm-15.68-14.07h-5.5v-9.35h5.81c3.02,0,4.83.04,5.43.13,1.21.2,2.14.68,2.8,1.44.66.76.99,1.76.99,3,0,1.11-.25,2.03-.75,2.76-.5.74-1.2,1.26-2.09,1.56-.89.3-3.12.45-6.69.45Z"/>
  <path class="cls-1" d="m480.44,740.59c5.41,0,9.74-1.68,12.97-5.04,3.23-3.36,4.85-8.01,4.85-13.96s-1.63-10.68-4.89-14.05c-3.26-3.37-7.6-5.05-13.03-5.05-3,0-5.64.49-7.94,1.46-1.73.72-3.31,1.83-4.76,3.32-1.45,1.49-2.59,3.18-3.43,5.05-1.12,2.55-1.68,5.7-1.68,9.45,0,5.86,1.62,10.47,4.85,13.81,3.23,3.34,7.59,5.01,13.07,5.01Zm-7.44-28.59c1.88-2.1,4.35-3.15,7.41-3.15s5.52,1.04,7.37,3.12c1.85,2.08,2.78,5.23,2.78,9.45s-.95,7.48-2.85,9.61c-1.9,2.14-4.33,3.2-7.3,3.2s-5.41-1.08-7.34-3.23c-1.92-2.15-2.89-5.32-2.89-9.49s.94-7.41,2.81-9.51Z"/>
  <polygon class="cls-1" points="511.03 703.11 503.79 703.11 503.79 739.96 510.7 739.96 510.7 715.93 525.56 739.96 533.02 739.96 533.02 703.11 526.11 703.11 526.11 727.72 511.03 703.11"/>
  <path class="cls-1" d="m556.72,740.59c5.41,0,9.74-1.68,12.97-5.04,3.23-3.36,4.85-8.01,4.85-13.96s-1.63-10.68-4.89-14.05c-3.26-3.37-7.6-5.05-13.03-5.05-3,0-5.64.49-7.94,1.46-1.73.72-3.31,1.83-4.76,3.32-1.45,1.49-2.59,3.18-3.43,5.05-1.12,2.55-1.68,5.7-1.68,9.45,0,5.86,1.62,10.47,4.85,13.81,3.23,3.34,7.59,5.01,13.07,5.01Zm-7.44-28.59c1.88-2.1,4.35-3.15,7.41-3.15s5.53,1.04,7.37,3.12c1.85,2.08,2.78,5.23,2.78,9.45s-.95,7.48-2.85,9.61c-1.9,2.14-4.33,3.2-7.3,3.2s-5.41-1.08-7.34-3.23c-1.92-2.15-2.89-5.32-2.89-9.49s.94-7.41,2.81-9.51Z"/>
  <polygon class="cls-1" points="586.91 710.95 594.2 739.96 601.36 739.96 608.68 710.95 608.68 739.96 615.59 739.96 615.59 703.11 604.43 703.11 597.82 728.25 591.14 703.11 580 703.11 580 739.96 586.91 739.96 586.91 710.95"/>
  <rect class="cls-1" x="622.61" y="703.11" width="7.44" height="36.84"/>
  <path class="cls-1" d="m652.47,708.84c1.98,0,3.66.55,5.04,1.66,1.38,1.1,2.29,2.61,2.73,4.52l7.36-1.76c-.84-2.95-2.09-5.21-3.77-6.79-2.81-2.66-6.47-4-10.98-4-5.16,0-9.32,1.7-12.49,5.09-3.17,3.39-4.75,8.16-4.75,14.29,0,5.8,1.57,10.37,4.72,13.71,3.15,3.34,7.17,5.01,12.06,5.01,3.95,0,7.22-.98,9.79-2.93,2.57-1.95,4.41-4.94,5.51-8.96l-7.21-2.29c-.62,2.7-1.64,4.67-3.07,5.93-1.42,1.26-3.12,1.88-5.1,1.88-2.68,0-4.86-.99-6.53-2.97-1.67-1.98-2.51-5.29-2.51-9.95,0-4.39.85-7.56,2.55-9.52,1.7-1.96,3.92-2.94,6.65-2.94Z"/>
  <path class="cls-1" d="m689.22,702.49c-3,0-5.65.49-7.94,1.46-1.72.72-3.31,1.83-4.76,3.32-1.45,1.49-2.59,3.18-3.43,5.05-1.12,2.55-1.69,5.7-1.69,9.45,0,5.86,1.62,10.47,4.85,13.81,3.23,3.34,7.59,5.01,13.07,5.01s9.74-1.68,12.97-5.04c3.23-3.36,4.85-8.01,4.85-13.96s-1.63-10.68-4.89-14.05c-3.26-3.37-7.6-5.05-13.03-5.05Zm7.37,28.54c-1.9,2.14-4.34,3.2-7.3,3.2s-5.41-1.08-7.34-3.23c-1.93-2.15-2.89-5.32-2.89-9.49s.94-7.41,2.81-9.51c1.88-2.1,4.35-3.15,7.41-3.15s5.53,1.04,7.38,3.12c1.85,2.08,2.78,5.23,2.78,9.45s-.95,7.48-2.85,9.61Z"/>
  <path class="cls-1" d="m710.77,739.96h3.42c-.03,1.42-.35,2.55-.95,3.37-.6.82-1.62,1.47-3.04,1.93l1.38,2.92c1.51-.54,2.75-1.27,3.73-2.21.98-.94,1.65-2,2-3.18.35-1.18.53-2.79.53-4.84v-5.05h-7.06v7.06Z"/>
  <polygon class="cls-1" points="134.85 789.48 119.77 764.88 112.53 764.88 112.53 801.72 119.44 801.72 119.44 777.7 134.3 801.72 141.76 801.72 141.76 764.88 134.85 764.88 134.85 789.48"/>
  <path class="cls-1" d="m159.87,764.88l-14.35,36.84h7.89l3.04-8.37h14.73l3.22,8.37h8.09l-14.75-36.84h-7.87Zm-1.13,22.27l4.98-13.67,5.08,13.67h-10.05Z"/>
  <polygon class="cls-1" points="179.2 771.11 190.13 771.11 190.13 801.72 197.57 801.72 197.57 771.11 208.48 771.11 208.48 764.88 179.2 764.88 179.2 771.11"/>
  <path class="cls-1" d="m234.49,785.26c0,2.92-.11,5-.33,6.26-.22,1.26-.86,2.32-1.94,3.18-1.07.86-2.66,1.29-4.78,1.29s-3.72-.46-4.91-1.37c-1.2-.91-1.96-2.12-2.28-3.63-.18-.94-.28-2.99-.28-6.16v-19.95h-7.44v19.65c0,4.12.24,7.24.73,9.35.34,1.42,1.03,2.79,2.09,4.08,1.05,1.3,2.49,2.35,4.31,3.17,1.82.81,4.49,1.22,8,1.22,2.91,0,5.28-.37,7.09-1.12,1.81-.75,3.25-1.75,4.33-3,1.08-1.26,1.82-2.8,2.23-4.62.4-1.83.6-4.95.6-9.37v-19.35h-7.44v20.38Z"/>
  <path class="cls-1" d="m273.58,788.55c-1.05-1.12-2.38-2.15-3.98-3.09,3.23-.47,5.66-1.6,7.29-3.4,1.62-1.8,2.44-4.08,2.44-6.85,0-2.18-.54-4.11-1.61-5.81-1.07-1.69-2.5-2.87-4.29-3.53-1.78-.66-4.64-.99-8.58-.99h-15.66v36.84h7.44v-15.38h1.51c1.71,0,2.96.14,3.75.41.79.28,1.53.79,2.23,1.53.7.75,2.01,2.55,3.92,5.42l5.38,8.02h8.9l-4.5-7.19c-1.78-2.87-3.19-4.86-4.23-5.98Zm-11.45-8.09h-5.5v-9.35h5.81c3.02,0,4.83.04,5.43.13,1.21.2,2.14.68,2.8,1.44.66.76.99,1.76.99,3,0,1.11-.25,2.03-.75,2.76-.5.74-1.2,1.26-2.09,1.56-.89.3-3.12.45-6.69.45Z"/>
  <path class="cls-1" d="m298.57,764.88l-14.35,36.84h7.89l3.04-8.37h14.73l3.21,8.37h8.09l-14.75-36.84h-7.87Zm-1.13,22.27l4.97-13.67,5.08,13.67h-10.05Z"/>
  <polygon class="cls-1" points="332.41 765.18 324.97 765.18 324.97 801.72 350.91 801.72 350.91 795.51 332.41 795.51 332.41 765.18"/>
  <polygon class="cls-1" points="384.08 779.46 375.41 764.88 366.69 764.88 380.19 786.22 380.19 801.72 387.6 801.72 387.6 786.27 401.15 764.88 392.58 764.88 384.08 779.46"/>
  <path class="cls-1" d="m439.65,794.11c-1.42,1.26-3.12,1.88-5.1,1.88-2.68,0-4.86-.99-6.53-2.97-1.67-1.98-2.51-5.29-2.51-9.95,0-4.39.85-7.57,2.55-9.53,1.7-1.96,3.92-2.94,6.65-2.94,1.98,0,3.66.55,5.04,1.66,1.38,1.11,2.29,2.61,2.73,4.52l7.36-1.76c-.84-2.95-2.1-5.21-3.77-6.78-2.82-2.66-6.47-4-10.98-4-5.16,0-9.33,1.7-12.49,5.09-3.17,3.39-4.75,8.16-4.75,14.29,0,5.8,1.57,10.37,4.72,13.71,3.15,3.34,7.17,5.01,12.07,5.01,3.95,0,7.22-.98,9.79-2.93,2.57-1.95,4.41-4.94,5.51-8.96l-7.21-2.29c-.62,2.7-1.64,4.67-3.07,5.93Z"/>
  <path class="cls-1" d="m476.95,785.26c0,2.92-.11,5-.33,6.26-.22,1.26-.86,2.32-1.93,3.18-1.07.86-2.67,1.29-4.78,1.29s-3.72-.46-4.91-1.37c-1.2-.91-1.96-2.12-2.28-3.63-.18-.94-.28-2.99-.28-6.16v-19.95h-7.44v19.65c0,4.12.24,7.24.73,9.35.33,1.42,1.03,2.79,2.09,4.08,1.05,1.3,2.49,2.35,4.31,3.17,1.82.81,4.49,1.22,8.01,1.22,2.91,0,5.28-.37,7.09-1.12,1.81-.75,3.25-1.75,4.33-3,1.08-1.26,1.82-2.8,2.23-4.62.4-1.83.6-4.95.6-9.37v-19.35h-7.44v20.38Z"/>
  <polygon class="cls-1" points="499.18 765.18 491.75 765.18 491.75 801.72 517.68 801.72 517.68 795.51 499.18 795.51 499.18 765.18"/>
  <polygon class="cls-1" points="515.04 771.11 525.97 771.11 525.97 801.72 533.41 801.72 533.41 771.11 544.31 771.11 544.31 764.88 515.04 764.88 515.04 771.11"/>
  <path class="cls-1" d="m570.33,785.26c0,2.92-.11,5-.33,6.26-.22,1.26-.86,2.32-1.93,3.18-1.07.86-2.66,1.29-4.77,1.29s-3.72-.46-4.91-1.37c-1.2-.91-1.96-2.12-2.28-3.63-.19-.94-.28-2.99-.28-6.16v-19.95h-7.44v19.65c0,4.12.24,7.24.73,9.35.33,1.42,1.03,2.79,2.09,4.08,1.06,1.3,2.49,2.35,4.31,3.17,1.82.81,4.49,1.22,8.01,1.22,2.92,0,5.28-.37,7.09-1.12,1.81-.75,3.25-1.75,4.34-3,1.08-1.26,1.82-2.8,2.22-4.62.4-1.83.6-4.95.6-9.37v-19.35h-7.44v20.38Z"/>
  <path class="cls-1" d="m609.41,788.55c-1.04-1.12-2.37-2.15-3.98-3.09,3.23-.47,5.66-1.6,7.29-3.4,1.62-1.8,2.44-4.08,2.44-6.85,0-2.18-.54-4.11-1.61-5.81-1.07-1.69-2.5-2.87-4.28-3.53-1.79-.66-4.65-.99-8.58-.99h-15.66v36.84h7.44v-15.38h1.51c1.71,0,2.96.14,3.74.41.79.28,1.53.79,2.24,1.53.7.75,2.01,2.55,3.92,5.42l5.38,8.02h8.9l-4.5-7.19c-1.78-2.87-3.19-4.86-4.24-5.98Zm-11.45-8.09h-5.5v-9.35h5.81c3.02,0,4.83.04,5.43.13,1.21.2,2.14.68,2.8,1.44.66.76.99,1.76.99,3,0,1.11-.25,2.03-.75,2.76-.5.74-1.2,1.26-2.09,1.56-.89.3-3.12.45-6.69.45Z"/>
  <path class="cls-1" d="m634.41,764.88l-14.35,36.84h7.89l3.04-8.37h14.73l3.22,8.37h8.09l-14.75-36.84h-7.87Zm-1.13,22.27l4.98-13.67,5.07,13.67h-10.05Z"/>
  <polygon class="cls-1" points="668.25 765.18 660.81 765.18 660.81 801.72 686.74 801.72 686.74 795.51 668.25 795.51 668.25 765.18"/>
</svg>