<?xml version="1.0" encoding="UTF-8"?>
<svg id="Capa_5" data-name="Capa 5" xmlns="http://www.w3.org/2000/svg" viewBox="0 0 850.39 483.58">
  <defs>
    <style>
      .cls-1, .cls-2, .cls-3 {
        stroke-width: 0px;
      }

      .cls-2 {
        fill: #1a171b;
      }

      .cls-3 {
        fill: #f2b223;
      }
    </style>
  </defs>
  <g>
    <g>
      <path class="cls-1" d="m195.17,405.14l-.72,4-.68.26c-1.88-1.39-3.74-2.09-5.58-2.09-1.39,0-2.49.39-3.32,1.15-.82.77-1.24,1.66-1.24,2.68s.41,1.81,1.24,2.45c.82.64,2.11,1.37,3.88,2.19,1.53.74,2.78,1.4,3.72,2,.95.6,1.77,1.38,2.45,2.36.69.98,1.02,2.15,1.02,3.51,0,1.48-.4,2.83-1.21,4.07-.81,1.24-1.95,2.22-3.4,2.94-1.46.72-3.14,1.08-5,1.08-2.62,0-5.16-.61-7.67-1.83l.56-4.34.55-.26c1.05.99,2.21,1.74,3.47,2.24,1.27.5,2.43.74,3.52.74,1.47,0,2.65-.39,3.53-1.17.88-.78,1.32-1.71,1.32-2.79s-.43-1.95-1.27-2.62c-.85-.67-2.16-1.41-3.92-2.24-1.5-.71-2.72-1.35-3.66-1.94-.94-.58-1.74-1.35-2.4-2.32-.67-.96-1.01-2.13-1.01-3.49,0-1.48.4-2.82,1.2-4.04.79-1.22,1.9-2.18,3.32-2.88,1.42-.69,3.04-1.04,4.85-1.04,2.16,0,4.32.45,6.48,1.36Z"/>
      <path class="cls-1" d="m221.53,431.41l-.64-3.07-1.19-3.79-5.79-.13-5.24.13-1.27,3.57-.69,3.28h-4.39l9.76-27.34h5.15l8.82,27.34h-4.52Zm-6.86-23.04h-.3l-4.47,12.61,4.3.08,4.39-.08-3.92-12.61Z"/>
      <path class="cls-1" d="m256.62,431.41h-4.73l-12.82-20.48h-.34l-.04,11.33.21,9.15h-4.13l.3-8.09-.21-19.25h4.68l12.86,20.48h.34l-.13-20.27,4.13-.3-.3,19.25.18,8.17Z"/>
      <path class="cls-1" d="m285.57,426.34c0,2.22-.57,4.04-1.72,5.47-1.14,1.43-3.14,2.77-5.98,4.02l-1.53-2.43v-.47c1.9-1,3.24-1.96,4.03-2.92.78-.95,1.17-2.18,1.17-3.68v-3.53l-.17-15.33-4.98.04-.39-.34.26-3.11h9.5l-.26,18.31.08,3.96Z"/>
      <path class="cls-1" d="m317.55,421.2c.05,3.35-.85,5.95-2.73,7.79-1.87,1.85-4.52,2.77-7.96,2.77s-5.86-.88-7.62-2.66c-1.76-1.77-2.61-4.29-2.56-7.56l.08-3.79-.08-13.67h4.35l-.18,16.86c-.02,4.71,2.07,7.07,6.31,7.07s6.37-2.22,6.34-6.64l-.21-17.29h4.43l-.13,13.88-.04,3.24Z"/>
      <path class="cls-1" d="m343.91,431.41l-.64-3.07-1.19-3.79-5.79-.13-5.24.13-1.27,3.57-.69,3.28h-4.39l9.76-27.34h5.15l8.82,27.34h-4.52Zm-6.86-23.04h-.3l-4.47,12.61,4.3.08,4.39-.08-3.92-12.61Z"/>
      <path class="cls-1" d="m379,431.41h-4.73l-12.82-20.48h-.34l-.04,11.33.21,9.15h-4.13l.3-8.09-.21-19.25h4.68l12.86,20.48h.34l-.13-20.27,4.13-.3-.3,19.25.18,8.17Z"/>
      <path class="cls-1" d="m409.06,421.36l-10.21,1.53-.39-.38v-2.73l10.22-1.49.38.34v2.72Z"/>
      <path class="cls-1" d="m444.44,431.41l-.64-3.07-1.19-3.79-5.79-.13-5.24.13-1.27,3.57-.69,3.28h-4.39l9.76-27.34h5.15l8.82,27.34h-4.52Zm-6.86-23.04h-.3l-4.47,12.61,4.3.08,4.39-.08-3.92-12.61Z"/>
      <path class="cls-1" d="m477.06,430.39l-.05.51c-1.36.45-2.77.75-4.21.89l-.51-.34c-2.36-3.86-4.26-7.12-5.71-9.79h-4.65v1.15l.21,8.6h-4.47l.3-8.22-.3-19.12,9.28-.04c2.75,0,4.88.69,6.39,2.06,1.5,1.38,2.26,3.34,2.26,5.9,0,1.82-.47,3.46-1.43,4.92-.95,1.46-2.28,2.65-3.98,3.55,1.93,3.09,4.22,6.4,6.86,9.92Zm-10.35-12.18c2.87-.88,4.3-2.84,4.3-5.87s-1.75-4.71-5.23-4.86l-3.62.13-.13,10.48,4.68.13Z"/>
      <path class="cls-1" d="m505.3,405.61l-.9,4.09-.47.04c-1.39-.82-2.65-1.41-3.79-1.77-1.14-.35-2.33-.53-3.58-.53-2.84,0-4.95.86-6.34,2.57-1.4,1.72-2.09,4.42-2.09,8.11s.66,6.07,1.96,7.64c1.3,1.58,3.38,2.36,6.22,2.36,1.25,0,2.82-.28,4.72-.85l.13-2.77-.13-4.09,4.13-.3-.08,3.7.12,6.26c-3.52,1.11-6.57,1.66-9.15,1.66-4.17,0-7.29-1.16-9.37-3.47-2.07-2.31-3.1-5.63-3.1-9.94,0-4.71,1.18-8.32,3.55-10.82,2.37-2.5,5.75-3.75,10.15-3.75,2.87,0,5.54.61,8.01,1.83Z"/>
      <path class="cls-1" d="m532,428.05l-.3,3.36h-16.14l.3-8.22-.3-19.12h16.23l.25.38-.34,3.36-6.48-.17-5.19.05-.13,7.96,4.94.09,4.52-.13.3.34-.34,3.36-4.81-.13-4.64.08-.05,3.54.13,5.02,5.19.04,6.6-.21.26.38Z"/>
      <path class="cls-1" d="m562.65,431.41h-4.73l-12.82-20.48h-.34l-.04,11.33.21,9.15h-4.13l.3-8.09-.21-19.25h4.68l12.86,20.48h.34l-.13-20.27,4.12-.3-.29,19.25.17,8.17Z"/>
      <path class="cls-1" d="m590.75,407.78l-4.94-.26h-2.3l-.21,15.29.21,8.6h-4.42l.26-8.22-.21-15.67h-2.3l-5.02.26-.31-.39.35-3.32h18.9l.26.38-.26,3.32Z"/>
      <path class="cls-1" d="m604.16,431.41h-4.47l.31-8.22-.31-19.12h4.52l-.26,18.74.21,8.6Z"/>
      <path class="cls-1" d="m637.68,431.41h-4.73l-12.82-20.48h-.35l-.03,11.33.21,9.15h-4.13l.29-8.09-.21-19.25h4.68l12.86,20.48h.35l-.14-20.27,4.13-.3-.31,19.25.18,8.17Z"/>
      <path class="cls-1" d="m665.27,431.41l-.64-3.07-1.19-3.79-5.78-.13-5.25.13-1.27,3.57-.69,3.28h-4.39l9.76-27.34h5.14l8.82,27.34h-4.52Zm-6.85-23.04h-.31l-4.47,12.61,4.3.08,4.39-.08-3.92-12.61Z"/>
    </g>
    <g>
      <path class="cls-2" d="m195.17,405.14l-.72,4-.68.26c-1.88-1.39-3.74-2.09-5.58-2.09-1.39,0-2.49.39-3.32,1.15-.82.77-1.24,1.66-1.24,2.68s.41,1.81,1.24,2.45c.82.64,2.11,1.37,3.88,2.19,1.53.74,2.78,1.4,3.72,2,.95.6,1.77,1.38,2.45,2.36.69.98,1.02,2.15,1.02,3.51,0,1.48-.4,2.83-1.21,4.07-.81,1.24-1.95,2.22-3.4,2.94-1.46.72-3.14,1.08-5,1.08-2.62,0-5.16-.61-7.67-1.83l.56-4.34.55-.26c1.05.99,2.21,1.74,3.47,2.24,1.27.5,2.43.74,3.52.74,1.47,0,2.65-.39,3.53-1.17.88-.78,1.32-1.71,1.32-2.79s-.43-1.95-1.27-2.62c-.85-.67-2.16-1.41-3.92-2.24-1.5-.71-2.72-1.35-3.66-1.94-.94-.58-1.74-1.35-2.4-2.32-.67-.96-1.01-2.13-1.01-3.49,0-1.48.4-2.82,1.2-4.04.79-1.22,1.9-2.18,3.32-2.88,1.42-.69,3.04-1.04,4.85-1.04,2.16,0,4.32.45,6.48,1.36Z"/>
      <path class="cls-2" d="m221.53,431.41l-.64-3.07-1.19-3.79-5.79-.13-5.24.13-1.27,3.57-.69,3.28h-4.39l9.76-27.34h5.15l8.82,27.34h-4.52Zm-6.86-23.04h-.3l-4.47,12.61,4.3.08,4.39-.08-3.92-12.61Z"/>
      <path class="cls-2" d="m256.62,431.41h-4.73l-12.82-20.48h-.34l-.04,11.33.21,9.15h-4.13l.3-8.09-.21-19.25h4.68l12.86,20.48h.34l-.13-20.27,4.13-.3-.3,19.25.18,8.17Z"/>
      <path class="cls-2" d="m285.57,426.34c0,2.22-.57,4.04-1.72,5.47-1.14,1.43-3.14,2.77-5.98,4.02l-1.53-2.43v-.47c1.9-1,3.24-1.96,4.03-2.92.78-.95,1.17-2.18,1.17-3.68v-3.53l-.17-15.33-4.98.04-.39-.34.26-3.11h9.5l-.26,18.31.08,3.96Z"/>
      <path class="cls-2" d="m317.55,421.2c.05,3.35-.85,5.95-2.73,7.79-1.87,1.85-4.52,2.77-7.96,2.77s-5.86-.88-7.62-2.66c-1.76-1.77-2.61-4.29-2.56-7.56l.08-3.79-.08-13.67h4.35l-.18,16.86c-.02,4.71,2.07,7.07,6.31,7.07s6.37-2.22,6.34-6.64l-.21-17.29h4.43l-.13,13.88-.04,3.24Z"/>
      <path class="cls-2" d="m343.91,431.41l-.64-3.07-1.19-3.79-5.79-.13-5.24.13-1.27,3.57-.69,3.28h-4.39l9.76-27.34h5.15l8.82,27.34h-4.52Zm-6.86-23.04h-.3l-4.47,12.61,4.3.08,4.39-.08-3.92-12.61Z"/>
      <path class="cls-2" d="m379,431.41h-4.73l-12.82-20.48h-.34l-.04,11.33.21,9.15h-4.13l.3-8.09-.21-19.25h4.68l12.86,20.48h.34l-.13-20.27,4.13-.3-.3,19.25.18,8.17Z"/>
      <path class="cls-2" d="m409.06,421.36l-10.21,1.53-.39-.38v-2.73l10.22-1.49.38.34v2.72Z"/>
      <path class="cls-2" d="m444.44,431.41l-.64-3.07-1.19-3.79-5.79-.13-5.24.13-1.27,3.57-.69,3.28h-4.39l9.76-27.34h5.15l8.82,27.34h-4.52Zm-6.86-23.04h-.3l-4.47,12.61,4.3.08,4.39-.08-3.92-12.61Z"/>
      <path class="cls-2" d="m477.06,430.39l-.05.51c-1.36.45-2.77.75-4.21.89l-.51-.34c-2.36-3.86-4.26-7.12-5.71-9.79h-4.65v1.15l.21,8.6h-4.47l.3-8.22-.3-19.12,9.28-.04c2.75,0,4.88.69,6.39,2.06,1.5,1.38,2.26,3.34,2.26,5.9,0,1.82-.47,3.46-1.43,4.92-.95,1.46-2.28,2.65-3.98,3.55,1.93,3.09,4.22,6.4,6.86,9.92Zm-10.35-12.18c2.87-.88,4.3-2.84,4.3-5.87s-1.75-4.71-5.23-4.86l-3.62.13-.13,10.48,4.68.13Z"/>
      <path class="cls-2" d="m505.3,405.61l-.9,4.09-.47.04c-1.39-.82-2.65-1.41-3.79-1.77-1.14-.35-2.33-.53-3.58-.53-2.84,0-4.95.86-6.34,2.57-1.4,1.72-2.09,4.42-2.09,8.11s.66,6.07,1.96,7.64c1.3,1.58,3.38,2.36,6.22,2.36,1.25,0,2.82-.28,4.72-.85l.13-2.77-.13-4.09,4.13-.3-.08,3.7.12,6.26c-3.52,1.11-6.57,1.66-9.15,1.66-4.17,0-7.29-1.16-9.37-3.47-2.07-2.31-3.1-5.63-3.1-9.94,0-4.71,1.18-8.32,3.55-10.82,2.37-2.5,5.75-3.75,10.15-3.75,2.87,0,5.54.61,8.01,1.83Z"/>
      <path class="cls-2" d="m532,428.05l-.3,3.36h-16.14l.3-8.22-.3-19.12h16.23l.25.38-.34,3.36-6.48-.17-5.19.05-.13,7.96,4.94.09,4.52-.13.3.34-.34,3.36-4.81-.13-4.64.08-.05,3.54.13,5.02,5.19.04,6.6-.21.26.38Z"/>
      <path class="cls-2" d="m562.65,431.41h-4.73l-12.82-20.48h-.34l-.04,11.33.21,9.15h-4.13l.3-8.09-.21-19.25h4.68l12.86,20.48h.34l-.13-20.27,4.12-.3-.29,19.25.17,8.17Z"/>
      <path class="cls-2" d="m590.75,407.78l-4.94-.26h-2.3l-.21,15.29.21,8.6h-4.42l.26-8.22-.21-15.67h-2.3l-5.02.26-.31-.39.35-3.32h18.9l.26.38-.26,3.32Z"/>
      <path class="cls-2" d="m604.16,431.41h-4.47l.31-8.22-.31-19.12h4.52l-.26,18.74.21,8.6Z"/>
      <path class="cls-2" d="m637.68,431.41h-4.73l-12.82-20.48h-.35l-.03,11.33.21,9.15h-4.13l.29-8.09-.21-19.25h4.68l12.86,20.48h.35l-.14-20.27,4.13-.3-.31,19.25.18,8.17Z"/>
      <path class="cls-2" d="m665.27,431.41l-.64-3.07-1.19-3.79-5.78-.13-5.25.13-1.27,3.57-.69,3.28h-4.39l9.76-27.34h5.14l8.82,27.34h-4.52Zm-6.85-23.04h-.31l-4.47,12.61,4.3.08,4.39-.08-3.92-12.61Z"/>
    </g>
  </g>
  <g>
    <path class="cls-3" d="m379.28,107.31c-3.68.52-7.79.73-10.26.75-3.67.04-5.1.79-8.22,3.1.7,1.12,1.46,2.21,2.29,3.27,1.76,2.22,3.69,4.26,5.71,6.2.25-.15.55-.22.85-.22h.09l5.46.29c.15-.29.32-.6.5-.9,0-.01,0-.02-.01-.04-.24-.84.12-1.44.96-2.9.21-.36.55-.95.67-1.22.25-2.42,2.2-2.85,3.04-2.93,1.09-.1,1.71-.19,2.6-1.18.5-.55,1.05-1.01,1.57-1.39-1.2-.97-3.03-1.97-5.24-2.83Z"/>
    <path class="cls-3" d="m386.9,121.04c-.71-.88-1.27-1.59-1.61-2.22-.72.1-1.41.21-1.77.33-.14.37-.25,1.17-.27,1.98l3.8.2c-.03-.08-.05-.16-.09-.21l-.06-.07Z"/>
    <path class="cls-3" d="m445.66,96.36c-.6-.07-1.35.19-1.56-.8-.06-.29-.56-.19-.87-.19-1.55,0-3.98,0-5.54.04.08-.55.17-1.1.24-1.65.53-4.33.31-8.58-.53-12.8.84-.07,1.7-.15,2.61-.29-.97-.16-1.88-.32-2.77-.46-.48-.08-.95-.16-1.41-.24.37.72.81,1.83.61,2.87-.01.06-.02.12-.04.18.1.77-.11,1.45-.39,1.89-.12.18-.27.34-.44.47-.07.13-.16.25-.26.36,0,.02-.01.04-.02.05-.14.42-.43.76-.8.97-.05.08-.09.13-.12.17-.33.44-.84.69-1.38.69-.07,0-.13,0-.2-.01-.02.02-.09.08-.1.09.5.34.78.88.8,1.42,0,.18-.01.34-.04.5.63.1,1.14.55,1.34,1.15.22.68.23,1.41.02,2.12-.01.58-.25,1.25-.87,1.91l-.1.1c-.63.67-1.67,1.8-3.43,1.8-.07,0-.15,0-.22,0-1.42-.07-3.74-.82-5.48-1.57-.13,0-.27.01-.42.01-.62,0-1.52-.08-2.62-.41-.59.93-1.53,1.91-3.04,2.65-.99.49-1.94.89-2.77,1.24-.78.32-1.8.75-2.23,1.04-.03.35-.08.77-.23,1.21.31.1.65.23,1.01.39.41-.32.95-.63,1.68-.63.24,0,.57.04.93.19,1.07.12,1.9.84,2.11,1.86.07.32.04.65-.07.94.06.25.07.51.03.76.15.7.04,1.5-.51,2.19-.33.41-.83.64-1.34.64-.16,0-.33-.02-.5-.08-.47-.14-.85-.48-1.06-.9-.22-.11-.43-.25-.61-.44-.1.02-.21.04-.32.07-.41.11-.87.16-1.37.16-.27,0-.86-.02-1.55-.17.04.29.04.56-.01.82-.13.74-.72,1.31-1.46,1.41-.08.01-.16.01-.24.01-.38,0-.75-.13-1.04-.35h-.02c-1.17,0-2.04-.89-2.54-1.43-.04-.01-.08-.02-.12-.03-.18-.04-.39-.09-.62-.16-.32-.1-.64-.27-1-.55-.33.16-.66.33-.98.49-1.75.87-3.54,1.77-5.2,2.25-.23.61-.58,1.22-1.05,1.84-.18.25-.47.6-.84,1.03-.41.49-.9,1.09-1.41,1.74.18,2.05-.78,3.73-2.67,4.56-.03.01-.07.02-.1.04-.07.3-.05.43-.05.44.33,1.61,1.15,2.64,1.45,2.97l1.14.66c.51-.16,1.18-.3,1.84-.3.98,0,1.61.32,2.03.69.01,0,.02.01.04.02l14.79.79,10.12-8.49c-1.07-.07-2.18-.16-3.36-.34,1.67-.28,3.19-.53,4.7-.79.22-.04.44-.07.67-.11,0-.1-.01-.21-.02-.32-.04,0-.08,0-.12,0-6.09-.36-12.2-.72-18.29-1.08,1.98-.29,3.98-.28,5.95-.44,1.95-.16,3.91-.22,5.86-.33,0-.1.01-.19.01-.3-1.1-.24-2.2-.49-3.45-.76.66-.41,1.17-.31,1.66-.31,4.04-.01,8.06-.01,12.1,0h2.74c.49,0,.95,0,1.2-.54.21-.48.42-.96.64-1.44.63-1.37,1.25-2.74,1.66-4.19.63-2.22.59-2.22-1.71-2.26-1.09-.02-2.19.08-3.31-.11.15-.43.77-.3.68-.69-.1-.43-.58-.29-.9-.32-1.12-.11-2.23-.19-3.62-.3.64-.36,1.1-.5,1.49-.41.62.15.29-.64.8-.64,2.12,0,4.25-.09,6.37-.1.24,0,.44,0,.61-.01h0c.16-.01.29-.02.4-.05,1.14-.16,4.09-.57,4.49-.6.67-.04.67-.26.08-.69,2.26-.37,4.41-.36,6.56-.56-.71-.07-1.43-.11-2.14-.21Z"/>
    <path class="cls-3" d="m393.14,86.45c.74.07,1.38.12,1.97.12,1.02,0,2-.16,3.51-.97.85-.45,1.83-.67,3.01-.67.9,0,1.81.12,2.69.24.83.12,1.62.22,2.35.22s1.3-.11,1.76-.35c1.97-1.03,2.53-2.04,2.63-2.23.06-.32.21-.59.43-.8.63-1.08,1.5-1.88,2.6-2.39.36-.16.63-.33.91-.5.64-.39,1.37-.83,2.59-.83.21,0,.43.01.67.04.63-.57,1.58-1.24,2.67-1.34h.12c.32-.04.57-.06.78-.06,1.13,0,1.75.52,2.32,1.06.1.02.29.05.58.05.75,0,1.45-.19,1.68-.3.64-.63,1.46-.97,2.32-.97.49,0,.97.11,1.38.32.15,0,.31,0,.49,0,3.2,0,4.45,1.27,4.94,2.29.5-.02,1-.05,1.49-.08l16.04-.95c-1.99-.29-3.98-.28-5.96-.44-1.95-.16-3.91-.22-5.86-.33,0-.1,0-.19-.01-.3,1.1-.24,2.2-.48,3.45-.76-.65-.41-1.17-.31-1.66-.31-2.57,0-5.15,0-7.73,0-.12-.02-.25-.02-.41-.02l-.66.02c-1.11.02-2.22,0-3.33,0-.22,0-.44,0-.67,0-.05,0-.11,0-.17,0-.13,0-.28.02-.41,0h0c-.15-.02-.26-.07-.29-.19-.21-.98-.96-.72-1.56-.8-.71-.09-1.43-.14-2.14-.21,2.15-.19,4.3-.19,6.56-.56-.59-.42-.59-.65.07-.69.47-.03.94-.13,1.41-.18,1.21-.15,1.35-.37.83-1.44-1.24-2.55-2.67-4.93-4.46-7.19-2.93-3.7-6.32-6.89-9.83-9.95-2.41-2.1-5.43-3.37-8.43-4.51-5.61-2.12-11.42-3.02-17.43-2.67-6.02.35-11.67,1.9-16.97,4.73-.47.25-1.35.26-1.16,1.22,0,.04-.19.13-.3.16-.53.12-1.37-.21-1.29.86,0,.02-.22.1-.35.1-1.14,0-2.11.56-2.96,1.16-2.37,1.65-4.43,3.62-6.3,5.79-1.23.17-3.96.55-4.35.58-.66.04-.67.26-.08.69-2.25.37-4.41.36-6.56.56.72.07,1.43.11,2.14.2.6.08,1.35-.18,1.56.8.06.29.56.19.87.19,1.03,0,3.2-.04,5.01-.08.07.01.13.02.21.02,1.33.08,2.66.15,3.98.23,1.53.09,3.06.16,4.76.42-1.91.32-3.64.61-5.37.9,0,.1,0,.21.01.32,6.14.36,12.28.72,18.42,1.09-1.99.29-3.98.28-5.96.44-1.95.16-3.91.22-5.86.32,0,.1-.01.2-.02.3,1.1.24,2.2.48,3.45.76-.65.41-1.17.31-1.66.31-4.95.01-9.89.01-14.83,0-.5,0-.96,0-1.2.54-.81,1.86-1.75,3.67-2.3,5.63-.63,2.22-.59,2.22,1.71,2.26,1.09.01,2.19-.08,3.3.1-.15.44-.76.31-.67.69.1.42.58.29.9.32,1.12.1,2.24.18,3.62.29-.64.36-1.1.5-1.49.41-.63-.15-.29.64-.81.64-2.12,0-4.24.1-6.37.1-1.14,0-1.42.03-1.6.81-.09.17-.15.38-.18.63-.13,1.1-.35,2.19-.48,3.29-.52,4.25-.31,8.44.5,12.59-.46.02-.91.05-1.37.08-1.53.08-3.06.16-4.76.42,1.92.32,3.64.61,5.37.89,0,.11,0,.22-.01.32-6.14.36-12.28.73-18.42,1.09,1.99.29,3.98.28,5.96.44,1.95.16,3.91.22,5.86.32,0,.1,0,.2.01.3-1.1.24-2.2.49-3.45.76.65.41,1.17.3,1.66.31,3.76,0,7.51,0,11.28,0,.12.01.26.02.41.01.2,0,.4,0,.6-.01,3-2.69,6.76-4.53,9.57-5.09,4.08-.81,8.28-3.42,11.12-5.51.28-.26.57-.52.87-.75.65-.52,1.29-1.01,1.89-1.44.13-.11.19-.17.2-.18.15-.13.32-.24.5-.32,3.43-2.35,6.39-3.49,9.06-3.49.3,0,.58.01.86.04l.21.02Z"/>
  </g>
  <g>
    <g>
      <path class="cls-1" d="m430.94,110.61l-16.56,13.89-44.73-2.38-66.29,59.79,63.04-50.04,2.17,11.91-19.5,20.15,20.58-16.03v9.97l-38.56,35.09,62.82-50.48,12.13-.43,29.25-21.45,13.43,16.9-26.65,25.56,22.53-13.21-2.17,11.48,3.68.87-5.85,9.97,10.18-5.42,8.23,7.15-44.19,15.6,34.23-5.85,42.46,27.51-28.38-28.38,12.78.65,37.48,24.26-26.21-21.66-13.21-32.71,72.14,56.76-37.26-38.34,58.71,29.25-129.61-90.8c-2.05-1.44-4.82-1.25-6.66.44Z"/>
      <path class="cls-1" d="m604.26,188.84l-33.79-26.65,22.53,1.08-26.65-11.7-60.94-40.14c-2.03-1.33-4.68-1.21-6.58.3l-23.03,18.39,21.88-12.78-3.03,9.1.22,12.56,6.93-21.01,3.47,14.51,5.2,10.83-2.82-22.31,26.43,21.88,2.38,9.97,5.2,8.45,4.98.87,35.53,42.46-.43-11.05,17.98,8.88-10.4-16.9,14.95,3.25Z"/>
      <path class="cls-1" d="m297.55,199.25c-2.98-.21-5.57,2.05-5.77,5.03l-2.04,29.6c-.35,5.03-2.28,9.76-5.44,13.34-.59.67-1.19,1.25-1.78,1.76l-.12-91.41c0-4.48-3.64-8.11-8.12-8.11h-.01c-4.49,0-8.12,3.65-8.11,8.13l.07,50.64c-1.03-.42-1.94-1.08-2.78-2-6.17-6.76-6.09-23.83-5.54-29.84.28-2.98-1.91-5.61-4.89-5.89-2.97-.28-5.62,1.91-5.9,4.89-.25,2.69-2.15,26.65,8.32,38.13,2.93,3.22,6.63,5.22,10.81,5.88l.08,59.67c0,4.48,3.64,8.11,8.12,8.11h.01c4.49,0,8.12-3.65,8.11-8.13l-.02-17.85c3.55-1.15,6.9-3.44,9.88-6.81,4.74-5.35,7.63-12.38,8.13-19.77l2.04-29.6c.21-2.98-2.05-5.57-5.03-5.77Zm-19.18,27.99c-.28,14.3-.7,28.78-1.77,43.06h-.45c-1.07-14.27-1.49-28.75-1.77-43.06-.07-10.77-.53-21.54.26-32.29.31-3.59.71-7.18,1.5-10.76h.45c2.88,14.19,1.76,28.68,1.77,43.06Z"/>
      <path class="cls-1" d="m595.46,216.82c-1.7.16-2.94,1.66-2.79,3.36.31,3.42.36,17.07-3.16,20.91-.48.52-1-3.02-1.58-2.78l.04-24.92c0-2.56-2.07-4.63-4.62-4.63h0c-2.55,0-4.62,2.07-4.63,4.62l-.07,42.08c-.34-.29-.68-.62-1.02-1-1.8-2.04-2.9-4.73-3.1-7.6l-1.16-16.86c-.12-1.7-1.59-2.99-3.29-2.87-1.7.12-2.98,1.59-2.87,3.29l1.16,16.86c.29,4.21,1.94,8.21,4.63,11.26,1.7,1.92,3.6,3.22,5.63,3.88v20.14c-.02,2.56,2.05,4.63,4.61,4.63h0c2.55,0,4.62-2.07,4.63-4.62l.05-37.9c2.38-.38,4.48-1.52,6.16-3.35,5.96-6.54,4.88-20.18,4.74-21.72-.16-1.7-1.66-2.94-3.36-2.78Zm-12.18,36.23c-.16,8.15-.4,16.39-1.01,24.52h-.26c-.61-8.13-.85-16.38-1.01-24.52,0-8.19-.63-16.44,1.01-24.52h.26c.45,2.04.68,4.09.86,6.13.45,6.12.19,12.26.15,18.39Z"/>
      <path class="cls-1" d="m341.22,172.96l-.34-.3c-.85.5-1.6,1.1-2.31,1.72-2.11,1.92-4.05,4.05-5.16,6.73l.34.3c.88-.47,1.64-1.06,2.35-1.69,2.1-1.93,3.92-4.15,5.13-6.76Z"/>
      <path class="cls-1" d="m431.7,134.47l-.31-.33c-2.07,1.05-3.94,2.32-5.74,3.66-5.34,4.13-10.26,8.8-13.92,14.54l.31.33c2.07-1.05,3.93-2.32,5.73-3.66,5.34-4.13,10.28-8.79,13.93-14.53Z"/>
      <path class="cls-1" d="m528.36,164.33s.36-.27.36-.27c-1.02-2.59-2.03-5.11-2.63-7.77-.35-1.96-.78-3.81-1.29-5.73-.16-.73-.35-1.4-.76-2.09l-.45-.06c-.6.64-.9,1.37-1.07,2.11-.6,2.27-.34,4.61.62,6.72,1.14,2.75,2.92,5.2,5.2,7.09Z"/>
      <path class="cls-1" d="m316.65,270.07v.45c2.65.5,5.32.72,8,.85,8.01.24,16.04.01,24.01-.85v-.45c-2.67-.33-5.34-.5-8-.66-8-.3-16.08-.73-24.01.66Z"/>
      <path class="cls-1" d="m303.35,283.39v.45c2.65.5,5.32.72,8,.85,8.01.24,16.04.01,24.01-.85v-.45c-2.67-.33-5.34-.5-8-.66-8-.3-16.08-.73-24.01.66Z"/>
      <path class="cls-1" d="m362.71,258.51v-.45c-5.01-.52-10.02-.77-15.03-.98-15.04-.48-30.1-.53-45.09.98v.45c5.01.55,10.02.83,15.03,1.02,15.04.48,30.09.36,45.09-1.02Z"/>
      <path class="cls-1" d="m372.89,251.03v-.45c-11.58-.93-23.17-1.09-34.77-1.06-11.55.06-23.24.28-34.77,1.06v.45c7.19.51,14.53.73,21.73.91,15.94.26,31.91.35,47.81-.91Z"/>
      <path class="cls-1" d="m489.23,263.86v.45c9.1.72,18.19.73,27.3.7,15.04-.05,30.48-.21,45.49-.7v-.45c-12.08-.4-24.31-.56-36.39-.66-1.16,0-2.33,0-3.51-.01.46-.5.74-1.16.74-1.89l.03-20.49c1.44-.23,2.7-.91,3.71-2.02,3.59-3.94,2.94-12.17,2.86-13.09-.1-1.02-1-1.77-2.02-1.68-1.02.1-1.77,1-1.68,2.02.19,2.06.21,7.93-1.9,10.25-.29.31-.6.54-.95.69l.02-17.39c0-1.54-1.24-2.79-2.79-2.79h0c-1.54,0-2.79,1.25-2.79,2.79l-.04,31.38c-.2-.17-.41-.37-.61-.6-1.09-1.23-1.75-2.85-1.87-4.58l-.7-10.16c-.07-1.02-.96-1.8-1.98-1.73-1.02.07-1.8.96-1.73,1.98l.7,10.16c.17,2.54,1.17,4.95,2.79,6.79,1.02,1.16,2.17,1.94,3.39,2.34v6.13c0,.72.27,1.38.72,1.87-9.59-.05-19.35-.05-28.78.69Zm30.09-35.14h.15c.27,1.23.41,2.46.52,3.7.27,3.69.11,7.39.09,11.09-.1,4.91-.24,9.88-.61,14.78h-.16c-.37-4.9-.51-9.87-.61-14.78,0-4.93-.38-9.91.61-14.78Z"/>
      <path class="cls-1" d="m431.7,243.28v.45c5.06.62,10.13.95,15.19,1.2,15.21.59,30.45.71,45.58-1.2v-.45c-5.06-.69-10.13-1.04-15.19-1.28-15.21-.58-30.44-.4-45.58,1.28Z"/>
      <path class="cls-1" d="m365.1,234.13c9.86.51,19.71.73,29.57.9,7.12.1,15.02.16,22.18.17,22.04-.04,44.52-.21,66.53-1.07v-.45c-19.56-.76-39.56-.99-59.14-1.05-19.66-.05-39.51.1-59.14,1.05v.45Z"/>
      <path class="cls-1" d="m413.11,257.04l9.56-7c3.76-3.06-.86-7.65-13.21-7.69l-85.98-3.98c-.55-.03-.82-.69-.44-1.09,3.71-3.93,8.71-6.63,8.71-6.63,1.32-1.46-16.77,8.02-16.77,8.02-.44.39-.75.95-.81,1.59-.12,1.33.86,2.5,2.18,2.62.09,0,50.22,3.03,80.78,5.56,1.67.14,1.97,2.45.4,3.01-11.55,4.14-33.87,12.5-34.81,15.59-2.01,6.62,12.33,9.02,18.96,11.03l4.38,1.33c.37.05,22.96,6.91,51.47,15.59h125.79l-148.44-30.28c-3.7-.67-4.8-5.44-1.76-7.67Z"/>
    </g>
    <g>
      <path class="cls-2" d="m430.94,110.61l-16.56,13.89-44.73-2.38-66.29,59.79,63.04-50.04,2.17,11.91-19.5,20.15,20.58-16.03v9.97l-38.56,35.09,62.82-50.48,12.13-.43,29.25-21.45,13.43,16.9-26.65,25.56,22.53-13.21-2.17,11.48,3.68.87-5.85,9.97,10.18-5.42,8.23,7.15-44.19,15.6,34.23-5.85,42.46,27.51-28.38-28.38,12.78.65,37.48,24.26-26.21-21.66-13.21-32.71,72.14,56.76-37.26-38.34,58.71,29.25-129.61-90.8c-2.05-1.44-4.82-1.25-6.66.44Z"/>
      <path class="cls-2" d="m604.26,188.84l-33.79-26.65,22.53,1.08-26.65-11.7-60.94-40.14c-2.03-1.33-4.68-1.21-6.58.3l-23.03,18.39,21.88-12.78-3.03,9.1.22,12.56,6.93-21.01,3.47,14.51,5.2,10.83-2.82-22.31,26.43,21.88,2.38,9.97,5.2,8.45,4.98.87,35.53,42.46-.43-11.05,17.98,8.88-10.4-16.9,14.95,3.25Z"/>
      <path class="cls-2" d="m297.55,199.25c-2.98-.21-5.57,2.05-5.77,5.03l-2.04,29.6c-.35,5.03-2.28,9.76-5.44,13.34-.59.67-1.19,1.25-1.78,1.76l-.12-91.41c0-4.48-3.64-8.11-8.12-8.11h-.01c-4.49,0-8.12,3.65-8.11,8.13l.07,50.64c-1.03-.42-1.94-1.08-2.78-2-6.17-6.76-6.09-23.83-5.54-29.84.28-2.98-1.91-5.61-4.89-5.89-2.97-.28-5.62,1.91-5.9,4.89-.25,2.69-2.15,26.65,8.32,38.13,2.93,3.22,6.63,5.22,10.81,5.88l.08,59.67c0,4.48,3.64,8.11,8.12,8.11h.01c4.49,0,8.12-3.65,8.11-8.13l-.02-17.85c3.55-1.15,6.9-3.44,9.88-6.81,4.74-5.35,7.63-12.38,8.13-19.77l2.04-29.6c.21-2.98-2.05-5.57-5.03-5.77Zm-19.18,27.99c-.28,14.3-.7,28.78-1.77,43.06h-.45c-1.07-14.27-1.49-28.75-1.77-43.06-.07-10.77-.53-21.54.26-32.29.31-3.59.71-7.18,1.5-10.76h.45c2.88,14.19,1.76,28.68,1.77,43.06Z"/>
      <path class="cls-2" d="m595.46,216.82c-1.7.16-2.94,1.66-2.79,3.36.31,3.42.36,17.07-3.16,20.91-.48.52-1-3.02-1.58-2.78l.04-24.92c0-2.56-2.07-4.63-4.62-4.63h0c-2.55,0-4.62,2.07-4.63,4.62l-.07,42.08c-.34-.29-.68-.62-1.02-1-1.8-2.04-2.9-4.73-3.1-7.6l-1.16-16.86c-.12-1.7-1.59-2.99-3.29-2.87-1.7.12-2.98,1.59-2.87,3.29l1.16,16.86c.29,4.21,1.94,8.21,4.63,11.26,1.7,1.92,3.6,3.22,5.63,3.88v20.14c-.02,2.56,2.05,4.63,4.61,4.63h0c2.55,0,4.62-2.07,4.63-4.62l.05-37.9c2.38-.38,4.48-1.52,6.16-3.35,5.96-6.54,4.88-20.18,4.74-21.72-.16-1.7-1.66-2.94-3.36-2.78Zm-12.18,36.23c-.16,8.15-.4,16.39-1.01,24.52h-.26c-.61-8.13-.85-16.38-1.01-24.52,0-8.19-.63-16.44,1.01-24.52h.26c.45,2.04.68,4.09.86,6.13.45,6.12.19,12.26.15,18.39Z"/>
      <path class="cls-2" d="m341.22,172.96l-.34-.3c-.85.5-1.6,1.1-2.31,1.72-2.11,1.92-4.05,4.05-5.16,6.73l.34.3c.88-.47,1.64-1.06,2.35-1.69,2.1-1.93,3.92-4.15,5.13-6.76Z"/>
      <path class="cls-2" d="m431.7,134.47l-.31-.33c-2.07,1.05-3.94,2.32-5.74,3.66-5.34,4.13-10.26,8.8-13.92,14.54l.31.33c2.07-1.05,3.93-2.32,5.73-3.66,5.34-4.13,10.28-8.79,13.93-14.53Z"/>
      <path class="cls-2" d="m528.36,164.33s.36-.27.36-.27c-1.02-2.59-2.03-5.11-2.63-7.77-.35-1.96-.78-3.81-1.29-5.73-.16-.73-.35-1.4-.76-2.09l-.45-.06c-.6.64-.9,1.37-1.07,2.11-.6,2.27-.34,4.61.62,6.72,1.14,2.75,2.92,5.2,5.2,7.09Z"/>
      <path class="cls-2" d="m316.65,270.07v.45c2.65.5,5.32.72,8,.85,8.01.24,16.04.01,24.01-.85v-.45c-2.67-.33-5.34-.5-8-.66-8-.3-16.08-.73-24.01.66Z"/>
      <path class="cls-2" d="m303.35,283.39v.45c2.65.5,5.32.72,8,.85,8.01.24,16.04.01,24.01-.85v-.45c-2.67-.33-5.34-.5-8-.66-8-.3-16.08-.73-24.01.66Z"/>
      <path class="cls-2" d="m362.71,258.51v-.45c-5.01-.52-10.02-.77-15.03-.98-15.04-.48-30.1-.53-45.09.98v.45c5.01.55,10.02.83,15.03,1.02,15.04.48,30.09.36,45.09-1.02Z"/>
      <path class="cls-2" d="m372.89,251.03v-.45c-11.58-.93-23.17-1.09-34.77-1.06-11.55.06-23.24.28-34.77,1.06v.45c7.19.51,14.53.73,21.73.91,15.94.26,31.91.35,47.81-.91Z"/>
      <path class="cls-2" d="m489.23,263.86v.45c9.1.72,18.19.73,27.3.7,15.04-.05,30.48-.21,45.49-.7v-.45c-12.08-.4-24.31-.56-36.39-.66-1.16,0-2.33,0-3.51-.01.46-.5.74-1.16.74-1.89l.03-20.49c1.44-.23,2.7-.91,3.71-2.02,3.59-3.94,2.94-12.17,2.86-13.09-.1-1.02-1-1.77-2.02-1.68-1.02.1-1.77,1-1.68,2.02.19,2.06.21,7.93-1.9,10.25-.29.31-.6.54-.95.69l.02-17.39c0-1.54-1.24-2.79-2.79-2.79h0c-1.54,0-2.79,1.25-2.79,2.79l-.04,31.38c-.2-.17-.41-.37-.61-.6-1.09-1.23-1.75-2.85-1.87-4.58l-.7-10.16c-.07-1.02-.96-1.8-1.98-1.73-1.02.07-1.8.96-1.73,1.98l.7,10.16c.17,2.54,1.17,4.95,2.79,6.79,1.02,1.16,2.17,1.94,3.39,2.34v6.13c0,.72.27,1.38.72,1.87-9.59-.05-19.35-.05-28.78.69Zm30.09-35.14h.15c.27,1.23.41,2.46.52,3.7.27,3.69.11,7.39.09,11.09-.1,4.91-.24,9.88-.61,14.78h-.16c-.37-4.9-.51-9.87-.61-14.78,0-4.93-.38-9.91.61-14.78Z"/>
      <path class="cls-2" d="m431.7,243.28v.45c5.06.62,10.13.95,15.19,1.2,15.21.59,30.45.71,45.58-1.2v-.45c-5.06-.69-10.13-1.04-15.19-1.28-15.21-.58-30.44-.4-45.58,1.28Z"/>
      <path class="cls-2" d="m365.1,234.13c9.86.51,19.71.73,29.57.9,7.12.1,15.02.16,22.18.17,22.04-.04,44.52-.21,66.53-1.07v-.45c-19.56-.76-39.56-.99-59.14-1.05-19.66-.05-39.51.1-59.14,1.05v.45Z"/>
      <path class="cls-2" d="m413.11,257.04l9.56-7c3.76-3.06-.86-7.65-13.21-7.69l-85.98-3.98c-.55-.03-.82-.69-.44-1.09,3.71-3.93,8.71-6.63,8.71-6.63,1.32-1.46-16.77,8.02-16.77,8.02-.44.39-.75.95-.81,1.59-.12,1.33.86,2.5,2.18,2.62.09,0,50.22,3.03,80.78,5.56,1.67.14,1.97,2.45.4,3.01-11.55,4.14-33.87,12.5-34.81,15.59-2.01,6.62,12.33,9.02,18.96,11.03l4.38,1.33c.37.05,22.96,6.91,51.47,15.59h125.79l-148.44-30.28c-3.7-.67-4.8-5.44-1.76-7.67Z"/>
    </g>
  </g>
  <path class="cls-1" d="m434.07,80.37c-.6-1.97-4.44-1.5-4.44-1.5-.4-.45-1.36-.57-2.04.15-.69.71-3.69,1.11-4.51.33-.82-.78-.88-.74-1.98-.64-1.1.1-2.22,1.47-2.22,1.47-2.3-.51-2.36.24-4.06,1.01-.94.43-1.63,1.17-2.07,2.15,0,0,0,0,0,0-.02-.02-.03-.03-.03-.03,0,0-.47,1.69-3.48,3.26-3.01,1.57-7.11-.88-9.8.55-2.69,1.43-4.25,1.24-6.66,1.01-2.07-.19-4.87.41-9.08,3.36-.02-.02-.02-.03-.02-.03,0,0-.1.09-.29.25-.6.43-1.22.9-1.88,1.43-.3.24-.58.49-.85.74-2.87,2.11-7.4,4.98-11.89,5.87-7.37,1.46-20.4,12.39-8.21,20.53,0,0-6.33-6.36-1.57-9.93,3.87-2.9,5.54-3.97,10.01-4.01,2.31-.02,6.6-.22,10.49-.79.02,0,.27-.03.37-.06,0,0,0,0,0,0,.15-.04.31-.09.47-.14.54-.17,1.14-.37,1.73-.62.42-.17.87-.19,1.29-.07.07.02.13.04.2.07.26.11.5.27.7.48.26.27.57.6.92.96.1.1.21.21.31.32,1.09,1.1,2.47,2.41,3.72,3.34.02.02.04.03.07.05.02.02.76.82.28,2.09-.04.09-.07.2-.12.31-.24.64-.57,1.54-1.07,2.5-.34.66-.77,1.36-1.29,2.03-.02.02-.03.04-.05.06-.24.3-.34.5-.38.61-.13.38,1.05,1.81,1.68,2.58.63.77.71,2.88.83,3.27.12.39-.14.64-.28,1.46-.13.82.82,1.91,1.39,2.24.58.33,1.61.34,1.61.34l.55.35.07-.44c.45-.51.3-1.15.3-1.15l.37.02c1.07.1,1.54.35,2.44.33.9-.01,1.59-.2,1.91-.55.32-.35,1.09.38,1.09.38l-.25-1.01c.66-.86,1.82-.13,1.82-.13-.01-1.22-2.18-1.74-2.18-1.74-.58-1.07-3.08-.02-3.08-.02l-2.03-1.17s-1.53-1.4-2.07-3.99c-.09-.42-.03-.9.12-1.43.06-.22.15-.44.24-.67,0,0,0-.02.01-.03h0s.04-.09.06-.13c.08-.17.17-.35.27-.55.02-.03.03-.07.05-.1.48-.94,1.18-2.13,1.93-2.99.1-.12.2-.23.31-.33,0,0,0,0,0,0,1.01-1.3,1.99-2.41,2.39-2.94.42-.56.8-1.2.97-1.93,0-.09,0-.2-.01-.31-.03-.68-.15-1.69-.52-2.68,0,0,0,0,0,0-.2-.53-.47-1.05-.83-1.51-.02-.03-.02-.07.01-.09.03-.02.07-.02.09.01.58.73.93,1.61,1.13,2.43,0,0,0,0,0,0,.13.54.2,1.05.24,1.47v.02c.01.12.02.23.02.33,2.23-.38,5.16-2.09,7.79-3.32-.03-.04-.06-.08-.09-.13,0,0,0,0,0,0-.24-.34-.58-.77-.95-1.15-.19-.19-.38-.37-.58-.51-1.07-.78-1.54-3.08-.93-4.55.01-.03.05-.05.08-.03.03.01.05.05.04.08-.59,1.42-.14,3.64.89,4.4.08.06.16.12.24.19.57.49,1.1,1.19,1.42,1.65.13.19.23.34.28.42.32.3.61.52.82.58.67.2,1.06.18,1.38.53.32.35,1.14,1.3,1.66.94,0,0,.65.1.81.43,0,0,.12-.72-.61-1.13,0,0,.14-.37-.18-.58-.32-.2-1.3-.61-1.3-.61,0,0-.08-.11.32-.13.4-.02.75.18.84-.18,0,0,.4.14.54.39,0,0-.06-.69-.51-.85,0,0-.19-.3-.67-.35-.48-.04-1.4.11-1.4.11l-.28-.29s.05-.02.08-.03c-.32-.24-.61-.59-.88-.97-.55-.78-.94-1.66-.99-1.77,0,0,0,0,0-.01,0-.01,0-.02,0-.03.16-1.22,1.15-1.71,1.19-1.73.03-.02.07,0,.09.03.02.03,0,.07-.03.09-.01,0-.93.47-1.11,1.57,0,.01,0,.03,0,.04.06.13.46,1.01,1,1.78.27.39.58.74.9.96h0c.38-.13.74-.24,1.08-.32.49-.11.92-.23,1.29-.35,0,0,0,0,0,0,.28.55.73,1.13,1.28,1.55.86.67,2.56.9,3.54.63.98-.26,1.75-.18,1.75-.18,0,0,.02.07.15.42.13.35.55.27.55.27.43.22.48.77.48.77.42-.52.02-1.1.02-1.1.55-.66-.84-1.05-.84-1.05.28-.13.21-.31.21-.31.44-.24.82,0,.82,0-.13-.62-.88-.5-.88-.5-.6-.46-1.02.02-1.51.45-.5.43-.72.14-.72.14-1.6-.78-2.83-.99-2.83-.99.09-.37.03-.84-.05-1.26h0c.43-.53.44-1.1.47-1.67.06-1.17,2.83-1.83,5.95-3.36,1.8-.88,2.53-2.17,2.83-3.1h0c.29-.14.54.01.54.01,2.27.94,3.74.62,3.74.62,1.84.85,4.15,1.56,5.3,1.62,1.15.06,1.83-.75,2.39-1.35.57-.6.37-.95.37-.95.14-.31.28-.81.1-1.36,0,0-.31.52-.67.98,0,0,.18-.4.06-.8,0,0-.39.46-.67.71l.11-1.01s-.52.3-.66.82l.16-.77s-.43.25-.57.54l.05-.52s-.37.2-.49.5c0,0,0,0-.01,0l.06-.65s-.26.12-.44.45c-.03-.01-.05-.03-.08-.04l.04-.38s-.12.02-.26.25c-.58-.33-1.11-.67-1.48-.96,3.03-.27,4.35-1.57,2.84-1.34-1.61.24-2.48-.76-3.42-1-.23-.06-.53-.07-.85-.04-.06-.39-.08-.81-.05-1.28.06-.97.56-1.3,1.27-1.41.1.31.23.71.23.69,0-.03.18-.5.18-.5,0,0,.23.42.3.69,0,0,.35-.36.27-.94,0,0,0,0,0,0,.07.28.17.72.2,1.02,0,0,.4-.3.36-.74,0,0,.22.78.21.84,0,.05.5-.33.53-.99.21.29.41.63.53.99,0,0,.32-.39.04-1.28.03-.01.07-.02.1-.03.21.32.48.81.55,1.27,0,0,.56-.49.21-1.57.02,0,.03-.02.05-.02.12.22.27.54.37.93,0,0,.29-.52.15-1.19.02,0,.03-.02.05-.03.18.34.47.96.56,1.41,0,0,.46-.61.08-1.78.02,0,.03-.02.05-.03.17.27.44.76.53,1.17,0,0,.26-.77-.05-1.49,0,0,.01,0,.02-.01.12.19.33.53.43.82,0,0,.24-.56.05-1.21.01-.01.03-.02.04-.04l.4.68s.31-.49.04-1.15c.08-.12.14-.23.16-.32.16-.83-.68-2.16-.68-2.16Z"/>
  <path class="cls-1" d="m383.62,125.08s.03-.93-1.73-.73c0,0,.03-1.37-.36-2.4,0,0-.13-3.16.78-4.09.48-.49,2.43-.71,4.53-.96.75-.92,1.3-1.91,1.71-2.8.33-.72.58-1.37.76-1.86.04-.11.08-.21.12-.31.45-1.2-.24-1.94-.25-1.95,0,0-.01,0-.02-.01-1.29-.95-2.74-2.33-3.86-3.47-.22-.23-.43-.44-.63-.64-.19-.2-.37-.39-.52-.55-.18-.19-.39-.33-.62-.43-.07-.03-.13-.05-.2-.07-.39-.12-.83-.1-1.22.06-.44.18-.88.35-1.3.49-.1.03-.19.06-.29.09-.26.08-.52.16-.76.23,1.98.77,5.99,2.55,7.45,4.9,0,0-1.71.74-2.98,2.15-1.28,1.4-2.37,1.61-3.72,1.73-1.36.12-1.46,1.01-1.49,1.53-.03.52-1.89,3.23-1.66,3.36s.8-.11.8-.11c0,0-1.32,1.78-1.58,2.61-.26.83.61,1.42.94,2.24.33.82,1.33,3.76,3.17,2.82,0,0,1.07-.39,1.56.16,0,0,.24-.21-.03-.7,0,0,.88.37,1.28-.15,0,0,.87-.15,1.21.34,0,0,.39-.99-1.09-1.45Z"/>
  <path class="cls-1" d="m391.96,115.89c1.54-.68,1.87-1.98,1.58-3.36-.92,1.09-1.76,2.66-2.18,3.58.22-.07.42-.14.6-.22Z"/>
  <g>
    <g>
      <path class="cls-1" d="m99.72,341.21h8.21l8.79-.25.75,1.17-2.51,12.23-9.63-.25h-7.54l-.5,3.18-.42,4.77h8.04l13.99-.5.75,1.17-2.51,12.14h-38.11l2.76-15.91,3.94-38.27h38.77l.75,1.17-2.59,12.14-13.23-.5h-8.63l-1.09,7.7Z"/>
      <path class="cls-1" d="m166.47,322.62l-4.18,13.57-2.35,1.01c-2.17-1.45-4.37-2.6-6.57-3.43-2.21-.84-4.01-1.26-5.41-1.26s-2.5.29-3.31.88c-.81.58-1.21,1.3-1.21,2.13,0,1.06.54,1.97,1.63,2.72,1.09.75,2.83,1.69,5.24,2.81,2.74,1.29,5.01,2.5,6.82,3.64,1.82,1.14,3.4,2.68,4.73,4.61s2.01,4.26,2.01,6.99c0,3.52-1.05,6.78-3.14,9.8-2.1,3.02-5.03,5.4-8.8,7.16-3.77,1.76-8.05,2.64-12.86,2.64-5.75,0-11.64-1.06-17.67-3.18l4.02-14.49,1.76-1.01c2.4,2.01,5,3.57,7.78,4.69,2.79,1.12,5.2,1.67,7.21,1.67,3.07,0,4.61-1.01,4.61-3.02,0-1.12-.57-2.08-1.72-2.89-1.15-.81-2.92-1.77-5.32-2.89-2.74-1.28-4.97-2.48-6.7-3.6s-3.24-2.62-4.52-4.52c-1.29-1.9-1.93-4.21-1.93-6.95,0-3.68,1.06-7.06,3.19-10.13,2.12-3.07,5.04-5.49,8.75-7.24,3.72-1.76,7.86-2.64,12.44-2.64,5.36,0,10.53.98,15.49,2.93Z"/>
      <path class="cls-1" d="m213.12,322.04l-4.44,13.32-1.17.59c-1.34-.78-2.93-1.41-4.77-1.88-1.84-.47-3.58-.71-5.2-.71-4.24,0-7.24,1.34-9,4.02-1.76,2.68-2.64,6.95-2.64,12.81,0,4.08.74,7.06,2.22,8.96,1.48,1.9,3.78,2.85,6.91,2.85,3.68,0,7.23-.59,10.63-1.76l1.17.75-2.93,13.23c-3.46,1.06-7.14,1.59-11.05,1.59-8.04,0-14.2-1.98-18.47-5.95-4.27-3.96-6.41-9.63-6.41-17,0-10.39,2.69-18.49,8.08-24.33,5.39-5.84,13.05-8.75,22.99-8.75,5.31,0,9.99.75,14.07,2.26Z"/>
      <path class="cls-1" d="m240.5,374.88l-.34-8.96v-.34l-8.29-.17-6.95.33-2.6,9.13h-16.33l23.11-54.18h20.18l8.12,54.18h-16.91Zm-2.93-39.28h-1.01l-6.95,17.84,4.77.08,4.69-.08-1.51-17.84Z"/>
      <path class="cls-1" d="m307.87,324.51c3.15,2.59,4.73,6.24,4.73,10.93s-1.09,8.86-3.27,12.52c-2.17,3.66-5.26,6.5-9.25,8.54-3.99,2.04-8.59,3.06-13.78,3.06h-4.86l-1.34,15.33h-16.74l2.76-15.91,3.86-38.27,24.79-.08c5.58,0,9.95,1.3,13.11,3.9Zm-14.32,19.51c.86-1.53,1.3-3.47,1.3-5.82,0-3.8-2.17-5.81-6.53-6.03l-3.02.25-2.26,15.08,6.2.33c2.01-1.01,3.45-2.27,4.31-3.81Z"/>
      <path class="cls-1" d="m333.62,341.21h8.21l8.79-.25.75,1.17-2.51,12.23-9.63-.25h-7.54l-.5,3.18-.42,4.77h8.04l13.99-.5.75,1.17-2.51,12.14h-38.11l2.76-15.91,3.94-38.27h38.77l.75,1.17-2.59,12.14-13.23-.5h-8.63l-1.09,7.7Z"/>
      <path class="cls-1" d="m398.45,374.88l-.34-8.96v-.34l-8.29-.17-6.95.33-2.6,9.13h-16.33l23.11-54.18h20.18l8.12,54.18h-16.91Zm-2.93-39.28h-1.01l-6.95,17.84,4.77.08,4.69-.08-1.51-17.84Z"/>
      <path class="cls-1" d="m428,374.88l-8.21-54.18h16.92l.41,8.96,2.68,30.32h.92l11.31-29.31,2.85-9.96h16.33l-23.03,54.18h-20.19Z"/>
      <path class="cls-1" d="m489.98,341.21h8.21l8.79-.25.75,1.17-2.51,12.23-9.63-.25h-7.54l-.5,3.18-.42,4.77h8.04l13.99-.5.75,1.17-2.51,12.14h-38.11l2.76-15.91,3.94-38.27h38.77l.75,1.17-2.59,12.14-13.23-.5h-8.63l-1.09,7.7Z"/>
      <path class="cls-1" d="m563.67,374.88h-18.18l-11.72-29.14h-1.01l-1.25,9.55-1.77,19.6h-15.15l2.76-15.91,3.86-38.27h18.17l11.81,29.14h1.01l3.02-28.56,15.42-.92-5.45,36.85-1.51,17.67Z"/>
      <path class="cls-1" d="m615.93,334.01l-10.98-.5h-1.09l-3.34,23.78-1.51,17.59h-16.67l2.84-15.91,2.69-25.46h-1.09l-11.23.5-.83-1.17,2.43-12.14h40.36l.75,1.17-2.34,12.14Z"/>
      <path class="cls-1" d="m664.76,356.79c-.78,6.2-3.3,10.93-7.54,14.19-4.24,3.27-10.1,4.9-17.58,4.9-6.65,0-11.83-1.34-15.53-4.02-3.72-2.68-5.58-6.5-5.58-11.47,0-1.17.08-2.37.26-3.6l1.25-8.63,2.85-27.47h16.75l-4.86,33.83c-.12,1.12-.16,1.87-.16,2.26,0,2.07.5,3.57,1.51,4.52,1.01.95,2.65,1.43,4.93,1.43,2.63,0,4.62-.64,5.95-1.93,1.34-1.28,2.15-3.38,2.43-6.28l3.34-33.83h17.01l-3.94,27.47-1.09,8.63Z"/>
      <path class="cls-1" d="m718.64,345.69c-1.93,3.27-4.65,6.02-8.17,8.25,3.41,6.42,6.65,12.09,9.73,17l-.42,1.84c-5.93,1.73-11.64,2.76-17.17,3.1l-1.43-1.34c-2.84-8.37-4.61-13.65-5.27-15.83h-5.69l-1.43,16.16h-16.75l2.84-15.91,3.86-38.27,24.79-.08c5.58,0,9.97,1.27,13.19,3.81,3.21,2.54,4.82,6.1,4.82,10.68,0,3.8-.96,7.33-2.89,10.59Zm-16.59-12.02c-1.03-.89-2.69-1.39-4.98-1.51l-3.1.25-2.09,14.07,6.11.33c2.01-.84,3.45-1.98,4.31-3.43.86-1.45,1.3-3.29,1.3-5.53,0-1.9-.51-3.29-1.55-4.19Z"/>
      <path class="cls-1" d="m754.45,374.88l-.34-8.96v-.34l-8.29-.17-6.94.33-2.61,9.13h-16.33l23.12-54.18h20.18l8.12,54.18h-16.91Zm-2.93-39.28h-1.01l-6.94,17.84,4.77.08,4.69-.08-1.51-17.84Z"/>
    </g>
    <g>
      <path class="cls-2" d="m99.72,341.21h8.21l8.79-.25.75,1.17-2.51,12.23-9.63-.25h-7.54l-.5,3.18-.42,4.77h8.04l13.99-.5.75,1.17-2.51,12.14h-38.11l2.76-15.91,3.94-38.27h38.77l.75,1.17-2.59,12.14-13.23-.5h-8.63l-1.09,7.7Z"/>
      <path class="cls-2" d="m166.47,322.62l-4.18,13.57-2.35,1.01c-2.17-1.45-4.37-2.6-6.57-3.43-2.21-.84-4.01-1.26-5.41-1.26s-2.5.29-3.31.88c-.81.58-1.21,1.3-1.21,2.13,0,1.06.54,1.97,1.63,2.72,1.09.75,2.83,1.69,5.24,2.81,2.74,1.29,5.01,2.5,6.82,3.64,1.82,1.14,3.4,2.68,4.73,4.61s2.01,4.26,2.01,6.99c0,3.52-1.05,6.78-3.14,9.8-2.1,3.02-5.03,5.4-8.8,7.16-3.77,1.76-8.05,2.64-12.86,2.64-5.75,0-11.64-1.06-17.67-3.18l4.02-14.49,1.76-1.01c2.4,2.01,5,3.57,7.78,4.69,2.79,1.12,5.2,1.67,7.21,1.67,3.07,0,4.61-1.01,4.61-3.02,0-1.12-.57-2.08-1.72-2.89-1.15-.81-2.92-1.77-5.32-2.89-2.74-1.28-4.97-2.48-6.7-3.6s-3.24-2.62-4.52-4.52c-1.29-1.9-1.93-4.21-1.93-6.95,0-3.68,1.06-7.06,3.19-10.13,2.12-3.07,5.04-5.49,8.75-7.24,3.72-1.76,7.86-2.64,12.44-2.64,5.36,0,10.53.98,15.49,2.93Z"/>
      <path class="cls-2" d="m213.12,322.04l-4.44,13.32-1.17.59c-1.34-.78-2.93-1.41-4.77-1.88-1.84-.47-3.58-.71-5.2-.71-4.24,0-7.24,1.34-9,4.02-1.76,2.68-2.64,6.95-2.64,12.81,0,4.08.74,7.06,2.22,8.96,1.48,1.9,3.78,2.85,6.91,2.85,3.68,0,7.23-.59,10.63-1.76l1.17.75-2.93,13.23c-3.46,1.06-7.14,1.59-11.05,1.59-8.04,0-14.2-1.98-18.47-5.95-4.27-3.96-6.41-9.63-6.41-17,0-10.39,2.69-18.49,8.08-24.33,5.39-5.84,13.05-8.75,22.99-8.75,5.31,0,9.99.75,14.07,2.26Z"/>
      <path class="cls-2" d="m240.5,374.88l-.34-8.96v-.34l-8.29-.17-6.95.33-2.6,9.13h-16.33l23.11-54.18h20.18l8.12,54.18h-16.91Zm-2.93-39.28h-1.01l-6.95,17.84,4.77.08,4.69-.08-1.51-17.84Z"/>
      <path class="cls-2" d="m307.87,324.51c3.15,2.59,4.73,6.24,4.73,10.93s-1.09,8.86-3.27,12.52c-2.17,3.66-5.26,6.5-9.25,8.54-3.99,2.04-8.59,3.06-13.78,3.06h-4.86l-1.34,15.33h-16.74l2.76-15.91,3.86-38.27,24.79-.08c5.58,0,9.95,1.3,13.11,3.9Zm-14.32,19.51c.86-1.53,1.3-3.47,1.3-5.82,0-3.8-2.17-5.81-6.53-6.03l-3.02.25-2.26,15.08,6.2.33c2.01-1.01,3.45-2.27,4.31-3.81Z"/>
      <path class="cls-2" d="m333.62,341.21h8.21l8.79-.25.75,1.17-2.51,12.23-9.63-.25h-7.54l-.5,3.18-.42,4.77h8.04l13.99-.5.75,1.17-2.51,12.14h-38.11l2.76-15.91,3.94-38.27h38.77l.75,1.17-2.59,12.14-13.23-.5h-8.63l-1.09,7.7Z"/>
      <path class="cls-2" d="m398.45,374.88l-.34-8.96v-.34l-8.29-.17-6.95.33-2.6,9.13h-16.33l23.11-54.18h20.18l8.12,54.18h-16.91Zm-2.93-39.28h-1.01l-6.95,17.84,4.77.08,4.69-.08-1.51-17.84Z"/>
      <path class="cls-2" d="m428,374.88l-8.21-54.18h16.92l.41,8.96,2.68,30.32h.92l11.31-29.31,2.85-9.96h16.33l-23.03,54.18h-20.19Z"/>
      <path class="cls-2" d="m489.98,341.21h8.21l8.79-.25.75,1.17-2.51,12.23-9.63-.25h-7.54l-.5,3.18-.42,4.77h8.04l13.99-.5.75,1.17-2.51,12.14h-38.11l2.76-15.91,3.94-38.27h38.77l.75,1.17-2.59,12.14-13.23-.5h-8.63l-1.09,7.7Z"/>
      <path class="cls-2" d="m563.67,374.88h-18.18l-11.72-29.14h-1.01l-1.25,9.55-1.77,19.6h-15.15l2.76-15.91,3.86-38.27h18.17l11.81,29.14h1.01l3.02-28.56,15.42-.92-5.45,36.85-1.51,17.67Z"/>
      <path class="cls-2" d="m615.93,334.01l-10.98-.5h-1.09l-3.34,23.78-1.51,17.59h-16.67l2.84-15.91,2.69-25.46h-1.09l-11.23.5-.83-1.17,2.43-12.14h40.36l.75,1.17-2.34,12.14Z"/>
      <path class="cls-2" d="m664.76,356.79c-.78,6.2-3.3,10.93-7.54,14.19-4.24,3.27-10.1,4.9-17.58,4.9-6.65,0-11.83-1.34-15.53-4.02-3.72-2.68-5.58-6.5-5.58-11.47,0-1.17.08-2.37.26-3.6l1.25-8.63,2.85-27.47h16.75l-4.86,33.83c-.12,1.12-.16,1.87-.16,2.26,0,2.07.5,3.57,1.51,4.52,1.01.95,2.65,1.43,4.93,1.43,2.63,0,4.62-.64,5.95-1.93,1.34-1.28,2.15-3.38,2.43-6.28l3.34-33.83h17.01l-3.94,27.47-1.09,8.63Z"/>
      <path class="cls-2" d="m718.64,345.69c-1.93,3.27-4.65,6.02-8.17,8.25,3.41,6.42,6.65,12.09,9.73,17l-.42,1.84c-5.93,1.73-11.64,2.76-17.17,3.1l-1.43-1.34c-2.84-8.37-4.61-13.65-5.27-15.83h-5.69l-1.43,16.16h-16.75l2.84-15.91,3.86-38.27,24.79-.08c5.58,0,9.97,1.27,13.19,3.81,3.21,2.54,4.82,6.1,4.82,10.68,0,3.8-.96,7.33-2.89,10.59Zm-16.59-12.02c-1.03-.89-2.69-1.39-4.98-1.51l-3.1.25-2.09,14.07,6.11.33c2.01-.84,3.45-1.98,4.31-3.43.86-1.45,1.3-3.29,1.3-5.53,0-1.9-.51-3.29-1.55-4.19Z"/>
      <path class="cls-2" d="m754.45,374.88l-.34-8.96v-.34l-8.29-.17-6.94.33-2.61,9.13h-16.33l23.12-54.18h20.18l8.12,54.18h-16.91Zm-2.93-39.28h-1.01l-6.94,17.84,4.77.08,4.69-.08-1.51-17.84Z"/>
    </g>
  </g>
</svg>