<?xml version="1.0" encoding="UTF-8"?>
<svg id="Capa_5" data-name="Capa 5" xmlns="http://www.w3.org/2000/svg" viewBox="0 0 850.39 850.39">
  <defs>
    <style>
      .cls-1 {
        stroke-width: 0px;
      }
    </style>
  </defs>
  <path class="cls-1" d="m440.9,390.75c-4.49-5.38-7.05-6.76-4.85-11.73.87,2.2,2.1,3.91,3.04,5.38,1.58,2.49,2.82,1.53,3.59.5.67-.89.98-2.18-.2-4.07-2.06-3.29-4.81-4.93-7.92-6.51-.28-.14-.5-.42-.74-.64,4.84-4.62-1.3-5.69-2.94-7.22-2.47-2.3-3.75-4.87-4.78-8.26-2.48,2.11-5.48,3.57-4.71,7.2.57,2.65,3.48,4.52,2.95,8.04-2.9-1.29-4.77-3.56-8.02-4.43-4.46-1.2-7.26-.11-9.56,2.66-2.84,3.42-6.94,5.26-9.72,8.7-1.74,2.16-3.1,3.82.57,5.12,1.93.69,1.91,2.07,1.39,4.05-3.3-5.3-5.05-1.86-6.93.96-.29.34-.58.67-.88,1.01-1.72-1.38-2.79-2.63-5.43-.35-4.76,4.1-10.74,6.64-17.16,6.43-6.09-.19-8.98,5.05-13.65,7.21-1.01.47-.69,4.66-3.15,6.14-7.38,4.43-14.6,9.09-20.41,15.57-2.48,2.77-6.4,2.7-9.96,5.65,2.33-7.84,10.91-8.47,13.6-14.54-5.88-2.76-10.33,3.84-17.49,1.99,3.98-.98,5.91-2.83,8.34-4.02,1.93-.94,8.29-1.91,3.71-7.24-.31-.35,1.84-1.26,1.45-2.69,1.15.67,1.65,1.92,1.38,2.96-.37,1.45-.61,2.54,1.29,1.94.65-.2,3.42-.1,1.56-2.39-.96-1.18-1.42-2.21.38-3.22,2.72-1.53-.41-1.33-.71-1.7-1.09-1.33-1.6,2.33-2.97.5-.62-.82-1.46-1.13-1.82-.03-.17.53.66,1.39,1.03,2.1-2.81,2.35-5.35.86-6.9-1.29-2.25-3.13-3.84-3.28-5.91.6.36-2.42.58-4.02-2.3-3.47-1.92.36-3.98-.3-5.86.89-3.07,1.93-6.25,2.13-9.3-.08-1.21-.88-1.86-.32-2.32.71-1.26,2.79-3.77,4.17-6.2,5.67l.11.11c.29-2.27-3.07-5.3-.18-6.56,3.72-1.62,5.27-4.77,7.58-7.59-3.12,2.99-7.65,3.65-10.56,6.92l.09.06c-.15-1.24.1-2.28-1.6-3.18-1.97-1.04-3.75-.92-5.74-1.12-2.98-.3,1.37-3.55-1.4-4.39-.43-.13-.73-1.73-1.2-1-3.54,5.46-6.88-.9-10.33.41.19-2.53,2.53-.96,3.11-2.34-.19-.97-.98-1.67-1.77-1.25-3.03,1.61-6.4,1.95-9.62,2.81-.84.22-2.27,2.74-2.89-.09-.42-1.91,1.25-1.86,2.62-2.15,5.94-1.29,11.67-3.26,17.28-5.62,5.66-2.38,10.82-5.46,15.16-9.87,5.14-5.22,11.17-8.66,18.67-9.19,4.65-.33,8-3.41,11.59-5.92,1.97-1.37.62-1.86-.57-2.79-7.47-5.86-14.82-11.86-22.26-17.77-3.25-2.58-5.98-5.65-7.5-9.43-2.82-7-8.28-10.93-14.91-13.41-5.56-2.08-7.05-7.44-9.93-11.56-3.42-4.9-7.16-9.33-11.77-13.15-1.89-1.57-3.86-2.18-5.39-.73-2.63,2.49-4.31.22-6.56-.35-8.73-2.21-12.69-9.48-17.87-15.69-8.2-9.82-16.46-19.64-25.48-28.68-5.82-5.84-13.68-4.7-14.4,4.49-.51,6.47-6.08,10.65-7.95,16.61-.84,2.66-1.09,4.63.81,6.86,1.74,2.05,3.09,4.42,4.6,6.66,1.33,1.97,3.34,4.28,2.53,6.42-3.12,8.25,5.77,13.03,5.46,20.37-.02.4.89,1.03,1.48,1.23,3.77,1.32,4.25,4.18,4.12,7.69-.18,4.8-1.63,9.41-1.41,14.3.17,3.68-2.79,6.14-5.66,8.47,3.6.42,5.18,3.52,7.63,5.41,3.47,2.68,6.68,5.69,10.12,8.42,1.56,1.24,1.54,2-.23,2.79-2.59-1.08-4.31-4.45-7.9-3.12-.09-2.19-3.64-2.56-2.58-5.81.51-1.57-2.11-.38-3.16-.23-3.07.43-4.74,4.29-2.14,7.4-7.06-3.77-8.74,3.17-12.95,4.72-2.16-.71-2.57-2.93-3.83-4.41.29-2.11.58-4.22.95-6.88-1.26.62-2.08.85-2.67,1.35-2.36,2.01-3.56,5.63-7.96,4.73-.8-.16-2.73,2.82-3.3,4.61-.7,2.19,2.36,1.26,2.95,2.52.46.98,4.14,1.28.81,3.2l.13.11c-1.41-1.94-3.94-1.26-5.69-2.41-1.47-1.49-2.93-2.97-4.4-4.46-.84-2.93-1.65-5.48-5.84-4.79-2.36.39-5.52.49-5.79-3.2-2.1.11-.23,2.89-1.8,2.27-2.32-.92-.27-2.46.12-3.73.83,0,2.19-.33,2.41.04,2.7,4.49,5.46,2.41,8.4.42-.88-1.25-4.16.77-2.97-1.58,1.24-2.46,0-2.4-1.1-1.75-3.05,1.79-5.86.11-8.77,0-3.17.13-5.58,1.4-7.25,4.26-1.83,3.14-5.94,3.93-8.27,8.64.34-5.02-1.07-6.56-3.61-3.24-1.98,2.59-5.8-1.14-6.97,2.61,1,1.63,1.97-1.19,3.56.7-5.96,1.83-10.86,5.13-15.64,8.91-.99-1.76,1.44-2.18,1.11-3.57-1.18-.49-2.46,1.11-3.7-.14-.63-.63-1.17-1.95-.59-1.85,4.03.68,3.08-5.29,6.94-4.97.77.06,1.88-2.13,2.55-3.42.35-.67-.54-1.08-1.18-1.33-1.93-.74-2.44,1.23-3.61,1.93-.31.19-.38.77-.56,1.18-4.78-6.24-4.59,2.22-7.25,2.55-1.2.15-10.18-.16-10.11-1.11.1-1.36-1.26-3.65,1.48-4,1.1-.14,2.12-.28,2.13-1.54,0-1.23-1.19-1.62-2.12-1.83-1.61-.36-3.79.02-1.73-2.75,1.02-1.36.66-3.23-1.12-3.41-2.86-.28-1.58,1.27-.7,2.44.06.08-.02.39-.11.43-2.1.88-4.09,1.37-5.75,3.58-1.61,2.14-5.37,1.74-7.95,3.44-1.15.76-3.93-1.04-3.37-3.1.84-3.09.03-2.77-2.26-1.95-2.42.86-4.57,2.13-6.72,3.45-1.92,1.17-3.84,2.45-6.21,2.58-.37-2.02.98-2.32,1.94-2.9,15.27-9.21,29.68-19.47,40.93-33.59,1.79-2.25,3.96-4.15,6.53-5.56,15.14-8.33,26.23-20.67,34.38-35.66,4.15-7.64,9.52-12.9,18.02-15.9,7.55-2.67,14.57-7.06,21.44-11.31,4.82-2.99,8.18-7.46,8.48-13.63.16-3.24-.33-5.68-3.51-7.61-5.02-3.06-2.44-7.87-2.25-12.13,3.53,2.81-.78,9.04,5.94,10.87,0-5.83-.07-11.48.05-17.12.03-1.56-.37-4.07,1.69-4.24,2.82-.23,1.71,2.61,2.24,4.18,1.57,4.72-.51,9.4-.07,14.1.16,1.73-.64,3.61.93,5.61,2.62-3.5.36-8.05,3.25-11.12-.47,4.72,3.91,10.17-3.01,13.91-2.33,1.26-.87,4.62-1.09,6.62,8.48,2.28,10.87-3.62,13.41-9.48,3.02-7,9.13-11.24,14.85-15.64,9.63-7.4,18.12-15.72,24.01-26.47,3.88-7.08,9.32-12.82,15.68-17.74,5.41-4.19,9.58-9.47,13.3-15.18,1.74-2.67,3.84-5.17,6.11-7.4,4.71-4.64,9.19-9.4,12.96-14.88,5.79-8.42,14.07-13.07,24.23-13.87,2.97-.23,3.77-1.38,3.84-3.92.08-3.38.12-6.77.4-10.14.17-1.98-1.17-2.57-2.39-3.45-2.89-2.08-3.12-4.7-1.79-8.01,2.61,1.77-.33,5.46,3.19,6.62.6-4.1.55-8.25,2.03-12.06.45,0,.89,0,1.34.01,0,2.88-.16,5.77.06,8.63.13,1.72-1.74,4.42,1.49,4.96,3.48.58,1.17-3.3,3.25-4.45.03,2.88,2.35,6.18-2.91,6.82-2.35.29-1.13,2.52-1.28,3.77-1.55,12.3-1.24,12.52,10.22,8.43,12.46-4.44,16.02-3.31,23.53,7.43.87,1.24,1.63,2.73,2.81,3.56,14.65,10.25,22.3,25.97,31.58,40.38,4.01,6.23,7.53,12.79,11.07,19.3,1.72,3.16,4.08,5.68,6.61,8.18,2.88-5.97,2.37-8.91-2.21-13.3-.98-.94-2.17-1.92-2.03-3.37.24-2.5-1.58-6.68,1.24-7.07,2.84-.38,1.12,3.7,1.63,5.76.35,1.42-.03,3.56,2.07,3.37,1.92-.17.93-2.16.99-3.34.13-2.7-.05-5.42.08-8.12.08-1.68-.8-4.44,1.96-4.34,2.4.09,1.36,2.6,1.37,4.15.04,5.06.02,10.12.02,15.29,6.85-1.08,1.56-8.6,6.32-11.44.33,5.39,1.77,10.21-3.64,13.76-4.34,2.85-2.55,7.81-2.55,11.74,0,2.85,3.81,2.88,6.14,3.22,8.23,1.19,14.06,5.61,19.22,11.98,8.18,10.11,16.79,19.91,25.65,29.43,10.96,11.77,12.98,11.61,24.57.85,2.66-2.47,4.74-5.11,6.01-8.57,3.8-10.29,12.39-16.75,19.94-23.9,6.02-5.7,12.32-11.04,17.23-17.83,3.13-4.34,7.28-7.46,12.65-8.77,7.28-1.77,12.57-7.97,20.16-9.15,1.12-.17.86-1.7.9-2.66.19-4.4.47-8.8.42-13.19-.03-2.43.58-5.64-2.94-6.32-4.39-.85-1.96,3.72-3.73,5.11-2.91-1.03.21-4.9-2.6-5.77-2.26-.7-4.52-.44-6.63,2.54v-12.45c2.19,1.24,1.87,3.38,1.69,5.15-.29,3.03,1.41,3.12,3.67,3.31,2.78.24,2.4-1.45,2.5-3.15.12-2.11-.54-4.31.53-6.37.4.14.94.21.95.34.45,4.68.82,8.92,7.3,4.51,1.66-1.13,4.84-.65,6.5,1.75,1.84-1.88.11-4.3,1.92-6.15,2.29,1.95-.62,8.13,5.22,6.96,3.9-.79.63-4.86,3.03-6.91,1.78,3.34.75,6.57.72,9.84-5.87-3.21-7.36-2.44-8.23,4.05-.74.26-1.44.15-1.44-.73,0-1.8-.82-2.22-2.52-2.14-1.77.08-2.47.92-2.5,2.47-.12,6.09-.18,12.18-.3,18.27-.03,1.69.83,2.52,2.39,2.64,4.96.38,7.17,3.88,9.07,7.82,2.9,6,6.97,11.01,11.76,15.71,5.53,5.41,10.44,11.5,15.29,17.56,6.01,7.52,11.76,15.26,17.47,23.01,2.86,3.88,3.14,8.87,5.04,13.17,2.31,5.24,4.32,10.7,10.03,13.49,2.79,1.37,4.11.94,4.05-2.35-.05-2.88.04-5.76.01-8.63-.02-1.74-.31-3.39-2.11-4.28-4.25-2.1-3.06-5.57-2.53-9.33,3.29,1.64.36,5.71,3.69,7.05,1.42-3.92.64-7.98.94-11.92.09-1.17-.07-2.71,1.47-2.82,2.14-.15,1.63,1.75,1.66,2.95.09,4.23.04,8.46.08,12.69,0,.77-.24,1.86,1,1.89.92.02,1.48-.65,1.72-1.54.63-2.3-.31-4.89,1.5-6.97.01,3.66,2.92,7.51-2.07,10.72-2.98,1.92-1.09,5.96-1.42,9.02-.36,3.33.34,5.81,4.61,6.93,8.46,2.22,13.41,8.77,16.95,16.36,3.65,7.8,6.87,15.8,13.07,22.11,2.17,2.21,4.09,3.73,7.49,2.23,2.64-1.16,5.79-.97,8.5-.09,4.31,1.39,4.47-.56,4.79-4.1.73-8.12-.08-16.2.05-24.29.03-1.66-.63-4.36,2.02-4.46,3.13-.12,2.34,2.77,2.38,4.6.12,5.65.04,11.3.04,17.56,4.85-2.13,1.67-6.74,4.63-8.78.32,4.28,2.85,8.81-2.92,11.97-2.57,1.41-2.19,9.15.32,11.38,2.95,2.62,5.35,5.63,7.39,8.95,3.42,5.53,8.23,9.35,14.24,11.71,5.85,2.3,9.06,7.28,12.61,12.04,10.3,13.79,20.02,28.18,35.97,36.43,3.62,1.87,6,5.05,7.69,8.76-11.58-8.4-24.45-14.93-33.11-27.16-5.03-7.11-10.93-13.7-16.15-20.76-2.42-3.27-5.51-5.77-10.35-6.89,1.66,2.24,2.93,3.96,4.49,6.06-2.73-.33-3.65-2.15-4.64-3.52-3.08-4.23-6.05-8.5-11.01-10.78-1.27-.59-1.2-1.94-1.75-2.94-2.12-3.89-4.82-7.3-8.13-10.28-2.36-2.12-4.88-2.06-7.51-.96-2.58,1.08-3.66,2.98-3.72,5.95-.09,4.59-.85,9.17.32,13.73.17.66.39,1.26-.29,1.79-4.73,3.71-3.7,9.83-6.04,14.59-2.02,4.12,3.85,5.45,4.17,9.09.12,1.35,2.06,2.21,1.82,3.95l.07-.13c-2.16-1.84-4.31-3.67-6.77-5.76-.69,3.41-2.63,6.03-4.64,8.56-1.24,1.55-2.34,3.11-1.23,5,.8,1.36.66,2.63.24,3.85-.26.76-1.06.14-1.68-.02-2.55-.65.52-2.69-.94-3.64-1.77.61-3.29,1.8-2.72,3.64,1.94,6.31,2.31,12.55,2.13,19.21-.12,4.42,3.05,9.4,7.29,12.55.65.48,1.58.67,1.19,2.14-2.94.34-4.46-2-5.97-3.75-5.97-6.88-12.91-12.88-17.95-20.62-2.74-4.21-7.64-5.26-12.39-5.8-4.17-.48-8.44.35-12.57-1.05-.57,2.52,2.99,1.38,2.68,3.76-3.57-.37-5.26-3.2-7.26-5.51-1.66-1.91-3.02-4.09-4.74-5.94-2.5-2.68-5.26-4.17-8.79-1.37-1.55,1.23-3.44,1.98-.95,4.05.45.38.97,1.22.84,1.68-2.66,9.28,3.05,14.76,9.01,20.14.24.22.39.55.85,1.21-5.89-.65-8.79-4.85-11.74-8.68-2.16-2.8-3.25-2.36-4.38.53-.12.31-.34.64-.32.95.55,7.88-4.1,14.82-4.06,22.61,0,.82-.03,2.15-.47,2.36-1.79.87-2.05,2.6-2.99,3.9-1.42,1.98-3.62,3.96-6.26,4.89-2.67.95-5.33,1.94-7.99,2.93-2.49.93-4.93,2.02-7.48,2.77-3.23.94-4.67,2.84-3.57,6.73-.84-.99-3.03-.43-3.14-.51-2.41-1.72-4.9.64-5.34,1.45-2.15,3.94-7.05,3.35-9.33,6.69-1.4-1.18-.45-2.7-1.12-3.8-.15-2.15,4.45-3.03,1.57-5.9,1.16-.8,2.03-2.5,3.83-1.34.97.62,1.86,1.36,2.56,1.87,2.15-2.2.94-5.69,3.24-8.03.76-.77-.29-3.76-.76-4.18-3.76-3.32-5.05.03-6.71,2.41-.59-.05-1.19-.1-1.78-.14-2.15-.32-3.89,1.86-6.12,1.03-1.96-.69-3.91-.98-5.77.29-3.7,2.51-7.99,4.25-10.63,8.14-.61.2-1.42.76-1.78.54-1.55-.91-2.92-.99-3.98.54-1.38,1.99,2.06,1.9,1.81,2.92-5.66,4.45-8.59-.56-12.68-3.63,2.14,3.85,1.54,4.81-2.25,4.47-2.14-.19-4.43,1.16-6.63,1.89-1.55.52-3.07,1.46-4.6-.25,3.78-3.32,8.81-3.84,12.66-6.66,1.05-.77,1.93-1.2.27-1.74-1.98-.65,2.97-5.69-2.34-3.6-2.62,1.03-5.05-2.16-7.5.08-2.52-2.79-5.62,2.39-8.12-.6-1.81,4.7-4.93-.78-7.24.93-1.65,1.22-1.97.03-1.89-1.45.16-3.36.08-6.75.48-10.09.33-2.74-.63-4.36-2.87-5.8-5.27-3.4-6.58-7.59-4.54-13.42.28-.81.32-1.69,1.44-1.72,1.43-.04,1.61.98,1.63,2.04.03,1.35.04,2.71-.04,4.06-.21,3.64,0,4.11,4.35,7.62,0-8.51,0-16.3,0-24.08,0-1.17-.41-2.42.44-3.42,3.38-4.01-.07-3.54-3.87-3.15,4.2-1.87,8.34.3,9.29,3.9.57,2.16.85,4.65.35,6.78-1.64,6.98-.73,13.98-1.13,21.64,8.26-5.27,1.44-14,5.57-19.86,3.73,5.24,2.93,16.5-1.26,20.49-1.97,1.87-4.06,3.64-4.01,6.72.03,1.94-.77,4.61,1.39,5.35,1.94.66,4.3-.4,5.91-2.08.48-.5.01-1.86,1.33-1.66,8,1.18,13.83-3.63,20.02-7.31,4.45-2.64,8.72-5.6,13.58-8.74-6.47-6.17-11.2-13.68-17.25-20.12-.69-.73-1.53-1.8-2.34-1.85-7.36-.39-9.14-6.53-12.11-11.47-6.8-11.33-15.37-20.87-27.37-26.92-4.93-2.48-7.78-7.02-10.72-11.29-6.04-8.78-13.2-16.43-21.3-23.32-2.15-1.83-4.36-3.59-7.03-3.54-2.36.04-6.31-.55-4.69,4.51,1.44,4.5-1.68,7.7-4.1,10.88-3.9,5.15-5.92,10.42-2.14,16.53.29.48.56,1.79-.32,1.42-4.62-1.91-1.4,2.2-2.64,2.89,7.52-1.43,14.06.32,20.24,4.59-2.22,1.26-2.72-2.31-4.95-.92.32,1.57,2.07,2.07,3.2,3.11,1.29,1.18,4.57,1.86,2.37,4.29-1.47,1.63-2.88-.92-4.37-1.61-4.08-1.89-5.74-7.22-10.83-7.39-1.04-.03-2.26-1.6-3.12.02-.75,1.4.86,1.34,1.47,1.95.96.97-.05,2-.67,2.58-2.63,2.46-3.61,6.16-5.66,8.59-4.05,4.79-.59,6.72,2.13,8.68,7.75,5.59,13.99,12.09,14.69,22.15.58,8.34,1.77,16.16,10.21,20.54.48.25.62,1.14,1.3,2.5-5.05-3.09-9.4-5.82-13.83-8.41-1.56-.91-1.63-2.37-.99-3.4,2.36-3.76.37-5.38-2.86-6.58l.11.11Zm63.85-42.81c.32.53.64,1.05.97,1.58.26-.17.74-.35.74-.51-.04-1.35-1.15-.76-1.84-.95.41-1.24.82-2.47,1.23-3.71,4.05-2.32,6.56-4.83,5.17-7.51-.99-1.91.24-5.39-3.09-6.06,0-.72-.02-1.44-.03-2.17,1.08-4.32-1.52-6.12-5.01-7.3,3.31-2.81-2.55-4.4-.93-6.95,1.15-1.82-1.07-2.87-1.48-3.03-1.59-.64-1.94,1.06-2.54,2.15-2.2,3.96-4.55,7.85-6.39,11.97-.2.44-1.55,3.36.96,4.22,1.4,2.68-4.78,3.14-1.98,6.4,2.12-1.77,2.63-5.27,6.19-4.9.36,3.08,3.23.49,4.57,2.21-1.82,2.77-1.81,5.69.5,8.41.18,1.72-2.76,4.1,1.07,5.06.27.99.98,1.21,1.89,1.06Zm150.97,22.82c.42-1.15,1.66-2.32.14-3.46-.47-.35-1.25-.28-1.89-.4-.19,4.4-2.21.63-3.35.6-.2,4.43,2.48,3.83,5.17,3.21,1.21.14-.07,2.72.91,1.74,3.2-3.2,3.39.2,5.16,2.51-1.39-4.28-.2-6.74,3.96-8.58-5.1-.7-6.52,4.32-10.1,4.38Zm-477.7-67.97c.74-.45,1.57-1.11,1.14-1.95-.5-.97-1.37-.43-2.06.09-.74.55-1.21,2.61-2.46.51-.45-.76-.41-2.34-1.8-1.45-.92.58-1.53,1.76-.88,3.07.53,1.07.93,2.17,2.54,1.29.68-.37,1.6-.31,2.41-.44-1.02,1.5-3.04,2.38-3.11,4.66,2.97-.58,6.69.61,7.09-4.09.09-1,1.5-2.11,0-2.89-1.11-.58-2.3-.16-2.86,1.2Zm150.56,89.99c1.14.16,2.83-.96,3.24.99.33,1.59.53,2.99,2.62,2.79-1.74-2.66,3.69-3.11,1.8-5.78-1.33-1.89-3.67-.98-5.39-1.84.12-4.22,5.2-3.72,6.7-6.71-2.13-1.79-5.01-1.83-6.16-.4-3.97,4.9-9.42,8.01-15.37,12.98,4.78-.91,7.93-.21,11.09.36,1.1-.42.17-2.1,1.48-2.39Zm185.71-98.51c.42-1.27,2.81-.8,2.44-2.56-.19-.87-1.73-1.05-2.12-.58-2.01,2.36-5.85,3.74-4.58,7.98,4.4,5.14,6.7-.15,10.5-2.04-3.24.31-3.88-2.85-6.23-2.8Zm-263.57-72.35c2.19-2.86,2.63-4.79-2.11-4.1-1.07.16-3.06.6-2.57-1.07.88-2.97-1.32-3.43-2.71-3.3-1,.1-2.61,2.18-2.55,3.3.12,2.11,2.3,2.02,3.99,2.02,2.95,0,4.78.78,2.95,4.16-2.97.81-1.65,4.91-4.4,5.98,3.06-1.74,7.41-2,7.41-7Zm-102.57,113.66c.72.18,1.03-.18,1.11-.84,3.07.06,6.04-7.01,8.91.22,2.02-2.32-4.11-4.85,1.86-6.56-10.03-.46-13.65,1.63-17.05,9.13-2.42,2.47,2.03,2.27,1.63,3.84-.81,1.63-2.39-1.35-3.36.9,4.56,1.92,8.88-1.74,13.16.36-2.38-3.05-6.88-1.42-8.84-4.83,1.43-.08,2.12-1.02,2.58-2.22Zm133.02-106.45c-.35-2.26,3.85-1.47,3.02-4.21-8.97,4.48-13.49,12.92-19.16,20.27-1.48,1.92-1.59,4.12-.47,6.22,3.2,5.97-1.48,10.51-1.82,16.2-2.91-1.94.59-3.41-1.28-5.26-4.72,7.76-7.8,15.59-3.85,24.28.99,2.18,2.83,7.69,7.06,2.08.78-1.04,2.13-.57,2.25.62.2,1.94,1.96,2.12,2.88,3.19,3.51,4.07,8.01,8.04,7.12,13.92-.47,3.14,1.02,3.88,2.43,5.32.18-.79-.29-1.57-.07-2.04.4-.89-2.53-2.17.49-2.75,2.68-.51,1.48.69,1.24,1.85-.08.38.6,1.07,1.09,1.39,3.21,2.1,5.28,5.26,7.59,8.76,1.27-4.07.63-7.61.29-11.07-.17-1.79-4.96-2.46-2.28-4.95,3.18-2.95,2.64,2.51,4.89,3,4.08.89,5.59,4.66,7.55,7.96-6.42,1.82-8.51,9.02-4.41,14.15.53.66,1.14.64,1.77.39.88-.36,1.08-1.04,1.06-2.02-.06-2.49-1.97-4.89-.24-7.51.38-.58-3.03-.79-.85-2.19,1.26-.81,3.12-.28,3.73,1.44.66,1.89,1.76,4.12,1.29,5.82-1.77,6.41,2.28,9.74,6.35,13,1.44,1.16,3.05,2.04,3.72,3.82,1.03,2.74,3.54,4.93,5.51,5.79,2.32,1.01.7,6.13,4.84,4.12,3.7,6.18,6.75,2.02,9.59-.77,4.55-4.48,9.46-8,16.14-8.38,2.05-.12,3.79-1.3,5.4-2.61,1.8-1.46,3.65-2.75,6.01-3.41,8.07-2.25,14.86-7.46,22.8-10.11,2.25-.75,3.95-2.53,4.95-5.09-1.75-.08-3.14-.75-4.05-2.21,1.79,0,4.42.6,4.11-2.19-.42-3.72,3.13-7.98-1.42-11.19-5.08-3.58-7.29-9.65-5.65-15.68.26-.96,1.28-2.5,1.83-2.45,1.29.12,2.42,1.04,2.37,2.76-.08,2.54-.01,5.08-.05,7.62-.03,1.94.3,3.55,2.77,3.72.33-5.42.88-10.56.88-15.7,0-3.35,1.28-4.85,4.36-4.7-3.17-7.98-10.12-13.25-14.85-21.47,1.76.7,2.27.8,2.65,1.07,4.05,2.79,5.9,7.47,9.13,11.02,1.77,1.95,4.05,2.13,5.76,3.65.41.36.58-1.51,1.69-1.2-.33.71-.49,1.63-1.04,2.06-.56.44-.9.72-1.01,1.49-1.16,7.73-.73,15.52-.93,23.28-.02.82-.35,1.78.95,1.86.95.06,1.71-.42,1.81-1.38.21-2.01.22-4.05.42-6.06.13-1.27.83-2.29,2.18-2.44.55-.06,1.39.26,1.7.69,1.44,2.04-.25,11.62-2.69,12.6-5.5,2.23-4.64,6.58-4.74,11.03,2.32-.36,4.1-1.1,5.83-2.21,5.14-3.31,9.11-8.01,13.91-11.67,2.52-1.92.67-2.77.1-3.86,1.2-1.8,3.33.46,4.38-1.17,0-2.06-2.54-.22-2.69-1.92,1.66-1.84,3.08.31,6.17,0-3.66-.8-1.85-3.5-3.72-4.79-.82,1.03-1.41,2.04-2.24,2.74-.67.56-1.63-.34-1.38-.71.76-1.13,2.12-1.63,2.63-3.25.3-.95,1.68.36,2.56.71,1.58.63.03,3.23,2.46,3.54,1.5-2.46,3.08-4.99,4.6-7.55.47-.79,1.32-2.16-.42-2.07-3.44.17-3.71-1.98-4.43-4.73q4.26,2.35,7.62-.08c-5.2-.73-3.88-8.21-9.31-8.05,1.09-4.57,2.56-2.52,4.13-.63,1.39,1.68,2.91,3.25,4.31,4.92,1.7,2.03,3.03,3.06,4.8-.15,1.54-2.79,4.58-5.8,7.16-5.68,12.08.55,20.46-5.52,27.86-13.88,1.83-2.06,2.54-3.83-1-5.28-5.76-2.36-6.63-10.18-12.97-12.08.61-3.81-2.34-5.8-4.41-8.08-5.31-5.87-11.59-10.95-15.92-17.58-3.9-5.96-8.66-9.69-15.75-10.6-8.4-1.08-15.66-5.48-19.6-12.35-7.93-13.84-16.88-27.02-24.99-40.69-7.42-12.51-19.97-19.93-27.63-31.83-.34-.53-1.04-.85-1.61-1.21-1.57-1.01-3.45-2.47-5.05-1.09-1.69,1.46.84,2.75,1.12,4.22.08.43-.04.9-.12,2.38-2.57-6.09-7.1-5.57-11.08-4.31-4.26,1.35-8.52,1.96-12.88,2.44-5.09.56-7.17,4.18-4.83,8.61.81,1.53.65,1.4-.91,2.13-3.01,1.4-4.96,9.47-3.2,11.57.98,1.17,3.82.11,1.96,4.14-1.21,2.61-2.2,6.51-3.22,9.85-1.27,4.15-3.59,8.55.59,12.19,3.87,3.37,4.03,7.73,2.7,11.6-1.87,5.44.89,7.88,4.63,10.26.77.49,2.12.2,1.95,1.73-6.52.76-11.05,3.67-10.7,11.36.12,2.63-1.25,4.14-3.02,5.45-3.65,2.71-7.46,5.21-11.12,7.91-1.33.98-2.99,2.16-1.37,4.11,1.85,2.23,1.9,4.79,2.19,7.51.46,4.26.58,8.69,3.68,12.33,2.27,2.66,4.04,5.76,6.03,8.66-2.29.35-3.76-1.03-5.08-2.54-.5-.58-.73-1.9-1.65-.97-2.16,2.18-2.42.25-2.61-1.16-.57-4.2-.26-8.84-6.14-9.56,1.04-2.16,3.06-.28,4.42-2.24-2.33.41-2.26-3.85-4.15-2.12-3.13,2.87-3.29,1.92-3.06-1.4,0-.03-1.52-.17-2.33-.26Zm384.16,82.19c1.89,2.73,5.51,4.18,5.43,9.07,3.08-3.36,5.37-5.96,7.78-8.45,1.31-1.35.76-2.33-.27-3.44-6.28-6.79-9.81-15.17-13.86-23.32-4.31-8.67-10.49-15.55-21.16-16.49-9.27-.82-14.88-6.78-17.31-14.94-4.61-15.46-15.51-26.56-24.87-38.83-6.47-8.48-14.41-15.57-21.13-23.76-2.22-2.7-3.56-6.11-5.41-9.13-3.16-5.16-6.87-6.62-12.21-5.46-4.19.91-6.88,4.87-11.33,5.22-.92.07-.27,1.23-.34,1.89-.56,5.32,3,8.68,6.33,13.07-3.47-1.19-5.91-2.35-6.92-5.06-1-2.67-2.15-1.95-3.49-.48-.55.61-.98,1.38-1.33,2.13-4.19,8.93-2.26,19.08-5.71,28.25-1.67,4.44,1.4,8.6,2.9,12.84,1.85,5.24,2.8,10.96,7.31,14.66,2.87,2.36,6.42,3.89,9.8,5.87-1.9,1.78-3.16,1.85-4.62-.33-1.76-2.62-4.41-2.2-6.74-.85-2.04,1.19-5.28,2.34-2.87,5.61,1.44,1.94-5.12,4.95,1,5.77-.08.32-.05.85-.24.94-4.49,2.1-.39,4.55.37,7.41-3.46-1.96-4.95-4.13-4.93-7.31,0-.73.07-2.01-1.1-1.81-1.85.31.31,2.09-.79,2.84-2.45-4.26-3.46-4.01-12.25,3,.5,1.43,2.94,1.21,2.73,3.24-1.43,1.51-2.97-1.62-4.45.08,1.11,2.34,3.47,2.15,5.47,2.65-.58,2.1-2.66,3.61-.94,6.39-2.25-1.68-1.05-4.51-3.69-5.44.56,2.57,1.07,4.96,1.59,7.34-1.74-.5-2.42-1.89-3.53-2.71-1.01-.74,1.42-3.22-1.44-2.59-1.48.33-3.4.8-3.4,2.51-.01,3.55-3.22,7.09.28,10.74,1.43,1.49,2.49,3.87,2.67,5.93.59,6.92,3.54,11.87,8.19,17.39,7.47,8.87,14.92,18.49,17.09,30.72-4.4.33-4.12-4.87-6.7-6.3-3.42-1.9-3.98-5.43-6.2-7.82-2.17-2.35-3.6-5.97-8.49-6.78,3.38,3.62,6.08,6.5,9.11,9.75-5.24-.27-6.85-4.52-9.77-6.86-1.25-1.01-3.39-3.39-2.19-5.64,1.22-2.28,3.72-2.65,5.07-2.14-.71.3-.14-6.29-3.52-1.68-2.88-2.91-5.02-6.67-10.21-8.91,2.36,2.62,4.95,4.16,5.14,5.96.44,4.11,2.68,3.24,5.1,2.83-.23.82-.49,1.46-1.52,1.74-3.43.93-11.49-4.67-12.47-9.53-.64-3.14-2.27-5.2-4.13-7.61-2.25,4.9-2.1,4.82.21,8.89.87,1.54,2.52,3.21.99,5.5-.59.88-.63,2.68.39,3.32,6.53,4.12,4.03,11.13,5.38,16.84.39,1.64,1.83,3.71.44,5.33-2.72,3.17-.33,5.62.69,8.36,2.41,6.53,7.56,11.1,11.88,16.18,1.58,1.86,3.98,4.54,7.48,3.11-1.86,3.24-.2,6.38,3.53,8.58,3.43,2.02,6.92,4.39,7.74,8.85,1.05,5.69,8.36,8.81,12.44,4.93,3.01-2.87,6.75-4.23,10.1-6.34,10.01-6.3,19.68-13.23,30.89-17.44,3.04-1.14,7.93-1.85,8.08-4.86.19-3.8-4.56-5.38-7.82-7.04-8.11-4.13-12.86-10.06-11.24-19.67.51-3.04-.47-5.1-3.29-6.59-1.86-.99-3.94-2.11-4.21-4.7-.68-6.57,0-13.13.19-19.69.03-1.08.71-1.92,1.97-1.81,1.19.11,1.14,1.19,1.08,1.93-.28,3.33.65,6.56.19,10-.55,4.08-1.07,8.78,3.53,11.57.66-4.71.81-9.27.62-13.82-.19-4.72.95-9.41.1-14.16-.33-1.82.35-4.24,2.42-4.35,1.75-.09,2.31,2.19,2.62,3.88.54,2.94.84,5.79.59,8.9-.56,7.12-.18,14.32-.18,21.65,2.89-1.32,3.09-3.88,3.33-6.62.6-6.91-2-14.07,1.75-20.75.73-1.3-.69-1.54-1.61-2.29-2.91-2.38-4.91-5.53-4.88-9.52,2.81,3.11,4.23,6.88,7.9,9.54,3.08,2.23,4.53,6.7,6.7,10.18-.25.18-.51.35-.76.53-1.86-2.4-3.72-4.8-6.42-8.28,1.66,6.27.53,11.29.75,16.31.24,5.73-.98,10.85-5.66,15.02-3.52,3.13-1.9,14.79,1.9,17.49,3.11,2.21,5.39,7.45,10.4,2.92,3.69,2.75,8.97-3.06,12.3,2.33.58.94,1.73-.26,2.52-.9,2.76-2.21,5.51-4.43,8.36-6.52,2.54-1.87,3.62-3.44.36-5.83-7.04-5.17-8.02-14.53-15.18-20.6,3.91.07,4.67,6.75,8.57,2.04.1.12.29.25.29.36-.29,5.83,3.18,2.87,5.33,2,1.07,1.62-2.64,1.81-.4,3.39,1.15.82,1.8,1.3,3.27-.07,1.98-1.86,3.11-.55,3.11,1.92,0,1.49-.31,3.29.4,4.38.7,1.08-.19,3.36,2.19,3.31,1.73-.04,2.74-.52,3.95-2.2,4.3-5.97,8.52-12.32,16.7-13.65,3.84-.62,7.06-2.6,10.72-4.57-2.62-2.41-6.26-3.04-7.41-6.4.75-1.22.2-3.69,2.91-3.03Zm-484.17,14.83c-.46-.43-.86-1.12-1.38-1.24-4.13-.92-1.98-4.67-2.92-6.95-1.04-2.51,2.07-.81,3.13-1.59,2.17-1.58,5.61-2.56,1.29-6.08-.87,2.38-1.81,6.1-4.69,3.82-2.84-2.25-6.47-1.64-9.13-4.02-1.74-1.56-4.01,1.49-3.6,1.78,2.43,1.72.27,2.32-.57,2.75-1.67.85-1.61-.95-2.31-1.74-.63-.72-1.39-2.95-2.39-1.54-1.05,1.48-4.18,2.43-2.44,5.36.58.98,2.76,2.05,4.22,1.87,1.33-.17,1.4-.04.9,1.51-1.09,3.39,2.08,7.02,6.38,7.41,3.42.31,6.03-.98,5.93-5.47,1.41,3.58,4.27,4.24,7.57,4.14Zm90.88-120.73c-1.4-2.26-2.08,1.94-3.16.02-.3-.53.28-1.57.45-2.37,3.22,1.55,2.32-2.83,4.7-3.34,1.43-.31,3.31-3.06,3.31-5.49-.01-5.48,1.43-10.38,4.56-14.95.34-.49,3.26-.8,1.3-2.4-1.29-1.05-2.18.58-2.85,1.33-4.26,4.72-7.38,10.38-12.05,14.86,1.54-.71,3.08-1.42,4.65-2.14.74,2.42-1.76,2.18-2.41,3.78-1.47,3.61-3.87,7.17-6.77,9.79-2.9,2.61-3.56,7.12-7.65,8.54-.11.04.03,1.19.05,1.19,2.31,0,3.22,4.63,6.36,1.95.21-.18.83.11,1.13.16.88,1.97-2.17.83-1.61,2.44,3.33-.68,3.84-1.12,2.45-3.23-.96-1.46-.97-1.38.46-2.46,2.81-2.13,6.04-4.13,7.09-7.68Zm-48.42,47.97c1.91-1.81,7.11.76,5.93-4.72-.1-.45,1.69-1.54,2.75-1.98,6.63-2.73,9.59-6.89,9.6-13.67-2.37.73-3.1,3.26-3.06,4.78.09,3.58-3.28,3.55-4.26,3.4-4.98-.8-7.46,1.06-8.37,5.85-.43,2.24-2.2.36-4.29,1.02,4.84.96,4.03,2.82,1.71,5.31Zm152.36,127.81c2.81.11,5.09-.76,7.4-2.58,2.88-2.28,6.36-3.78,9.46-5.8.91-.59,2.99-.89,1.95-2.78-.76-1.38-2.16-.09-3.22-.34-1.43-.35-2.05.78-3.01,1.37-2.33,1.42-4.59,3.2-7.14,3.93-3.39.96-5.95,2.03-5.43,6.21Zm-106.4-152.53c-.97,3.68-2.8,6.29-6.43,7.94-6.04,2.75-6.01,3.07-2.08,9.85,2.3-6.6,9.36-10.25,8.51-17.79Zm-24.61,43.68c7.93,6.15,8.75.68,10.19-4.24.65-2.21,2.23-4.13,3.02-6.31.79-2.21,2.64-4.25,1.53-7.59-1.12,2.24-1.82,4.07-2.88,5.67-3.16,4.77-2.04,13.18-11.86,12.48Zm107.83,101.31c-.17-2.21-1.93-3.65-2.98-5.44-4.06,2.51-8.13,4.99-12.13,7.59-.24.16-.13,1.41.22,1.82.98,1.15,1.04-.16,1.61-.63,3.1-2.54,7.42-2.34,10.69-4.58,1.61-1.1.82,2.21,2.58,1.24Zm-248.77-37.46c-3.88,3.25-13.29,1.06-11.07,10.67.02.08-2.1,2-1.62,3.81.24.93,1.4,1.28,1.51.7.36-1.89,3.97-1.8,2.53-4.89-.81-1.73.41-3.29,2.27-4.76,2.19-1.73,5.48-2.3,6.39-5.54Zm185.03-189.87c2.98-2.64,4.9-5.06,4.87-8.61,0-.86.05-1.77-.85-2.19-.96-.45-1.53.31-2.14.9-2.76,2.65-3.81,5.65-1.88,9.9Zm56.98,206.18c-1.77,1.19-1.14,4.32-3.78,3.7-3.39-.78-3.49,4.41-6.78,3.38-.08.48-.34,1.03-.19,1.42.13.36.71.55,1.09.81.29-2.64,4.4,2.09,3.93-2.04,2.57.7,3.94-4.17,6.93-1.41.08-2.07-1.51-3.71-1.18-5.87Zm-223.04-21.95c.05-.18.31-2.11-.71-1.39-2.03,1.42-5.56.69-6.15,3.96-.1.54.86,2.53,1.6,1.78,1.53-1.54,5.42.24,5.26-4.36Zm187.68,50.1c-3.1,1.2-4.96,4.11-8.34,4.69,7.23,5.8,6.14-2.28,8.34-4.69Zm-176.79-39.59c-.74,3.31-9.32,1.92-4.92,8.31-1.15-4.44,4.62-4.74,4.92-8.31Zm403.94-148.34c-2.2,2.49-6.12,3.93-3.28,8.74-1.13-6.8,2.89-5.21,7.69-3.79-2.73-1.95-4.89-2.3-4.41-4.95Zm-23.86,67.23c-6.4,4.09-6.89,5.53-1.95,9.45-3.66-4.88,1.35-6.25,1.95-9.45Z"/>
  <path class="cls-1" d="m185.76,618.42c-4.09.92-8.26,1.05-12.37.71-1.83-.15-3.24-.21-4.56,1.13-.44.45-1.13.65-1.7.96-1.52-3.27-4.99-.75-5.88-1.37-4.13-2.87-8.36.47-12.65-1.24-3.41-1.36-8.07,1.17-12.02-1.02.73-1.6,2.41-1.56,3.85-1.61,2.03-.06,4.4.5,5.34-1.81,1.05-2.59-3.13-1.49-3.05-3.74,2.14-.9,3.38.98,4.95,1.73,2.61,1.26,1.97.76,4.06-1.41,1.52-1.57,5.24-2.36,7.43-1.7,8.24,2.48,12.43-2.86,16.17-8.12,6.19-8.7,4.97-18.13-2.62-25.67-9.86-9.78-21.28-16.5-35.53-17.16-5.64-.26-9.68-3.6-13.95-6.61-2.95-2.07-6.18-2.3-7.34,1.41-1.43,4.53-4.65,2.1-6.56,1.94-2.63-.23-2.57-.96-4.22,1.39-2.72-1.83,1.5-7.99-4.73-7.16,1.25-3.18,3.68-3.04,6.01-3.15-1.92-2.34-.6-4.34,2.02-7.27-4.09,1.47-8.05-1.27-9.11,3.81-2.89-.61-5.1.91-7.56,2.09-3.63,1.74-5.08-1.28-6.51-3.84-.08-.14-.11-.47-.11-.47-4.32.88-6.03-.22-3.53-4.58-2,.29-4.77-1.74-5.89.51-1.52,3.08-3.52.49-5.11,1.15-3.61,1.48-1.85-1.94-2.64-3.01-.35-.47-.23-1.55-1.02-1.47-5.63.55-.76-5.57-4.12-6.41,4.06-4.32-.88-3.08-2.42-3.87-1.73-.89-2.83-1.75-1.29-3.83,1.04-1.41,3.15-2.81.85-5-.5-.48.32-1.27,1.07-1.16,3.82.57,5.26-5.1,9.47-3.63.2.07,1.01-.9,1.14-1.47.28-1.2-1.02-1.38-1.62-1.48-2.16-.37-4.62-.19-2.61-3.62.53-.91-.56-1.6-1.32-1.75-3.51-.73-.75-6.05-4.73-6.36,1.09-2.2,1.69-5.07,3.45-6.39,1.26-.95,2.18-5.42,5.49-2.07.8.81,1.99-.23,2.58-.99,3.12-3.98,6.96-6.83,12.16-7.93-.41,1.88-1.46,4.15,1.78,5.55-.8-3.84,1.72-3.92,4.59-3.91-3.32-.73-4.65-6.2-9.1-2.94-.76.56-1.27-.86-.77-2.06.59-1.4,1.53-3.43.96-4.34-.69-1.1-4.31-1.63-3.13-2.84,2.27-2.33,5.56-7.03,6.44-6.75,4.05,1.27,7.81-2.02,10.84-.73,4.33,1.84,5.83-1.46,8.54-2.69-1.71-.33-3.45,1.57-5.11-.38.03-2.18,2.17-.72,2.96-1.58-4.14-1.95-5.11-5.42-1.74-7.45,2.26-1.36,1.63-2.25.9-3.92-1.15-2.61-.64-4.3,2.59-2.87,1.27.56,2.07,1.16,2.69-.52.27-.74,1.13-1.34,1.46-.9,4.11,5.56,9.8-1.1,13.91,2.69,1-2.32-.75-2.63-1.22-3.95,4.05.03,5.78-1.1,1.97-4.45-.61-.54-1.22-1.47-.35-2.15.59-.46,1.56-.55,2.38-.6,1.71-.11,1.44.53.7,1.67-.39.6.43,1.41,1.07,1.15.88-.36,1.85-.99,2.31-1.78,2.01-3.45,4.86-5.79,8.22-6.41.17-.03.46-.03.48-.1,1.58-6.2,4.9.89,7.1-.87.02-.02.98.85,1.21,1.42,1.56,3.79,2.58,4.15,5.67,1.11,1.85-1.82,3.62-.2,3.38.51-1.13,3.38,2.03,7.73-2.21,10.53,2.36-.68,5.07-.18,6.76-2.84,1.07-1.69,2.53-1.37,3.75.08.49.59,1.08.86,1.67.24.3-.32.55-1.22.54-1.23-4.27-1.91-1.5-6.13-2.93-8.95-.14-.27-.05-.94-.09-.94-4.15-.2-3.95-2.24-4.13-5.94-.16-3.12.77-3.15,2.51-3.11,5.91.15,10.76-1.61,13.69-7.05.96-1.78,1.68-.29,2.6-.28,2.66.03,7.93,3.03,5.76-4.1-.59-1.93.61-2.03,2.35-1.72,1.76.31,4.23,2.92,5.38-1.31.24-.9,2.2.84,2.3,2.11.2,2.44,1.96,2.51,3.61,2.64,2.22.17,2.28-1.59,2.29-3.11,0-.71.28-1.85.49-1.72,3.25,1.96,7.59-1.33,10.61,2.38.83-1.29,1.63-2.51,2.4-3.75.98-1.58,2.26-1.51,3.32-.31,1.86,2.1,2.43,4.7,6.86,4.22,4.01-.43,4.48,1.81,2.48,5.87,4.35.56,8.18,1.65,6.69,7.42-.4,1.55.43,2.39,1.54,2.71,5.94,1.68,3.6,4.27.94,7.29,2.28-1.7,6.63.76,7.08-4.48.18-2.13,2.45-1.84,3.31-.29,2.84,5.12,3.57,1.43,4.03-1.01.72-3.78,1.48-5.74,4.92-1.73,1.59,1.85,2.5.05,3.41-1.21,1.7-2.35,3.09-2.6,4.93.2,1.62,2.47,5.26,3.51,4.08,7.78-.64,2.31,2.65,2.5,3.77,3.89,2.02,2.51,2.41.81,3.92-.53,1.5-1.33,3.14-.8,1.48,1.73-.35.53-.55,1.15-1.07,2.26,3.17.06,6.5-1.71,8.07,2.59,1.04,2.84,1.55,6.37,5.24,7.86,1.67-.9,2.93-4.43,5.97-1.62.85.79,1.35-.25,2.01-.74,2.12-1.54,2.09-1.45,2.95,1.19.64,1.98,3.33,3.08,2.54,5.72l.09-.12c-2.31.78-1.87-3.97-4.04-2.33-1.97,1.49-1.14,3.95-.27,6.04.18.44.09.99.13,1.49l.07-.13c-1.09.35-2.18.69-4.53,1.45,2.91-2.86,3.03-5.15,1.2-7.48-.41-.52-1.42-1.5.22-1.58.87-.05,1.33-.18,1.2-.95-.15-.87-1.29-.91-1.56-.57-1.43,1.78-3.87-.27-5.3,1.6-1.02,1.33-2.4.55-3.68.07-1.02-.38-.16-2.95-2.08-1.94-2.14,1.12.95,2.54-.2,4.28-2.06-2.8-4.56-3.33-7.35-1.23,1.11-1.41-3.12-5.04,2.06-4.83,4.52.18,4.62-.09,2.68-4.74-1.12,1.72-1.86.71-2.87.83-3.23.4-1.81-2.28-2.72-3.3-.85-.94-1.75-.94-2.69-.33-1.16.75-.26,1.16.24,1.85.92,1.29,1.57,2.78,2.33,4.19-2.48-1.19-5.05-2.63-5.5-5.14-.85-4.78-2.98-7.26-8.28-6.16.41-.74.52-1.23.73-1.28,2.8-.63,3.67-2.87,2.89-5-.6-1.65-2.65-3.9-4.04-3.9-2.84,0-1.49,3.13-1.99,4.85-.46,1.55-1.33,2.38-2.63,2.51-2.05.21-.58-1.78-1.29-2.49-.99-1-1.05-2.95-3.01-2.99-1.04,1.21-.03,2.76-.65,3.87-.99,1.75-3.79,4.39-4.33,3.13-2.18-5.04-4.22-.29-6.17-.54.41,2.18,3.54,2.15,3.52,4.58-2.69.4-4.42,6.73-7.79,1.78-2.8-4.12-6.27-2.94-9.85-2.67-.83.06-1.65.16-2.19-.69.34-1.52,7.92-1.6.91-4.59-1.05-.45-.75-1.15-.45-2.06.7-2.13.38-4.31-2.28-4.32-2.08,0-3.5,1.49-3.47,4.01.01,1.31-.15,3-2.79,3.17,1.15-3.45,2.03-6.77-2.29-8.53-.97,2.11,3.05,2.75.97,5.07-2.03-4.04-6.04-2.73-7.45-.94-2.78,3.52-3.29.38-4.81-.86,3.97,1.98,4.38-5.32,8.41-2.93-.03-.43.12-1.09-.11-1.26-2.18-1.64-.16-1.72.72-2.63,2.62-2.69,5.74-.97,7.87-.2,3.07,1.1,1.42-2.49,3.37-2.38.88.05,1.28-2.49.59-3.56-.75-1.17-1.59,1.58-2.76.57-.65-1.54,2.13-1.85,1.36-3.52-2.95.72-3.47,3.97-6.14,5.31q1.84-5.01-.1-8.14c-.46.51-.99,1.48-1.32,1.42-4.45-.84-6.75,7.62-12.19,2.83-.36-.32-2.34.59-3.03,1.38-2.15,2.48-3.48.99-5.2-.53-.66-.58-.59-2.67-2.68-1.51,1.56,2.28,4.31,4.16,2.79,7.53-.14.31.61,1.16,1.11,1.58.42.35.93.09,1.05-.51.18-.91-.71-2.73,1.67-1.39,1.2.68,2.4,1.57,1.74,2.5-1.21,1.68.99,2.77.4,3.98-1.45.62-2.99-1.72-3.11-.76-.4,3.17-1.14,2.63-3,1.03-.53-.46-2-.14-2.9.2-.93.35-3.05-.13-2.47,1.65.65,2.01,2.11,3.77,3.22,5.63.46-4.01,6.12,1,6.39-3.72.09-1.48,1.6-.68,2.47-.41,4.03,1.25,3.14,4.05,2.1,6.88h.01c-1.48-.85-2.17.51-1.37,1.04,2.07,1.36,2.05,1.8.18,3.48-1.44,1.3-1.94,3.66-3.5,6.88,2.51-2.15,4.62-3.06,5.08-4.5,2.16-6.7,3.34-.59,4.27.43.62.68.32,3.58,1.8,1.74,2.01-2.5,3.38-1.42,5.06-.49,3.03,1.67,2.27-.39,2.89-2.21.92-2.7-3.59-4.63-.24-7.58.6,2.85,3.34,3.7,4.71,5.82-.1.18-.16.37-.19.58-.27,7.06,6.46,5.97,9.85,8.81.02-.67-.43-1.07-.43-1.46,0-1.44-2.29-2.16-1.87-2.58,1.15-1.14,2.99-1.92,4.61-1.2,1.51.67,2.85,1.12,4.66-.05-3.45,4.95-6.54,9.38-9.63,13.81,2.96-1.55,5.55-3.27,6.44-6.2,2.73.65-1.73,4.9,2.75,4.43.84.58,1.69,1.15,2.53,1.73-4.24,2.82,5.31,2.45,1.21,5.24.75.63,1.89.72,2.23.03,2.06-4.14,2.72-.6,3.39.68.72,1.37.47,3.18,1.86,4.72.12-4.52-1.28-7.94-4.78-10.39-.3-2.25-.61-4.5-.93-6.91,1.4.07,2.78-.17,3.91.26,3.66,1.37,1.92-1.01,1.73-2.34.35-.73.71-1.45,1.06-2.18,2.86-1.88,2.54.32,2.8,2.08.45,2.94,2.08,4.17,4.89,2.6.98-.55,1.77-.85,2.69-.45,1.19,1.53-2.05,1.88-.79,3.41,2.55-.41,7.42,1.39,4-4.58-.63-1.1-.13-3.71,2.55-4.71,1.24,5.04,3.55,8.79,9.63,6.43-1.5,1.68-1.69,4.54-4.62,5.07,2.39.45,4.33,3.43,7.1.91.13-.12,1.9.94,1.85,1.33-.36,3.1,5.24,1.15,4.16,4.97-.09.32,2.15-1.62,3.67-.34-1.34,1.25-2.71,2.53-4.09,3.82,3.37-.38,6.67-.71,6.09-5.45,2.2,1.14,2.75,3.84,5.68,3.05,1.97-.53,1.11,1.91,1.3,3.04.49,2.87-1.02.51-1.64.64-.56.11-1.31.52-1.5,1-.39.93-.12,1.4,1.18,1.33,2.69-.13,1.73,2,1.26,3.54,2.22-.33.92-3.87,3.2-2.76,1.36.67.5,2.59-.48,3.52-1.3,1.23-.43,2.69-.64,4.22-3.29-.95-3.88-4.04-6.26-7.5.22,3.24-3.96,4.4.74,6.92,4.54,2.44,6.49,7.95,7.93,12.75.6,1.99-3.73,1.82-5.54,3.2-.73.56-2.26-.6-3.35.3,1.84,1.92,1.83,1.64,4.59,1.46,2.07-.14,4.27.33,6.24,1.01.78.27,1.86,1.47,1.54,2.91-.41,1.88-1.82,2.23-3.43,2.31-.5.32-1.01.64-1.51.96-4.8.52-4.82,3.88-4.46,7.48-1.39-.5-2.19-1.34-2.27-2.95-.17-3.44-4.14-1.2-5.21-3.37-.66,2.51-1.38,5-1.91,7.54-.09.44.59,1.48.99,1.52,2.86.32,1.49-2.95,3.07-3.78.28-.15.62-.19,1.15-.33.53,2.45,1.99,4.99-.87,6.9-.72.48-2.57-.6-2.06,1.54.38,1.6,2,.74,2.99,1.25,1.87.95.85-.97,1.2-1.6.73-1.3,1.5-2.6,2.45-3.74.82-.98,2.99,2.33,3.32-.88.23-2.29-3.13,0-3-2.28,1.99-2.14,5.26.11,7.23-2.12l-.17-.14c-.68,3.57-2.79,6.48-4.62,9.46-5.51,8.94-9.96,18.4-13.83,28.13-.71,1.79-1.27,2.7-3.56,2.99-2.66.34-4.62,2.75-8.12,1.9-3.02-.73-6.74-2.51-7.15-5.87-.25-2.08-1.15-2.21-2.61-1.04-3.42,2.74-7.31,5.07-10.15,8.31-4.57,5.21-10.3,6.77-16.72,6.98-11.84.38-19.87,6.45-22.3,17.83-1.93,9.02-.25,17.8,4.05,25.94,1.78,3.37,4.73,5.59,8.52,6.73,1.32.4,4.62-.64,2.81,3.29-.69,1.51,1.52.95,2.48.49,1.89-.9,3.51-1.55,4.98.82.99,1.6,2.83,1.04,4.15.44,1.81-.83,2.46.59,3.38,1.39,1.31,1.15-.17,1.63-.75,2.24-2.15,2.3-.72,2.77,1.43,2.84,1.18.04,2.37-.05,3.55-.07.8-.01,1.79-.29,1.87.99.05.78-.49,1.4-1.17,1.38-4.28-.14-8.5,2.99-12.85.22-.41-.26-1.51-.13-1.82.23-2.49,2.91-5.53,1.94-7.78.38-3.25-2.26-6.58-1.73-9.8-1.18-9.6,1.64-19.54-1.77-29,2.03-.9.36-1.02-1.01-.88-1.87,3.32-1.94,7.29-.34,10.72-5.08,3.26-4.5-.21-7.28.98-10.6.26-.74-1.43-1.47-2.41-1.21-1.25.33-.08,1.6-.28,1.91-1.73,2.55-.85,5.1-.74,7.8.05,1.39.66,5.57-3.9,4.43-1.65-.41-3.61.77-4.22,2.91Zm-56.38-132.65c-.92,1.5-2.58,2.88-.19,4.62,2.26,1.65,2.85,1.65,5.67-.92-3.57.28-3.56.27-4.67-3.34-.05-.16-.62-.17-.94-.25-1.18-.82-2.36-1.68-.29-2.8.68-.37,1.15-.79.67-1.51-.24-.36-1.07-.81-1.19-.7-4.6,3.89-8.87.69-13.23-.55.33-1.06.28-2.52,2.04-2.24,3.2.51,4.58-1.63,6.09-3.75-3.56-2.43-2.94,3.25-5.96,2.33.64-2.24,2.7-4.77-.86-7.56.99,5.81-6.26,5.23-6.68,11.85,3.34-6.84,3.72-.49,5.55-.77,1.73.7.57,4.69,2.93,3.61,2.5-1.14,3.25.35,4.86,1.12,1.85.88,3.97,2.09,6.21.85Zm16.72-50.31c.63-3.21-.98-4.61-4.04-4.89.2-.48.35-.95.58-1.39.5-.96,2.12-1.87.79-2.98-1.68-1.38-1.65.98-2.39,1.56-2.1,1.66-4.2,3.33-6.77,4.11-1,.3-2.79-1.34-2.47,1.41.3,2.48,1.88,2.19,3.56,1.85.35,1.41.28,3.21,2.63,2.65.86-.21,1.59-.24,1.97.88,1.73,5.14,3.69,6.29,8.87,5.25-2.32-1.17-5.05-1.46-6.8-3.86,3.29,1.31,5.31-6.6,9.39.37q-1.14-5.13-5.32-4.97Zm65.08,124.84c-.34-2.81-4.49-4.62-1.54-8.57.99-1.33-2.87-2.03-4.56-2.53-1.01-.3-.75,1.47-.98,2.31-.96,3.51,1.67,8.11.69,9.21-3.27,3.68-.76,8.46-3.48,11.81-.21.43-.7,1.08-.57,1.25,2.17,2.84,2.05,5.5-.38,8.11-.1.11.6.77.62,1.2.19,3.3.85,6.8.89,9.79.06,5.15,1.57,9.61,3.71,13.65,1.62,3.05,2.75,5.27.34,8.08,1.93.99,3.33-2.14,3.22-1.09-.45,4.48,2.32,2.01,4.16,2.91-7.79-16.11-8.43-18.61-7.73-30.57,2.18,5.46,2.85,11.66,7.36,16.01.17.16.06.64.05.97-.05,2.68,2.85,5.68,6.67,6.42-7.03-8.86-11.5-18.4-11.38-29.58-3.06.66.15,3.58-3.05,4.19-.61-4.4.83-8.37,1.88-12.38,1.97.49.39,2.78,2.15,3.84,1.94-5.57,2.66-11.44,6.29-16.56-2.04-.02-2.73,2.07-4.37,1.53Zm-48.42-104.3c-2.03-.43-.45-3.86-2.87-3.81-3.61,6.47.29,10.65,4.34,14.79.49-1.36.66-3.13-.59-3.69-4.77-2.14-2.68-4.76-.83-7.48q-.72,5.44,3.02,4.06c1.19-.44,1.57.39,1.59,1.21.05,1.86,1.57,2.51,2.66,3.47,1.77,1.57,4.23.77,6.32,1.39.55.16,3.03-2.3,2.04-4.46-1.36-2.97-1.66-5.92-1.38-9.19.14-1.67-3.13-2.38-2.75-4.79-2.11,1.54-3.25-2.08-5.3-1.2.91,7.1,2.85,9.08,6.7,6.22-.64,2.04-1.14,3.65-1.59,5.1-1.21.21-1.49-.46-1.95-.94q-5.03-5.29-9.42-.68Zm50.93,20.37c1.04.47,2.04,1.04,3.12,1.39,2.35.77,3.51-.21,2.04-2.3-3.22-4.56-.44-4.63,3.08-4.04-.67-2.81-4.9-.08-4.62-3.68l-.17.2c.76-.53,1.78,1.58,2.87-.88.78-1.78-2.26-4.19,1.44-5.4,3.34-1.09,3.15-1.7.3-4.56.04,2.15-4.63,4.48-7.13,3.56-4.45-1.64-5.66-1.02-6.88,3.38-.22.8,0,2.22-1.79,1.98-.84-1.12.17-3.51-2.23-3.68-.66,2.69,1.46,4.68,2.02,7.1.03.13,1.37,3.45,1.49,3.47,2.9.32-.63-2.84,1.81-2.89.54,1.42,3.26,2.02,2.69,3.63-1.03,2.9-1.84,4.16,1.72,1.5.5-.37.82.63.25,1.23-.19,1.69-1.56,2.44-2.68,3.38-1.61,1.35-.75,2.62.16,3.84.13.18.58.12,1.22.23-.26-.95-.5-1.78-.74-2.65,1.71-.9,3.28,2.19,4.55.42,1.47-2.05-1.88-2.21-2.09-3.8-.07-.49-.28-.96-.42-1.44Zm40.02,1.76c-3.11-.59-1.81,2.53-3,3.57-.66.57-1.23,1.5-.42,2.1.52.39,2.06.38,2.33-.01,2.05-2.98,3.68-.95,5.72.01,1.22.57,4.55,2.04,2.88-2.17-.38-.97.04-1.6,1.15-1.61,1.06,0,1.44.56,1.4,1.59-.12,3.39,2.05,5.99,3.09,9.32,1.16-1.32,2.35-3.57,1.83-3.81-6.49-2.96.72-4.68.33-5.98-.42,2.77,2.99,3.72,4.97,5.61.36.34,1.92-.35,1.57-1.32-1.22-3.43-1.35-5.45,3.2-3.37.7.32,1.79.04,1.57-1.22-.66-3.71,4.21-4.8,3.89-8.32-2.44.24-4.75,2.01-7.4-.18-.94-.78.91,2.47-1.02,2-1.45-.35-.43-2.14-.87-3.11-.68-1.51-1.66-1.8-2.9-.23-1,1.27-2.23,2.31-4.2,1.34-2.91-1.43,1.19-2.94.08-4.26-1.71-.44-2.18,1.09-3.22,1.49-2.23.85-2.3-1.81-3.7-2.42-.37-.16-.24-1.64.53-1.44,3.96,1.02,4.35-2.03,5.39-4.42.1-.22.42-.34.76-.59.04.58.15,1.07.09,1.55-.7,5.54,1.51,7.65,6.88,6.56,1.27-.26,1.52-1.22,1.52-2.27,0-1.61-.53-1.3-1.78-.77-2.25.96-1.94-1.67-1.54-1.98,3.12-2.44-.65-4.63.07-7.01-.34,1.91-.83,3.56-2.67,5.1.47-3.26-1.54-3.91-3.86-4.76-3.07-1.12-2.1,1.85-3.14,2.71-2.26,1.89-3.9,4.67-7.32,4.7-2.45.02-3.59,1.06-2.55,3.46,1.44,3.31-1.35,5.08-2.98,6.51-1.64,1.45-2.66-1.66-4.17-2.41-.05,3.34-.06,3.44,2.56,3.72,1.96.21,4.12-.31,5.21,2.04l-.27.28Zm-48.04,58.97c-.5,1.61-.53,2.97-1.23,3.72-1.54,1.65-1.04,2.4.34,3.98,2.38,2.72,3.47-.03,5.06-.66,2.49-.98.97-2.04.21-3.4-6.99-12.43-5.06-29.19,4.47-40.21,2.47-2.86,4.24-6.04,4.08-10.97-6.47,14.03-9.74,13.47-14.55,9.06-.06,2.64,1.78,4.53,1.78,6.92-3.29-2.5-2.42-7.25-5.31-9.97-.84.9-.5,1.7-.39,2.54.74,5.97,8,11.57,1.05,17.99-.08.07.03.33.03.49,0,2.9-.8,6.77-1.96,9.49-.2.46-.37,1.14.27,1.15,5.59.11.77,2.83,1.06,4.24,1.55,1.08,1.95-2.59,3.76-.8,1.97,1.94-1.01,2.41-.94,3.75.07,1.37-.93,2.06-1.79,2.87-.21.2-.03.82-.03,1.49,1.32-.54,2.4-.98,4.11-1.68Zm-51.86-37.42c.74,1.62.3,3.42,3.16,4.13,5.13,1.26,8.21,6.74,13.37,8.33,3.26,1,5.04,3.59,6.07,5.98.68,1.6,1.13,3.29,2.47,4.38,2.72,2.22,4.48,5.17,5.51,8.29,1.11,3.35,3.53,5.14,5.98,7.11.64.52,1.29,1.24,2.14.4.67-.68.7-1.54.19-2.31-1.48-2.25-2.97-4.49-4.54-6.68-7.49-10.5-16.14-20.31-19.1-33.43-.58-2.56-2.49-4.53-4.79-6.25,4.12,5.89,2.08,12.15,1.79,18.42-1.85-6.2-9.75-3.35-12.27-8.35Zm20.63,49.14s.1,0,.15,0c0,.34,0,.67,0,1.01.02,8.13,1.09,9.58,8.43,12.51,2.02.81,2.44-.04,2.55-1.61.52-7.59,1.13-15.2-5.14-21.19-.88-.84-1.51-1.76-2.91-1.5-1.56.29-2.42,1.37-2.58,2.74-.31,2.66-.34,5.36-.49,8.04Zm-8.98-1.48c-.61-3.13-1.27-6.24-1.82-9.36-.33-1.9-.87-3.96-2.76-4.46-1.99-.52-2.41,1.87-3.5,3.01-.56.59-1.23,1.1-1.92,1.52-4.45,2.7-5.46,8.02-1.98,11.74,2.55,2.73,6.1,3.9,9.64,3.13,2.49-.54,1.67-3.59,2.34-5.58Zm68.82-2.59c8.3.48,13.13-4.91,18.15-9.87,1.62-1.6.27-2.49-1.16-2.65-2.71-.31-5.65.92-8.05-1.51-.26-.26-1.88.5-2.63,1.08-3.19,2.48-6.2,5.16-8.29,8.69-.66,1.12-2.01,2.18-1.39,3.58.73,1.64,2.44.33,3.36.67Zm-52.15,21.23c-5.62-3.23-10.66-7.39-16.82-8.66-11.86-2.44-18.17-9.88-21.11-21.04-.81-3.07-2.11-6.01-3.1-9.04-.38-1.16-.79-2.18-2.7-2.48,2.16,5.81,4.43,11.27,6.45,16.82,2.91,8,7.45,13.57,15.68,16.06,6.27,1.9,11.52,5.91,17.17,9.02,2.36,1.3,2.98.28,4.43-.68Zm51.54-40.32c-.46-.16-.91-.32-1.37-.48-.93,2.63-1.81,5.29-2.81,7.9-.83,2.17-1.37,4.72-2.9,6.23-.73.73-3.27.2-1.87,2.3,1.38,2.06.97,6.04,6.04,5.81-3.72-2.38-3.21-4.68-1.91-7.65,1.98-4.53,3.25-9.38,4.82-14.09Zm-56.02-13c.46-4.01,4.99-5.29,6.14-8.81-2.19-.36-2.13,2.39-3.91,2.05-1.39-2.15,3.05-3.73.7-6.23q-2.48,4.06-5.45-.25c.43,5.27,2.26,9.02,2.52,13.23Zm-47,33.46c1.6,2.15,3.07,3.59,5.89,2.42,1.82-.75,3.28-1.54,3.54-3.76.42-3.63-2.91,1.33-3.66-1.73-.5-2.06-2.67-.69-2.33,1.28.66,3.88-2.05,1.19-3.43,1.79Zm88.05.61c2.76,2.77.82-3.52,2.56-3.1,1.54.37,2.44.61,1.76-1.31-.38-1.07-1.32-1.19-2.39-.38-2.05,1.56-4.23,2.21-7,1.84-1.9-.26-3.36,1.85-4.88,3.08-.55.44-.79,1.18-.12,1.72.64.52,1.83.94,2.09.06,1.15-3.88,3.88-3.23,7.98-1.91Zm39.66-14.13c4.73.51,7.76.12,9.45-2.73.74-1.25-1.52-2.45-2.42-2.69-4-1.06-3.61,3.31-7.03,5.42Zm34.47-50.56c-1.5-4.17-1.9-8.08-5.9-10.04-1.7,5.19,1.34,7.61,5.9,10.04Zm-73.52,55.57c-1.7-1.03-3.44.79-4.54-.71-1.07-1.46-2.46-2.46-3.3-.42-.66,1.6.1,3.76,2.27,4.38,2.67.76,4.53-.28,5.57-3.25Zm-71.15,17.65c-4.65-4.46-11.25-5.81-16.59-3.18,6.21-.4,11.03,1,16.59,3.18Zm90.22-33.72c-2.39,3.09-3.56,6.81-3.25,10.36,4.69-5.01,5.18-6.58,3.25-10.36Zm-35.96-44.22c.12,3.2,3.17,2.47,4.66,3.9,1.05,1.01,1.3-1.05,1.23-1.18-.89-1.62-.52-4.18-2.74-4.77-1.64-.44-2.41,1.29-3.15,2.05Zm-70.43-5.97c-.53-.95-.77-2.04-1.35-2.27-1.24-.49-1.05.45-1.09,1.38-.07,1.92-.55,1.38-1.95.56-2.57-1.52-.18,2.75-2.33,2.51-.19-.02-.09,2.62.72,2.2,2.15-1.11,4.48-2.29,6.01-4.38Zm120.91-21.42c.36-.89,1.9-1.92-.32-2.48-.61-.15-1.32-.75-1.79-.04-.69,1.05-.41,2.13.36,3.1.5.63,1.16,1.2.6,2.17-.32.56-2.46,1-.32,1.83,1.37.53,2.31-.34,2.26-1.78-.03-.94-.51-1.87-.8-2.81Zm-59.29,149.42c5.31-3.5,5.55-4.2,2.27-7.9,4.15,4.31-4.27,4.32-2.27,7.9Zm12.48-138.56c-2.29-2.87-5.5-4.88-6.39-8.73q.81,5.9,6.39,8.73Zm21.26,67.62c2.12-2.65.18-4.25-.64-5.84-1.04-2,.19-3.92.21-6.97-2.35,5.65-2.33,6.01.44,12.81Zm67.4-40.21c1.06-1.05.05-3.61,2.3-3.89-.49-1.15-1.51-1.27-2.53-1.14-1.22.15-3.22-.25-2.93,1.69.19,1.27,1.25,2.7,3.15,3.34Z"/>
  <path class="cls-1" d="m710.48,451.26c-.07,1.31-.94,3.46,1.85,1.81,2.14-1.27,4.38-1.48,6.61-.45.88-1.67-1.86-2.15-.63-3.79.34.08.89.06,1.17.32,1.34,1.24,3.03,2.35,3.8,3.9,1.83,3.69,3,2.28,4.24-.91,1.74,1.96-.24,6.16,3.89,5.44,1.79.05,3.58.09,5.38.14,2.13,1.28,4.42,1.8,6.68.65,1.34-.68,2.21-.34,3.12.5,3.2,2.96,4.35,1.1,4.97-2.07,0,0-.23-.16-.23-.16,1.44,3.34,5.92-.48,7.25,3.09,2.82-2.19,3.66,1.6,4.95,1.76,6.79.8,3.14,5.36,3.92,8.52.94,3.82-.41,4.1-3.43,4.03-.56-.01-2.67,1.89.3,2.37-.36,3.43-3.77,4.75-4.86,8.29-1.65-5.54-4.68-6.46-8.55-3.16-1.02.87-3.53,1.4-1.69,3.72,1.3,1.65,3.46,2.63,4.74,1.22,2.76-3.04,4.33-.39,6.32.65-1.44.12-3.1-.36-4.02,1.29-.15.28-.08.89.13,1.13,1.02,1.19,1.19,1.3.32,2.17-1.52,1.52.13,1.74.74,2.59,1.01,1.39,1.03.21,1.82-.17,2.9-1.38,2.56-4.3,3.17-6.48.5-1.78-1.26-1.18-2.27-.48.29-1.82,1.75-2.59,2.96-3.74,1.92-1.84,4.22-4.06,1.14-6.91,6.6-1.54,9.19-.25,10.33,6.44,1,5.84,3.1,2.93,5.61,1.41,1.09-.66,1.77-3.73,3.85-1.31,2.8,3.24,3.19,7.95.77,9.36-.87.51-2.53-.23-2.47,1.63.01.33.67.97.91.91,1.28-.29,3.35-.46,3.61-1.21.64-1.8,1.35-3.58,3.21-2.27,2.08,1.46-.75,2.68-.98,4.01-.4,2.28-2.47,4.27-.98,7.03.91,1.69-2.73,5.82-5.62,7.13,1.74,0,3.01,3.25,5.15.48,2.22,2.99,8.23,2.54,7.46,8.2-.19,1.37.77,1.69,1.59,2.24,1.15.76,2.55,1.58,1.12,3.12-.89.95-1.57,2.84-3.64,1.39-1.14-.8-2.54-.28-4.06.11.73,2.07,5.37,4.16-.11,5.84-1.92.59,1.57,2.62-.5,3.75-1.51.83,2.05,2.95-.64,3.49-1.94.38-1.69-2.29-3.52-3.01,1.23,4.4-.02,7.58-4.1,9.43-1.8.82-3.37.84-5.08-.39-2.26-1.63-4.35-.23-6.41,1.77-2.54,2.46-6.1,3.83-8.37,6.8-.27.35-1.73.39-1.9.12-3.54-5.82-9.21.32-13.42-2.41-1.2-.77-3.68.75-3.56-2.47.06-1.38-1.4-1.02-2.37-.71-18.73,5.88-36.59,13.37-51.03,27.31-6.88,6.65-9.86,14.43-7.33,23.89,1.1,4.12,2.74,7.81,8.06,7.44,1.08-.08,2.03.34,2.67,1.19,1.69,2.24,3.61,2.86,6.1,1.23,1.37-.89,2.41-1.21,2.1,1.29-.14,1.08,1.04.98,1.84.34,1.17-.94,2.15-2.19,3.8-2.42.41,2.27-2.36,7.98,4.07,3.79.38-.25,3.79,2.95,4.3,3.82.63,1.06,1.76.95,2.72.85,2.77-.3,5.25.64,7.76,2.03-35.44,2.76-70.86.81-106.39-.6,2.78-1.28,5.63-2.05,8.14-3.6,2.47-1.53,4.8-3.54,8.1-2.05.24.11,1.45-1.01,1.55-1.67.29-1.95-2.31-1.63-2.91-3.51,3.39-.66,4.96,3.16,7.99,3,.81-1.62-1.66-2.47-1-4.03,6.64.94,10.68-2.21,12.41-8.85,3.82-14.71-.24-25.94-12.32-35.64-7.28-5.84-14.23-11.36-23.49-12.88-4.3-.71-6.44-5.47-10.85-5.36-1.49,1.7,1.43,2.3.44,3.7-1.42,1.14-2.36-1.06-4.07-.33,2.19,5.16-2.61,4.83-5.33,5.88-2.64,1.02-5.27.53-8.12-.74-1.88-.84-2.68-1.8-3.11-3.32-3.79-13.38-10.44-25.46-16.9-37.64-1.32-2.5-1.79-5.85-3.75-7.52-2.9-2.47,4.35-5.76-.92-6.9-3.05-.66-4.91-2.3-6.74-4.54,5.2-1.39,1.87-5.1,1.41-7.02-.35-1.47-1.41-3.61-2.61-5.17-1.15-1.5-2-2.67.47-3.93,1.64-.84,1.9-3.8,5.11-2.06,2.12,1.15,5.11.74,7.72.9,1.42.09,3.14-.49,3.14-1.87,0-1.89-1.38-1.78-2.87-.94-.61.35-1.29-.5-1.12-1.22.65-2.83-1.33-4.58-2.74-6.42-1.1-1.44-1.01-2.75.13-3.48,1.41-.9,3.83-.8,1.82-3.42-.08-.1.59-1.07.76-1.03,4.94,1.23,4.39-3.27,6.13-5.57,2.91-3.83,6.07-.42,8.61.82,1.34.65,2.05.91,3.38.52,3.09-.92-.96-1.25-.16-2.39.71-1.01,1.14-1.93,2.2-2.88,3.51-3.15,9.1-4.17,10.29-9.8.32-1.53,2.16-1.31,3.26-1.92,1.58-.88,2.23,3.11,4.51.3.91-1.12,1.39-1.35.84-2.58,3.8.82,2.12-2.2,2.42-4.14,2.29.7,4.58,2.56,6.22-.55.33-.63,1.5-.7,2.32-.24,2.88,1.63,7.92-.58,8.67,4.72.21,1.5.84,2.66,2.05,1.85,5.13-3.46,7.01,2.77,10.93,3.05-.08-1.28-2.23-3.35,1.28-4.25.96-.25,3.09-3.8-.9-4.61-1.34-.27-2.47-.74-2.18-2.16.38-1.85,1.47-.9,2.65-.51,2.56.84,4.01-2.79,4.16-3.17,1.5-3.72,1.28-3.81,5.95-2.42,1.11-1.47-2.08-3.03.04-4.43,2.11-1.39,2.21,1.72,3.59,1.66,1.27-.05,2.71,2.28,3.83-.19.34-.76,1.45-.96,1.47-.46.2,5.28,5.48,1.53,7.18,4.13.69,1.05,1.59.47,1.71-.49.32-2.56,5.31-1.73,3.91-5.5-.05-.14.9-.92,1.08-.83,2.89,1.58,5.74,3.26,8.59,4.91-1.08,1.85,3.04,3.86-.33,5.91-.96.59.74,1.26,1.68,1.55,1.57.48,1.94-1.89,3.51-1.35,1.01,1.2-1.12,2.55.17,3.69.35.31.76.68,1.19.75.48.08.97-.15.78-.89-.79-2.94,2.08-3.98,3.37-3.9,1.86.11,2.12,2.8,2.83,4.49,1.93.16,1.91-1.75,2.93-2.49,1.89-1.39,3.63-1.88,3.44,1.33-.09,1.63.67,2.05,1.73,2.59-1.15,1.69,4.02,4.3-.83,5.5-.78.19-1.71,1.27-1.26,1.9,1.24,1.74,2.89,3.22,4.99,3.87,1.69.52,5.05-2.17,4.54,2.47,0,.05.92.34,1.36.26.87-.15.77-.97.8-1.61.12-2.75-.88-6.09,4.3-4.72,2.18.58.81-2.4,1.58-3.52.56-.81.66-2.76.87-2.53,1.86,2.04,5.16-1.02,6.25,1.61.49,1.19,2.47,2.27,1.26,3.97-.45.64-1.3,2.18-2.03.29-.87-2.23-3.25-.95-4.44-3.73-.13,3.26,2.22,3.41,2.29,5,.02.6-.03,1.55-.4,1.77-3.36,2-3.38,1.96-4.21,5.52-2.36.5.4-4-2.56-2.69-2,.88-1.32,2.15-1.03,4.13.47,3.25-3.69,2.26-5.65,3.49-.36-2.97-4.9-3.76-3.22-7.89-4.19,2.75-4.04,2.61-2.5,4.21,2.06,2.14,4.11,4.52.17,6.76,3.47,1.43,3.32-2.89,5.7-3.21Zm-55.52,57c2.87.82,5.27,3.52,8.68,2.11-1.03,1.58-3.93,1.8-2.86,4.95,1.25,3.72,1.49,7.69,1.36,11.66-.03.92.06,2.37,2.22,2.41-2.21-13,4.91-24.33,5.93-36.69-1.46,6.28-4.11,12.04-6.79,17.8-4.9-2.74-10.3-4.86-12.74-10.72.05,3.79,2.75,5.94,4.39,8.67-2.94-.14-3.97-3.7-7.59-4.25,3.44,3.87,6.64,6.76,11.61,8.81-1.82-2.06-3.02-3.41-4.22-4.76Zm-24.16-48.56c-1.24-.12-2.48-.24-3.69-.36,0,4.29,4.91,5.68,5.78,9.64,1.51-.62,2.31-3.73,5.54-2.47-1.92-3.6-9.78.22-7.75-6.94,1.99-1.05,1.85,2.47,4.21,1.79-3.06-3.9-.34-4.6,2.54-5.21-1.15,3.02.83,4.08,2.84,5.2,1.6-1.46-.69-2.22-.22-4.26,2.11,3.45,6.38-1.29,7.67,3.23,2.31-.67.13-2.86,1.15-4.07,6.94,4.69,9.18,4.38,11.27-3.12-3.71,6.55-6.1-4.58-9.27,1.72-.89-1.53.27-5.65-1.85-3.77-3.85,3.4-5.71,1.97-8.27-.79-.99-1.07-1.99-.04-2.52.62-.47.58-1.84,1.56-.64,2.29.63.39,1.73.11,1.09,1.24-.33.59-.03,1.82-1.31,1.79-2.07-.16-1.59-3.86-4.69-3.03-3.82,1.01-.06,3.68-1.47,5.11-.3.3-.27.92-.4,1.4Zm143.59,33.2c-2.61-2.83-5.9-1.27-8.94-1.37.3.89-1.53.66-.9,1.88.68,1.32,1.12,3.25-.44,3.86-2.04.81-.42-2.84-2.56-2.7-2.45,5.88,4.9,3.58,5.22,7.51,2.89-4.58-.1-7.44-1.31-10.6,3.21,1.43,4.83,5.15,8.45,6.17.54-2.27-2.64-2.22-2.16-4.23.89-.42,2.08.3,2.8-.74-.05,2.7,3.73,5.86-1.7,7.8,2.56.96,4.09.88,4.49-1.4.27-1.55.85-2.84,1.97-3.94.66-.65,2.15-1.28,1.48-2.24-.77-1.1-2.17-2.15-3.45-2.39-1.31-.24-.81,1.42-1.11,2.27-.44,1.23-1.17.75-1.84.12Zm-172.62-2.07c1.83.54,3.75,3.47,5.41.8.85-1.37-1.07-3.3-2.85-4.26-.55-.3-.88-1.01-1.43-1.33-2.86-1.65-4.22-.95-3.73,2.48-.77-.26-1.6-.41-2.29-.8-.96-.54,1.09-2.87-1.09-2.5-2.46.42.31,2.56-.93,3.87-.94-.82-1.79-1.82-2.87-2.37-.4-.2-1.42.59-2.02,1.09-.39.32-.28.87.3,1.11,3.68,1.48,7.33,3.14,11.41,3.08.49,0,.41-.74.08-1.17Zm17.32-48.59c2.28-.44,3.03,1.05,3.46,2.82.69,2.86,1.6,5.76-.28,8.92,1.15-2.16,5.33-1.63,4.56-2.55-1.61-1.92-.74-4.35-2.34-5.99-.87-.89-1.16-2.1,1.31-2.95-1.22,4.01.7,3.88,3.46,3.24,1.9-.44,4.11-.39,4.44,2.91-.8-1.89,4.44-2.76.36-4.85-.39-.2.25-3.21,2.5-2.95.92.1,1.95,1.13,2.18-.59.19-1.39-.98-1.65-2-1.68-2.08-.07-3.52-1.08-4.42-2.61-3.38,2.41,2.24,2.72.82,5.15-2.17-1.48-4.27-2.32-6.73-.04-1.11,1.03-3.36,1.01-5.13-.41-2.06-1.65-2.64-.51-2.19,1.62-.73-1.73-2.91-1.23-4.06-2.34,1.32-1.88,5.04.03,4.76-2.6-.27-2.61-2.76,1.29-4.02-.4-.2-.26-.25-.76-.49-.85-5.25-1.98-4.17,3.47-6.2,5.3-.6.54-.65,1.62-.27,1.63,1.38.04,2.35,1.46,4.05.71,1.92-.85,4.15-1.02,6.24-1.48Zm65.4,126.84c-1.94,2.16-2.36,6.91-7.55,3.9,2.04,2.19,2.22,4.72.95,6.36-4.18,5.36-3.14,11.76-4.2,17.73-3.16.02-4.38,1.47-4.09,4.71.2,2.23,2.21,4.84-.86,6.79-.43.27-.23,1.6.66,1.28,2.5-.9,2.59-.39.82,1.25-1.18,1.09-1.16,1.71.16,2.65.87.61,1.12,2.4,2.65,1.63,1.14-.57.33-1.81.46-2.75.4-2.97-.85-5.66-1.51-8.4-.69-2.87-.44-5.18,1.58-7.29,2.14-.1,1.8,1.39,1.87,2.76.15,3,.89,7.22,3.3,7.6,4.71.74,2.75,7.74,7.93,7.34.12,0,1.3,2.47,3.07,2.26.78-.1,1.7-.55,1.75-1.54.08-1.7-1.59-2.02-2.54-2.89-.74-.68-1.57-1.3-2.44-1.8-8.08-4.65-10.55-12.04-9.38-20.68,1.13-8.37,4.32-15.87,11.53-21.08,4.32-3.12,8.4-6.57,12.78-9.59,1.83-1.26.23-2.27.35-3.36,2.06,1.53,4.06,3.62,6.68.85-1.23-.9-2.11,1.32-3.35.12.4-1.7,3.26-1.49,3.07-4.27-2.33,1.21-4.62,1.69-6.33,3.42-3.14-.69-4.32-2.58-4.15-5.83.24-4.54.06-9.11.06-13.66-.81,2.09-1.66,4.3-1.57,6.48.19,4.85-1.8,9.8,1.44,14.6,1.4,2.08-2.39,3.39-3.4,3.52-3.76.5-3.77.15-2.64,2.56.29.62.08,1.26-.63,1.66-1.01.56-1.99,1.19-2.98,1.79-.36-1.55-.72-3.09-1.16-4.94-2.33,2.65-3.94,5.26-6.85,6.45.77,1.29-2.48,1.69-.73,3.11,1.21.98,1.81-.23,2.28-1.01.7-1.17,2.01-1.08,2.96-1.7Zm48.95-85.87c-.9-.73-2.64-2.01-2.57-2.11,3.27-5-2.2-4.57-3.79-5.04-2.21-.66-1.97-5.67-5.61-3.02-.21-.41-.7-.96-.58-1.22.82-1.68,1.06-2.73-1.46-2.97-1.67-.16-2.99.55-3.76,1.45-1.64,1.92,1.92,1.73,1.62,3.81-4.18-3.09-3.14.69-4.06,2.87,1.88-.11,2.41-3.38,3.79-1.76,1.76,2.07-1.38,1.98-2.14,2.94-.75.93-.04,2.49-1.7,2.99-5.49-3.2-.39-6.51.22-9.65-2.11-1.13-3.11,1.93-5.09,1.11.84-1.78,3.31-2.04,3.45-3.85-2.19-3.32-2.76,2.21-4.98.54-3.91-2.94-3.32,3.88-6.34,3.13,1.49.72-.62,4.24,2.11,3.42,2.61-.79,2.69.24,2.4,1.97-.18,1.12.1,1.79,1.09,1.71,1.06-.08.79-1.32,1.08-2.03.5-1.25-2.14-1.82,0-4.4,1.69,5.01,2.36,10.29,7.59,12.05.69-1.8,1.51-3.94,2.42-6.33,2.04,1.89,3.93,3.31,5.4,5.08,1.41,1.7,4.34,1.16,5.02,3.71,3.05-3.69,5.89-3.13,8.99.17-1.08-1.57-2.16-3.14-3.23-4.71,2.55-.63,5.85.78,7.72-2.61-2.15-.13-3.25,2.31-5.3,1.38-.06-1.95,2.71-1.49,2.59-3.59-3.79-.43-4.88,1.7-4.87,4.97Zm-47.74-46.87c1.77.56,3.55,1.11,5.43,1.7-1.65,2.97-5.45,4.08-4.67,9.22,1.16-2.46,2.22-3.46,4.36-3.34-1.72,2.21,3.87,5.71-1.8,7.19-.12.03-.21,1.08.03,1.41.71,1.02.93-.29,1.42-.43,1.83-.54,3.69-1.47,5.14,1.09-3.48,1.4-7.06,3.59-10.04,1.13-1.38-1.14-2.15-2.65-4.24-2.67-.52,0-.95-1.03-1.69-.36-.55.5-.89,1.38-.34,1.76,3.21,2.21,3.2,5.4,3.02,8.75-.02.46.82.96,1.24,1.41,1.6-.77-1.51-4.47,1.76-3.21,2.46.94,2.12.59,2.2-1.38.06-1.51,1.18-2.36,2.88-1.66q-1.71,3.61,3.54,4.28c-4.33,1.29.5,4.2-2.84,5.79,3.78.56,4.39-3.76,7.36-3.28l2.98-2.23c.16-2.29-2.45-4.25-4.51-3.3-.69.32-1.35.58-1.7-.13-.25-.5-.26-1.6.05-1.82,4.28-2.99,1.23-4.7-1.67-6.67,1.83-.76,3.15-1.66,4.56-1.82,3.99-.48,5.16-1.93,2.64-5.52-.58-.84-.54-2.24-.48-3.36.05-.94.24-1.68-1.03-1.68-1.38,0-1.84.82-1.37,1.98,1.09,2.69.51,2.56-1.49,1.08-1.24-.92-1.64.61-2.28,1.26-.63.64-.94,1.95-2.26.9-1.54-1.23-.25-2.52.16-3.51.55-1.29,2.99-.35,3.47-2.19-1.39-1.22-3.29.74-4.83-1.06,2.88-.65,4.07-2.99,5.65-4.86-.94,3.11.95,3.9,3.4,3.82,1.25-.04,3.08-.5,2.3-2.4-1-2.42-2.91-2.31-4.91-1.03-.17.11-.59-.19-.89-.3-1.61-.63-3.25-1.29-4.17.96-.36.88-.85,1.74-1.58.53-1.32-2.19-3.95-2.06-5.74-3.79v3.78c-2.51-.85-3-6.11-5.51-4.51-4.1,2.61-3.86-1.42-6.25-2.06,3.1-1.9,7.4,2.06,8.45-2.47.99-4.26-4.63-1.83-5.32-4.58-1.42,1.28-.84,4.34-3.17,3.95-2.91-.49-4.44.22-4.34,3.18.08,2.21-1.74,3.46-4,2.48-1.01-.44-1.74-.95-2.62.02,2.85,2.16,2.86,2.28.32,4.3,1.36.83,3.75,1.39,4.16.61,3.38-6.52,3.29,1.76,5.57.99,1.48-.89,1.49-4.8,3.94-3.98,2.93.98,2.63,4.33,2.54,7.05-.04,1.14-.42,2.4,1.1,2.84.93-.26.77-.97.96-1.58.48-1.49-1.45-4.44,1.49-4.24,2.09.14,1.96,3.36,1.38,4.72-.99,2.34.15,2.53,2.55,3.24-1.67-2.33.04-4.08-.29-6.02Zm-3.76,110.04c-.77-4.04-5.12-2.5-6.33-4.55-1.43-2.44-2.11-1.37-3.24-.21-5.17,5.26-4.04,20.12,1.73,24.69,2.27,1.8,3.95,1.45,5.51-.69,1.88-2.58,3.11-6.25,5.62-7.62,8.29-4.51,8.02-12.54,9.39-19.99.14-.75.95-2.32-.66-2.27-.8.03-3.08-.74-2.65,1.85.42,2.49-1.86,4.21-3.3,4.22-3.2.01-4.49,1.73-6.07,4.57Zm-29.49-66.02c4.48,1.07,6.54-2.42,8.51-4.82,1.01-1.24-2.58-.46-3.55-1.75,2.65-1.88,5.04-3.12,7.78-.09-3.51-6.58,5.09-4.24,4.76-8.01,3.89,2.97-3.25,6.53.9,9.4,1.84-.35,2.12-3.08,4.42-2.87-.09,1.86-2.27,3.04-1.32,5.33,1.5-.66,2.73-1.87,4.55-1.72,1.01.09,1.98-1.79,1.31-2.07-4-1.69.27-2.75.38-3.16-.85-2.89-3.83.66-3.49-1.96.46-3.58.55-5.32-3.38-2.6-.16-3.12-4.3-2.09-4.62-3.78-.47-2.47-1.06-1.75-2.11-.74-.83.79-1.7,1.49-2.42,2.47-1.46,1.98-4.16,1.99-6.27,2.1-1.89.1.49-2.26-.83-3.25-1.19.41-1.86,2.67-3.94.93-1.38-1.15-7.25,2.3-6.68,3.76,1.6,4.12-1.29,5.24-3.84,6.71-1.54.89-.28,1.66.06,2.4.48,1.03,1.33,1.18,1.67.01,1.07-3.78,5.08-.7,6.93-2.95.2-.24,3.99.51,2.21,3.49-.56.93-.68,2.11-1.01,3.18Zm.79,54.89c-1.14-1.96,2.17-9.66-6.15-4.91-1.14.65-1-.89-1.33-1.52-.31-.59-.99-1.38-1.39-.56-1.87,3.87-6.37,5.83-7.35,10.34-.98,4.51,1.21,8.04,6.23,10.13,4.63,1.93,6.42-1.24,8.18-4.4,1.41-2.53,2.16-5.28,1.81-9.08Zm19.33,38.91c-.56-2.17-.52-3.96-1.93-5.69-6.61-8.13-6.53-21.05-.31-29.58,3.47-4.76,7.56-9.14,10.46-15.64-3.3,1.91-3.97,4.49-5.48,6.37-2.14,2.67-4.04,5.83-7.62,6.5-3.76.71-4.96,2.26-3.5,5.88.69,1.72,1.21,4.55-.35,5.06-3.14,1.03-5.22,1.53-2.05,4.86.32.34.42,1-.39.98-8.68-.29,2.16,5.92-2.34,7.01,4.83-.5,3.17,4.76,6.12,6.08-1.72,1.04-2.14-.19-2.96-.6-.92-.46-.55-2.88-2.15-1.71-1.97,1.44-.12,2.29.77,3.47.86,1.13,1.86,2.5,2.69,3.31,2.59,2.53,4.96,5.63,8.7,7.45.24-2.71-2.85-2.51-2.53-4.59,1.27-.91,1.51.93,2.88.84Zm59.43-63.65c1.34-.62.99-1.13.8-1.53-.8-1.74.58-2.62,1.62-3.22.5-.29,1.89.34,2.49.94,1.51,1.5-.62,1.6-1.04,2.4-.75,1.43-.23,1.01,1.12,1.08,2.17.11,4.31,1.48,6.38,2.5.45.23-2.31,1.21-.01,1.83,1.85.49,1.3-1.55,2.09-2.26.9-.8-.06-1.51-.93-1.66-1.07-.18-2.35.58-3.2-.78,2.64-.92,7.02-.32,4.87-5.48-.22-.53.21-.86.76-.95.65-.11,1.82,1.97,1.9-.29.05-1.35-1-1.39-2.17-.9-1.74.72-1.3.13-1.4-1.46-.19-3.03-4.32-4.3-5.97-1.97-1.22,1.72-1.7,2.23-2.75.2-.96-1.86-2.23-1.35-3.79-.87-2.49.76-.04,1.73-.24,2.56-.19.78-.07,2.08-.51,2.3-5.18,2.57-1.56,4.88-.04,7.57Zm29.08-44.57c-2.16-2.15-3.85-3.51-7.27-2.45-3.13.97-6.62,2.46-10.2.75-1.93-.92-3.09,1.24-4.13,2.07-1.12.9,1.76,1.2,1.73,2.11-.06,1.59,2.44,2.16,1.32,4.17-.36.64-3.28-.58-1.17,1.44.96.91,2.78.35,2.77-.91,0-2.13.76-3.03,2.5-2.11,1.29.69,2.65,2.09,1.71,4.04-.42.86-1.25,1.64-.2,2.6,2.16-.67,2.26-3.69,2.03-4.12-3.56-6.43,2.48-2.38,3.51-3.95.66,1.81-2.2,1.71-1.09,3.07,1.1,1.35,3.61-2.03,4.47,1.08.91-.78,1.6-2.09,1.2-2.93-1.39-2.97,1.38-3.5,2.82-4.86Zm-136.29,56.66c-.91.87-1.4,1.65-2.1,1.95-7.11,3.07-7.22,3.09-4.71,10.15.83,2.34,2.08,4.73,4.51,5.84,1.42.65,4.2,1.18,3.63-1.32-1.22-5.36,1.43-10.88-1.32-16.62Zm26.54-94.48c3.53-2.6,3.27,3.09,7.01,2.7-2.97-2.62-2.46-4.75.04-6.46,1.36-.92,3.52-2.09,1.76-3.6-1.18-1.01-4.37-1.77-5.45.85-1.07,2.61-7.68.11-5.03,5.71-.32-.09-.63-.17-.95-.26-2.24-.64-2.45.76-2.7,2.45-.25,1.7.67,2.17,1.94,2.07,2.04-.17,5,.12,5.89-1.05,1.44-1.9-2.5-.6-2.52-2.41Zm-64.97,26.16c2.52,2.4,3.55,4.51-.17,6.42-.92.47-2.08,1.86-1.47,3.47.57,1.49,1.84,1.63,3.23,1.92,4.31.88,5.42-4.77,10.55-3.37-2.65-2.48-3.97-1.1-5.37-.83-.66.13-1.39,1.44-2.01.05-.34-.76-.4-1.49.56-2.13,3.34-2.21,2.52-3.78-1-4.21-1.47-.18-1.81-2.17-4.33-1.32Zm118.64,88.01c-1.49,3.04-2.63,5.23-3.64,7.48-.58,1.3-.76,3.17,1.34,2.47,3.92-1.31,8.44-2.26,9.92-8.9-3.9,5.08-5.72,2.64-7.62-1.05Zm-91.26-11.51c.53,2.06.96,4.15,1.62,6.16,1.66,5.05,4.98,7.99,10.5,8.41,1.76.13,2.89-.37,2.78-1.86-.17-2.14-1.73-.71-2.67-.54-3.45.61-5.6-1.02-7.63-3.64-2.09-2.7-2.13-6.16-4.59-8.53Zm114.16,7.67c-3.16-.25-5.86-2.62-7.04-.97-1.62,2.27-1.86,5.62-.84,9.64,2.11-3.76,4.52-5.97,7.88-8.67Zm-60.79,44.32c2.36,4.92.35,9.9,5.08,12.72-1.75-3.77,2.27-9.4-5.08-12.72Zm22.16-71.63c11.72-4.12,13.17-5.13,15.63-10.89-2.93,6.35-11.07,4.84-15.63,10.89Zm-52.79,36.01c-3.08-5.81-5.68-11.69-6.01-19.08-2.43,8.35.94,14.06,6.01,19.08Zm-2.08-11.8c4.54-2.93,2.21-7,3.16-10.72-5.62,2.51-4.51,6.42-3.16,10.72Zm151.87-3.79c3.75-2.41-.36-5.72,1.62-8.3.5-.65-1.11-.74-1.81-.96.15,1.98-6.33,1.3-1.98,5.09,1.03.89,1.37,2.57,2.17,4.18Zm-116.18-48.19c-1.34-1.96-2.41,2.2-3.64-.15-.59-1.13,1.73-.89,1.13-1.99-2-.55-2.63,2.05-4.09,1.64-2.36-.66-4.12.18-3.44,2.3.99,3.1,2.21.04,3.37-.39.25-.1.99.8,1.12.71,1.64-1.18,4.66.83,5.56-2.11Zm103.01,1.31c.55-1.51-2.1-3.12-2.36-3.05-3.72,1.02,1.11,4.28-1.47,6.1-.86.6.1,2.54,1.48,2.34,2.97-.43.99-3.27,2.36-5.38Zm-161.39-36.17c1.13,3.73,4,4.43,7.35,4.68-.51-4.89-5.28-2.63-7.35-4.68Zm45.6-8.74c.48-3.09-.18-4.4-2.32-4.57-1.82-.15-3.63-.12-5.22.98-.73.51-.52,1.17-.15,1.76.4.63.79.82,1.55.2,2.16-1.77,4.15-1.27,6.15,1.63Zm-47.89,34.64c3.32,2.63,5.02,1.22,6.66-.28,2.13-1.93.7-3.78-.09-5.91-2.38,2.12-.1,7.64-6.58,6.19Zm90.27,72.33c1.25-2.9,3.18-5.72.79-9.51-1.08,3.5-2.01,6.39-.79,9.51Zm40.65-25.83c-3.63,1.09-5.8,3.55-7.7,7.16,5.22-.35,4.45-5.79,7.7-7.16Zm-11.41-17.98c-4.57,1.35-7.83,2.32-11.1,3.29.15.46.29.92.44,1.38,2.83-2.51,7.26.53,10.66-4.67Z"/>
  <path class="cls-1" d="m432.46,628.08c-56.9,0-113.8-.06-170.71.11-4.22.01-5.14-1.27-4.88-5.1.53-7.92,5.41-12.98,13.24-12.99,108.55-.03,217.11.03,325.66-.11,10.19-.01,13.28,8.6,12.87,15.72-.18,3.05-2.18,2.37-3.95,2.37-15.07,0-30.14-.02-45.22-.03-42.34,0-84.68,0-127.01,0v.02Z"/>
  <path class="cls-1" d="m458.43,571.73c0,7.61-.11,15.22.05,22.82.07,3.06-.48,4.5-4.08,4.45-15.04-.2-30.09-.2-45.13,0-3.56.05-4.11-1.29-4.08-4.39.13-14.54.02-29.07.07-43.61.05-14.67,10.79-27.34,25.29-27.92,13.41-.54,26.94,9.48,27.77,25.84.38,7.59.07,15.21.07,22.82h.05Z"/>
  <path class="cls-1" d="m465.57,532.77c-3.93-5.42-7.44-10.23-12.64-13.66-20.63-13.64-41.35-5-52.07,10.22-3.03,4.31-4.06,3.23-6.22-.33-5.42-8.95-11.01-17.81-16.73-26.58-1.56-2.39-1.07-3.83.22-6.24,4.54-8.47,11.06-10.74,20.6-10.42,23.99.8,48.02.37,72.03.18,3.93-.03,6.5.99,8.91,4.14,7.02,9.2,7.18,9.12,1.06,18.88-4.91,7.82-9.91,15.58-15.16,23.81Z"/>
  <path class="cls-1" d="m494.28,507.93c5.24,7.37,10.21,14.15,14.95,21.09,4.28,6.27,8.29,12.74,12.48,19.08,1.3,1.97,1.82,3.69.46,6-8.26,14.14-16.41,28.34-24.52,42.57-.97,1.69-2.14,2.31-4.06,2.29-6.59-.09-13.2-.18-19.79.04-3.1.1-3.58-1.21-3.56-3.88.1-15.39.06-30.78.05-46.17,0-1.53.09-2.98.97-4.37,7.56-11.98,15.08-23.98,23.03-36.64Z"/>
  <path class="cls-1" d="m394.03,573.29c0,7.27-.1,14.54.05,21.81.06,2.73-.55,3.97-3.6,3.87-6.08-.2-12.17-.16-18.26,0-2.35.06-3.67-.79-4.8-2.8-7.98-14.11-16.04-28.17-24.14-42.2-1.05-1.82-1.09-3.31.07-5.11,7.86-12.21,15.7-24.43,23.43-36.73,1.53-2.43,2.36-2.8,4.05-.09,7.24,11.6,14.62,23.11,22,34.61,1.18,1.84,1.22,3.8,1.22,5.84-.01,6.93,0,13.86,0,20.79h-.02Z"/>
  <path class="cls-1" d="m570.44,598.58c-4.04,0-8.95,1.4-11.86-.42-2.59-1.62-2.91-6.81-4.32-10.39-4.53-11.47-9.81-22.59-15.94-33.29-1.3-2.27-1.53-4.16-.06-6.53,5.86-9.48,11.6-19.03,17.26-28.64,1.9-3.22,2.96-4.46,5.37-.12,11.27,20.33,17.81,42.15,21.26,65.01.43,2.83.81,5.68,1,8.53.42,6.17.36,6.18-6.1,6.18-2.2,0-4.4,0-6.6,0,0-.11,0-.23,0-.34Z"/>
  <path class="cls-1" d="m308.37,516.62c6.84,11.31,13.25,22.03,19.81,32.64,1.14,1.85.54,3.13-.32,4.62-7.84,13.63-14.74,27.72-20.33,42.42-.82,2.15-2.06,2.7-4.18,2.65-5.24-.12-10.5-.26-15.72.04-3.57.2-4.67-.87-4.41-4.48,1.5-20.74,6.57-40.55,15.15-59.46,2.78-6.13,5.54-12.3,9.99-18.42Z"/>
  <path class="cls-1" d="m579.01,671.06c0-8.62-.02-17.25.03-25.87,0-1.52-.7-3.73,2.09-3.63,10.76.41,21.62-1.22,32.29,1.06,6.79,1.45,11.77,5.29,13.04,12.48,1.32,7.49-.39,14.33-6.7,18.99-2.77,2.04-2.71,3.29-1.23,5.95,3.28,5.89,6.14,12.01,9.26,17.99,1.22,2.34,1.41,3.46-1.95,3.59-11.39.44-11.37.56-16.27-9.84-1.01-2.14-2.05-4.27-3.14-6.37-2.63-5.07-5.61-6.33-11.05-5.24-2.28.46-1.96,1.93-1.97,3.38-.04,4.57-.19,9.14.02,13.7.15,3.14-.58,4.4-4.11,4.39-10.32-.04-10.32.14-10.32-10.28,0-6.76,0-13.53,0-20.29Zm20.75-2.88c.67,0,1.35.02,2.02,0,6.86-.25,9.92-2.76,9.81-8.04-.1-4.87-3.34-7.27-9.96-7.37q-8.31-.13-8.26,8.65.04,6.89,6.39,6.76Z"/>
  <path class="cls-1" d="m313.1,672.09c0-8.79.06-17.59-.03-26.38-.03-3.13.84-4.36,4.34-4.3,9.94.18,9.94-.01,9.98,9.74.02,3.72.22,7.45,0,11.16-.14,2.36.78,2.95,2.88,2.92,6.26-.09,12.52-.18,18.77-.05,2.74.06,3.47-1.04,3.4-3.6-.15-5.58.08-11.17-.1-16.74-.09-2.69.86-3.36,3.47-3.43,10.81-.27,10.82-.37,10.82,10.26.01,15.22-.07,30.44.08,45.66.03,3.21-.73,4.33-4.16,4.31-10.16-.05-10.04.12-10.22-9.9-.09-4.83,2.22-11.27-1.08-14.02-2.83-2.36-9.05-.73-13.77-.76-10.19-.06-10.19-.04-10.15,10.43.01,3.72-.03,7.44.06,11.16.05,2.09-.68,2.85-2.89,3.04-11.46.99-11.44,1.06-11.43-10.22.01-6.43,0-12.85,0-19.28Z"/>
  <path class="cls-1" d="m455.03,682.31c0,2.37-.36,4.8.07,7.09,1.09,5.77-2.03,8.5-6.82,10.03-10.02,3.19-20.15,4.42-30.2.3-10.05-4.13-15.98-11.51-16.98-22.57-1.14-12.51,1.05-23.91,12.36-31.19,11.86-7.64,24.57-7.02,37.35-2.09,2.35.91,3.18,2.24,2.16,4.61-.6,1.4-1.21,2.79-1.66,4.24-.99,3.18-2.11,4.83-5.86,2.5-4.93-3.07-10.73-3.05-16.26-2.3-10.33,1.4-16.33,12.45-13.59,24.39,2.24,9.78,12.78,15.51,22.56,12.36,5.36-1.72,1.99-5.96,2.6-8.97.7-3.47-2.42-2.67-4.09-2.43-4.65.67-4.68-1.99-4.79-5.41-.12-3.56.57-5.27,4.66-4.95,4.88.38,9.81.23,14.71.05,2.81-.1,4,.73,3.83,3.69-.21,3.54-.05,7.1-.05,10.65Z"/>
  <path class="cls-1" d="m516.3,662.41c0,5.92.36,11.86-.07,17.75-1.26,17.44-13.77,22.18-27.16,21.97-2.51-.04-5.07-.45-7.49-1.1-11.38-3.09-16.92-10.05-17.29-22.5-.34-11.16.01-22.33-.16-33.5-.05-3.07,1.18-3.54,3.88-3.57,10.41-.12,10.37-.21,10.44,10.1.06,9.13-.22,18.29.46,27.38.67,9.01,5.76,12.28,14.63,10.52,5.52-1.09,8.12-4.39,8.21-11.02.14-10.83.21-21.66,0-32.48-.07-3.55.97-4.57,4.54-4.53,10.31.14,10.31-.03,10.33,10.33,0,3.55,0,7.11,0,10.66-.11,0-.22,0-.33,0Z"/>
  <path class="cls-1" d="m172.67,701.54c6.75-19.42,13.32-38.2,19.76-57.03.8-2.33,1.89-3.2,4.34-3.07,4.88.27,10.69-1.32,14.41.82,3.52,2.02,3.52,8.32,5.09,12.73,5.16,14.46,10.24,28.96,15.53,43.38,1.01,2.75.23,3.33-2.27,3.17-.84-.06-1.69,0-2.54,0-9.48.03-9.64.08-12.57-9.03-1-3.09-2.32-4.38-5.62-4.12-3.87.3-7.8.35-11.67.05-3.81-.29-5.66.88-6.73,4.79-2.29,8.38-2.55,8.31-11.51,8.31-1.86,0-3.71,0-6.22,0Zm30-49.38c-1.76,5.62-3.14,9.95-4.48,14.28q-3.71,12,9.03,10.89c1.78-.15,2.94-.19,2.2-2.56-2.2-7.06-4.24-14.16-6.75-22.62Z"/>
  <path class="cls-1" d="m527.18,671.45c0-8.63.1-17.25-.05-25.87-.05-2.88.43-4.2,3.81-4.14,11.5.21,23,.27,34.5-.06,4.39-.12,4.18,2.29,3.89,5.06-.28,2.73,1.77,6.77-4.07,6.42-6.57-.39-13.19.03-19.78-.14-2.88-.08-4.15.44-4.15,3.8,0,9.16-.19,9.16,9.02,9.16,3.21,0,6.47.36,9.63-.05,5.19-.67,6.58,1.16,6.34,6.35-.2,4.25-1.3,5.5-5.46,5.21-5.22-.36-10.49.07-15.72-.13-2.83-.11-3.75.69-3.79,3.63-.11,8.75-.26,8.75,8.24,8.75,5.75,0,11.51.17,17.25-.08,3.23-.14,3.94.99,3.88,4.06-.16,8.13,0,8.13-7.98,8.13-10.49,0-20.97-.14-31.45.08-3.43.07-4.24-1.07-4.17-4.3.2-8.62.07-17.25.07-25.87Z"/>
  <path class="cls-1" d="m632.04,701.27c4.42-12.59,8.73-24.8,12.99-37.02,2.28-6.54,4.67-13.04,6.64-19.67.71-2.4,1.67-3.09,4.08-3.17,14.33-.45,14.35-.51,19.14,12.97,5.09,14.31,10.06,28.67,15.29,42.92,1.3,3.53.55,4.7-3.07,4.23-.17-.02-.34,0-.51,0-9.97.11-10.05.13-13.17-9.43-.86-2.63-2.02-3.89-4.98-3.72-4.55.27-9.13.18-13.7.07-2.51-.06-3.87.6-4.73,3.31-3.15,9.9-3.29,9.86-13.52,9.76-1.3-.01-2.61-.14-4.47-.25Zm22.11-23.97c4.45,0,8.29-.05,12.12.02,1.92.04,2.84-.42,2.18-2.57-2.11-6.97-4.14-13.97-6.61-22.36-2.8,9.06-5.16,16.69-7.7,24.91Z"/>
  <path class="cls-1" d="m529.88,540.08c-9.12-13.74-17.93-26.95-27.75-39.44-1.38-1.75-1.38-3.12-.21-4.97,4.44-6.99,8.79-14.02,13.05-21.12,1.5-2.5,2.84-2.53,5.11-.87,11.25,8.24,21.33,17.68,29.92,28.68.97,1.25,1.9,2.25.81,4-6.89,11.01-13.7,22.06-20.92,33.73Z"/>
  <path class="cls-1" d="m259.22,640.59c5.67-.11,11.03,1.18,16.13,3.6,6.22,2.96.67,6.62.3,9.78-.4,3.52-3.04,1.34-4.65.69-4.78-1.93-9.62-2.89-14.81-2.04-2.43.4-4.17,1.23-4.6,3.84-.42,2.59.99,4.26,3.07,5.29,2.56,1.27,5.25,2.31,7.92,3.36,4.25,1.67,8.46,3.37,12.01,6.36,9.98,8.39,7.4,24.64-4.87,28.81-10.98,3.73-21.62,2.04-31.66-3.71-1.55-.89-2.24-1.89-1.63-3.68.91-2.67.65-5.72,2.52-8.03.16-.2,1.69.66,2.55,1.09,5.49,2.74,11.11,4.99,17.44,4.36,3.17-.32,6.3-1.11,6.95-4.73.63-3.5-2.18-5.12-4.82-6.32-3.83-1.75-7.86-3.04-11.69-4.78-9.57-4.35-14.07-11.37-12.46-19.11,1.86-8.9,8.88-14.29,19.26-14.76,1.01-.05,2.03,0,3.04,0Z"/>
  <path class="cls-1" d="m335.49,540.16c-6.58-10.87-12.89-21.42-19.37-31.88-1.2-1.94-.4-3.04.66-4.44,8.18-10.85,17.84-20.21,28.59-28.5,2.67-2.06,4.21-1.79,5.76,1.27,3.36,6.61,6.93,13.12,10.54,19.6.96,1.72.87,2.94-.22,4.58-8.59,12.9-17.08,25.87-25.97,39.38Z"/>
  <path class="cls-1" d="m718.15,640.61c4.88-.37,9.24.95,13.53,2.54,6.16,2.28,5.86,2.21,4.03,8.45-1.22,4.16-2.68,4.86-6.59,2.87-3.88-1.98-8.25-2.9-12.78-2.03-2.46.47-4.68,1.15-5.25,3.94-.59,2.87,1.25,4.47,3.51,5.49,4.46,2.02,9.04,3.77,13.49,5.79,6.33,2.87,11.24,6.93,11.51,14.63.44,12.67-6.85,19.53-21.87,19.89-7.02.17-13.7-1.82-19.81-5.41-2.2-1.29-2.27-10.33-.14-11.71,1.27-.82,2.15.36,3.11.85,5.18,2.62,10.48,4.83,16.44,4.41,3.44-.24,7.21-.74,7.84-4.91.6-3.92-2.69-5.54-5.73-6.77-5.16-2.08-10.42-3.86-15.25-6.74-6.74-4.02-8.68-9.92-7.45-17.31,1.17-7.01,5.62-10.96,12.08-12.91,3.07-.92,6.26-1.46,9.31-1.07Z"/>
  <path class="cls-1" d="m395.33,474.77c5.67-7.79,11.09-15.07,16.31-22.5,1.52-2.16,3.28-3.06,5.83-3.28,8.43-.71,16.87-.54,25.32-.48,1.62.01,2.97.43,4,1.73,6.4,8.01,12.81,16.01,19.31,24.14-3.87.95-63.75,1.27-70.77.39Z"/>
  <path class="cls-1" d="m431.77,734.56c-2.63,6.25-4.83,11.26-6.85,16.35-.97,2.45-2.22,3.88-5.17,3.65-2.82-.21-5.63.55-7.16-3.06-2.02-4.77-4.51-9.34-7.35-15.11,0,8.78-.3,16.43.11,24.04.25,4.69-2.43,4.02-5.34,4.18-3.23.17-4.91-.37-4.81-4.29.3-11.16.34-22.33.16-33.49-.06-3.7.91-4.69,4.75-4.99,5.95-.47,9.33,1.51,11.45,7.05,1.85,4.83,4.5,9.35,7.16,14.74,3.14-6.67,5.98-12.81,8.92-18.91,1.17-2.43,11.84-4.13,13.56-2.12.56.65.6,1.87.61,2.83.04,11.84-.16,23.69.12,35.52.1,4.28-2.39,3.62-4.87,3.58-2.56-.05-5.52.92-5.36-3.69.28-8.24.08-16.49.08-26.29Z"/>
  <path class="cls-1" d="m538.5,749.12c0-8.71.24-15.99-.09-23.25-.21-4.57,2.66-3.72,5.27-3.8,2.61-.08,4.92-.4,4.84,3.69-.25,11.68-.15,23.36-.03,35.04.03,2.81-.82,3.63-3.7,3.87-5.09.43-8.36-.95-10.98-5.73-3.8-6.95-8.55-13.38-13.72-21.28,0,8.2-.19,15.14.08,22.06.14,3.59-.54,5.21-4.62,4.94-3.4-.22-5.63-.16-5.49-4.75.35-11.16.22-22.35.08-33.52-.04-3.13.64-4.3,4.16-4.51,5.1-.3,8.2,1.04,10.73,5.82,3.74,7.08,8.5,13.63,13.48,21.41Z"/>
  <path class="cls-1" d="m128.53,671.15c0-8.63.08-17.27-.04-25.9-.04-2.75.76-3.75,3.69-3.85,10.9-.34,10.9-.45,10.9,10.22,0,11.34.09,22.69-.06,34.03-.04,2.82.7,3.86,3.66,3.76,6.26-.21,12.53.08,18.79-.12,3.02-.1,4.09.7,4.1,3.93.02,8.31.19,8.31-8.21,8.31-9.65,0-19.3-.12-28.95.07-3.18.06-4.02-1.02-3.96-4.05.17-8.8.06-17.61.07-26.41Z"/>
  <path class="cls-1" d="m306.71,751.57c-.03,11.73-.89,12.63-12.67,13.26-1.52.08-3.04.07-4.57.07-20.03-.04-24.91-16.29-19.91-31.08,2.39-7.06,8.02-11.18,15.62-11.99,6.06-.64,12.02-.75,17.91,1.75,4.47,1.9,1.51,4.27,1.02,6.53-.61,2.81-2.02,2.79-4.36,1.52-3.69-1.99-7.86-1.96-11.92-1.59-5.95.55-9.64,5.51-9.74,12.74-.11,7.56,3.63,12.69,10.05,13.62,1.66.24,3.38.1,5.06.23,3.72.28,4.27-1.69,4.31-4.95.04-3.46-1.67-3.51-4.12-3.16-2.83.41-3.93-.67-3.78-3.64.13-2.56.46-4.32,3.62-3.83.99.15,2.03.03,3.04.03q10.47,0,10.44,10.49Z"/>
  <path class="cls-1" d="m594.16,751.46c.02,11.3-1.66,13.04-13.25,13.45-3.72.13-7.47.17-11.11-.78-10.39-2.71-15.06-10.47-14.32-23.6.57-10.1,6.99-17.42,16.78-18.66,5.71-.72,11.46-.78,17.06,1.19,3.37,1.19,3.66,2.98,2.27,6.17-1.28,2.93-1.98,3.62-5.35,2.2-5.52-2.33-11.75-3.21-16.8,1.16-4.91,4.24-4.92,10.13-3.39,15.97,1.58,6.06,11.09,10.41,16.7,7.71,2.72-1.31,1.13-3.89,1.42-5.88.29-1.96-1.34-2.17-2.71-1.98-3.48.47-4.72-.74-4.57-4.4.18-4.21,3.04-2.56,5.05-2.9.66-.11,1.35-.02,2.03-.02q10.19-.03,10.2,10.38Z"/>
  <path class="cls-1" d="m347.27,764.54c4.8-13.68,9.51-26.81,13.96-40.01.93-2.75,2.8-2.79,4.73-2.44,2.69.5,6.26-1.95,7.92,2.26,4.97,12.54,9.97,25.06,14.97,37.59.83,2.07.07,2.55-2,2.66-4.45.24-8.45.24-9.41-5.51-.5-2.99-2.58-4-5.57-3.64-1.83.22-3.75.29-5.57,0-4.31-.7-6.72.92-7.2,5.29-.34,3.12-2.07,4.22-5.15,3.86-1.98-.24-4.01-.04-6.69-.04Zm20.04-32.31c-1.43,4.68-2.54,8.35-3.66,12.01-.59,1.91-.63,3.32,2.09,3.06,1.67-.16,3.38-.03,5.07-.01,1.6.02,2.14-.66,1.53-2.19-1.58-4.01-3.14-8.02-5.03-12.86Z"/>
  <path class="cls-1" d="m451.03,743.39c0-5.74.18-11.48-.07-17.21-.15-3.44,1.19-4.39,4.39-4.26,4.88.2,9.81-.25,14.67.13,8.78.69,13.3,5.2,13.44,12.8.15,8.32-5.23,14.34-13.58,15.45-2.87.38-6.74-1.63-8.39,1.21-1.25,2.16-.65,5.64-.27,8.45.62,4.61-1.92,4.63-5.34,4.69-3.45.06-5.29-.37-4.99-4.56.4-5.54.1-11.13.1-16.7h.03Zm10.09-7.09c1.08,1.79-2.46,6.22,3.41,6.07,5.57-.14,8.64-2.06,8.8-6.11.16-4.16-2.45-5.84-7.85-6.4-5.65-.58-4.21,3.13-4.36,6.44Z"/>
  <path class="cls-1" d="m392.11,671.87c0,8.79-.07,17.58.05,26.37.03,2.27-.39,3.22-2.97,3.37-11.45.69-11.45.78-11.45-10.64,0-14.88.16-29.76-.1-44.63-.07-4.12,1.21-5.03,5.09-4.95,9.43.2,9.44,0,9.44,9.67,0,3.55-.02,7.1-.02,10.65,0,3.38,0,6.76,0,10.14h-.03Z"/>
  <path class="cls-1" d="m335.52,562.98c7.57,11.87,13.82,23.52,20.46,35.92-12.13,0-23.39-.02-34.64.02-1.98,0-2.83-.43-1.93-2.63,4.62-11.23,9.55-22.29,16.1-33.31Z"/>
  <path class="cls-1" d="m461.83,451.19c16.02,2.69,30.05,7.25,43.4,13.95,1.5.75,1.82,1.55.79,3.14-4.01,6.26-7.87,12.6-11.74,18.95-1.13,1.85-1.98,1.78-3.33.1-9.38-11.73-18.83-23.39-29.12-36.13Z"/>
  <path class="cls-1" d="m546.4,598.77h-36c-.65-1.88.67-3,1.38-4.25,5.48-9.71,10.99-19.41,16.56-29.07.72-1.24,1.46-3.79,3.16-.49,5.57,10.8,10.74,21.77,14.9,33.81Z"/>
  <path class="cls-1" d="m314.69,743.37c0-5.92.19-11.84-.07-17.74-.15-3.55,1.66-3.94,4.35-3.59,2.48.33,6.08-1.51,5.96,3.61-.21,8.62.04,17.24-.15,25.86-.07,3.03.64,4.23,3.91,4,4.37-.31,8.8.12,13.17-.15,3.88-.24,3.41,2.18,3.34,4.57-.06,2.28.68,4.8-3.28,4.69-7.94-.21-15.89-.13-23.83,0-2.65.05-3.52-.83-3.43-3.5.18-5.91.06-11.83.06-17.75h-.02Z"/>
  <path class="cls-1" d="m398.16,452.48c-9.03,11.94-17.5,23.06-25.87,34.27-1.47,1.97-2.18,1.51-3.12-.31-2.87-5.55-5.73-11.11-8.74-16.59-1.14-2.09-.93-3.17,1.34-4.29,11.34-5.6,23.11-9.92,36.38-13.08Z"/>
  <path class="cls-1" d="m490.61,742.82c0-5.74.19-11.48-.07-17.21-.16-3.54,1.64-3.94,4.32-3.57,2.48.34,6.03-1.44,5.96,3.63-.17,11.98-.11,23.96-.03,35.95.03,4.64-3.36,2.7-5.41,2.85-2.02.15-4.96,1.28-4.83-2.91.2-6.24.05-12.49.05-18.73Z"/>
  <path class="cls-1" d="m736.77,457.72c-1.79-.05-3.58-.09-5.38-.14.55-1.78-.36-3.29-.99-4.82-.31-.75-1.15-1.68.11-2,4.38-1.13,2.22-2.59.26-3.99-.97-.69-.94-1.55-.22-2.06.78-.56,2.71-.36,1.16-1.93-.39-.39-2.91.51-2.89.65.36,3.24-3.51,3.04-4.3,5.14.88,1.65,2.25-1.1,3.11.81-.74,1.72-2.79,2.11-3.96,1.67-2.28-.86-.26-2.64.07-3.82.44-1.58,1.28-2.88-1.61-3.92,2.78.65,4.65,1.57,5.42-1.92.44-2.01,2.7-3.67,4.86-.7,1.76,2.43,6.03,3.27,4.36,7.96-.28.79,3.06,2.82,5.07.63,1.54-1.68,2.73-.09,3.28.6,1.21,1.5,0,1.98-1.44,1.94-1.31-.04-1.46.6-.73,1.46.52.61,2.47.05,1.65,1.67-.45.9-2,1.09-2.73.52-3.27-2.58-3.79.66-5.1,2.25Z"/>
  <path class="cls-1" d="m559.2,439.26c1.12.89.89,1.73-.24,2.28-5.19,2.52-9.84,6.49-15.85,6.83-1.9.11-2.49,2-4.53,1.8-5.5-.53-6.47-2.09-3.6-6.9.41-.68.96-1.28,1.44-1.92.02,1.38-.57,3.39,2.05,2.44,2.07-.76,4.56-.74,5.98-2.86,2.23-2.93,5.33-1.44,8.11-1.58,2.21-.03,4.42-.06,6.63-.09Z"/>
  <path class="cls-1" d="m558.69,431.96c-1.37.63-2.75,1.26-4.12,1.9.61-1.69,1.23-3.38,1.86-5.13-3.81-2.02-7.08.72-10.93,1.13,2.68,3.31,4.89-.8,7.4-.28-4.26,4.98-8.01,6.13-12.56,3.98-2.29-1.08-.51-1.51.37-2.07,2.64-3.9,6.93-5.63,10.63-8.14,1.87-1.27,3.81-.98,5.77-.29.71,1.29,1.42,2.59,2.13,3.88l.04.08c.48.24.95.48,1.43.72-.67,1.4-1.35,2.81-2.02,4.21Z"/>
  <path class="cls-1" d="m175.62,353.6c1.27,1.48,1.67,3.71,3.83,4.41-3.03,3.17-6.2,6.22-9.06,9.53-2.54,2.94-6.2,2.59-8.99,4.61-.22-.42-.44-.84-.66-1.27,1.79-1.22,3.59-2.44,5.5-3.74-.62-1.63-2.76-.16-2.57-.36,1.04-1.12.61-3.47,2.84-3.55,0,0-.13-.11-.13-.11.38.62-.49,1.98.85,1.96,2.36-.04.98-4.63,4.3-3.73.19-1.83-2.48-.53-2.49-2.13.83-1,2.08.51,2.84-.7-1.9-.84-4.29-.71-6.37-3.31,3.64.53,6.09-.43,7.88-2.61.4-.49.34-1.38,1.19-.64.46.41.7,1.07,1.04,1.62Z"/>
  <path class="cls-1" d="m156.43,356.37c1.47,1.49,2.93,2.97,4.4,4.46.07,1.51,1.75,4.63-2.16,2.12-4.15-2.67-6.47-1.3-8.68,2.97-.64,1.24-3.72,3.64-6.27,3.1-2.65-.56-.48-2.68-.5-4.09,0-.23,1.08-.65,1.67-.68,5.01-.19-1.04-4.24,1.74-5.01,2.14-.59,4.79.2,6.15-2.32.71-1.31-1.7-2.1-.82-3.56,2.26-.03,2.65,2.56,4.49,3.01Z"/>
  <path class="cls-1" d="m223.37,299.14c3.76,5.52,8.72,10.17,10.6,17.07.41,1.51,3.1,2.32,4.52,3.67.71.67,2.54,1.21,1.7,2.39-.56.78-.67,2.31-2.26,2.39-1.54.08-2.53-.35-3.26-1.77-3.22-6.27-6.49-12.52-9.79-18.75-.77-1.44-1.75-2.77-2.64-4.15.37-.28.74-.57,1.12-.85Z"/>
  <path class="cls-1" d="m391.2,391.53c.29-.34.58-.67.88-1.01,3.45-1.41,2.44,3.14,4.61,3.45-.42,1.76-1.17,3.89,1.85,1.55-1.26,7.42,7.74-.06,7.94,5.46.04,1.08,2.3-1.17,2.24.92-.01.5-.71,1.27-1.23,1.42-1.08.3-1.87-.47-2.46-1.32-.38-.55-.52-1.33-.99-1.73-.44-.37-1.32-.69-1.77-.49-2.07.91-.06,1.01.28,1.62.57,1.03-.85,1.17-1.06.97-1.67-1.62-3.5-2.52-5.86-1.84,1.5-4.46-5.98-4.5-4.43-8.99Z"/>
  <path class="cls-1" d="m735.17,374.28c-2.05-3.11-3.73-5.65-6.76-7.28-3.29-1.77-4.43-5.63-6.44-8.6-.63-.93-1.59-2.93.36-3.35,3.24-.69.03,1.62.78,2.16,4.14,2.98,4.86,9.57,11.6,10.16,1.97.17,1.39,4.01.46,6.9Z"/>
  <path class="cls-1" d="m693.78,362.32c2.88-2.55-1.63-4.69-.34-8.08,1.37,2.68,4.43,3.48,2.84,6.92-.79,1.69.48,3.27,2.19,3.85,4.7,1.59,3.96,6.94,6.86,9.75.13.13-.2,1.1-.52,1.27-1.14.59-2.21-.15-2.46-1.04-1.44-5.22-6.32-8.11-8.49-12.8,0,0-.07.13-.07.13Z"/>
  <path class="cls-1" d="m219,339.66c3.51,1.26,6.36,3.42,7.56,6.73.8,2.22,1.88-.03,2.71.75,1.4,1.32,3.87,1.23,4.82,3.15.46.93-.57,1.55-1.39,1.66-2.3.3-4.66.74-6.11-1.95-2.04-3.77-4.63-7.16-7.59-10.34Z"/>
  <path class="cls-1" d="m299.07,498.25c.5-.32,1.01-.64,1.51-.96.53,2.09,1.49,3.28,3.24,1.03.92-1.19,2.2-3.58,2.16-3.84-.9-4.99,2.19-4.74,6.16-4.41-4.06,4.36-5.99,9.8-10.63,13.23,0,0,.17.14.17.14.32-2.33-2.54-3.06-2.61-5.19Z"/>
  <path class="cls-1" d="m299.91,466.07c-.63-4.56.55-6.26,3.86-5.76.28-2.83-2.91-.59-2.94-2.99,1.7-.74,3-2.85,5.54-.19,2.26,2.37,1.76,3.52-.68,4.82-1.92,1.02-4.19,1.25-5.78,4.13Z"/>
  <path class="cls-1" d="m699.84,294.81c-4.85-1.34-7.67-7.89-5.65-11.84.32-.63.78-1.11,1.56-.91,1.08.28,1.03,1.22,1.03,2.03,0,3.81-.67,7.79,3.05,10.71Z"/>
  <path class="cls-1" d="m245.63,350.65c-2.64-1.43-5.34-2.59-6.07-5.44-.52-2,.81-4.32-.92-6.31-.15-.17,1.99-1.62,2.03-.35.15,4.63,5.56,7,4.95,12.1Z"/>
  <path class="cls-1" d="m693.18,338.93c1.08,3.12,2.15,6.25,3.2,9.3-1.7,1.79-1.68-3.61-3.58-.59-.88,1.39,1.8,2.62-.49,4.39.19-2.58-3.08-3.9-1.48-6.43,1.34-2.11,1.24-4.4,2.34-6.67Z"/>
  <path class="cls-1" d="m307.61,478.19c-1.19.68-2.72,1.37-4,2.36-.69.54.1,2.65-1.93,1.97-1.48-.49-.87-2.01-1.36-2.99-.75-1.52.84-1.21,1.22-1.76,1.92-2.74,5.45-.39,7.39-2.6.68.97,2.62.45,2.63,2.19,0,.78-.77.95-3.96.83Z"/>
  <path class="cls-1" d="m200.28,351.94c3.59-1.33,5.31,2.04,7.9,3.12,1.18.57,5.08-.91,2.11,3.02-.49.65,4.49,1.6,2.11,4.71-3.42-2.72-4.85-7.77-10.17-8.21-.72-.06-1.31-1.72-1.96-2.64Z"/>
  <path class="cls-1" d="m301.58,447.58c2-1.23,4.53-.94,5.3.71.75,1.62-.5,3.96-2.47,5.08-2.45,1.39-4.96,2.63-6.86-.83,0,0-.07.13-.07.13,1.55-.17,3.11-.35,4.77-.53.07-1.67-1.56-3.04-.58-4.68l-.09.12Z"/>
  <path class="cls-1" d="m751.31,456.64s.23.16.23.16c-.21-1.13-.48-2.25-.62-3.39-.11-.86-.13-1.67-1.28-1.73-1.42-.07-3.03-2.2-2.7-3.52.19-.76,1.12-1.39,1.33-1.09,1.48,2.11,4.65,2.5,5.43,5.17.62,2.09.1,3.86-2.4,4.4Z"/>
  <path class="cls-1" d="m292.4,408.86c-.23.7.54,3.33-1.35,1.09-2.41-2.87-4.8-3.45-8.21-1.51,3.5-1.21,3.31-5.6,6.6-6.65l-.09-.06c1.7,2.13-.56,5.98,3.16,7.23l-.11-.11Z"/>
  <path class="cls-1" d="m409.85,379.82c4.24,2.41,3.6,6.46,4.36,10.04-.69.64-1.14,0-1.68-.29-1.05-.56-1.12-2.25-1.63-2.7-2.55-2.24,2.19-4.95-1.05-7.05Z"/>
  <path class="cls-1" d="m313.07,478.28c-2.05,6.79,2.47,4.05,4.42,5.04-.95,4.52-5.18.31-7.11,2.53-.41.47-.26-2.3-1.85-2.41.64-1.87,2.19-2.9,4.54-5.16Z"/>
  <path class="cls-1" d="m464.4,331.59c3.54,3.27,3.9,8.25,6.57,12.03-2.67-4.1-8.23-6.21-8.19-12.07.54.01,1.08.03,1.62.04Z"/>
  <path class="cls-1" d="m717.81,383.02c-1.76-4.81-6.39-8.07-7.44-13.33-.19-.96-.42-1.64.5-1.98,1.34-.49,1.22.75,1.32,1.46.72,5.09,4.23,8.99,5.63,13.86Z"/>
  <path class="cls-1" d="m219.48,351.89c4.91,2.01,8.12,5.78,11.32,11.05-6.04-2.29-6.32-9.14-11.32-11.05Z"/>
  <path class="cls-1" d="m440.78,390.63c.18,1.04.95,1.56,1.67,2.26,1.23,1.18.69,2.84.13,4.22-.16.4-1.26.82-1.7.65-1.3-.5-2.18-1.58-1.93-3.06.35-2.04-1.68-2.68-2.6-4.53,1.77.22,3.15.39,4.54.57,0,0-.11-.11-.11-.11Z"/>
  <path class="cls-1" d="m713.6,389.15c-3.28-3.18-5.39-6.99-6.22-11.49,3.68,2.92,3.54,8.03,6.22,11.49Z"/>
  <path class="cls-1" d="m554.59,433.71c1.03.54,2.07,1.07,3.1,1.61-.64-.09-1.37-.36-1.79.36-.41.71-.07,1.33.65,1.5,1.23.3,1.99,1.1,2.65,2.08-2.21.03-4.42.06-6.63.09-2.24-1.99-2.28-2.08.04-3.1,1.21-.53,1.65-1.43,1.98-2.54Z"/>
  <path class="cls-1" d="m483.5,351.49c-6.3,3.87-6.16-3.95-9.64-5.21,3.73.79,5.63,4.92,9.64,5.21Z"/>
  <path class="cls-1" d="m226.29,336.16c2.55,3.14,5.15,6.2,5.91,10.31-3.15-2.75-5.03-6.26-5.91-10.31Z"/>
  <path class="cls-1" d="m207.57,321.45c-4.74-.93-6.43-3.94-6.32-9.32,3.04,3.22,3.02,7.45,6.32,9.32Z"/>
  <path class="cls-1" d="m308.13,408.57c3.93-5.86,7.76-2.76,12.37-1.23-4.48,1.45-8.31-1.57-12.37,1.23Z"/>
  <path class="cls-1" d="m464.4,331.59c-.54-.01-1.08-.03-1.62-.04-.33-.61-1.34-1.42-.23-1.86,1.61-.64,1.65.84,1.85,1.9Z"/>
  <path class="cls-1" d="m501.78,341.81c-2.3-2.72-2.31-5.65-.5-8.41-1.35-1.71-4.22.88-4.57-2.21,1.77-2.7,3.6-5.04,7.33-2.76,1.11.67,2.54.63,3.85.19,0,.72.02,1.44.03,2.17-1.91,3.1-2.96,6.38-2.18,10.06-.27-.02-.54-.04-.82-.06-1.05.34-2.1.69-3.15,1.03Z"/>
  <path class="cls-1" d="m289.07,146.32c-1.93-4.25-.87-7.25,1.88-9.9.61-.59,1.19-1.35,2.14-.9.9.42.84,1.33.85,2.19.03,3.55-1.89,5.97-4.87,8.61Z"/>
  <path class="cls-1" d="m662.42,314.35c-1.55-1.55-4.35-3.11-.14-4.76,2.12-.83-1.01-2.89,1.4-3.75,1.33,2.31,3.33,4.25,5.92,5.59-1.76,1.94-2.88-.63-4.27-.11-2.71-.66-2.16,1.81-2.91,3.03Z"/>
  <path class="cls-1" d="m558.69,431.96c.67-1.4,1.35-2.81,2.02-4.21,2.84-1.02.69-4.24,2.52-5.71.59.05,1.19.1,1.78.14-.64,4.21-2.67,7.52-6.33,9.77Z"/>
  <path class="cls-1" d="m329.04,390.61c-.15.72-.31,1.44-.46,2.16-1.31.29-.38,1.97-1.48,2.39-.61-1.46-2.22-2.67-1.12-4.55.32.6.59.5.82-.07.75.02,1.49.05,2.24.07Z"/>
  <path class="cls-1" d="m248.76,443.44c-1.51.83-3.12.55-4.73.68-2.01.15-5.71.04-3.76,4.27.33.72.14.8-2.72,1.27-2.29-3.72,1.96-4.78,2.92-7.19.65-.33,1.3-.66,1.96-.99,1.77-1.2,1.79-1.22,3.37.34.78.77,1.16.03,1.55-.38.8-.85,1.5-2.17,2.48-.18-.35.73-.71,1.45-1.06,2.18Z"/>
  <path class="cls-1" d="m221.41,434.28c-.03-.86.21-2.15,1.14-1.59,1.95,1.17,3.48,2.29,5.21-.28.34-.51,1.73-.28,2.2.54.68,1.19-.78,1.08-1.16,1.64-2.44,3.52-5.03.96-7.58.27.03-.2.09-.4.19-.58Z"/>
  <path class="cls-1" d="m559.25,426.94c.15-.41.29-.82.44-1.24.19.14.39.29.58.43-.33.3-.65.59-.98.89,0,0-.04-.08-.04-.08Z"/>
  <path class="cls-1" d="m281.35,228.95c-.75,3.12,3.82,5.2,1.64,8.9-.43.73,2.47.46,3.39.18,3.73-1.17,3.79.86,3.1,3.32-1.12,4.02,2.19,5.6,4.25,7.58,1.87,1.8,4.53,2.86,7.34,1.7.3-.12.32-.9.48-1.38,2.63.94,2.61,3.84,2.76,5.52.41,4.43,3.72,6.38,6.62,7.31,6.31,2.02,9.02,6.5,10.75,12.15,1.28,4.21,4.23,8.65,7.47,9.53,4.94,1.33,6.52,5.14,9.6,7.82.91.79,1.75,1.15,1.68,2.64-.04,1,1.19,1.74,2.22,1.44,2.58-.75,2.55-.84,2.72,2.51-1.06.41-1.46,3.31-3.29.86-7.23-9.67-18.78-14.62-26.22-24.05-3.89-4.93-8.4-9.48-14-11.98-4.16-1.85-7.38-4.45-9.7-7.79-4.55-6.56-10.26-12.48-13.06-20.02-.44-1.19.94-3.08-1.87-3.33.99-1.81,2.58-2.33,4.12-2.9Z"/>
  <path class="cls-1" d="m373.61,178.88c-.31,7.53,7.61,10.91,8.9,17.64.15.77,2.45,1.69-.15,2.28,2.15.14-3.58,5,1.9,3.19.13-.04.6.34.58.5-.82,10.36,8.74,15.18,12.35,23.16.56,1.24,2.79,1.7,1.7,3.7l.12-.15c-7.4-6.15-11.53-14.77-16.87-22.46-1.25-1.8-2.44-3.59-3.94-5.2-2.14-2.3-5.67-4.34-1.66-8.15.52-.49.14-2.7-.88-4.4-3.82-6.37-9.1-11.56-13.25-17.63-.26-.38-.61-.84-1-.95-5.12-1.39-8.29-4.86-10.84-9.33-4.1-7.21-8.9-13.9-16.4-18.23,2.79.16,4.76,1.58,6.61,3.95.56-4.05-2.58-4.62-4.78-6.1,4.2-1.24,5.3,1.62,6.57,4.05,4.29,8.14,9.31,15.45,17.53,20.41,3.2,1.93,5.37,5.25,9.85,4.29.83-.18,2.22,1.09.83,2.51,1.27,2.18,2.56,4.35,2.82,6.94Z"/>
  <path class="cls-1" d="m373.61,178.88c-.26-2.59-1.55-4.76-2.82-6.94,3.78-.64,5.45,3.54,6.14,4.91,5.31,10.46,12.83,19.01,20.96,27.18-3.15.28-3.63.57-5.13-1.94-4.86-8.13-12.35-13.86-18.32-20.96-.48-.57-.56-1.49-.83-2.25Z"/>
  <path class="cls-1" d="m398.9,229.34c2.21-1.34,2.85.85,4.01,1.81,4.42,3.66,7.69,8.92,14,10,.49.08,1.21.99,1.18,1.49-.04.95-.92.67-1.45.36-.56-.33-.93-.3-.76.36.1.39.63.75,1.05.95,5.59,2.73,9.66,7.67,15.43,10.13-14.68-3.79-23.66-14.98-33.34-25.26,0,0-.12.16-.12.16Z"/>
  <path class="cls-1" d="m352.68,243.69c9.71,11.01,18.36,22.66,21.57,37.92-3.54-2.11-4.39-5.67-5.01-9.1-.71-3.92-3.08-6.87-4.99-10.09-1.87-3.16-3.9-6.25-6.04-9.24-2.11-2.96-4.45-5.77-6.69-8.64.39-.28.78-.56,1.16-.84Z"/>
  <path class="cls-1" d="m367.03,145.63c2.41,5.83,8.76,9.15,10.31,16.04.42,1.88.49,6.58,5,6.86.98.06,1.76,1.74.7,2.87-.88.93-1.85.26-2.56-.54-.66-.76-1.55-1.47-1.85-2.37-2.74-8.16-8.52-14.71-11.61-22.86Z"/>
  <path class="cls-1" d="m307.78,201.21c3.29,3.11,5.95,6.64,11.45,7.63-2.41.93-4.34,1.07-5.2,2.1-3.11,3.73-4.04.28-4.69-1.53-.93-2.59-1.08-5.45-1.57-8.2Z"/>
  <path class="cls-1" d="m372.29,309.34c-6.05-.13-11.85-.9-15.91-6.18,2.8-.66,4.45,1.64,7.32,3.25-.43-4.54-3.03-5.32-5.99-5.85,6.74-.23,9.9,5.57,14.57,8.78Z"/>
  <path class="cls-1" d="m354.18,211.45c-5.79.37-6.23-5.87-11.25-7.58,7.06-.94,8.43,4.08,11.25,7.58Z"/>
  <path class="cls-1" d="m365.2,186.97c1.01.75,2.32,2.45,3.89,2.73,2.8.5,2.86.14,4.48,1.41-3.63,2.95-7.42.73-8.37-4.14Z"/>
  <path class="cls-1" d="m321.89,214.09c5.03,1.72,8.52,5.19,11.23,9.54-3.46-3.5-7.43-6.42-11.23-9.54Z"/>
  <path class="cls-1" d="m356.6,303.27c-1.07-.08-1.54,2.29-3.41.04-1.92-2.31-4.82-4.27-8.01-5.23,1.83-1.09,3.69-2.26,5.26.33,1.46,2.4,4.83,2.33,6.16,4.85Z"/>
  <path class="cls-1" d="m409.05,226.24c4.87,2.7,6.32,5.33,3.9,9.21-3.72-1.74-1.29-5.72-3.9-9.21Z"/>
  <path class="cls-1" d="m367.72,285.92c-2.17-2.86-4.34-5.72-6.66-8.77,5.34.55,6.03,4.62,6.66,8.77Z"/>
  <path class="cls-1" d="m356.92,212.09c-.48,4.45,2.37,5.34,3.84,7.28.49.65,2.02,1.35.78,2.33-1.03.81-2.28.6-2.61-1.06-.53-2.62-6.04-3.14-2-8.55Z"/>
  <path class="cls-1" d="m565.65,281.52c.15,6.75.61,13.39,3.56,19.71.94,2.01.41,5.13-.03,6.96-.52,2.18.1,3.72.88,4.73,3.14,4.05,2.17,9.96,6.33,13.43.65.54.65,1.06.04,1.65-.93.9-1.4.15-2.01-.46-3.66-3.62-4.76-8.65-6.44-13.13-1.21-3.23-3.48-6.92-2.42-10.49,2.27-7.7-6.68-11.39-6.06-18.4.08-.89-2.48-.87-2.39-3.01,2.36.73,4.75,1.01,5.03,4.26,1.63-1.96,2.95-3.66-1.7-5.08h5.41l-.19-.17Z"/>
  <path class="cls-1" d="m565.84,281.68c-1.04-1.32-3.4-1.53-2.15-4.62.61-1.5-.47-5.54-3.68-6.14-5.25-.98-7.26-5.45-10.48-8.79,2.6,1.92,5.8.28,8.66,2.21,2.23,1.5,1.7-2.2,1.6-5.05,4.04,5.85,6.04,11.1,6.52,16.48.2,2.23-.33,4.26,1.12,6.34.23.32-1.12-.45-1.77-.59,0,0,.19.16.19.16Z"/>
  <path class="cls-1" d="m564.34,366.19c.14-1.34-.54-2.2-1.46-2.56-2.47-.96-2.87-2.34-1.78-4.76.82-1.82-1.49-2.91-2.29-2.89-3.6.07-1.51-2.45-2.1-3.75-.66-1.46.57-2.09,1.05-2.36,1.77-.99,1.52,1.55,1.65,1.8,2.33,4.35,6.32,7.39,8.86,11.55,1.66,2.72.59,3.86-1.91,4.72-2.29.79-2.65,0-2.02-1.75Z"/>
  <path class="cls-1" d="m586.46,305.53c-6.2-6.5-17.08-9.54-15.42-21.68.83,8.04,8.93,10.06,12.69,15.77,1.29,1.96,2.38,3.68,2.73,5.91Z"/>
  <path class="cls-1" d="m645.62,294.54c-4.58-.16-6.17-4.12-8.58-6.93-1.08-1.26-3.74-2.47-1.02-5.03,1.68,2.3,2.04,5.63,5.82,6.98-1.45-3.17-3.99-5.31-3.69-9.44,3.15,3.61,3.96,7.51,6.43,10.44.55.65-1.8,3.13.94,4.08l.11-.09Z"/>
  <path class="cls-1" d="m666.9,295.06c-9.2-.99-13.37-6.15-10.21-11.96,2.55,4.66,3.78,10.44,10.21,11.96Z"/>
  <path class="cls-1" d="m645.51,294.63c2.69,2.1,3.02,6.42,6.94,7.37-2.69,4.27,2.33,5.2,3.36,7.83-4.63-1.28-10.41-9.9-10.2-15.28.02-.01-.1.08-.1.08Z"/>
  <path class="cls-1" d="m649.42,321.1c-.79-1.55-1.37-2.7-1.95-3.84,2.18-1.37,3.14,1.49,1.88,5.25-.21.62-.46,1.23-.66,1.78q-2.84-2.92-6.61.27c-.5-1.35,1.55-1.09,1.44-2.38-.11-1.23.22-2.23-1.71-2.19-1.07.03-1.16-1.32-.02-1.36.73-.03,1.78-2.29,2.48.11.72,2.46,2.85,2.09,5.16,2.36Z"/>
  <path class="cls-1" d="m567.24,248.01c1.67.82,3.35,1.63,5.02,2.45-1.55-2.99-4.52-4.89-5.08-8.42,3.86,2.57,6.7,5.91,8.05,11.39-2.71-2.48-6.24-2-7.99-5.41Z"/>
  <path class="cls-1" d="m588.02,247.37c3.63,4.46,9.4,6.98,11.38,14.18-4.52-4.91-8.43-9.16-12.33-13.4.32-.26.63-.52.95-.77Z"/>
  <path class="cls-1" d="m598.76,242.19c-6.24-2.36-6.06-9.37-10.41-14.12,3.56,1.27,4.01,2.19,5.99,7,1.04,2.54,1.94,5.43,4.42,7.12Z"/>
  <path class="cls-1" d="m599.98,353.87c-1.11-1.91.12-2.86.06-3.99-1.8.14,2.1-4.58-2.15-2.52-.44.21-.45-1.05-.12-1.52.5-.72.83-2.32,2.1-1.39,2.22,1.63,1.79,5.26,4.66,6.52-.3.3-.61.59-.91.89-2.93-3.36-2.48,1.08-3.63,2.01Z"/>
  <path class="cls-1" d="m596.44,282.84c3.86,4,9.97,5.15,8.76,11.71.07-2.63-3.17-3.1-3.73-5.03-.81-2.79-5-2.19-5.02-6.68Z"/>
  <path class="cls-1" d="m549.08,322.74c2.66,3.8,4.91,6.99,7.11,10.2.48.71.72,1.55.15,2.34-.49.69-1.24.49-1.81.2-.94-.47-.87-1.14-.35-2.05.98-1.71-.82-2.2-1.58-3.12-1.65-1.98-3.87-3.64-3.51-7.58Z"/>
  <path class="cls-1" d="m565.27,204.95c5.06,2.61,9.43,5.83,10.75,11.88-2.5-5.04-6.74-8.38-10.75-11.88Z"/>
  <path class="cls-1" d="m605.94,268.78c2.38,3.55,4.76,7.1,7.14,10.65-3.81-2.61-6.29-6.15-7.14-10.65Z"/>
  <path class="cls-1" d="m583.62,343.06c-1.49.28-3.05,2.23-4.21.83-1.54-1.86-1.97-4.56-4.28-5.93.21-.25.37-.54.62-.73.77-.57,1.22.13,1.61.55,1.81,1.95,3.27,4.28,6.26,5.28Z"/>
  <path class="cls-1" d="m597.31,290.87c4.54,2.56,3.25,8.32,7.45,10.51-4.09-1.61-4.23-1.82-7.45-10.51Z"/>
  <path class="cls-1" d="m541.32,368.33c-3.3-2.42-5.45-5.68-6.69-9.61,2.95,2.62,5.62,5.46,7.02,9.3l-.33.32Z"/>
  <path class="cls-1" d="m541.65,368.02c3.22,2.91,6.43,5.82,9.65,8.72-4.38-1.59-8.07-3.96-9.98-8.4l.33-.32Z"/>
  <path class="cls-1" d="m591.73,278.61c-3.61-2.17-2.34-7.07-5.55-9.46,5.6,1.05,3.87,6.21,5.55,9.46Z"/>
  <path class="cls-1" d="m275.94,251.66c-1.14-.8-.68-2.19-1.17-3.22-.39-.82-1.02-1.32-2.02-1.02-.88.27-1.78.9-1.48,1.75,2.33,6.6,1.07,14.32,6.38,20.92.48-3.64-2.89-5.69-1.32-9.14,1.44,3.48,3.88,6.15,3.31,9.92-.32,2.1,1.32,3.06,2.49,4.09,3.3,2.93,5.22,6.69,6.13,10.8,1.2,5.43,4.53,9.58,8.26,12.98,3.52,3.2,5.06,6.7,5.75,11.92-3.89-7.01-8.4-12.52-13.35-17.71-1.95-2.04-2.69-4.85-3.32-7.57-1.16-5.01-4.03-8.87-8.31-11.47-2.89-1.75-2.76-5.28-5.24-7.39-1.24,1.41-2.5,2.84-3.76,4.27,4.6-9.04-3.05-18.54,1.15-27.58,1.37,2.19,2.27,2.59,2.44-.37.09-1.5.25-2.99.83-4.57-1.72,5.16,5.51,8.03,3.08,13.32,0,0,.15.06.15.06Z"/>
  <path class="cls-1" d="m270.99,290.51c-1.46-7.01-4.44-5.69-8.19-2.21-.84.78-2.23.32-2.55-.66-.79-2.4,1.3-.97,2.06-1.38,1.51-.81,3.85-.5,4.22-2.91.42-2.75,2.48-2.69,4.49-2.67.99.01,2.17.02,2.42,1.3.43,2.2-.2,3.58-2.8,3.09.11,1.81.23,3.63.34,5.44Z"/>
  <path class="cls-1" d="m337.09,322.82c6.68.62,11,4.05,15.63,7.87-2.05,1.11-3.53-.05-4.46-.6-2.87-1.71-4.56-6.44-9.12-2.99-.75-1.3-.06-3.04-2.06-4.28Z"/>
  <path class="cls-1" d="m321.68,317.76c4.73,3.28,11.17,2.92,15.79,7.54-7.16-.65-11.52-2.71-15.79-7.54Z"/>
  <path class="cls-1" d="m304.32,319.92c2.69,4.19,5.5,8.32,7.11,13.55-6.01-2.89-6.4-8.31-7.11-13.55Z"/>
  <path class="cls-1" d="m362.78,310.74c-4.57-.11-8.59-1.5-12.91-5.2,5.6.54,8.78,4.14,12.91,5.2Z"/>
  <path class="cls-1" d="m275.94,251.66s-.15-.07-.15-.06c2.11,2.01,1.02,4.53,1.5,7.45-2.74-1.71-2.96-4.19-3.57-6.21-.73-2.41.97-1.69,2.22-1.18Z"/>
  <path class="cls-1" d="m505.9,344.42c-2.05-.36-2.04,1.78-3.14,2.59-.73-2.58,1.12-4.27,2.17-6.23.27.02.54.04.82.06.97-.39,1.93-.78,3.37-1.36-.68,2.31-3.54,2.64-3.22,4.94Z"/>
  <path class="cls-1" d="m202.51,429.68c2.39-1.13,4.78-2.26,7.82-3.7-2.55,4.41,6.41,4.15,2.67,9.16-1.83-2.18-2.73-6.06-6.95-3.45-1.54.95-1.93-2.02-3.53-2.02,0,0-.01,0-.01,0Z"/>
  <path class="cls-1" d="m242.43,441.48c-.65.33-1.3.66-1.96.99-.19-1.36-2.71-3.63,1.32-3.36.25.02.52-.29.78-.45-3.97-3.11,2.53-4.73,1.07-7.49,4.34,3.99.79,7.06-1.21,10.31Z"/>
  <path class="cls-1" d="m253.98,477.84c.95-.53,2.69,2.07,3.04-.67.39-3.05,2.82-2.09,4.62-2.62q-4.09,8.1-7.93,3.57l.27-.28Z"/>
  <path class="cls-1" d="m217.3,467.73c-1.53,2.83-3.26,4.99-6.92,1.91,2.22-.76,5.79.03,4.06-4.04-.65-1.54.69-1.76,1.55-1.61,2.83.5,1.14,2.5,1.14,3.94,0,0,.17-.2.17-.2Z"/>
</svg>