<?xml version="1.0" encoding="UTF-8"?>
<svg id="Capa_5" data-name="Capa 5" xmlns="http://www.w3.org/2000/svg" viewBox="0 0 767.61 470.55">
  <defs>
    <style>
      .cls-1 {
        fill: #b38537;
      }

      .cls-1, .cls-2, .cls-3, .cls-4 {
        stroke-width: 0px;
      }

      .cls-2 {
        fill: #025336;
      }

      .cls-3 {
        fill: #f3a828;
      }

      .cls-4 {
        fill: #08a8ca;
      }
    </style>
  </defs>
  <path class="cls-3" d="m326.57,369.28c-.24-.85-1.09-1.59-.65-2.55,2.26-4.98,2.67-10.66,5.2-15.42,3.41-6.41,5.72-13.08,7.08-20.12.58-2.99,1.6-5.73,3.1-8.35,1.28-2.24,2.5-4.5,2.99-7.14.5-2.69,2.05-4.55,4.81-5.63,2.52-.99,4.77-2.66,7.13-4.05.68-.4,1.35-.94,1.14-1.85-.23-1.03-1.22-.87-1.93-.93-4.05-.35-8.11-.14-12.09.51-2.91.48-6.44-.52-8.37,3-.46.84-1.74.61-2.58.44-4.04-.81-6.3,1.27-8.12,4.51-1.41,2.5-3.07,4.86-5.76,6.26-1.5.78-1.77,2.25-1.53,3.73.73,4.66-1.52,8.01-4.63,11.05-2.12,2.07-3.89,4.02-3.88,7.55.02,3.81-3.62,6.19-5.84,8.99-4.38,5.53-8.86,10.99-12.6,16.96-1.37,2.19-3.01,3.13-5.13,1.95-2.02-1.13-.76-3-.07-4.47,5.07-10.7,8.77-22.02,14.87-32.26,2.96-4.97,2.39-11.17,5.01-16.33.35-.7.61-1.45.85-2.19.53-1.63,2.55-3.23.87-4.96-1.52-1.56-3.79-1.65-5.91-1.22-3.7.75-7.38,1.54-11.04,2.45-1.17.29-2.61.89-3.4.19-4.31-3.84-8.97-.97-13.45-.89-2.19.04-4.39.85-6.48-.5-1.08-.7-1.69-1.56-1.63-2.89.05-1.39.73-2.11,2.06-2.45,3.1-.8,5.08-3.11,7.06-5.38,2.48-2.85,5.5-4.3,9.33-3.96,5.54.5,10.88-1.59,16.32-1.53,8.45.09,16.86,1.21,25.35.81,8.49-.39,16.87-1.67,25.26-2.87,3.9-.56,7.75-.99,11.62.35,1.18.41,2.45.76,3.84.55,12.46-1.88,24.61-.37,36.53,3.44.87.28,1.74.6,2.56.99,4.5,2.18,9.13,4.19,9.28,10.34.16,6.8-2.58,12.11-8.68,14.95-7.44,3.45-15.2,6.2-22.81,9.28-4.9,1.98-5.59,2.95-2.5,7.46,5.11,7.46,8.49,15.86,13.37,23.42,1.32,2.04,4.11,4.65,1.21,6.76-2.67,1.94-5.62-.21-7.35-2.55-1.85-2.51-3.85-4.46-6.92-5.23-.6-.15-1.3-.53-1.64-1.02-4.48-6.46-12.1-10.57-13.78-19.2-1-5.15-5.84-7.03-10.39-4.28-4.05,2.45-7.16,5.81-8.96,10.49-2.22,5.76-6.9,10.01-10.5,14.92-2.28,3.11-4.93,5.94-7.42,8.9h-.79Zm31.95-48.54c11.84.02,22.24-2.62,31.94-7.99,2.23-1.24,3.28-3.66,2.8-6.01-.47-2.33-3.01-1.37-4.66-1.66-7.05-1.25-13.93,2.2-21.01.85-.73-.14-1.2.45-1.52,1.03-2.43,4.4-4.84,8.81-7.56,13.79Z"/>
  <path class="cls-3" d="m519.08,369.28c-3.79-8.8-2.64-18.14-3.08-27.31-.09-1.83,1.15-4.61-.89-5.31-1.72-.59-3.02,2.08-4.34,3.42-2.79,2.83-4.42,6.46-5.8,10.11-1.8,4.77-4.29,9.21-6.48,13.78-.86,1.79-1.91,3.54-4.41,3-2.54-.55-3.64-2.39-3.96-4.75-.34-2.52.49-4.89,1.19-7.27,2.43-8.21,5-16.38,7.22-24.65,1.19-4.45,3.19-8.25,6.77-11.11,2.91-2.32,4.54-5.26,5.2-8.89.39-2.17.86-4.36,1.66-6.4,1.26-3.22.59-7.72,3.65-9.58,5.09-3.09,10.95-4.81,16.76-6.26,2.05-.51,3.39,1.29,2.86,3.15-1.84,6.44.52,13.15-1.95,19.66-1.76,4.64-.17,9.82.53,14.71.27,1.93,1.46,1.07,2.19.35,5.65-5.62,11.57-10.98,16.76-17.05.41-.48.79-1.13.84-1.73.73-7.61,6.41-11.94,11.2-16.83,2.78-2.85,5.22-2.79,8.08,0,.19.18.36.38.55.56q6.72,6.9,2,15.23c-2.09,3.68-3.55,7.53-3.19,11.84.17,1.99-.89,3.53-1.7,5.12-4.68,9.09-9.64,17.94-13.01,27.78-2.33,6.82-7.66,12.81-12.72,18.41h-1.57c-2.38-2.06-2.14-4.88-1.27-7.22,2.54-6.8,4.92-13.51,4.44-20.99-.16-2.43.99-4.95,1.71-8.2-4.11,3.23-6.57,6.91-9.21,10.36-3.08,4.01-7.85,7.11-8.96,12.15-1.41,6.41-5.24,10.47-10.28,13.91h-.79Z"/>
  <path class="cls-3" d="m407.5,369.28c-1.56-1.32-1.97-2.86-.92-4.7,4.64-8.15,5.67-17.71,10.15-25.92,1-1.83,1.05-3.39-1.17-4.52-2.38-1.2-2.15-3.19-.81-4.93,4.17-5.44,6.55-11.83,9.81-17.75,1.66-3.01,2.03-5.76.52-8.89-1.06-2.22-1.67-4.64-2.61-6.93-1.09-2.66.27-3.68,2.58-3.9,8.44-.83,16.89-1.72,25.35-2.29,7.05-.47,14.07,1.14,21.16.74,3.64-.21,7.31.13,10.91-.8,8.05-2.07,16.14.48,24.24-.31,0,.5.07.93-.01.97-7.29,2.86-9.87,10.37-15.11,15.27-2.66,2.48-4.63,3.49-8.4,1.52-5.86-3.06-12.55-1.63-18.91-1.6-4.44.02-8.89.38-13.33.38-1.71,0-2.69.42-3.1,2.13-1.06,4.43-2.18,8.84-3.32,13.25-.39,1.5,0,2.26,1.67,2.1,2.6-.26,5.2-.55,7.81-.69,9.58-.51,19,1.05,28.45,2.24,1.35.17,2.94.53,3.06,1.94.14,1.67-1.53,2.22-2.94,2.62-11.6,3.24-23.47,4.82-35.46,5.44-7.91.41-13.85,5.88-14.39,13.77-.15,2.24,1.64,1.27,2.5,1.28,7.57.13,15.16-.26,22.63,1.52,1.2.29,2.29.51,3.07,1.46,3.96,4.81,9.31,5.87,15.15,5.67.78-.03,1.58-.05,2.35.04,1.21.14,2.46.53,2.7,1.84.31,1.67-1.17,1.7-2.29,2-11.87,3.18-24.21,4.63-36.09,2.66-10.27-1.71-19.15,2.15-28.68,3.11-1.34.13-3.2-.33-4.23,1.29h-2.36Z"/>
  <path class="cls-3" d="m580.37,369.28c-.13-.61-.61-.69-1.12-.85-9.07-2.94-10.19-4.46-9.56-13.88.47-7.07,2.2-13.68,6-19.92,5.55-9.12,9.45-19.16,15.34-28.13,3.33-5.07,7.62-9.27,12.05-13.31,2.76-2.52,6.58-2.41,10.06-2.49,4.97-.11,9.87-.51,14.79-1.23,8.19-1.2,15.08,2.21,21.24,7.13,3.95,3.16,4.1,7.67,3.02,12.19-2.66,11.15-8.98,20.08-17.24,27.79-1.05.98-2.25,1.83-3.17,2.91-11.45,13.4-26.91,20.71-42.46,27.88-1.87.86-4.09.58-5.78,1.91h-3.14Zm2.09-14.1c-.57,2.26,1.3,2.84,3.93,2.4,5.22-.88,9.87-3.14,14.4-5.79,2.48-1.45,4.48-3.34,5.44-5.95,1.71-4.63,5.1-7.77,8.63-10.92,2.83-2.52,5.68-5.04,8.2-7.85,2.87-3.2,5.55-6.63,7.2-10.66.82-2,1.89-4.48-.97-5.75-3.07-1.37-6.28-2.57-9.55-3.32-3.02-.7-5.8.03-8.11,2.61-8.27,9.25-16.37,18.64-23.3,28.96-3.08,4.58-5.2,9.62-5.88,16.26Z"/>
  <path class="cls-2" d="m108.13,103.37c7.33-.01,14.66.05,21.99-.08,2.41-.04,3.28.8,3.14,3.18-.87,15.22-.24,30.49-1.51,45.7-.91,10.86-1.01,10.85,9.79,10.85,4.06,0,8.12.04,12.17-.01,2.09-.03,3.14.79,3.19,2.97.12,4.71-.37,9.36-.97,14.01-.23,1.79-1.2,2.68-3.17,2.67-13.74-.05-27.49-.08-41.23,0-2.88.02-2.72-1.73-2.67-3.62.27-8.86,1.07-17.74.67-26.57-.59-13.05-.48-26.09-.68-39.13-.02-1.02.18-2.12-.73-2.93v-7.06Z"/>
  <path class="cls-3" d="m211.06,369.28c-1.93-2.66-1.56-4.8,1.1-6.88,4.93-3.86,9.59-8.07,14.55-11.89,3.02-2.33,4.03-4.76,2.44-8.39-2.49-5.71-4.67-11.56-7.08-17.31-.6-1.42-1.07-2.81,0-4.02,3.18-3.57,1.98-7.56,1.19-11.45-.84-4.09-1.11-7.49,3.69-9.7,3.79-1.75,6.31-5.39,9.3-8.3,1.61-1.56,3.62-3.11,5.91-1.73,2.29,1.38,1.14,3.8.7,5.72-.55,2.4-1.44,4.73-2.28,7.06-1.1,3.03-.5,5.93.6,8.75,1.11,2.84,1.2,5.25-1.71,7.14-1.6,1.04-1.77,2.75-1.57,4.54.55,4.9,1.04,9.8,1.61,15.16,3.88-3.08,6.87-6.62,10.01-10,3.81-4.12,7.57-8.29,11.25-12.52,1.47-1.69,3.22-2.27,5.24-1.67,3.35.99,6.62.95,9.98.05,1.23-.33,2.61-.27,3.9-.16,3.51.29,4.45,2.08,2.42,4.92-3.8,5.34-8.4,9.97-13.61,13.95-2.93,2.24-5.63,4.6-7.26,8.03-1.03,2.16-2.86,3.43-5.1,4.54-4.3,2.14-8.4,4.72-12.41,7.36-2.49,1.64-1.82,4.66-2.21,7.11-.32,2.03.09,4.16.08,6.25,0,1.16.02,2.46-1.59,2.7-1.28.19-2.4-.21-3.01-1.35-1.04-1.95-2.21-3.89-2.82-5.99-.84-2.91-2.06-2.68-4.43-1.56-5.99,2.84-11.83,5.9-17.31,9.62h-1.57Z"/>
  <path class="cls-2" d="m277.49,195.97c3.67,0,7.33.06,11-.02,2.18-.05,3.08.64,3.59,2.99,2.53,11.55,5.34,23.04,8.17,34.52.26,1.06-.26,3.13,1.66,3.03,1.58-.08,1.47-1.99,1.8-3.13,1.91-6.49,3.43-13.1,5.57-19.51,1.69-5.07,2.24-10.36,3.71-15.46.55-1.91,1.33-2.47,3.2-2.45,7.46.08,14.92.07,22.38,0,1.87-.01,2.79.41,2.95,2.56.65,8.54,1.56,17.07,2.28,25.61,1.07,12.69,2.16,25.38,3.02,38.08.24,3.51.53,7,.92,10.49.26,2.24-.44,3.35-2.99,3.27-5.1-.16-10.21-.13-15.31-.01-2.24.05-2.77-.84-2.97-2.97-1.13-11.95-.16-23.98-1.49-35.91-.03-.26-.02-.52-.03-.78-.05-1.68.01-4.12-1.51-4.44-2.17-.46-1.6,2.23-2.06,3.49-3.64,9.91-7.17,19.85-10.6,29.83-.81,2.35-2.07,3.19-4.57,3.05-4.05-.22-8.11-.12-12.17-.04-2.14.04-3.14-.65-3.75-2.93-2.74-10.17-5.78-20.27-8.72-30.39-.18-.63-.4-1.24-.61-1.86-.27-.77-.64-1.52-1.62-1.28-.81.2-.66,1-.73,1.62-.52,4.64-1.2,9.28-1.54,13.93-.62,8.56-1.1,17.14-1.48,25.71-.09,2.17-.74,3.03-2.97,2.97-4.71-.12-9.42-.09-14.14,0-2.06.04-2.84-.78-2.66-2.79.63-7.25,1.17-14.52,1.84-21.77.66-7.11,1.44-14.21,2.15-21.32,1.07-10.73,2.15-21.45,3.15-32.18.18-1.93,1.4-1.9,2.75-1.9,3.93,0,7.85,0,11.78,0Z"/>
  <path class="cls-2" d="m460.9,252.57c.29,5.55-.54,12.35.75,19.09.58,3.02-.37,4.54-3.9,4.32-4.82-.3-9.69-.2-14.52-.03-2.71.1-3.77-.69-3.53-3.54,1.05-12.5,1.4-25.06.62-37.54-.73-11.75-.15-23.49-.69-35.21-.14-2.97.86-3.84,3.78-3.76,6.54.19,13.09.12,19.63.02,1.89-.03,2.96.41,3.93,2.26,6.76,12.94,13.71,25.78,20.56,38.68.5.94.72,2.18,2.01,2.02,1.76-.22,1.26-1.8,1.17-2.82-1.05-11.72-.47-23.47-.73-35.21-.07-3.24.84-4.46,4.15-4.15,4.69.44,9.31-.94,14.04-.85,3.17.06,3.96,1,3.89,4.05-.46,21.79-1.35,43.59-.78,65.39.07,2.59.45,5.18.69,7.76.17,1.89-.41,2.9-2.58,2.87-7.46-.09-14.92-.07-22.38,0-1.61.02-2.18-.75-2.85-2.04-6.3-12.01-12.68-23.97-19.04-35.95-.37-.69-.63-1.45-1.07-2.09-.68-.99-.74-3-2.42-2.54-1.34.36-.69,2.04-.7,3.13-.06,4.97-.03,9.93-.03,16.11Z"/>
  <path class="cls-3" d="m230.95,289.67c-3.24,2.88-6.84,3.66-10.11,4.92-6.05,2.33-10.81,6.24-14.64,11.25-3.14,4.11-6.43,5.94-12.03,4.88-6.09-1.15-12.54-1.15-18.68.71-5.3,1.61-10.68,2.55-16.21,2.04-2.72-.25-4.44.66-5.57,3.13-1.17,2.56-4.87,6.13-3.66,7.13,2.41,1.99,6.69,2.54,9.92,1.53,5.34-1.68,10.59-.78,15.89-.97,5.43-.2,10.12,2.35,15.3,2.95,4.33.5,8.59.68,12.89.14,1.04-.13,2.09-.24,3.13-.21,1.18.03,2.59.18,2.79,1.57.17,1.2-1.09,1.65-2.06,2.01-4.05,1.51-8.22,2.73-12.5,3.06-4.48.35-8.82,1.24-12.98,2.69-9.61,3.34-19.53,3.59-29.41,2.66-4.03-.38-5.53.75-6.91,4.09-2.56,6.18-2.7,6.02,4.05,6.58,3.62.3,7.31.5,10.74,1.9,3.31,1.35,6.42-.39,9.63-.57,10.47-.59,20.89.26,31.33.67,1.25.05,3.25-.06,3.48,1.83.25,1.98-1.57,2.47-3.01,3.03-7.66,2.96-15.01,6.6-22.35,10.25-2.42,1.21-4.84,1.71-7.54,1.23-3.62-.65-7.36.2-10.87-.07-8.09-.63-16.29.63-24.15-.67-6.57-1.08-12.64.01-18.92.58-1.82.17-3.64.44-5.46.58-.9.07-1.94.08-2.31-1-.3-.89-.15-1.77.61-2.51,7.37-7.2,9.68-17.1,13.91-25.98,1.08-2.26,1.21-4.17-.97-5.89-1.98-1.56-1.2-3.5-.43-5.33,2.56-6.11,5.04-12.27,7.79-18.3,1.17-2.56.67-3.93-1.95-4.68-.13-.04-.26-.06-.37-.12-2.19-1.13-6.35-1.32-6.08-3.52.27-2.16,4.43-1.8,6.88-2.44,5.15-1.34,10.38-2.4,15.59-3.54,3.72-.81,7.18-2.31,11.27-.02,1.93,1.09,5.31-.14,7.97-.65,4.98-.95,10.15-.85,14.95-2.78.57-.23,1.33-.23,1.94-.08,13.35,3.33,26.28-1.26,39.41-2.08,3.03-.19,6.07-1.03,9.71,0Z"/>
  <path class="cls-2" d="m178.79,226.69c0-8.89.1-17.78-.05-26.66-.05-3.07.98-4.2,4.08-4.11,5.62.17,11.26.18,16.89,0,2.81-.1,3.76.92,3.48,3.6-1.64,15.59-.03,31.29-1.49,46.9-.13,1.4-.04,2.91.34,4.26,1.78,6.26,5.83,8.32,13.88,7.23,5.19-.71,7.59-4.12,7.78-10.41.47-15.67-.89-31.31-.9-46.98,0-3.71,1.22-4.76,4.77-4.61,5.88.25,11.78.08,17.67.06,1.61,0,2.83.15,2.6,2.33-1.33,12.63-.33,25.31-.69,37.96-.16,5.86-.17,11.75-.87,17.56-1.02,8.52-5.29,15.48-13.11,19.13-13.27,6.2-27.1,6.59-40.56.69-9.18-4.02-13.6-11.82-13.72-21.85-.1-8.36-.02-16.73-.02-25.1-.03,0-.06,0-.08,0Z"/>
  <path class="cls-1" d="m605.78,144.21c5.05-.42,11.66,5.31,11.69,10.08.05,6.79.01,13.59,0,20.38,0,5.48-2.5,7.94-8.13,7.96-8.11.02-16.23,0-24.34,0-22.64-.01-45.28-.02-67.92-.04-3.82,0-6.47-2.86-6.9-6.57-.88-7.49.24-13.43,8.47-16.57,4.86-1.86,9.24-5.1,13.6-8.07,1.6-1.09,2.08-.56,3.08.45,5.33,5.38,10.68,10.73,16.1,16.03.9.88,1.79,2.95,3.36,1.57,1.13-.99-.18-2.28-.93-3.37-1.69-2.42-4.54-4.95-4.52-7.4.03-2.53,3.73-4.3,5.53-6.73,2.15-2.9,4.98-5.34,7.67-7.81,1.86-1.71,11.46-1.27,13.32.5,1.86,1.77,3.75,3.54,5.35,5.53.77.95,1.59,1.08,2.32.72,1.22-.59.4-1.43-.03-2.25-.96-1.81-1.82-3.68-2.68-5.53-.6-1.27-2.85-2.23-1.44-3.87,1.53-1.78,2.84-3.9,5.88-3.99,3.88-.11,6.93.66,9.6,3.78,3.31,3.86,7.13,7.28,10.73,10.88.73.73,1.61,1.81,2.61,1.03,1.1-.86-.12-1.85-.5-2.73-.56-1.27-1.95-2.12-1.93-3.98Z"/>
  <path class="cls-2" d="m275.23,184.23c-7.79-.47-15.46-1.73-22.98-4-2.18-.66-2.95-1.83-2.51-4.03,1.05-5.34,2.03-10.7,3.01-16.05.51-2.77,1.39-4.07,4.4-2.08,5.69,3.75,11.79,6.68,18.63,7.77.9.14,1.8.31,2.71.31,2.73.01,5.48-.37,6.34-3.42.92-3.22-1.11-5.08-3.81-6.41-5.96-2.95-11.99-5.77-17.82-8.96-8.6-4.7-12.44-12.18-11.15-21.82,1.15-8.56,5.56-14.88,13.41-19.33,12.3-6.97,24.77-5.36,37.52-2.43,3.56.82,5.51,2.22,4.08,6.51-1.3,3.9-1.64,8.12-2.44,12.19-.76,3.83-2.32,4.69-5.94,2.97-3.54-1.68-7.11-3.23-10.78-4.63-2.17-.83-4.29-.98-6.51-1-2.53-.03-4.38,1.06-5.01,3.49-.63,2.43.32,4.27,2.69,5.42,5.74,2.8,11.42,5.73,17.17,8.53,5.13,2.5,8.96,6.48,11.54,11.32,3.69,6.94,1.52,18.14-3.96,24.17-7.67,8.44-17.63,11.07-28.57,11.48Z"/>
  <path class="cls-2" d="m625.15,277.47c-7.63.08-14.96-1.64-22.27-3.57-2.4-.63-3.21-1.95-2.83-4.25.87-5.38,1.62-10.78,2.65-16.12.6-3.11,2.1-3.49,5.11-1.59,6.36,4,13.03,7.12,20.68,7.56.65.04,1.31.04,1.96-.03,2.27-.23,3.93-1.28,4.67-3.55.72-2.19-.6-3.57-2.08-4.65-4.03-2.94-8.68-4.73-13.19-6.8-7.75-3.56-14.81-7.99-17.38-16.79-2.79-9.55,2.34-21.87,11.09-27.11,9.71-5.82,20.19-7.18,31.2-5.04,3.19.62,6.34,1.45,9.53,2.08,2.99.59,3.96,1.99,3.1,5.13-1.14,4.17-1.7,8.5-2.55,12.75-.84,4.14-2.66,5.1-6.58,3.27-4.48-2.1-8.83-4.48-13.83-5.26-1.44-.23-2.83-.44-4.25-.02-1.89.56-3.97,1.01-4.22,3.45-.25,2.47.95,4.11,3.14,5.34,6.7,3.78,14.01,6.35,20.39,10.77,10.26,7.11,12.64,17.62,6.99,28.67-5.81,11.37-16.16,14.2-27.42,15.73-1.28.17-2.61.02-3.92.02Z"/>
  <path class="cls-2" d="m394.77,195.97c3.66,0,7.34.2,10.99-.06,2.87-.2,4.17.81,4.91,3.57,3.25,12.18,6.69,24.31,10.04,36.46,3.28,11.91,6.4,23.85,9.85,35.71,1.02,3.51.1,4.42-3.33,4.3-5.62-.18-11.26-.22-16.87.02-2.91.13-4-1.14-4.35-3.68-1.32-9.61-3.4-19.12-5.35-28.58-1.61-7.83-2.7-15.8-4.87-23.53-.24-.85,0-2.05-1.22-2.13-1.36-.09-1.62,1.24-1.85,2.18-1.42,5.8-2.72,11.64-4.1,17.45-2.81,11.87-5.67,23.73-8.41,35.62-.41,1.8-.98,2.67-3.02,2.64-6.28-.12-12.56-.06-18.84-.03-1.68,0-2.78-.07-2.02-2.36,5.64-17.01,10.23-34.35,15.92-51.36,2.58-7.71,4.69-15.65,6.87-23.52.58-2.1,1.51-2.76,3.49-2.72,4.05.07,8.11.02,12.17.02Z"/>
  <path class="cls-2" d="m581.88,275.9c-1.7,0-3.4,0-5.1,0q-7.43,0-8.85-7.22c-3.17-16.17-6.35-32.34-9.48-48.51-.25-1.31-.19-2.91-1.97-2.8-1.76.1-.99,1.79-1.23,2.82-2.09,8.98-4.16,17.96-6.25,26.94-2,8.6-4.11,17.17-5.96,25.8-.52,2.43-1.59,3.08-3.95,3.02-6.01-.15-12.04-.07-18.05-.05-1.65,0-2.76,0-2.04-2.35,4.15-13.48,8.12-27.01,12.22-40.51,3.52-11.58,7.18-23.12,10.64-34.72.52-1.73,1.32-2.37,2.98-2.37,7.98.01,15.96.05,23.94-.02,3.22-.03,4.18,2.04,4.87,4.61,3.24,11.92,6.52,23.82,9.79,35.73,3.23,11.78,6.37,23.59,9.78,35.33.94,3.23,1.02,4.86-3.09,4.35-2.71-.33-5.49-.06-8.24-.06Z"/>
  <path class="cls-2" d="m231.21,182.64c-2.62,0-5.26-.22-7.85.06-3.24.35-4.66-.83-5.26-4.05-2.21-11.88-4.64-23.71-7.01-35.56-.99-4.97-2.06-9.92-3.06-14.89-.21-1.03-.19-2.42-1.39-2.52-1.52-.12-1.61,1.45-1.86,2.53-2.65,11.03-5.24,22.08-7.89,33.11-1.52,6.32-3.23,12.6-4.61,18.96-.39,1.81-1.05,2.39-2.79,2.37-6.02-.06-12.05-.11-18.07.02-2.74.06-3.2-1.29-2.55-3.43,5.25-17.15,10.56-34.29,15.81-51.44,2.09-6.85,4.14-13.71,6.06-20.61.77-2.78,2.06-4.03,5.19-3.93,7.46.24,14.93.18,22.39.01,2.53-.06,3.77.74,4.42,3.18,3.92,14.7,7.92,29.39,11.92,44.07,2.6,9.53,5.13,19.09,7.95,28.56.89,2.98.13,3.75-2.75,3.59-2.87-.16-5.76-.03-8.64-.03Z"/>
  <path class="cls-4" d="m617.46,140.89c-3.53-3.91-6.74-5.18-10.87-3.87-1.8.57-3.6-.27-4.96-1.67-1.64-1.68-3.34-3.31-4.82-5.12-1.4-1.72-2.95-2.72-5.26-2.41-1.03.14-2.11.16-3.13,0-5.91-.9-10.74.7-14.18,5.79-1.33,1.97-3.35,2.44-5.53,2.05-6.74-1.2-11.9,1.19-15.76,6.7-.52.74-1.07,1.45-1.6,2.18-4.74,6.62-5.4,6.68-11,1.1-.9-.89-1.61-2.34-3.1-2.12-4.53.68-4.27-2.2-4.18-5.21.11-3.39-.04-6.79.03-10.19.22-11.23-10.37-16.06-19.24-12.53-1.06.42-2.03,1.05-3.24,1.69-1.01-4.09.49-8.18-.88-12.04-.26-.74.45-1.03,1.12-1.26,1.51-.52,3.03-.63,4.61-.63,31.53.02,63.06,0,94.58.02,4.68,0,7.4,2.75,7.4,7.47.01,9.64,0,19.27,0,30.05Z"/>
  <path class="cls-4" d="m458.98,147.33c-.84-.76-1.51-1.33-2.14-1.94-5.13-5.02-9.71-5.01-14.73.15-1.82,1.87-2.89,3.22-5.95.93-2.07-1.54-6.08-1.63-8.79.52-1.42,1.13-2.23,1.35-3.55,0-3.03-3.11-5.63-6.34-10.99-6.36-2.97-.01-4.98-4.25-7.42-6.59-4.53-4.35-7.09-4.46-11.42-.06-5.18,5.25-10.3,10.55-15.5,15.89-1.25-1.41-.93-2.36-.93-3.21-.02-12.01-.02-24.03,0-36.04,0-4.47,2.75-7.22,7.22-7.22,31.79-.01,63.58,0,95.37-.03,2.55,0,3.96-.14,3.2,3.5-.84,4.01-.32,8.32-.21,12.49.06,2.49-.41,3.36-3.04,2.09-8.89-4.29-20.95.07-20.02,12.58.32,4.3.65,8.74-1.09,13.32Zm-30.56-11.83c8.56.03,13.53-4.6,13.49-12.56-.04-7.41-5.61-13.06-12.98-13.15-7.17-.09-13.69,5.86-13.28,12.81.44,7.32,4.53,13.62,12.77,12.89Z"/>
  <path class="cls-1" d="m429.86,182.63c-14.8,0-29.6,0-44.39,0-5.32,0-7.39-2.58-8.06-7.66-1.25-9.49,1.5-16.84,9.26-22.66,3.8-2.85,6.89-6.63,10.25-10.05,1.8-1.83,3.62-2.12,5.31-.08,1.34,1.61,4.56,2.56,1.67,5.8-2.73,3.06-4.77,6.73-7.23,10.04-.71.95-1.22,2.04-.54,2.79.88.95,2.07.55,3.03-.42,3.77-3.8,7.66-7.5,11.36-11.38,1.42-1.49,2.47-2.09,3.93-.19.46.6,1.21.97,1.82,1.45,4.95,3.86,5.27,5.3,1.94,10.49-1.39,2.16-3.1,4.12-4.6,6.22-.62.87-1.02,2.06-.02,2.79.85.61,1.67-.18,2.34-.86,4.47-4.51,8.93-9.04,13.47-13.47,1.06-1.03,2.03-3.18,4.07-1.34,1.81,1.63,1.99,3.39.28,5.3-1.03,1.15-1.91,2.44-2.81,3.7-.64.9-1.06,2.08-.1,2.79.8.6,1.67-.22,2.34-.9,4.61-4.59,9.27-9.13,13.85-13.74,1.51-1.52,2.78-2.54,4.75-.53,8.11,8.27,18.26,13.85,27.59,20.5,2.38,1.7,4.73,3.28,3.58,6.45-1.13,3.12-3.58,5.01-7.15,5-7.86-.02-15.71-.02-23.57-.03-7.46,0-14.93,0-22.39,0Z"/>
  <path class="cls-2" d="m140.02,195.97c8.77,0,17.54.08,26.3-.04,2.85-.04,4.03.94,3.98,3.85-.08,4.57-.42,9.1-.88,13.64-.18,1.8-1.09,2.17-2.58,2.08-3.77-.23-7.56-.29-11.3-.77-3.68-.48-4.46,1.07-4.3,4.39.25,4.95.37,9.95,0,14.88-.92,12.63.13,25.24.22,37.86.02,3.35-1.04,4.25-4.24,4.11-5.22-.23-10.48-.26-15.7,0-3.28.17-3.92-1.12-3.83-4.08.35-11.86,1.22-23.69.9-35.58-.17-6.25-1.32-12.46-.79-18.73.19-2.26-.82-2.93-2.99-2.89-3.92.07-7.74,1.07-11.7.86-2.93-.15-4.46-1.29-4.25-4.27.29-4.02-.11-8.03.65-12.08.53-2.81,1.78-3.3,4.19-3.27,8.77.08,17.53.03,26.3.03Z"/>
  <path class="cls-2" d="m503.33,126.04c0,5.62-.02,11.24.02,16.86,0,.85-.41,1.98.74,2.4.86.31,1.34-.6,1.96-1.03,1.29-.88,2.58-1.77,3.91-2.6,2.05-1.29,3.1-2.98,2.91-5.53-.19-2.6-.13-5.23-.02-7.84.15-3.57,2.98-6.54,6.34-6.84,3.38-.3,6.55,1.63,7.14,5.29,1,6.17,1.17,12.44-.22,18.62-.41,1.84-1.47,3.29-3.17,4.28-5.51,3.24-10.93,6.64-16.51,9.76-2.21,1.24-3.25,2.66-3.16,5.25.17,4.83-.1,9.68.1,14.5.12,2.82-.93,3.76-3.63,3.5-1.82-.17-3.66-.03-5.5-.03-4.91-.01-6.06-.93-4.81-5.79,1.09-4.21-.51-6.18-3.71-8.23-5.38-3.45-10.49-7.29-15.77-10.89-2.38-1.62-3.42-3.92-3.47-6.62-.1-5.62-.11-11.24-.01-16.86.08-4.99,2.57-7.44,7.18-7.36,3.91.07,6.76,3.13,6.86,7.48.07,3.4,0,6.8.02,10.19.02,2.95,4.95,8.79,7.83,9.2,1.68.24,1.47-.98,1.41-2.04-.85-14.33-.96-28.66.22-42.98.33-4.06,2.95-6.27,7.1-6.11,3.85.15,6.15,2.49,6.2,6.56.08,5.62.02,11.24.02,16.86Z"/>
  <path class="cls-2" d="m206.87,165.01c1.1,5.16,2.22,10.32,3.29,15.49.4,1.93-.32,2.99-2.47,2.85-1.3-.09-2.61-.06-3.91-.01-1.8.06-2.47-1.03-2.04-2.48,1.56-5.27,1.96-10.86,5.13-15.85Z"/>
  <path class="cls-2" d="m557.27,257.37c1.12,5.23,2.19,10.28,3.28,15.32.51,2.35-.3,3.47-2.81,3.24-1.29-.12-2.61-.02-3.91-.05-1.38-.02-1.9-.86-1.61-2.07,1.27-5.28,2.61-10.55,3.97-15.82.06-.23.57-.35,1.08-.63Z"/>
  <path class="cls-2" d="m394.66,257.56c1.1,5.15,2.22,10.3,3.28,15.45.39,1.87-.16,3.05-2.38,2.91-1.43-.09-2.86-.03-4.3-.03-1.33,0-2-.74-1.7-1.98,1.31-5.48,2.71-10.94,4.07-16.41.34.02.68.04,1.02.07Z"/>
  <path class="cls-3" d="m434.95,122.96c-.03,3.45-2.78,6.24-6.14,6.23-3.2,0-6.25-2.98-6.33-6.17-.09-3.53,2.7-6.22,6.45-6.2,3.53.01,6.05,2.58,6.02,6.14Z"/>
</svg>