<?xml version="1.0" encoding="UTF-8"?>
<svg id="Capa_5" data-name="Capa 5" xmlns="http://www.w3.org/2000/svg" viewBox="0 0 850.39 550.65">
  <defs>
    <style>
      .cls-1, .cls-2, .cls-3, .cls-4 {
        stroke-width: 0px;
      }

      .cls-2 {
        fill: #f7c02f;
      }

      .cls-3 {
        fill: #f3f2f2;
      }

      .cls-4 {
        fill: #c1292d;
      }
    </style>
  </defs>
  <path class="cls-3" d="m774.89,297.38c-2.7-17.19-11.82-31.1-26.38-40.2-5.58-3.5-11.85-6.1-19.16-7.96-6.98-1.78-14.28-2.69-21.71-2.71,0,0-18.79-.02-19.05-.02h-20.15c-1.79.02-3.59.13-5.38.24l-.83.05c-4.93.32-9.41,2.61-12.71,6.08-3.38-3.54-7.96-5.89-12.92-6.17-.74-.07-1.48-.12-2.22-.12h-10.32c-7.51,0-15.03,0-22.55.04-11.23.05-19.92,8.39-20.22,19.41-.01.5,0,1.01-.01,1.51-3.71-5.93-8.9-10.73-15.42-14.09-3.48-1.79-7.27-3.22-11.29-4.24-6.82-1.74-14.11-2.64-21.67-2.68h-20.16s-20.31,0-24.4.01c-2.17.01-4.01.29-5.36.49l-.79.12c-8.44,1.1-14.3,8.16-15.73,14.58-.53,2.38-.74,4.61-.82,6.66-3.71-4.26-8.06-8.04-13.12-11.2-5.59-3.5-11.85-6.1-19.16-7.96-5.69-1.45-11.6-2.29-17.61-2.57,1.67-.95,3.25-2.06,4.69-3.35,3.85,2.89,8.38,4.43,13.26,4.43.29,0,.93-.02,1.22-.03,5.28-.29,9.75-2.74,13.62-6.01,3.88,2.94,8.47,4.5,13.43,4.5.31,0,.98-.02,1.29-.04,5.38-.31,10.05-2.72,13.2-6.87.52-.7.99-1.41,1.4-2.14.14-.2.27-.4.42-.61,4.47,5.09,10.37,7.85,16.89,7.85.29,0,.91-.02,1.2-.03,5.15-.28,9.68-2.56,14.04-6.33,4.28,3.19,8.8,4.8,13.49,4.8.3,0,.8-.01,1.09-.03,5.16-.29,9.32-2.73,12.86-5.89,3.85,2.9,8.38,4.44,13.26,4.44,0,0,.93-.02,1.22-.03,8.75-.47,15.29-6.9,20.54-13.12,4.38-5.19,8.94-11.19,13.55-17.81,4.45-6.39,8.39-12.3,11.73-17.58l5.71-9.05c.34-.54.65-1.09.92-1.66,4.98-10.39.38-19.51-5.95-23.57-2.89-1.86-6.21-2.84-9.6-2.84-.43,0-.85.01-1.27.04-2-4.77-4.83-9.22-8.44-13.24-6.87-7.63-14.09-9.23-18.92-9.23-.29,0-.91.02-1.2.03-5.7.31-11.29,2.56-17.09,6.9-.41.3-.82.66-1.22.98-2.89-12.25-13.22-20.41-26.04-20.41-6.32,0-12.63,1.98-17.98,5.62-.56.25-1.07.47-1.53.67-2.32-1.18-4.92-1.82-7.58-1.82-1.59,0-3.59.31-5.11.77-1.4.42-2.73,1.04-3.96,1.82-5.27,3.36-8.86,8.25-10.54,13.63-.66.53-1.29,1.09-1.88,1.72-1.8,1.96-3.09,4.21-3.7,6.21-.02.06-.04.11-.06.17-.19-.22-.38-.44-.58-.66-6.87-7.64-14.09-9.24-18.93-9.24-.29,0-.91.02-1.2.03-5.7.31-11.28,2.56-17.09,6.9-2.02,1.51-4.04,3.21-6.08,5.1-1.13-1.14-2.27-2.2-3.43-3.13,3.02-9.96.79-19.58-6.21-26.55-5.05-5.03-10.66-8.27-17.11-9.73-1.4-.27-2.78-.42-4.11-.42-7.13,0-13.27,3.95-16.02,10.26-1.47,3.36-1.84,6.9-1.21,10.23-1.18,2.73-2.89,6.15-5.1,10.19-2.81,5.17-6.13,10.91-9.85,17.07-.12.19-.23.38-.35.57-1.24-1.83-2.61-3.59-4.12-5.26-6.87-7.64-14.09-9.25-18.94-9.25-.3,0-.92.02-1.21.03-1.46.08-2.92.29-4.37.63-.27-5.33-1.38-10.53-3.35-15.56-2.85-7.26-9.5-16.97-24.98-21.94-.38-.12-.77-.23-1.16-.33-3.74-.9-7.55-1.35-11.31-1.35-10.51,0-20.82,3.48-30.64,10.33-11.21,7.82-21.14,18.18-29.5,30.79-8.22,12.38-14.04,24.85-17.42,37.51-5.17,21.81-3.73,38.7,4.39,51.61,2.37,3.77,5.11,6.98,8.12,9.73-.39-.07-.76-.18-1.16-.22-1.43-.2-2.87-.35-4.3-.35l-16.45-.02h-12.21c-2.12.02-4.02.26-5.45.47-5.71.84-10.73,4.01-13.76,8.67-1.43,2.2-2.61,4.23-3.61,6.25-2.64,5.36-5.27,10.72-7.9,16.09l-6.07-12.43c-1.33-2.71-2.74-5.39-4.16-8.04-3.15-5.86-8.74-9.74-15.51-10.65-1.35-.19-2.72-.32-4.09-.32-10.24,0-20.49.01-30.74.04-1.96,0-3.5.3-4.28.46-7.56,1.07-14.32,7.49-15.74,14.89-1.14,5.88-1.23,12.08-.26,18.93.79,5.69,4.35,10.72,9.31,13.7.02,10.36.01,20.72,0,31.08-5.07,3-8.68,8.21-9.43,14.16-.64,5.08-.68,10.39-.12,16.2.85,8.88,8.66,16.69,17.41,17.4l1.14.1c1.78.16,3.56.3,5.34.31l12.4.02h13.09c1.72-.02,3.43-.06,5.17-.16,7-.42,12.82-3.87,16.19-9.12,2.01.66,4.15,1.04,6.36,1.1.87.02,1.74.03,2.61.03,1.91,0,3.82-.05,5.73-.11,2.2-.07,4.32-.47,6.3-1.17,2.86,4.43,7.68,8.2,13.43,8.9.02,0,.59.08.61.09,1.44.21,2.89.37,4.35.38l13.77.02c.38.02.77.04,1.15.04h13.85c1.41-.02,2.81-.1,4.22-.2l.83-.05c4.22-.24,8.18-1.99,11.32-4.66,3.21,2.7,7.21,4.46,11.59,4.67,4.56.22,9.11.3,13.67.3,4.98,0,9.96-.1,14.97-.21,1.75-.04,3.18-.34,4.25-.63,7.8-1.73,14.13-8.73,15.02-16.9.11-.99.19-1.98.25-2.95l5.1-.03c.02.37.12,1.76.12,1.76.6,9.94,8.75,18.13,18.54,18.63,4.53.24,9.06.32,13.6.32s9.24-.09,13.86-.17l1.13-.02c1.75-.03,3.19-.32,4.26-.6,3.08-.66,5.94-2.17,8.34-4.22,2.47,2.13,5.4,3.66,8.47,4.2.89.21,2.74.65,5.03.65,10.31.02,20.61.04,30.92.04h12.47c7.17-.02,13.86-1.22,20.01-2.51,4.8-1.01,9.54-2.63,14.5-4.95,7.6-3.57,14.09-8.64,19.41-14.99.09,1.91.12,3.82.38,5.74,1.19,8.69,8.77,15.76,17.4,16.43,1.19.17,2.38.29,3.56.29h10.04c7.24,0,14.48,0,21.67-.02,1.92,0,3.45-.28,4.11-.42,5.54-.7,10.48-4,13.53-8.59.42.51.84,1.02,1.28,1.52,4.04,4.68,9.8,7.38,15.78,7.4l8.03.02c4.41,0,8.82-.01,13.26-.04,4.87-.03,9.47-2.06,12.96-5.31,2.75,2.6,6.27,4.54,10.26,5,.02,0,.55.08.57.08,1.43.21,2.86.36,4.16.37.05,0,20.25.08,20.25.08l8.66-.03c1.41,0,2.82-.09,4.23-.19l.93-.06c4.9-.32,9.38-2.61,12.7-6.11,2.72,2.87,6.22,4.95,9.93,5.61.89.21,2.74.65,5.03.65,10.31.02,20.61.04,30.92.04h12.47c7.17-.02,13.86-1.22,20.01-2.51,4.8-1.01,9.54-2.63,14.5-4.95,8.14-3.82,15.07-9.31,20.58-16.31,6.05-7.7,9.98-16.55,11.67-26.32,1.52-8.83,1.61-17.67.26-26.27ZM253.57,212.26c1-9.28,3.22-18.1,6.64-26.29,2.72,3.45,6.46,6.37,11.2,8.72,1.8.89,3.66,1.62,5.57,2.17-10.83,13.5-17.55,18.2-20.77,19.83-.97.49-1.78.84-2.44,1.09-.2-1.17-.35-2.94-.2-5.53Zm1.48,70.47c-6.31,14.07-12.62,28.13-18.93,42.15-2.08.78-3.94,1.8-5.55,3.04-.92-.8-1.84-1.6-2.93-2.22-.01-10.4-.01-20.79,0-31.2,5.9-3.48,9.58-9.55,9.7-16.69.07-3.68.06-7.36.02-11.07-.03-2.52-.57-4.48-.78-5.22-.5-2.35-1.62-4.57-3.11-6.57,4.78,1.83,9.99,2.78,15.58,2.78.74,0,1.49-.02,2.24-.05.33-.02.66-.04.99-.07,1.52-.16,3.01-.49,4.51-.79-1.43,2.53-2.34,5.35-2.47,8.32-.07,1.73-.29,8.55-.29,8.55-.11,3.17.22,6.19,1.01,9.04Zm65.57-21.02c-.42-.91-.88-1.81-1.35-2.7l-.37-.71c-1.31-2.57-3.04-4.75-5.05-6.53,2.8,1.26,5.81,1.98,8.99,1.98.29,0,.93-.02,1.22-.03,5.09-.28,9.43-2.57,13.21-5.66,3.8,2.74,8.26,4.2,13.05,4.2.3,0,.98-.02,1.29-.04,1.09-.06,2.13-.28,3.16-.52-3.9,3.46-6.54,8.38-6.84,13.86-.24,4.35-.38,9.08.14,14.13.65,6.3,4.46,11.94,9.72,15.02,0,10.28,0,20.57-.01,30.86-1.15.67-2.22,1.48-3.21,2.37-1.3-1.02-2.67-1.91-4.18-2.52-.44-.18-.87-.34-1.3-.48-.2-.45-27.87-61.96-28.46-63.24Zm60.84-15.21c1.53-1,3.06-2.13,4.59-3.44.9-.77,1.82-1.61,2.73-2.48,2.42,2.49,4.92,4.51,7.51,5.92-2.13,0-3.66,0-3.73,0h-11.1Zm43.03,69.64c-.72,2.24-1.83,3.87-5.19,5.13-2.28.85-4.21,1.28-5.88,1.3h-1.15s0-11.98,0-11.98c.01-.22,0-10.78,0-13.09,1.46.12,2.92.29,4.36.51,1.21.19,2.57.66,4.04,1.42,1.89.97,2.94,2.17,3.62,4.14,1.5,4.33,1.56,8.32.19,12.58Zm161.8-7.23c1.42-5.49,2.02-10.98,1.87-16.44.83.73,1.66,1.46,2.6,2.04v31.22c-1.07.65-2.06,1.45-2.99,2.3-2.32-2.13-5.12-3.72-8.23-4.52,3.08-4.25,5.34-9.14,6.75-14.6Zm59.11,16.81c-.01-10.35,0-20.7,0-31.06,1.55-.93,2.95-2.09,4.19-3.39,1.27,1.33,2.65,2.54,4.23,3.46,0,10.28,0,20.56-.01,30.86-1.56.91-2.94,2.11-4.21,3.42-1.22-1.27-2.62-2.37-4.19-3.28Zm75.12-9.57c-.72,2.24-1.83,3.87-5.18,5.12-2.29.86-4.21,1.28-5.89,1.3h-1.15s0-11.99,0-11.99c.01-.22,0-10.77,0-13.09,1.46.12,2.92.29,4.36.51,1.21.19,2.57.66,4.04,1.42,1.89.97,2.94,2.17,3.62,4.14,1.5,4.33,1.56,8.32.19,12.58Z"/>
  <g>
    <g>
      <path class="cls-1" d="m164.52,429.76c0,5.97-4.29,8.95-12.86,8.95-2.87,0-5.17-.07-6.9-.2h-.05l.24-9.44-.24-21.91,8.71-.05c2.93,0,5.19.65,6.77,1.96,1.58,1.3,2.37,3.2,2.37,5.67,0,1.76-.41,3.28-1.22,4.55-.82,1.27-1.97,2.23-3.47,2.89,4.43.88,6.65,3.41,6.65,7.58Zm-6.11,4.16c1.43-1.01,2.15-2.46,2.15-4.35,0-3.19-2.01-5.02-6.02-5.48l-6.02.05-.05,4.6.15,6.55c1.27.1,2.48.15,3.62.15,2.67,0,4.73-.51,6.16-1.52Zm-1.25-22.42c-.93-.77-2.44-1.15-4.52-1.15h-3.96l-.1,10.52,5.38.15c3.06-.72,4.6-2.66,4.6-5.82,0-1.7-.46-2.93-1.39-3.69Z"/>
      <path class="cls-1" d="m191.01,438.51l-.73-3.13-1.76-5.38-7.04-.15-6.36.15-1.91,5.18-.78,3.33h-3.91l11.49-31.35h4.55l10.47,31.35h-4.01Zm-8.66-27.29h-.34l-5.67,15.46,5.48.1,5.62-.1-5.09-15.46Z"/>
      <path class="cls-1" d="m208.19,432.74c0,2.48-.62,4.52-1.86,6.14-1.24,1.61-3.39,3.15-6.46,4.62l-1.52-2.2v-.49c2.25-1.21,3.85-2.4,4.79-3.57.95-1.17,1.42-2.66,1.42-4.45v-4.25l-.2-18.19-6.02.05-.39-.34.24-2.89h10.07l-.2,20.98.1,4.6Z"/>
      <path class="cls-1" d="m239.66,410.83c2.3,2.64,3.45,6.44,3.45,11.4,0,5.31-1.22,9.42-3.67,12.32-2.45,2.9-5.92,4.35-10.42,4.35-4.24,0-7.52-1.37-9.83-4.11-2.32-2.74-3.47-6.63-3.47-11.69s1.21-9.23,3.64-12.03c2.43-2.8,5.91-4.21,10.44-4.21,4.27,0,7.56,1.32,9.85,3.96Zm-19.93,11.79c0,8.67,3.18,13.01,9.54,13.01s9.78-4.24,9.78-12.72c0-4.34-.79-7.56-2.37-9.66-1.58-2.1-3.99-3.15-7.21-3.15-6.49,0-9.73,4.17-9.73,12.52Z"/>
      <path class="cls-1" d="m281.06,438.51l-.73-3.13-1.76-5.38-7.04-.15-6.36.15-1.91,5.18-.78,3.33h-3.91l11.49-31.35h4.55l10.47,31.35h-4.01Zm-8.66-27.29h-.34l-5.67,15.46,5.48.1,5.62-.1-5.09-15.46Z"/>
      <path class="cls-1" d="m308.27,408.38l-.64,3.77-.68.2c-1.96-1.5-4.01-2.25-6.16-2.25-1.21,0-2.26.24-3.15.73-.9.49-1.58,1.12-2.05,1.91-.47.78-.71,1.6-.71,2.45s.27,1.65.81,2.32c.54.67,1.21,1.25,2.03,1.74.81.49,1.92,1.08,3.33,1.76,1.76.81,3.18,1.57,4.26,2.27,1.08.7,2,1.59,2.76,2.67.77,1.08,1.15,2.38,1.15,3.91,0,1.63-.44,3.13-1.32,4.5-.88,1.37-2.12,2.46-3.72,3.28-1.6.82-3.42,1.22-5.48,1.22-3,0-5.8-.73-8.41-2.2l.49-4.01.54-.24c1.14,1.11,2.4,1.93,3.79,2.47,1.39.54,2.71.81,3.99.81s2.34-.24,3.3-.73c.96-.49,1.69-1.14,2.2-1.96.5-.81.76-1.68.76-2.59,0-1.37-.52-2.47-1.57-3.3-1.04-.83-2.62-1.74-4.74-2.71-1.73-.85-3.11-1.61-4.16-2.27-1.04-.67-1.94-1.53-2.69-2.59-.75-1.06-1.12-2.36-1.12-3.89s.43-3.06,1.3-4.4c.86-1.34,2.07-2.39,3.62-3.15,1.55-.77,3.32-1.15,5.31-1.15,2.25,0,4.58.49,6.99,1.47Z"/>
      <path class="cls-1" d="m335.63,410.59l-5.48-.29h-3.18l-.15,18.44.15,9.78h-3.96l.29-9.44-.24-18.78h-3.18l-5.58.29-.24-.39.29-3.03h21.28l.29.39-.29,3.03Z"/>
      <path class="cls-1" d="m346.39,438.51h-3.96l.24-9.44-.24-21.91h4.01l-.24,21.57.2,9.78Z"/>
      <path class="cls-1" d="m376.35,409.26l-.78,3.57-.44.1c-2.18-1.83-4.7-2.74-7.53-2.74-3.1,0-5.48,1.07-7.14,3.2-1.66,2.14-2.49,5.26-2.49,9.37s.83,7.3,2.49,9.49c1.66,2.18,4.01,3.28,7.04,3.28s5.72-.99,8.17-2.98l.49.24-.34,3.72c-2.84,1.57-5.72,2.35-8.66,2.35-4.21,0-7.47-1.36-9.78-4.08-2.32-2.72-3.47-6.61-3.47-11.66s1.21-9.18,3.62-11.98c2.41-2.8,5.84-4.21,10.27-4.21,3.29,0,6.15.78,8.56,2.35Z"/>
      <path class="cls-1" d="m403.06,438.51l-.73-3.13-1.76-5.38-7.04-.15-6.36.15-1.91,5.18-.78,3.33h-3.91l11.49-31.35h4.55l10.47,31.35h-4.01Zm-8.66-27.29h-.34l-5.67,15.46,5.48.1,5.62-.1-5.09-15.46Z"/>
      <path class="cls-1" d="m434.7,426.63l-11.79,1.71-.39-.39v-2.45l11.84-1.66.34.34v2.45Z"/>
      <path class="cls-1" d="m460.28,438.51l-10.47-31.35h4.01l.73,3.18,7.97,24.21h.29l8.8-24.01.78-3.37h3.91l-11.49,31.35h-4.55Z"/>
      <path class="cls-1" d="m498.62,438.51l-.73-3.13-1.76-5.38-7.04-.15-6.36.15-1.91,5.18-.78,3.33h-3.91l11.49-31.35h4.55l10.47,31.35h-4.01Zm-8.66-27.29h-.34l-5.67,15.46,5.48.1,5.62-.1-5.09-15.46Z"/>
      <path class="cls-1" d="m524.6,438.51h-15.46l.24-9.44-.24-21.91h4.01l-.24,21.57.15,6.5h11.59l.29.34-.34,2.93Z"/>
      <path class="cls-1" d="m546.42,438.51h-15.46l.24-9.44-.24-21.91h4.01l-.24,21.57.15,6.5h11.59l.29.34-.34,2.93Z"/>
      <path class="cls-1" d="m570.46,438.51h-17.61l.24-9.44-.24-21.91h17.66l.2.39-.29,3.03-7.39-.15-6.21.1-.1,10.27,5.87.1,5.18-.15.29.34-.34,3.03-5.48-.1-5.58.05-.05,4.65.15,6.5,6.21.05,7.53-.2.24.39-.29,3.03Z"/>
      <path class="cls-1" d="m593.25,421.44l5.28.1,5.09-.15.29.39-.34,2.98-5.43-.15-4.94.05-.05,4.06.2,9.78h-3.96l.24-9.44-.24-21.91h16.68l.29.39-.34,3.13-7.19-.24-5.48.1-.1,10.91Z"/>
      <path class="cls-1" d="m629.88,438.51h-17.61l.24-9.44-.24-21.91h17.66l.2.39-.29,3.03-7.39-.15-6.21.1-.1,10.27,5.87.1,5.18-.15.29.34-.34,3.03-5.48-.1-5.58.05-.05,4.65.15,6.5,6.21.05,7.53-.2.24.39-.29,3.03Zm-2.01-39.81l-.1.39c-2.9,1.34-6.08,2.74-9.54,4.21l-.49-.2-.68-1.76c3.36-1.66,6.49-3.34,9.39-5.04l.44.1.98,2.3Z"/>
      <path class="cls-1" d="m657.62,437.58l-.05.49c-1.17.46-2.38.75-3.62.88l-.54-.34c-2.67-4.01-5.07-7.92-7.19-11.74h-5.72v1.86l.2,9.78h-3.96l.24-9.44-.24-21.91,9.59-.05c3.06,0,5.44.78,7.12,2.32,1.68,1.55,2.52,3.76,2.52,6.63,0,2.15-.56,4.08-1.69,5.8-1.12,1.71-2.71,3.04-4.77,3.99,2.15,3.55,4.86,7.47,8.12,11.74Zm-11.2-13.89c3.65-1.04,5.48-3.47,5.48-7.29s-2.15-5.9-6.46-6.06l-4.74.15-.15,13.06,5.87.15Z"/>
      <path class="cls-1" d="m682.91,410.59l-5.48-.29h-3.18l-.15,18.44.15,9.78h-3.96l.29-9.44-.24-18.78h-3.18l-5.58.29-.24-.39.29-3.03h21.28l.29.39-.29,3.03Z"/>
      <path class="cls-1" d="m693.67,438.51h-3.96l.24-9.44-.24-21.91h4.01l-.24,21.57.2,9.78Z"/>
      <path class="cls-1" d="m718.58,438.51h-15.46l.24-9.44-.24-21.91h4.01l-.24,21.57.15,6.5h11.59l.29.34-.34,2.93Z"/>
    </g>
    <g>
      <path class="cls-4" d="m404.54,189.94c2.57-5.19,4.64-9.9,6.21-14.13,1.26-4.96.18-9.18-3.22-12.66-3.41-3.48-6.52-5.15-9.35-4.99-2.52.14-8.07,6.29-16.66,18.45,9.01-14.63,15.09-25.33,18.23-32.09,1.57-4.55.92-8.26-1.96-11.14-2.88-2.87-5.84-4.65-8.88-5.34-1.26-.25-2.02-.07-2.28.52-.26.6-.18,1.05.24,1.34,1.05.9.86,3.14-.55,6.73-1.41,3.59-3.62,8.12-6.6,13.6-2.99,5.48-6.39,11.38-10.22,17.7-3.83,6.32-7.65,12.62-11.47,18.89-.4.65-.74,1.23-1.12,1.87-1.7,2.57-4.06,6.13-7.29,10.95-5.13,7.67-10.64,15.17-16.5,22.51-1.68,1.9-3.01,3.33-4.01,4.29-1,.96-1.7,1.48-2.12,1.55-.42.08-.6-.15-.55-.69.05-.53.29-1.29.71-2.27,3.25-6.13,7.12-13.63,11.63-22.48,1.78-4.46,1.34-8.1-1.34-10.93-2.67-2.83-5.84-4.63-9.51-5.38-.73-.17-1.26-.2-1.57-.07-.31.12-.55.3-.71.52-.16.22-.21.47-.16.73.05.26.13.45.24.54,1.15,1.11,1.36,2.85.63,5.23-8.8,12.6-16.77,23.62-23.89,33.04-2.1,2.67-3.49,3.91-4.17,3.74-.68-.17.81-3.82,4.48-10.93,1.05-2.18,2.8-5.31,5.26-9.38,2.46-4.07,5.24-8.42,8.33-13.05,3.09-4.63,6.26-8.9,9.51-12.8,3.25-3.9,6.29-6.83,9.12-8.79,3.14-1.87,5.37-1.86,6.68.03,1.31,1.9,1.86,3.81,1.65,5.73-.21,1.08-.16,1.84.16,2.3.31.46.73.6,1.26.41.52-.19.99-.72,1.41-1.59.52-1.62.13-4.05-1.18-7.27-1.31-3.22-3.2-6.21-5.66-8.94-2.46-2.74-4.9-4.04-7.31-3.91-2.41.13-5.19,1.37-8.33,3.72-3.14,2.35-6.44,5.43-9.9,9.23-3.46,3.8-6.81,8.03-10.06,12.67-.14.2-.24.4-.38.59-.7,1.09-3.75,5.4-9.21,13.01-11.74,15.63-21.95,25.65-30.65,30.06-8.7,4.41-15.35,4.58-19.96.53-4.61-4.06-6.6-10.94-5.97-20.65,1.36-13.05,4.77-25.19,10.22-36.44,5.45-11.25,10.84-20.15,16.19-26.72,6.7-8.23,12.86-13.72,18.47-16.48,5.6-2.75,9.77-2.58,12.5.52,2.72,3.1,3.14,9.21,1.26,18.35-1.26,5.81-3.06,10.48-5.42,14.01-2.36,3.53-4.79,6.11-7.31,7.73-2.52,1.63-4.74,2.44-6.68,2.44-1.94,0-3.12-.63-3.54-1.88-.11-.31-.24-.57-.39-.78-.16-.2-.31-.33-.47-.37-.16-.04-.29-.04-.39.02-.11.06-.21.17-.31.34-.11.17-.18.36-.24.57-.05.22-.05.48,0,.8.05.32.13.63.24.94.94,2.4,3.25,4.5,6.92,6.32,3.67,1.82,7.8,2.29,12.42,1.4,4.61-.89,8.96-4.21,13.05-9.96,2.93-4.41,4.98-9.89,6.13-16.44,1.15-6.55.57-12.76-1.73-18.65-2.31-5.88-7.28-10.05-14.93-12.51-9.75-2.34-19.41-.17-29,6.52-9.59,6.69-18.02,15.52-25.31,26.5-7.28,10.98-12.34,21.75-15.17,32.33-4.09,17.24-3.3,30.35,2.36,39.35,5.66,9,13.73,13.26,24.21,12.8,10.16-1.08,20.01-6.7,29.55-16.84,2.38-2.53,4.7-5.14,6.97-7.84-1.1,2.88-1.93,5.51-2.26,7.66-.1,3.73,1.21,7.11,3.93,10.15,2.73,3.04,5.08,4.51,7.07,4.4,1.36-.07,3.8-2.23,7.31-6.46,3.51-4.23,7.2-9.06,11.08-14.48-.11.11-.21.28-.31.5-.63,2.06-.66,4.58-.08,7.58.57,3,1.7,5.68,3.38,8.03,1.67,2.36,3.67,3.47,5.97,3.34,1.99-.11,5.03-2.59,9.12-7.43,2.87-3.4,5.83-7.28,8.82-11.37-.32,1.74-.38,3.66.06,5.94.58,3,1.7,5.68,3.38,8.03,1.68,2.36,3.72,3.47,6.13,3.34.73-.04,1.2-.33,1.41-.87.21-.54.26-1.34.16-2.4-.11-2.12.68-5.25,2.36-9.38.52-1.52,1.36-3.32,2.52-5.4-.73,3.98-.21,7.8,1.57,11.48,1.78,3.68,4.56,5.57,8.33,5.69,2.52-.24,5.37-1.73,8.57-4.45,3.19-2.73,6.52-6.31,9.98-10.75,3.46-4.44,6.84-9.28,10.14-14.51,3.3-5.23,6.23-10.44,8.8-15.63Zm-11.24-12.55c-2.31,4.91-5.42,10.74-9.35,17.5-3.93,6.75-8.36,13.24-13.28,19.46-1.57,2-2.96,3.65-4.16,4.93-1.21,1.29-2.2,2.25-2.99,2.87-.78.63-1.36.95-1.73.97-.37.02-.58-.23-.63-.76-.05-.53.08-1.25.39-2.17.31-.92.76-2.06,1.34-3.42.58-1.36,1.31-2.86,2.2-4.51.89-1.64,1.86-3.4,2.91-5.26,7.33-12.52,15.14-24.16,23.42-34.93,1.46-1.78,2.62-3.04,3.46-3.78.84-.74,1.39-1.03,1.65-.89.26.15.29.65.08,1.51-.21.86-.6,2.03-1.18,3.49-.58,1.47-1.28,3.13-2.12,4.98Z"/>
      <path class="cls-4" d="m590.09,172.03c-.84-.54-1.73-.31-2.67.7-1.26,1.98-4.45,6.81-9.59,14.48-5.14,7.67-10.64,15.17-16.5,22.51-1.68,1.9-3.01,3.33-4.01,4.29-1,.96-1.7,1.48-2.12,1.55-.42.08-.6-.15-.55-.69.05-.53.29-1.29.71-2.27,3.25-6.13,7.12-13.63,11.63-22.48,1.78-4.46,1.34-8.1-1.34-10.93-2.67-2.83-5.84-4.63-9.51-5.38-.73-.17-1.26-.2-1.57-.07-.32.12-.55.3-.71.52-.16.22-.21.47-.16.73.05.26.13.45.24.54,1.15,1.11,1.36,2.85.63,5.23-8.8,12.6-16.77,23.62-23.89,33.04-2.1,2.67-3.48,3.91-4.17,3.74-.68-.17.81-3.82,4.48-10.93,1.05-2.18,2.8-5.31,5.27-9.38,2.46-4.07,5.24-8.42,8.33-13.05,3.09-4.63,6.26-8.9,9.51-12.8,3.25-3.9,6.29-6.83,9.12-8.79,3.14-1.87,5.37-1.86,6.68.03,1.31,1.9,1.86,3.81,1.65,5.73-.21,1.08-.16,1.84.16,2.3.31.46.73.6,1.26.41.52-.19.99-.72,1.41-1.59.52-1.62.13-4.05-1.18-7.27-1.31-3.22-3.2-6.21-5.66-8.94-2.46-2.74-4.9-4.04-7.31-3.91-2.41.13-5.19,1.37-8.33,3.72-3.14,2.35-6.44,5.43-9.9,9.23-3.46,3.8-6.81,8.03-10.06,12.67-1.12,1.61-2.04,3.22-3.1,4.83-1.56,2.35-3.61,5.42-6.25,9.39-4.77,7.17-10.51,14.98-17.21,23.43-.84,1-1.57,1.87-2.2,2.59-.63.73-1.21,1.34-1.73,1.85-.53.51-.94.88-1.26,1.11-.31.23-.58.38-.79.44-.21.07-.37.02-.47-.13-.11-.15-.16-.36-.16-.63s.05-.59.16-.97c.1-.38.31-.79.63-1.23,6.92-13.03,15.25-28.79,24.99-47.29,1.47-3.37,1.65-6.31.55-8.8-1.1-2.49-2.73-4.42-4.87-5.8-2.15-1.37-4.01-2.01-5.58-1.93-1.26.07-4.38,3.38-9.35,9.92-4.98,6.55-10.3,13.91-15.95,22.08-7.86,11.49-15.77,23.19-23.73,35.11.21-.43.42-.92.63-1.47,2.2-5.12,6.37-13.19,12.5-24.21,6.13-11.02,10.3-18.72,12.5-23.09,1.67-4.45,1.05-8.11-1.89-10.98-2.94-2.87-5.92-4.65-8.96-5.33-.53-.18-.97-.24-1.34-.17-.37.08-.63.19-.79.36-.16.17-.26.33-.31.5-.05.16-.05.35,0,.56.05.21.13.37.24.47,1.05,1.22.57,4.17-1.41,8.85-1.99,4.68-4.64,10.12-7.94,16.3-.25.48-.48.89-.73,1.36-1.7,2.59-4.21,6.36-7.67,11.54-5.14,7.67-10.64,15.17-16.5,22.51-1.68,1.9-3.01,3.33-4.01,4.28-1,.96-1.7,1.48-2.12,1.55-.42.08-.6-.15-.55-.69.05-.53.29-1.29.71-2.27,3.25-6.13,7.12-13.63,11.63-22.48,1.78-4.46,1.34-8.1-1.34-10.93-2.67-2.83-5.84-4.63-9.51-5.38-.73-.17-1.26-.2-1.57-.07-.32.12-.55.3-.71.52-.16.22-.21.47-.16.73.05.26.13.45.24.54,1.15,1.11,1.36,2.85.63,5.23-8.8,12.6-16.77,23.62-23.89,33.04-2.1,2.67-3.48,3.91-4.17,3.74-.68-.17.81-3.82,4.48-10.93,1.05-2.18,2.8-5.31,5.27-9.38,2.46-4.07,5.24-8.42,8.33-13.05,3.09-4.63,6.26-8.9,9.51-12.8,3.25-3.9,6.29-6.83,9.12-8.79,3.14-1.87,5.37-1.86,6.68.03,1.31,1.9,1.86,3.81,1.65,5.73-.21,1.08-.16,1.84.16,2.3.31.46.73.6,1.26.41.52-.19.99-.72,1.41-1.59.52-1.62.13-4.05-1.18-7.27-1.31-3.22-3.2-6.21-5.66-8.94-2.46-2.74-4.9-4.04-7.31-3.91-2.41.13-5.19,1.37-8.33,3.72-3.14,2.35-6.44,5.43-9.9,9.23-3.46,3.8-6.81,8.03-10.06,12.67-3.25,4.64-6.24,9.3-8.96,13.97-2.72,4.67-4.95,9.02-6.68,13.04-1.73,4.03-2.8,7.44-3.22,10.22-.1,3.73,1.21,7.11,3.93,10.15,2.73,3.04,5.08,4.51,7.07,4.4,1.36-.07,3.8-2.23,7.31-6.46,3.51-4.23,7.2-9.06,11.08-14.48-.11.11-.21.28-.31.5-.63,2.05-.66,4.58-.08,7.58.57,3,1.7,5.68,3.38,8.03,1.67,2.36,3.67,3.47,5.97,3.34,1.99-.11,5.03-2.59,9.12-7.43,3.2-3.79,6.49-8.14,9.85-12.78-.65,2.01-.74,4.41-.19,7.23.58,2.95,1.7,5.62,3.38,8.03,1.68,2.41,3.72,3.55,6.13,3.41.63-.03,1.05-.19,1.26-.47.21-.28.31-.47.31-.57,5.55-8.17,13.62-19.99,24.21-35.45,11.11-15.81,18.41-25.88,21.93-30.22,3.51-4.34,3.64-3.81.39,1.57-2.73,4.51-6.81,11.48-12.26,20.92-5.45,9.44-9.43,17.26-11.95,23.46-.63,2.05-.66,4.56-.08,7.5.57,2.95,1.7,5.62,3.38,8.03,1.68,2.41,3.67,3.55,5.97,3.42,2.62-.14,6.94-4.21,12.97-12.19,1.91-2.53,3.7-5.06,5.52-7.58-.37,1.29-.72,2.56-.88,3.66-.1,3.73,1.21,7.11,3.93,10.15,2.73,3.04,5.08,4.51,7.07,4.4,1.36-.07,3.8-2.22,7.31-6.46,3.51-4.23,7.2-9.06,11.08-14.48-.11.11-.21.28-.31.5-.63,2.05-.66,4.58-.08,7.58.57,3,1.7,5.68,3.38,8.03,1.67,2.36,3.67,3.47,5.97,3.34,1.99-.11,5.03-2.59,9.12-7.43,4.09-4.85,8.3-10.39,12.65-16.64,4.35-6.24,8.12-11.9,11.32-16.96,3.19-5.06,5.11-8.09,5.74-9.08.73-1.53.68-2.56-.16-3.1Z"/>
      <path class="cls-4" d="m492,154.56c6.2-.68,11.93-1.87,17.47-4.5,12.81-2.99,18.6,4.35,16.03-4.78-1.96-9.83-13.21-10.55-20.36-4.96-4.54,2.13-15.51,7.03-16.68,1.83.05-.74-.28-1-.99-.78-7.35,4.68-4.55,13.86,4.52,13.2Z"/>
    </g>
    <g>
      <path class="cls-2" d="m221.33,352.85c0,.69-.24,1.38-.35,2.07-.2,1.2-1.69,2.53-2.95,2.61-1.41.08-2.81.2-4.22.21-4.58.03-9.17,0-13.75,0v-.04c-4.94,0-9.87.02-14.81-.02-1.05,0-2.1-.22-3.15-.35-.52-.06-2.02-1.59-2.14-2.16-.96-4.53-.81-9.08-.14-13.63.12-.82,1.2-2.14,1.93-2.3,1.72-.36,3.48-.59,5.16-1.08.58-.17,1.19-.86,1.42-1.46.38-.96.63-2.04.64-3.08.06-8.46.06-16.93.06-25.39,0-.7-.19-1.39-.26-2.09-.09-.85-.51-1.28-1.29-1.4-.68-.11-1.31.07-1.75.76-.76,1.18-1.49,2.39-2.15,3.63-1.81,3.43-3.58,6.88-5.36,10.33-4.04,7.84-8.06,15.68-12.12,23.51-.81,1.56-1.68,3.1-2.63,4.57-.81,1.24-2.06,1.91-3.55,1.96-2.46.08-4.93.14-7.4.07-1.83-.05-3.44-.74-4.39-2.44-1.21-2.15-2.39-4.32-3.52-6.51-5.16-10.03-10.28-20.09-15.44-30.12-.96-1.88-1.99-3.73-3.04-5.56-.38-.65-1.02-.96-1.69-1.02-.85-.08-1.29.36-1.33,1.26-.02.35-.14.69-.14,1.04-.02,9.17-.04,18.34,0,27.5,0,1.02.28,2.09.66,3.04.24.57.87,1.22,1.44,1.38,1.69.46,3.44.67,5.15,1.01,1.24.24,2.37,1.7,2.51,3.04.43,3.87.3,7.74.07,11.62-.15,2.54-2,3.67-4.25,3.8-1.41.08-2.82.12-4.23.12-8.46.01-16.93.03-25.39-.01-1.76,0-3.51-.21-5.26-.35-1.02-.08-2.59-1.81-2.7-2.91-.41-4.22-.46-8.43.07-12.65.16-1.26,1.34-2.5,2.77-2.76,1.39-.25,2.82-.35,4.15-.77.98-.31,1.76-1.1,2.05-2.2.09-.34.3-.66.33-1,.11-1.4.25-2.81.25-4.22.02-13.75.03-27.51,0-41.26,0-1.75-.24-3.51-.5-5.24-.16-1.08-.87-1.98-1.89-2.29-1.33-.41-2.76-.55-4.14-.81-1.47-.28-2.76-1.46-2.92-2.63-.64-4.55-.76-9.1.12-13.64.13-.69,1.49-1.93,2.22-2.03.7-.1,1.39-.3,2.09-.31,10.23-.03,20.45-.04,30.68-.04.7,0,1.41.1,2.1.2,1.49.2,2.63,1,3.33,2.3,1.34,2.48,2.65,4.98,3.89,7.51,5.74,11.72,11.44,23.45,17.19,35.16.61,1.24,1.49,2.36,2.31,3.5.47.66,1.16.66,1.81.05.51-.48,1.08-.95,1.39-1.55,1.63-3.13,3.2-6.28,4.75-9.45,5.13-10.44,10.23-20.9,15.37-31.34.78-1.57,1.69-3.09,2.65-4.56.59-.9,1.56-1.4,2.64-1.56,1.04-.15,2.1-.28,3.15-.28,9.52-.02,19.04-.02,28.57.01,1.05,0,2.09.22,3.14.33.68.07,2.2,1.33,2.33,1.93.15.69.42,1.37.43,2.06.04,3.52.05,7.05-.01,10.57-.04,2.18-1.48,3.5-4.1,3.94-1.04.17-2.08.34-3.12.5-.83.13-2.08,1.36-2.17,2.05-.09.7-.31,1.39-.31,2.09-.02,15.87-.03,31.74,0,47.61,0,1.03.26,2.1.63,3.06.23.58.83,1.2,1.4,1.42.97.37,2.04.51,3.09.61,3.52.34,4.5,1.62,4.62,4.54.13,3.17.05,6.34.01,9.52Z"/>
      <path class="cls-2" d="m345.88,354.53c-.17,1.23-1.55,2.72-2.73,2.86-.35.04-.68.22-1.03.23-9.17.17-18.33.37-27.49-.11-1.61-.08-3.23-1.83-3.33-3.54-.06-1.06-.18-2.11-.16-3.17.08-3.86.21-7.72.33-11.59.03-.84-.35-1.36-1.19-1.52-1.54-.29-2.94-.5-4.5-.53-4.62-.08-9.24-.1-13.86-.07-1.76.01-3.53.03-5.29.06-3.72.06-7.44.15-11.16.25-.79.02-1.9,1.4-1.82,2.24.07.7.18,1.39.22,2.08.28,4.22.39,8.45-.07,12.67-.13,1.22-1.56,2.83-2.64,2.97-.35.04-.68.23-1.03.23-9.17.2-18.33.36-27.49-.08-1.7-.08-3.35-1.75-3.45-3.42-.02-.35-.08-.7-.08-1.05-.02-2.82-.06-5.64-.03-8.46.04-3.29.94-4.36,4.14-5.06.69-.15,1.41-.17,2.08-.38,1.01-.32,1.94-.83,2.57-1.74.4-.58.81-1.16,1.1-1.8,7.53-16.72,15.04-33.45,22.54-50.18.28-.63.39-1.34.58-2.02.2-.72.16-1.43-.23-2.06-1.35-2.17-1.79-4.55-1.7-7.07.1-2.81.16-5.63.28-8.44.06-1.33,1.41-2.74,2.64-2.89.35-.04.69-.21,1.03-.21,8.81,0,17.63,0,26.44.04,1.95,0,3.22,1.18,4.08,2.86.48.94.99,1.87,1.43,2.83.88,1.92,1.72,3.87,2.59,5.8,8.39,18.65,16.79,37.3,25.19,55.95,1.01,2.25,2.04,4.5,3.19,6.68.68,1.28,1.87,2.04,3.33,2.36,1.36.31,2.75.59,4.04,1.11.57.23,1.04.95,1.32,1.56.28.62.36,1.37.38,2.06.12,3.52.29,7.04-.2,10.55Zm-42.81-39.2c-2.46-6.93-5.41-13.63-8.91-20.1-.15-.29-.51-.46-.75-.7-.61-.59-1.2-.54-1.77.17-.43.54-.97,1.05-1.25,1.66-2.61,5.73-5.18,11.47-7.74,17.23-.28.63-.35,1.35-.53,2.02-.15.53.33,1.2.65,1.57.56.66,1.21.73,2.02.76,1.07.05,2.15.08,3.22.12,1.56.05,3.12.08,4.68.11.59,0,1.17.02,1.76.02,1.24.01,2.49.01,3.73.01,1.13,0,2.39-.05,3.47-.45.8-.25,1.73-1.55,1.42-2.42Z"/>
      <path class="cls-2" d="m462.77,320.92c-1.22,7.07-4.02,13.47-8.46,19.12-3.99,5.07-8.92,8.96-14.77,11.7-3.52,1.65-7.18,2.97-10.97,3.77-5.51,1.16-11.08,2.15-16.74,2.16-14.44.03-28.88,0-43.32-.03-.69,0-1.38-.25-2.07-.37-.72-.13-1.93-1.39-2.1-2.17-.07-.34-.28-.67-.3-1.01-.27-4.22-.46-8.43.18-12.64.1-.67,1.38-2.04,2.09-2.17,1.72-.32,3.44-.65,5.16-.96.74-.14,1.96-1.47,2.05-2.18.1-.7.32-1.39.32-2.08.02-15.85.03-31.7.02-47.54,0-.7-.18-1.39-.26-2.09-.09-.84-1.13-2.15-1.9-2.3-1.72-.32-3.43-.67-5.15-1-1.15-.22-2.36-1.79-2.49-3.07-.4-3.87-.29-7.73-.08-11.6.1-1.77,1.63-3.5,3.24-3.6,1.75-.11,3.51-.25,5.26-.26,6.69-.03,13.38-.01,20.08-.01v.02c6.34,0,12.68-.01,19.02,0,6.02.01,11.94.73,17.78,2.21,5.15,1.31,10.07,3.17,14.59,6,10.81,6.76,17.06,16.52,19.03,29.07,1.1,7.02.99,14.05-.22,21.04Zm-23.27-22.61c-2.04-5.89-5.89-10.31-11.45-13.17-2.82-1.45-5.81-2.53-8.94-3.01-6.62-1.02-13.27-1.16-19.93-.39-1.13.13-2.47,1.63-2.58,2.94-.15,1.74-.35,3.49-.36,5.23-.04,6.67-.02,13.34-.02,20.01h-.01c0,5.62,0,11.23,0,16.85,0,2.11.03,4.21.08,6.32.02.7.13,1.4.19,2.1.14,1.57,1.9,3.33,3.5,3.36,4.56.08,9.12.19,13.67.12,3.89-.05,7.68-.97,11.3-2.32,7.32-2.74,12.44-7.72,14.86-15.27,2.44-7.62,2.3-15.22-.31-22.75Z"/>
      <path class="cls-2" d="m578.15,354.13c-.14,1.62-1.85,3.41-3.45,3.42-7.04.04-14.08.05-21.12.02-1.48,0-2.74-.75-3.67-1.83-1.38-1.59-2.66-3.28-3.91-4.98-4.15-5.69-8.24-11.42-12.39-17.12-1.03-1.42-2.15-2.78-3.28-4.13-.95-1.13-2.26-1.66-3.69-1.83-3.16-.36-6.32-.3-9.49,0-1.63.16-3.16,1.78-3.22,3.63-.05,1.4.03,2.8.13,4.2.09,1.29,1.42,2.7,2.63,2.92,1.72.32,3.45.61,5.15.98.68.15,1.14.72,1.41,1.43.12.32.27.65.31.99.46,4.21.43,8.42.03,12.64-.12,1.24-1.5,2.74-2.68,2.89-.7.09-1.39.29-2.08.29-10.56.03-21.13.03-31.7.02-.7,0-1.39-.17-2.09-.23-1.29-.1-2.81-1.46-2.96-2.59-.61-4.56-.63-9.11.02-13.66.08-.57,1.53-1.91,2.26-2.02,1.39-.2,2.78-.36,4.17-.6,1.71-.29,3.02-1.89,3.13-3.71.04-.7.14-1.4.14-2.1,0-15.15,0-30.29-.02-45.43,0-1.05-.21-2.1-.32-3.15-.07-.6-1.43-2.03-2.12-2.16-1.72-.34-3.44-.64-5.15-.99-.81-.16-1.97-1.42-2.07-2.17-.14-1.04-.4-2.09-.39-3.13.02-3.51-.37-7.04.4-10.52.17-.75,1.34-2.03,2.11-2.13,1.39-.18,2.78-.46,4.17-.47,8.1-.04,16.2-.02,24.3-.02,6.69,0,13.38-.03,20.08,0,6.01.03,11.94.69,17.78,2.18,2.75.7,5.39,1.66,7.9,2.95,5.94,3.06,9.91,7.82,11.84,14.2,2.3,7.59,2.41,15.24.41,22.94-1.56,6.02-4.67,10.98-9.69,14.68-1.41,1.04-2.95,1.91-4.41,2.9-1.44.98-1.72,3.07-.58,4.65,2.27,3.13,4.56,6.26,6.92,9.33,1.12,1.46,2.69,2.19,4.56,2.25,2.46.08,4.93.18,7.39.31,1.68.09,3.13,1.72,3.27,3.54.28,3.87.3,7.73-.03,11.6Zm-29.16-63.61c-.78-4.16-3.23-6.96-7.26-8.18-1.99-.6-4.11-.94-6.19-1.08-5.95-.41-11.9-.4-17.85-.02-2.13.13-3.74,1.89-3.79,4.25-.06,3.15-.01,6.3-.01,9.46-.09,0-.17,0-.26,0,.14,3.5.26,6.99.43,10.49.08,1.6,1.85,3.29,3.52,3.31,5.25.06,10.51.11,15.76.05,2.82-.03,5.56-.67,8.22-1.61,3.97-1.4,6.3-4.31,7.28-8.31.68-2.75.68-5.56.16-8.35Z"/>
      <path class="cls-2" d="m639.23,344.41c.04,2.47.03,4.94.01,7.41,0,.7-.1,1.41-.14,2.11-.12,1.75-1.7,3.49-3.29,3.59-1.41.09-2.81.21-4.22.22-1.61,0-3.23.01-4.84.02-1.6,0-3.2.02-4.79,0-1.31-.01-2.62-.02-3.92-.03-.07,0-.13,0-.2,0-1.53-.01-3.06-.02-4.59-.01-1.61,0-3.23,0-4.85,0-1.61,0-3.23,0-4.84-.02-.18,0-.36,0-.53,0-1.05,0-2.1-.23-3.15-.35-.58-.06-2.03-1.54-2.15-2.15-.91-4.54-.77-9.09-.13-13.64.12-.84,1.17-2.12,1.94-2.28,1.72-.36,3.48-.59,5.16-1.09.58-.17,1.08-.9,1.41-1.49.33-.6.48-1.33.57-2.02.12-1.05.16-2.11.16-3.17.01-14.11.01-28.22,0-42.33,0-1.06-.06-2.11-.11-3.17-.11-2.53-1.24-3.88-3.66-4.34-1.04-.2-2.09-.31-3.12-.53-1.2-.25-2.43-1.78-2.54-3.06-.03-.35-.13-.7-.13-1.04,0-3.52-.03-7.05.06-10.57.07-2.43,1.83-3.76,4.23-3.77,10.93-.05,21.87-.03,32.8-.04.35,0,.7.06,1.06.08,1.75.1,3.35,1.63,3.56,3.27.49,3.87.33,7.74.12,11.61-.1,1.76-1.5,3.41-3.17,3.71-1.38.24-2.78.43-4.17.64-.81.12-2.04,1.38-2.13,2.09-.09.7-.3,1.39-.3,2.09-.02,15.87-.03,31.74,0,47.62,0,1.02.28,2.1.67,3.05.23.57.86,1.16,1.44,1.37.97.36,2.04.51,3.09.62,3.58.35,4.64,1.66,4.7,5.61Z"/>
      <path class="cls-2" d="m758.79,320.92c-1.22,7.07-4.02,13.47-8.46,19.12-3.99,5.07-8.92,8.96-14.77,11.7-3.52,1.65-7.18,2.97-10.97,3.77-5.51,1.16-11.08,2.15-16.74,2.16-14.44.03-28.88,0-43.32-.03-.69,0-1.38-.25-2.07-.37-.72-.13-1.93-1.39-2.1-2.17-.07-.34-.28-.67-.3-1.01-.27-4.22-.46-8.43.18-12.64.1-.67,1.38-2.04,2.09-2.17,1.72-.32,3.44-.65,5.16-.96.74-.14,1.96-1.47,2.05-2.18.1-.7.32-1.39.32-2.08.02-15.85.03-31.7.02-47.54,0-.7-.18-1.39-.26-2.09-.09-.84-1.13-2.15-1.9-2.3-1.72-.32-3.43-.67-5.15-1-1.15-.22-2.36-1.79-2.49-3.07-.4-3.87-.29-7.73-.08-11.6.1-1.77,1.63-3.5,3.24-3.6,1.75-.11,3.51-.25,5.26-.26,6.69-.03,13.38-.01,20.08-.01v.02c6.34,0,12.68-.01,19.02,0,6.02.01,11.94.73,17.78,2.21,5.15,1.31,10.07,3.17,14.59,6,10.81,6.76,17.06,16.52,19.03,29.07,1.1,7.02.99,14.05-.22,21.04Zm-23.27-22.61c-2.04-5.89-5.89-10.31-11.45-13.17-2.82-1.45-5.81-2.53-8.94-3.01-6.62-1.02-13.27-1.16-19.93-.39-1.13.13-2.47,1.63-2.58,2.94-.15,1.74-.35,3.49-.36,5.23-.04,6.67-.02,13.34-.02,20.01h-.01c0,5.62,0,11.23,0,16.85,0,2.11.03,4.21.08,6.32.02.7.13,1.4.19,2.1.14,1.57,1.9,3.33,3.5,3.36,4.56.08,9.12.19,13.67.12,3.89-.05,7.68-.97,11.3-2.32,7.32-2.74,12.44-7.72,14.86-15.27,2.44-7.62,2.3-15.22-.31-22.75Z"/>
    </g>
  </g>
</svg>